<svg width="1440" height="541" viewBox="0 0 1440 541" fill="none" xmlns="http://www.w3.org/2000/svg">
<g clip-path="url(#clip0)">
<path d="M1440 0H0V541H1440V0Z" fill="#FEA621"/>
<path d="M1261.9 738.1H1239.2C1233.4 738.1 1228.6 733.5 1228.3 727.7L1217.8 506.7C1217.5 500.5 1222.5 495.3 1228.7 495.3H1269C1275.2 495.3 1280.1 500.4 1279.9 506.6L1272.9 727.6C1272.7 733.4 1267.8 738.1 1261.9 738.1Z" fill="#C87529"/>
<path d="M1193.8 738H1171.1C1165.2 738 1160.4 733.3 1160.2 727.4L1152.8 506.4C1152.6 500.2 1157.5 495.1 1163.7 495.1L1204 495C1210.2 495 1215.2 500.2 1214.9 506.4L1204.8 727.4C1204.4 733.4 1199.6 738 1193.8 738Z" fill="#9E703E"/>
<path d="M1168 531.5H1262.9C1272.1 531.5 1279.6 524 1279.6 514.8V469.3C1279.6 460.1 1272.1 452.6 1262.9 452.6H1168C1158.8 452.6 1151.3 460.1 1151.3 469.3V514.8C1151.4 524 1158.8 531.5 1168 531.5Z" fill="#C87529"/>
<path d="M1345.8 513.4L1330.4 517.9C1325.8 519.2 1321 516.6 1319.7 512L1262.2 313.2C1260.9 308.6 1263.5 303.8 1268.1 302.5L1283.5 298C1288.1 296.7 1292.9 299.3 1294.2 303.9L1351.7 502.7C1353 507.3 1350.4 512.1 1345.8 513.4Z" fill="#FCAC7D"/>
<path d="M1278.3 333.4C1291.78 333.4 1302.7 322.476 1302.7 309C1302.7 295.524 1291.78 284.6 1278.3 284.6C1264.82 284.6 1253.9 295.524 1253.9 309C1253.9 322.476 1264.82 333.4 1278.3 333.4Z" fill="#C2000B"/>
<path d="M1338.4 480.9L1319.3 486.4C1313.6 488.1 1307.6 484.8 1305.8 479.1L1255.5 317C1253.7 311.2 1257 305 1262.9 303.3L1288.3 296C1294.2 294.3 1300.3 297.8 1301.9 303.7L1346 467.7C1347.5 473.3 1344.2 479.2 1338.4 480.9Z" fill="#C2000B"/>
<path d="M1268.7 289.8H1162.4C1155.5 289.8 1149.9 295.4 1149.9 302.3V500.6C1149.9 507.5 1155.5 513.1 1162.4 513.1H1268.7C1275.6 513.1 1281.2 507.5 1281.2 500.6V302.3C1281.2 295.4 1275.6 289.8 1268.7 289.8Z" fill="#C2000B"/>
<path d="M1236.2 267V300.3C1236.2 310.1 1228.3 318 1218.5 318H1215C1205.2 318 1197.3 310.1 1197.3 300.3V267H1236.2Z" fill="#FB8F72"/>
<path d="M1254.7 238.2H1179.6C1174.4 238.2 1170.2 234 1170.2 228.8V192C1170.2 186.8 1174.4 182.6 1179.6 182.6H1254.7C1259.9 182.6 1264.1 186.8 1264.1 192V228.8C1264.1 234 1259.9 238.2 1254.7 238.2Z" fill="black"/>
<path d="M1179 250.1V229C1179 229 1172.9 222.1 1164.8 225.4" fill="#FB8F72"/>
<path d="M1256.3 227.2C1256.3 227.2 1262.6 220.1 1271.1 223.4C1280.3 227 1275.9 257.4 1256.3 249.1V227.2Z" fill="#FB8F72"/>
<path d="M1179.2 227.2C1179.2 227.2 1172.9 220.1 1164.4 223.4C1155.2 227 1159.6 257.4 1179.2 249.1V227.2Z" fill="#FB8F72"/>
<path d="M1248.3 274L1243.7 278.3C1237.3 284.3 1228.3 287.7 1218.9 287.7C1210.3 287.7 1202.1 284.9 1195.8 279.8L1189 274.3C1181.6 268.3 1177.4 259.9 1177.4 251.1V197.5H1258V252.4C1258.1 260.4 1254.6 268.1 1248.3 274Z" fill="#FCAC7D"/>
<path d="M1187.2 175.3L1191.8 171C1198.2 165 1207.2 161.6 1216.6 161.6C1225.2 161.6 1233.4 164.4 1239.7 169.5L1246.5 175C1253.9 181 1258.1 189.4 1258.1 198.2V251.8H1177.5V196.9C1177.5 188.9 1180.9 181.2 1187.2 175.3Z" fill="#FCAC7D"/>
<path d="M1223.3 244.6H1212.3C1211.6 244.6 1211 244 1211 243.3V240.7C1211 240 1211.6 239.4 1212.3 239.4H1223.3C1224 239.4 1224.6 240 1224.6 240.7V243.3C1224.6 244 1224 244.6 1223.3 244.6Z" fill="#FB8F72"/>
<path d="M1200.2 230.9C1202.19 230.9 1203.8 229.288 1203.8 227.3C1203.8 225.312 1202.19 223.7 1200.2 223.7C1198.21 223.7 1196.6 225.312 1196.6 227.3C1196.6 229.288 1198.21 230.9 1200.2 230.9Z" fill="#110E0F"/>
<path d="M1237.1 231.1C1239.09 231.1 1240.7 229.488 1240.7 227.5C1240.7 225.512 1239.09 223.9 1237.1 223.9C1235.11 223.9 1233.5 225.512 1233.5 227.5C1233.5 229.488 1235.11 231.1 1237.1 231.1Z" fill="#110E0F"/>
<path d="M1233 259.3C1233.3 260.1 1232.7 261.5 1228.3 264.5C1226.4 265.3 1223.3 266.4 1219.4 266.6C1214.4 266.8 1210.4 265.4 1208.4 264.5C1203.3 261.5 1202.4 260.1 1202.6 259.3C1203 257.9 1207 258.3 1218.3 258.3C1228.7 258.2 1232.5 257.8 1233 259.3Z" fill="#FB8F72"/>
<path d="M1243 211.9H1231C1230.3 211.9 1229.7 211.3 1229.7 210.6V208C1229.7 207.3 1230.3 206.7 1231 206.7H1243C1243.7 206.7 1244.3 207.3 1244.3 208V210.6C1244.4 211.3 1243.8 211.9 1243 211.9Z" fill="black"/>
<path d="M1206.3 211.9H1194.3C1193.6 211.9 1193 211.3 1193 210.6V208C1193 207.3 1193.6 206.7 1194.3 206.7H1206.3C1207 206.7 1207.6 207.3 1207.6 208V210.6C1207.7 211.3 1207.1 211.9 1206.3 211.9Z" fill="black"/>
<path d="M1203.8 247.7H1187.9C1183.2 247.7 1179.3 243.9 1179.3 239.1V218.8C1179.3 216.4 1181.2 214.5 1183.6 214.5H1208.2C1210.6 214.5 1212.5 216.4 1212.5 218.8V239.1C1212.4 243.9 1208.5 247.7 1203.8 247.7Z" stroke="#141112" stroke-width="2" stroke-miterlimit="10" stroke-linecap="round" stroke-linejoin="round"/>
<path d="M1249.5 247.4H1233.6C1228.9 247.4 1225 243.6 1225 238.8V218.5C1225 216.1 1226.9 214.2 1229.3 214.2H1253.9C1256.3 214.2 1258.2 216.1 1258.2 218.5V238.8C1258.1 243.6 1254.2 247.4 1249.5 247.4Z" stroke="#141112" stroke-width="2" stroke-miterlimit="10" stroke-linecap="round" stroke-linejoin="round"/>
<path d="M1212.4 226.5H1224.9" stroke="#141112" stroke-width="2" stroke-miterlimit="10" stroke-linecap="round" stroke-linejoin="round"/>
<path d="M1251.3 223.4C1252.35 223.4 1253.2 222.549 1253.2 221.5C1253.2 220.451 1252.35 219.6 1251.3 219.6C1250.25 219.6 1249.4 220.451 1249.4 221.5C1249.4 222.549 1250.25 223.4 1251.3 223.4Z" fill="white"/>
<path d="M1251.3 227.3V233.3" stroke="white" stroke-width="2" stroke-miterlimit="10" stroke-linecap="round" stroke-linejoin="round"/>
<path d="M1185.5 223.4C1186.55 223.4 1187.4 222.549 1187.4 221.5C1187.4 220.451 1186.55 219.6 1185.5 219.6C1184.45 219.6 1183.6 220.451 1183.6 221.5C1183.6 222.549 1184.45 223.4 1185.5 223.4Z" fill="white"/>
<path d="M1185.5 227.3V233.3" stroke="white" stroke-width="2" stroke-miterlimit="10" stroke-linecap="round" stroke-linejoin="round"/>
<path d="M1221.1 329.6L1217.6 331.6C1216.5 332.2 1215.2 331.8 1214.6 330.8L1190.1 288.4C1189.5 287.3 1189.9 286 1190.9 285.4L1194.4 283.4C1195.5 282.8 1196.8 283.2 1197.4 284.2L1221.9 326.6C1222.5 327.7 1222.1 329 1221.1 329.6Z" fill="#C2000B"/>
<path d="M1207.2 318.1L1194.9 325.2C1189.4 328.4 1182.6 324.5 1182.4 318.2L1181.7 295.7C1181.6 292.6 1183.2 289.8 1185.9 288.2L1188.9 286.4C1192.9 284.1 1198 285.5 1200.3 289.4L1210.2 306.6C1212.6 310.7 1211.2 315.8 1207.2 318.1Z" fill="#C2000B"/>
<path d="M1213.3 329.6L1216.8 331.6C1217.9 332.2 1219.2 331.8 1219.8 330.8L1244.3 288.4C1244.9 287.3 1244.5 286 1243.5 285.4L1240 283.4C1238.9 282.8 1237.6 283.2 1237 284.2L1212.5 326.6C1211.9 327.7 1212.2 329 1213.3 329.6Z" fill="#C2000B"/>
<path d="M1227.1 318.1L1239.4 325.2C1244.9 328.4 1251.7 324.5 1251.9 318.2L1252.6 295.7C1252.7 292.6 1251.1 289.8 1248.4 288.2L1245.4 286.4C1241.4 284.1 1236.3 285.5 1234 289.4L1224.1 306.6C1221.8 310.7 1223.1 315.8 1227.1 318.1Z" fill="#C2000B"/>
<path d="M1065.9 185.5C1051.4 206.6 1053.6 237.3 1062.6 252.3C1086 291.1 1115.8 287.1 1121.3 285.7C1121.3 285.7 1121.3 285.7 1121.4 285.7C1122.5 285.4 1123.2 285.1 1123.4 285.1C1123.5 285.1 1123.7 285 1124.1 284.9C1124.1 284.9 1124.1 284.9 1124.2 284.9C1126.3 284 1132.2 260.3 1113.5 261.8C1108.7 262.2 1094.9 252.1 1091.6 248.2C1091.2 247.7 1090.8 247.2 1090.4 246.7C1077.9 230.5 1080.6 210 1086.2 197C1092.4 182.4 1072 176.6 1065.9 185.5Z" fill="#F7B992"/>
<path d="M1079.6 273.1L1102.1 243.3C1103.5 241.5 1106 241.2 1107.8 242.5L1111.3 245.3L1167.2 289.7L1139.8 325.8L1083.4 281.1L1080.3 278.6C1078.6 277.4 1078.3 274.9 1079.6 273.1Z" fill="#C2000B"/>
<path d="M1174.9 300.1C1170.6 288.3 1157.6 282.3 1145.9 286.6C1134.1 290.9 1128.1 303.9 1132.4 315.6C1136.7 327.4 1149.7 333.4 1161.4 329.1C1173.1 324.9 1179.1 311.9 1174.9 300.1Z" fill="#C2000B"/>
<path d="M1188.2 193.5C1188.2 193.5 1240 216.2 1257.7 195.4C1282.5 166.2 1196.7 145.1 1186.1 162.6C1186.1 162.6 1157.3 166.9 1171.7 215C1171.7 215 1179.2 214.4 1180.7 219.7C1182.2 225.1 1191.1 203.7 1188.2 193.5Z" fill="#110E0F"/>
<path d="M1150.98 159.31C1193.59 132.554 1225.11 106.048 1221.38 100.107C1217.64 94.1673 1180.08 111.042 1137.47 137.799C1094.86 164.555 1063.34 191.061 1067.07 197.001C1070.8 202.942 1108.37 186.067 1150.98 159.31Z" fill="#E5E5E5"/>
<path d="M1198.4 114.5L1090 182.6C1074.8 148.5 1082.5 110.6 1109.7 93.5001C1136.9 76.4001 1174.3 86.1001 1198.4 114.5Z" fill="#E5E5E5"/>
<path d="M1348.8 33L1339.8 30.5L1339.7 30.4C1339.9 25.2 1339.4 20.3 1337.6 14.6L1345.6 9.99996C1347.4 8.99996 1348.7 6.89996 1347.7 5.09996L1339.7 -8.90004C1338.7 -10.7 1336 -10.9 1334.2 -9.90004L1326.2 -5.30004C1322.9 -8.80004 1318.5 -12.4 1313.8 -15L1316.2 -24C1316.7 -26 1315.6 -28 1313.6 -28.6L1298 -32.8C1296 -33.3 1294 -32.2 1293.4 -30.2L1291 -21.2C1285.8 -21.4 1281.2 -21.1 1275.5 -19.3L1270.9 -27.3C1269.9 -29.1 1267.4 -29.8 1265.6 -28.8L1251.6 -20.8C1249.8 -19.8 1250 -17.7 1251 -16L1255.6 -8.00004C1251.1 -4.10004 1248.2 -0.10004 1245.6 4.59996L1236.3 2.39996C1234.3 1.89996 1232.3 2.99996 1231.7 4.99996L1227.5 20.6C1227 22.6 1228.2 24.7 1230.1 25.2L1239.1 27.6H1239.2C1239 32.8 1239.4 37.5 1241.2 43.2L1233.2 47.8C1231.4 48.8 1231.1 50.7 1232.2 52.5L1240.2 66.5C1241.2 68.3 1242.8 68.8 1244.6 67.7L1252.6 63.1C1256.5 67.6 1260.4 70.4 1265.1 72.9L1262.8 82.1C1262.3 84.1 1263.5 86.1 1265.4 86.7L1281 90.9C1283 91.4 1285.1 90.2 1285.6 88.2L1288.1 79.2L1288.3 79.1C1293.5 79.3 1298.5 78.8 1304.2 76.9L1308.8 85C1309.8 86.8 1311.2 87.7 1313 86.7L1327 78.7C1328.8 77.7 1329.7 75.4 1328.7 73.7L1324.1 65.6C1328.6 61.7 1331.1 57.9 1333.6 53.3L1342.5 55.8C1344.5 56.3 1346.5 55.1 1347.1 53.2L1351.3 37.6C1352 35.6 1350.8 33.5 1348.8 33ZM1312.7 30.2C1312.7 30.6 1312.7 31 1312.6 31.3C1312.5 32.2 1312.4 33.1 1312.2 34.1C1312.1 34.5 1312 34.8 1311.9 35.2C1311.8 35.7 1311.6 36.3 1311.4 36.8C1311.3 37.2 1311.1 37.5 1311 37.8C1310.9 38 1310.9 38.1 1310.8 38.3C1310.7 38.6 1310.5 39 1310.3 39.3C1310.1 39.8 1309.8 40.3 1309.5 40.8C1309.3 41.1 1309.1 41.4 1308.9 41.8C1307 44.8 1304.3 47.4 1301 49.3C1298.2 50.9 1295.2 51.9 1292.2 52.2C1291.8 52.2 1291.4 52.3 1291.1 52.3C1290 52.4 1288.8 52.4 1287.7 52.3C1287.3 52.3 1286.9 52.2 1286.6 52.2C1286.4 52.2 1286.2 52.2 1286 52.1C1285.4 52 1284.9 51.9 1284.4 51.8C1278.2 50.4 1272.6 46.6 1269.2 40.7C1267.6 37.9 1266.6 34.9 1266.3 31.8C1266.1 30.5 1266.1 29.2 1266.2 27.9C1266.2 27.5 1266.3 27 1266.3 26.6C1266.4 25.5 1266.6 24.5 1266.9 23.4C1267.2 22.4 1267.5 21.3 1267.9 20.3C1268 20.1 1268 20 1268.1 19.8C1268.2 19.5 1268.4 19.1 1268.6 18.8C1268.8 18.5 1268.9 18.1 1269.1 17.8C1269.5 17.1 1269.9 16.5 1270.3 15.9C1270.4 15.7 1270.6 15.5 1270.7 15.3C1270.9 15.1 1271 14.9 1271.2 14.7C1273 12.4 1275.2 10.5 1277.9 8.89996C1281.2 6.99996 1284.8 5.99996 1288.3 5.79996C1288.7 5.79996 1289.1 5.79996 1289.4 5.79996H1290C1290.4 5.79996 1290.8 5.79996 1291.1 5.89996C1291.5 5.89996 1291.9 5.89996 1292.2 5.99996C1292.4 5.99996 1292.6 5.99996 1292.8 6.09996C1293.5 6.19996 1294.3 6.29996 1295 6.49996C1295.2 6.49996 1295.4 6.59996 1295.6 6.59996C1296 6.69996 1296.3 6.79996 1296.7 6.89996C1296.9 6.89996 1297.1 6.99996 1297.2 7.09996C1297.5 7.19996 1297.9 7.29996 1298.2 7.49996C1298.4 7.59996 1298.5 7.59996 1298.7 7.69996C1298.9 7.79996 1299.2 7.89996 1299.4 7.99996C1299.7 8.09996 1299.9 8.29996 1300.2 8.39996C1300.5 8.59996 1300.9 8.79996 1301.2 8.89996C1301.6 9.19996 1302.1 9.39996 1302.5 9.69996C1302.7 9.79996 1302.9 9.99996 1303.1 10.1C1303.4 10.3 1303.7 10.5 1304 10.8C1304.5 11.2 1304.9 11.5 1305.3 11.9C1305.6 12.2 1305.9 12.4 1306.1 12.7C1307.4 14.1 1308.6 15.6 1309.6 17.4C1311.4 20.5 1312.4 23.9 1312.6 27.3C1312.6 27.9 1312.7 28.4 1312.7 29C1312.7 29.4 1312.7 29.8 1312.7 30.2Z" fill="white" stroke="white" stroke-miterlimit="10"/>
<path d="M1487.5 123.3L1478.5 120.8L1478.4 120.7C1478.6 115.5 1478.1 110.6 1476.3 104.9L1484.3 100.3C1486.1 99.3 1487.4 97.2 1486.4 95.4L1478.4 81.4C1477.4 79.6 1474.7 79.4 1472.9 80.4L1464.9 85C1461.6 81.5 1457.2 77.9 1452.5 75.3L1454.9 66.3C1455.4 64.3 1454.3 62.3 1452.3 61.7L1436.7 57.5C1434.7 57 1432.7 58.1 1432.1 60.1L1429.7 69.1C1424.5 68.9 1419.9 69.2 1414.2 71L1409.6 63C1408.6 61.2 1406.1 60.5 1404.3 61.5L1390.3 69.5C1388.5 70.5 1388.7 72.6 1389.7 74.3L1394.3 82.3C1389.8 86.2 1386.9 90.2 1384.3 94.9L1375 92.7C1373 92.2 1371 93.3 1370.4 95.3L1366.2 110.9C1365.7 112.9 1366.9 115 1368.8 115.5L1377.8 117.9H1377.9C1377.7 123.1 1378.1 127.8 1379.9 133.5L1371.9 138.1C1370.1 139.1 1369.8 141 1370.9 142.8L1378.9 156.8C1379.9 158.6 1381.5 159.1 1383.3 158L1391.3 153.4C1395.2 157.9 1399.1 160.7 1403.8 163.2L1401.5 172.4C1401 174.4 1402.2 176.4 1404.1 177L1419.7 181.2C1421.7 181.7 1423.8 180.5 1424.3 178.5L1426.8 169.5L1427 169.4C1432.2 169.6 1437.2 169.1 1442.9 167.2L1447.5 175.3C1448.5 177.1 1449.9 178 1451.7 177L1465.7 169C1467.5 168 1468.4 165.7 1467.4 164L1462.8 155.9C1467.3 152 1469.8 148.2 1472.3 143.6L1481.2 146.1C1483.2 146.6 1485.2 145.4 1485.8 143.5L1490 127.9C1490.7 125.9 1489.5 123.8 1487.5 123.3ZM1451.4 120.5C1451.4 120.9 1451.4 121.3 1451.3 121.6C1451.2 122.5 1451.1 123.4 1450.9 124.4C1450.8 124.8 1450.7 125.1 1450.6 125.5C1450.5 126 1450.3 126.6 1450.1 127.1C1450 127.5 1449.8 127.8 1449.7 128.1C1449.6 128.3 1449.6 128.4 1449.5 128.6C1449.4 128.9 1449.2 129.3 1449 129.6C1448.8 130.1 1448.5 130.6 1448.2 131.1C1448 131.4 1447.8 131.7 1447.6 132.1C1445.7 135.1 1443 137.7 1439.7 139.6C1436.9 141.2 1433.9 142.2 1430.9 142.5C1430.5 142.5 1430.1 142.6 1429.8 142.6C1428.7 142.7 1427.5 142.7 1426.4 142.6C1426 142.6 1425.6 142.5 1425.3 142.5C1425.1 142.5 1424.9 142.5 1424.7 142.4C1424.1 142.3 1423.6 142.2 1423.1 142.1C1416.9 140.7 1411.3 136.9 1407.9 131C1406.3 128.2 1405.3 125.2 1405 122.1C1404.8 120.8 1404.8 119.5 1404.9 118.2C1404.9 117.8 1405 117.3 1405 116.9C1405.1 115.8 1405.3 114.8 1405.6 113.7C1405.9 112.7 1406.2 111.6 1406.6 110.6C1406.7 110.4 1406.7 110.3 1406.8 110.1C1406.9 109.8 1407.1 109.4 1407.3 109.1C1407.5 108.8 1407.6 108.4 1407.8 108.1C1408.2 107.4 1408.6 106.8 1409 106.2C1409.1 106 1409.3 105.8 1409.4 105.6C1409.6 105.4 1409.7 105.2 1409.9 105C1411.7 102.7 1413.9 100.8 1416.6 99.2C1419.9 97.3 1423.5 96.3 1427 96.1C1427.4 96.1 1427.8 96.1 1428.1 96.1H1428.7C1429.1 96.1 1429.5 96.1 1429.8 96.2C1430.2 96.2 1430.6 96.2 1430.9 96.3C1431.1 96.3 1431.3 96.3 1431.5 96.4C1432.2 96.5 1433 96.6 1433.7 96.8C1433.9 96.8 1434.1 96.9 1434.3 96.9C1434.7 97 1435 97.1 1435.4 97.2C1435.6 97.2 1435.8 97.3 1435.9 97.4C1436.2 97.5 1436.6 97.6 1436.9 97.8C1437.1 97.9 1437.2 97.9 1437.4 98C1437.6 98.1 1437.9 98.2 1438.1 98.3C1438.4 98.4 1438.6 98.6 1438.9 98.7C1439.2 98.9 1439.6 99.1 1439.9 99.2C1440.3 99.5 1440.8 99.7 1441.2 100C1441.4 100.1 1441.6 100.3 1441.8 100.4C1442.1 100.6 1442.4 100.8 1442.7 101.1C1443.2 101.5 1443.6 101.8 1444 102.2C1444.3 102.5 1444.6 102.7 1444.8 103C1446.1 104.4 1447.3 105.9 1448.3 107.7C1450.1 110.8 1451.1 114.2 1451.3 117.6C1451.3 118.2 1451.4 118.7 1451.4 119.3C1451.4 119.7 1451.4 120.1 1451.4 120.5Z" fill="white" stroke="white" stroke-miterlimit="10"/>
<path d="M1487.5 -29.1L1478.5 -31.6L1478.4 -31.7C1478.6 -36.9 1478.1 -41.8 1476.3 -47.5L1484.3 -52.1C1486.1 -53.1 1487.4 -55.2 1486.4 -57L1478.4 -71C1477.4 -72.8 1474.7 -73 1472.9 -72L1464.9 -67.4C1461.6 -70.9 1457.2 -74.5 1452.5 -77.1L1454.9 -86.1C1455.4 -88.1 1454.3 -90.1 1452.3 -90.7L1436.7 -94.9C1434.7 -95.4 1432.7 -94.3 1432.1 -92.3L1429.7 -83.3C1424.5 -83.5 1419.9 -83.2 1414.2 -81.4L1409.6 -89.4C1408.6 -91.2 1406.1 -91.9 1404.3 -90.9L1390.3 -82.9C1388.5 -81.9 1388.7 -79.8 1389.7 -78.1L1394.3 -70.1C1389.8 -66.2 1386.9 -62.2 1384.3 -57.5L1375 -59.7C1373 -60.2 1371 -59.1 1370.4 -57.1L1366.2 -41.5C1365.7 -39.5 1366.9 -37.4 1368.8 -36.9L1377.8 -34.5H1377.9C1377.7 -29.3 1378.1 -24.6 1379.9 -18.9L1371.9 -14.3C1370.1 -13.3 1369.8 -11.4 1370.9 -9.60001L1378.9 4.39999C1379.9 6.19999 1381.5 6.69998 1383.3 5.59998L1391.3 0.999985C1395.2 5.49998 1399.1 8.29999 1403.8 10.8L1401.5 20C1401 22 1402.2 24 1404.1 24.6L1419.7 28.8C1421.7 29.3 1423.8 28.1 1424.3 26.1L1426.8 17.1L1427 17C1432.2 17.2 1437.2 16.7 1442.9 14.8L1447.5 22.9C1448.5 24.7 1449.9 25.6 1451.7 24.6L1465.7 16.6C1467.5 15.6 1468.4 13.3 1467.4 11.6L1462.8 3.49998C1467.3 -0.400017 1469.8 -4.20001 1472.3 -8.80001L1481.2 -6.30001C1483.2 -5.80001 1485.2 -7.00001 1485.8 -8.90001L1490 -24.5C1490.7 -26.5 1489.5 -28.6 1487.5 -29.1ZM1451.4 -31.9C1451.4 -31.5 1451.4 -31.1 1451.3 -30.8C1451.2 -29.9 1451.1 -29 1450.9 -28C1450.8 -27.6 1450.7 -27.3 1450.6 -26.9C1450.5 -26.4 1450.3 -25.8 1450.1 -25.3C1450 -24.9 1449.8 -24.6 1449.7 -24.3C1449.6 -24.1 1449.6 -24 1449.5 -23.8C1449.4 -23.5 1449.2 -23.1 1449 -22.8C1448.8 -22.3 1448.5 -21.8 1448.2 -21.3C1448 -21 1447.8 -20.7 1447.6 -20.3C1445.7 -17.3 1443 -14.7 1439.7 -12.8C1436.9 -11.2 1433.9 -10.2 1430.9 -9.90001C1430.5 -9.90001 1430.1 -9.80001 1429.8 -9.80001C1428.7 -9.70001 1427.5 -9.70001 1426.4 -9.80001C1426 -9.80001 1425.6 -9.90001 1425.3 -9.90001C1425.1 -9.90001 1424.9 -9.90002 1424.7 -10C1424.1 -10.1 1423.6 -10.2 1423.1 -10.3C1416.9 -11.7 1411.3 -15.5 1407.9 -21.4C1406.3 -24.2 1405.3 -27.2 1405 -30.3C1404.8 -31.6 1404.8 -32.9 1404.9 -34.2C1404.9 -34.6 1405 -35.1 1405 -35.5C1405.1 -36.6 1405.3 -37.6 1405.6 -38.7C1405.9 -39.7 1406.2 -40.8 1406.6 -41.8C1406.7 -42 1406.7 -42.1 1406.8 -42.3C1406.9 -42.6 1407.1 -43 1407.3 -43.3C1407.5 -43.6 1407.6 -44 1407.8 -44.3C1408.2 -45 1408.6 -45.6 1409 -46.2C1409.1 -46.4 1409.3 -46.6 1409.4 -46.8C1409.6 -47 1409.7 -47.2 1409.9 -47.4C1411.7 -49.7 1413.9 -51.6 1416.6 -53.2C1419.9 -55.1 1423.5 -56.1 1427 -56.3C1427.4 -56.3 1427.8 -56.3 1428.1 -56.3H1428.7C1429.1 -56.3 1429.5 -56.3 1429.8 -56.2C1430.2 -56.2 1430.6 -56.2 1430.9 -56.1C1431.1 -56.1 1431.3 -56.1 1431.5 -56C1432.2 -55.9 1433 -55.8 1433.7 -55.6C1433.9 -55.6 1434.1 -55.5 1434.3 -55.5C1434.7 -55.4 1435 -55.3 1435.4 -55.2C1435.6 -55.2 1435.8 -55.1 1435.9 -55C1436.2 -54.9 1436.6 -54.8 1436.9 -54.6C1437.1 -54.5 1437.2 -54.5 1437.4 -54.4C1437.6 -54.3 1437.9 -54.2 1438.1 -54.1C1438.4 -54 1438.6 -53.8 1438.9 -53.7C1439.2 -53.5 1439.6 -53.3 1439.9 -53.2C1440.3 -52.9 1440.8 -52.7 1441.2 -52.4C1441.4 -52.3 1441.6 -52.1 1441.8 -52C1442.1 -51.8 1442.4 -51.6 1442.7 -51.3C1443.2 -50.9 1443.6 -50.6 1444 -50.2C1444.3 -49.9 1444.6 -49.7 1444.8 -49.4C1446.1 -48 1447.3 -46.5 1448.3 -44.7C1450.1 -41.6 1451.1 -38.2 1451.3 -34.8C1451.3 -34.2 1451.4 -33.7 1451.4 -33.1C1451.4 -32.7 1451.4 -32.3 1451.4 -31.9Z" fill="white" stroke="white" stroke-miterlimit="10"/>
<path d="M148.434 131.386C155.886 131.386 161.572 133.098 165.491 136.52C169.411 139.887 171.37 145.076 171.37 152.087V177.01H156.714V171.214C154.451 175.575 150.035 177.756 143.466 177.756C139.988 177.756 136.98 177.148 134.441 175.934C131.901 174.72 129.969 173.091 128.644 171.049C127.375 168.951 126.74 166.577 126.74 163.928C126.74 159.677 128.368 156.393 131.625 154.074C134.882 151.701 139.905 150.514 146.695 150.514H155.638C155.362 145.766 152.188 143.393 146.116 143.393C143.963 143.393 141.782 143.752 139.574 144.469C137.366 145.132 135.489 146.07 133.944 147.284L128.644 136.603C131.128 134.947 134.137 133.677 137.67 132.794C141.258 131.856 144.846 131.386 148.434 131.386ZM147.854 167.819C149.676 167.819 151.277 167.378 152.657 166.495C154.037 165.611 155.031 164.314 155.638 162.603V158.711H148.848C144.266 158.711 141.976 160.229 141.976 163.265C141.976 164.645 142.5 165.749 143.549 166.577C144.598 167.405 146.033 167.819 147.854 167.819ZM181.301 115.571H197.033V177.01H181.301V115.571ZM226.384 131.386C233.837 131.386 239.522 133.098 243.442 136.52C247.361 139.887 249.321 145.076 249.321 152.087V177.01H234.665V171.214C232.401 175.575 227.985 177.756 221.416 177.756C217.939 177.756 214.93 177.148 212.391 175.934C209.852 174.72 207.92 173.091 206.595 171.049C205.325 168.951 204.69 166.577 204.69 163.928C204.69 159.677 206.319 156.393 209.576 154.074C212.833 151.701 217.856 150.514 224.646 150.514H233.588C233.312 145.766 230.138 143.393 224.066 143.393C221.913 143.393 219.733 143.752 217.525 144.469C215.317 145.132 213.44 146.07 211.894 147.284L206.595 136.603C209.079 134.947 212.087 133.677 215.62 132.794C219.208 131.856 222.796 131.386 226.384 131.386ZM225.805 167.819C227.627 167.819 229.227 167.378 230.607 166.495C231.987 165.611 232.981 164.314 233.588 162.603V158.711H226.799C222.217 158.711 219.926 160.229 219.926 163.265C219.926 164.645 220.45 165.749 221.499 166.577C222.548 167.405 223.983 167.819 225.805 167.819ZM290.219 175.189C288.894 176.017 287.266 176.652 285.334 177.093C283.457 177.535 281.442 177.756 279.289 177.756C273.438 177.756 268.939 176.32 265.792 173.45C262.646 170.579 261.073 166.301 261.073 160.616V145.546H254.531V133.788H261.073V122.113H276.805V133.788H287.073V145.546H276.805V160.45C276.805 162.051 277.219 163.32 278.047 164.259C278.93 165.142 280.09 165.584 281.525 165.584C283.347 165.584 284.947 165.114 286.327 164.176L290.219 175.189ZM348.618 131.386C352.703 131.386 356.401 132.352 359.713 134.284C363.081 136.161 365.73 138.866 367.662 142.399C369.65 145.877 370.643 149.934 370.643 154.571C370.643 159.208 369.65 163.293 367.662 166.826C365.73 170.303 363.081 173.008 359.713 174.94C356.401 176.817 352.703 177.756 348.618 177.756C343.374 177.756 339.206 176.182 336.115 173.036V193.074H320.382V132.132H335.37V136.603C338.295 133.125 342.711 131.386 348.618 131.386ZM345.306 165.252C348.066 165.252 350.329 164.314 352.096 162.437C353.862 160.505 354.745 157.883 354.745 154.571C354.745 151.259 353.862 148.664 352.096 146.788C350.329 144.856 348.066 143.89 345.306 143.89C342.546 143.89 340.282 144.856 338.516 146.788C336.75 148.664 335.866 151.259 335.866 154.571C335.866 157.883 336.75 160.505 338.516 162.437C340.282 164.314 342.546 165.252 345.306 165.252ZM392.943 137.514C394.544 135.471 396.614 133.953 399.153 132.96C401.747 131.911 404.701 131.386 408.013 131.386V145.546C406.578 145.38 405.391 145.297 404.452 145.297C401.085 145.297 398.435 146.208 396.503 148.03C394.627 149.851 393.688 152.639 393.688 156.393V177.01H377.956V132.132H392.943V137.514ZM433.309 131.386C440.761 131.386 446.447 133.098 450.366 136.52C454.285 139.887 456.245 145.076 456.245 152.087V177.01H441.589V171.214C439.326 175.575 434.91 177.756 428.341 177.756C424.863 177.756 421.855 177.148 419.315 175.934C416.776 174.72 414.844 173.091 413.519 171.049C412.25 168.951 411.615 166.577 411.615 163.928C411.615 159.677 413.243 156.393 416.5 154.074C419.757 151.701 424.78 150.514 431.57 150.514H440.513C440.237 145.766 437.063 143.393 430.99 143.393C428.838 143.393 426.657 143.752 424.449 144.469C422.241 145.132 420.364 146.07 418.819 147.284L413.519 136.603C416.003 134.947 419.012 133.677 422.545 132.794C426.133 131.856 429.721 131.386 433.309 131.386ZM432.729 167.819C434.551 167.819 436.152 167.378 437.532 166.495C438.912 165.611 439.905 164.314 440.513 162.603V158.711H433.723C429.141 158.711 426.85 160.229 426.85 163.265C426.85 164.645 427.375 165.749 428.424 166.577C429.472 167.405 430.908 167.819 432.729 167.819ZM486.545 161.278L481.908 165.998V177.01H466.176V115.571H481.908V147.781L497.972 132.132H516.602L497.972 151.342L518.175 177.01H499.131L486.545 161.278ZM553.908 175.189C552.583 176.017 550.955 176.652 549.023 177.093C547.146 177.535 545.131 177.756 542.978 177.756C537.127 177.756 532.628 176.32 529.482 173.45C526.335 170.579 524.762 166.301 524.762 160.616V145.546H518.22V133.788H524.762V122.113H540.494V133.788H550.762V145.546H540.494V160.45C540.494 162.051 540.908 163.32 541.736 164.259C542.62 165.142 543.779 165.584 545.214 165.584C547.036 165.584 548.636 165.114 550.016 164.176L553.908 175.189ZM559.975 132.132H575.707V177.01H559.975V132.132ZM567.841 127.164C564.97 127.164 562.652 126.363 560.886 124.762C559.119 123.161 558.236 121.174 558.236 118.8C558.236 116.427 559.119 114.44 560.886 112.839C562.652 111.238 564.97 110.437 567.841 110.437C570.711 110.437 573.03 111.21 574.796 112.756C576.563 114.246 577.446 116.178 577.446 118.552C577.446 121.036 576.563 123.106 574.796 124.762C573.03 126.363 570.711 127.164 567.841 127.164ZM606.301 161.278L601.664 165.998V177.01H585.931V115.571H601.664V147.781L617.727 132.132H636.358L617.727 151.342L637.931 177.01H618.887L606.301 161.278ZM129.307 216.571H145.039V278.01H129.307V216.571ZM201.136 255.654C201.136 255.764 201.053 257.061 200.887 259.546H168.263C168.926 261.864 170.195 263.658 172.072 264.928C174.004 266.142 176.405 266.749 179.276 266.749C181.429 266.749 183.278 266.446 184.824 265.838C186.424 265.231 188.025 264.238 189.626 262.858L197.906 271.469C193.545 276.327 187.17 278.756 178.779 278.756C173.535 278.756 168.926 277.762 164.951 275.775C160.977 273.787 157.885 271.027 155.677 267.495C153.524 263.962 152.448 259.96 152.448 255.488C152.448 251.072 153.497 247.125 155.595 243.648C157.747 240.115 160.701 237.355 164.454 235.367C168.208 233.38 172.431 232.386 177.123 232.386C181.594 232.386 185.652 233.325 189.295 235.202C192.938 237.023 195.809 239.701 197.906 243.233C200.059 246.711 201.136 250.851 201.136 255.654ZM177.206 243.565C174.777 243.565 172.735 244.255 171.079 245.635C169.478 247.015 168.456 248.892 168.015 251.265H186.397C185.955 248.892 184.906 247.015 183.25 245.635C181.65 244.255 179.635 243.565 177.206 243.565ZM237.618 232.386C243.194 232.386 247.665 234.042 251.032 237.355C254.455 240.667 256.166 245.662 256.166 252.342V278.01H240.434V254.909C240.434 248.781 237.977 245.718 233.064 245.718C230.359 245.718 228.179 246.601 226.523 248.367C224.922 250.134 224.122 252.783 224.122 256.316V278.01H208.389V233.132H223.376V238.017C225.143 236.195 227.241 234.815 229.669 233.877C232.098 232.883 234.748 232.386 237.618 232.386ZM314.964 233.132V269.813C314.964 278.148 312.701 284.386 308.174 288.526C303.648 292.722 297.134 294.819 288.633 294.819C284.217 294.819 280.077 294.322 276.213 293.329C272.348 292.335 269.064 290.872 266.359 288.94L272.072 277.928C273.894 279.418 276.185 280.577 278.945 281.405C281.76 282.288 284.52 282.73 287.225 282.73C291.365 282.73 294.401 281.819 296.334 279.998C298.266 278.176 299.232 275.471 299.232 271.883V270.393C296.195 273.925 291.752 275.692 285.9 275.692C281.926 275.692 278.255 274.809 274.888 273.042C271.52 271.221 268.843 268.681 266.856 265.424C264.869 262.112 263.875 258.303 263.875 253.998C263.875 249.747 264.869 245.994 266.856 242.737C268.843 239.425 271.52 236.885 274.888 235.119C278.255 233.297 281.926 232.386 285.9 232.386C292.304 232.386 296.996 234.456 299.977 238.597V233.132H314.964ZM289.627 263.189C292.442 263.189 294.76 262.333 296.582 260.622C298.459 258.911 299.397 256.703 299.397 253.998C299.397 251.293 298.486 249.112 296.665 247.456C294.843 245.745 292.497 244.89 289.627 244.89C286.756 244.89 284.382 245.745 282.506 247.456C280.684 249.112 279.773 251.293 279.773 253.998C279.773 256.703 280.712 258.911 282.588 260.622C284.465 262.333 286.811 263.189 289.627 263.189ZM345.442 262.278L340.805 266.998V278.01H325.072V216.571H340.805V248.781L356.868 233.132H375.499L356.868 252.342L377.072 278.01H358.028L345.442 262.278ZM400.156 232.386C407.608 232.386 413.294 234.098 417.213 237.52C421.132 240.887 423.092 246.076 423.092 253.087V278.01H408.436V272.214C406.173 276.575 401.757 278.756 395.188 278.756C391.71 278.756 388.701 278.148 386.162 276.934C383.623 275.72 381.691 274.091 380.366 272.049C379.096 269.951 378.462 267.577 378.462 264.928C378.462 260.677 380.09 257.393 383.347 255.074C386.604 252.701 391.627 251.514 398.417 251.514H407.359C407.083 246.766 403.909 244.393 397.837 244.393C395.684 244.393 393.504 244.752 391.296 245.469C389.088 246.132 387.211 247.07 385.665 248.284L380.366 237.603C382.85 235.947 385.859 234.677 389.391 233.794C392.98 232.856 396.568 232.386 400.156 232.386ZM399.576 268.819C401.398 268.819 402.999 268.378 404.379 267.495C405.759 266.611 406.752 265.314 407.359 263.603V259.711H400.57C395.988 259.711 393.697 261.229 393.697 264.265C393.697 265.645 394.222 266.749 395.27 267.577C396.319 268.405 397.754 268.819 399.576 268.819ZM461.258 232.386C465.343 232.386 469.041 233.352 472.353 235.284C475.721 237.161 478.37 239.866 480.302 243.399C482.29 246.877 483.283 250.934 483.283 255.571C483.283 260.208 482.29 264.293 480.302 267.826C478.37 271.303 475.721 274.008 472.353 275.94C469.041 277.817 465.343 278.756 461.258 278.756C456.014 278.756 451.846 277.182 448.755 274.036V294.074H433.022V233.132H448.009V237.603C450.935 234.125 455.351 232.386 461.258 232.386ZM457.946 266.252C460.706 266.252 462.969 265.314 464.736 263.437C466.502 261.505 467.385 258.883 467.385 255.571C467.385 252.259 466.502 249.664 464.736 247.788C462.969 245.856 460.706 244.89 457.946 244.89C455.186 244.89 452.922 245.856 451.156 247.788C449.39 249.664 448.506 252.259 448.506 255.571C448.506 258.883 449.39 261.505 451.156 263.437C452.922 265.314 455.186 266.252 457.946 266.252Z" fill="#999999"/>
<path d="M240.904 338.137L228.034 368.379C226.727 371.663 225.103 373.975 223.161 375.317C221.254 376.659 218.942 377.33 216.223 377.33C214.74 377.33 213.275 377.1 211.827 376.641C210.379 376.182 209.197 375.547 208.278 374.734L211.297 368.856C211.933 369.42 212.657 369.862 213.469 370.18C214.316 370.497 215.146 370.656 215.958 370.656C217.088 370.656 218.006 370.374 218.712 369.809C219.418 369.279 220.054 368.379 220.619 367.108L220.725 366.843L208.384 338.137H216.911L224.909 357.468L232.959 338.137H240.904ZM254.837 337.713C259.251 337.713 262.64 338.773 265.006 340.891C267.372 342.974 268.555 346.134 268.555 350.371V366.631H260.822V363.083C259.268 365.731 256.373 367.055 252.136 367.055C249.947 367.055 248.04 366.684 246.416 365.943C244.827 365.201 243.609 364.177 242.762 362.871C241.914 361.564 241.49 360.081 241.49 358.422C241.49 355.774 242.479 353.69 244.456 352.172C246.469 350.654 249.559 349.895 253.725 349.895H260.292C260.292 348.094 259.745 346.717 258.651 345.764C257.556 344.775 255.914 344.281 253.725 344.281C252.207 344.281 250.706 344.528 249.223 345.022C247.775 345.481 246.54 346.117 245.516 346.929L242.55 341.156C244.103 340.061 245.957 339.214 248.111 338.614C250.3 338.013 252.542 337.713 254.837 337.713ZM254.202 361.494C255.614 361.494 256.867 361.176 257.962 360.54C259.057 359.869 259.833 358.898 260.292 357.627V354.714H254.625C251.236 354.714 249.541 355.827 249.541 358.051C249.541 359.11 249.947 359.958 250.759 360.593C251.606 361.194 252.754 361.494 254.202 361.494ZM293.351 337.713C296.882 337.713 299.725 338.773 301.878 340.891C304.067 343.01 305.162 346.152 305.162 350.318V366.631H296.9V351.59C296.9 349.33 296.405 347.653 295.417 346.558C294.428 345.428 292.998 344.863 291.127 344.863C289.044 344.863 287.384 345.516 286.148 346.823C284.912 348.094 284.295 350.001 284.295 352.543V366.631H276.032V338.137H283.924V341.474C285.018 340.273 286.378 339.355 288.002 338.72C289.626 338.049 291.409 337.713 293.351 337.713ZM342.356 338.137V361.864C342.356 367.09 340.997 370.974 338.278 373.516C335.559 376.059 331.587 377.33 326.361 377.33C323.607 377.33 320.994 376.994 318.523 376.323C316.051 375.652 314.003 374.681 312.379 373.41L315.663 367.479C316.863 368.467 318.382 369.244 320.218 369.809C322.054 370.409 323.89 370.709 325.726 370.709C328.586 370.709 330.687 370.056 332.028 368.75C333.405 367.479 334.094 365.537 334.094 362.924V361.706C331.94 364.071 328.939 365.254 325.09 365.254C322.477 365.254 320.076 364.689 317.887 363.559C315.733 362.394 314.021 360.77 312.75 358.687C311.479 356.603 310.843 354.202 310.843 351.484C310.843 348.765 311.479 346.364 312.75 344.281C314.021 342.197 315.733 340.591 317.887 339.461C320.076 338.296 322.477 337.713 325.09 337.713C329.221 337.713 332.364 339.073 334.518 341.791V338.137H342.356ZM326.732 358.475C328.921 358.475 330.704 357.839 332.081 356.568C333.494 355.262 334.2 353.567 334.2 351.484C334.2 349.4 333.494 347.723 332.081 346.452C330.704 345.146 328.921 344.493 326.732 344.493C324.543 344.493 322.742 345.146 321.33 346.452C319.918 347.723 319.211 349.4 319.211 351.484C319.211 353.567 319.918 355.262 321.33 356.568C322.742 357.839 324.543 358.475 326.732 358.475ZM377.28 355.456L373.308 359.375V366.631H365.046V327.332H373.308V349.577L385.383 338.137H395.234L383.371 350.213L396.294 366.631H386.284L377.28 355.456ZM410.985 337.713C415.399 337.713 418.788 338.773 421.154 340.891C423.52 342.974 424.703 346.134 424.703 350.371V366.631H416.97V363.083C415.416 365.731 412.521 367.055 408.284 367.055C406.095 367.055 404.188 366.684 402.564 365.943C400.975 365.201 399.757 364.177 398.91 362.871C398.062 361.564 397.639 360.081 397.639 358.422C397.639 355.774 398.627 353.69 400.604 352.172C402.617 350.654 405.707 349.895 409.873 349.895H416.44C416.44 348.094 415.893 346.717 414.799 345.764C413.704 344.775 412.062 344.281 409.873 344.281C408.355 344.281 406.854 344.528 405.371 345.022C403.923 345.481 402.688 346.117 401.664 346.929L398.698 341.156C400.251 340.061 402.105 339.214 404.259 338.614C406.448 338.013 408.69 337.713 410.985 337.713ZM410.35 361.494C411.762 361.494 413.015 361.176 414.11 360.54C415.205 359.869 415.981 358.898 416.44 357.627V354.714H410.773C407.384 354.714 405.689 355.827 405.689 358.051C405.689 359.11 406.095 359.958 406.907 360.593C407.754 361.194 408.902 361.494 410.35 361.494ZM468.672 337.713C472.238 337.713 475.063 338.773 477.146 340.891C479.265 342.974 480.324 346.117 480.324 350.318V366.631H472.062V351.59C472.062 349.33 471.585 347.653 470.632 346.558C469.714 345.428 468.39 344.863 466.659 344.863C464.717 344.863 463.181 345.499 462.052 346.77C460.922 348.006 460.357 349.859 460.357 352.331V366.631H452.095V351.59C452.095 347.105 450.294 344.863 446.692 344.863C444.786 344.863 443.267 345.499 442.137 346.77C441.008 348.006 440.443 349.859 440.443 352.331V366.631H432.18V338.137H440.072V341.421C441.131 340.22 442.42 339.302 443.938 338.667C445.492 338.031 447.187 337.713 449.023 337.713C451.035 337.713 452.854 338.119 454.478 338.931C456.102 339.708 457.408 340.856 458.397 342.374C459.562 340.891 461.028 339.744 462.793 338.931C464.594 338.119 466.553 337.713 468.672 337.713ZM516.436 338.137V366.631H508.597V363.241C507.502 364.477 506.196 365.431 504.678 366.101C503.159 366.737 501.518 367.055 499.752 367.055C496.009 367.055 493.044 365.978 490.854 363.824C488.665 361.67 487.571 358.475 487.571 354.238V338.137H495.833V353.02C495.833 357.61 497.757 359.905 501.606 359.905C503.583 359.905 505.172 359.269 506.373 357.998C507.573 356.692 508.173 354.767 508.173 352.225V338.137H516.436ZM552.86 367.055C549.823 367.055 547.087 366.437 544.65 365.201C542.249 363.93 540.36 362.182 538.983 359.958C537.642 357.733 536.971 355.209 536.971 352.384C536.971 349.559 537.642 347.035 538.983 344.81C540.36 342.586 542.249 340.856 544.65 339.62C547.087 338.349 549.823 337.713 552.86 337.713C555.861 337.713 558.474 338.349 560.698 339.62C562.958 340.856 564.6 342.639 565.624 344.969L559.215 348.412C557.732 345.799 555.596 344.493 552.807 344.493C550.653 344.493 548.87 345.199 547.457 346.611C546.045 348.023 545.339 349.948 545.339 352.384C545.339 354.82 546.045 356.745 547.457 358.157C548.87 359.569 550.653 360.276 552.807 360.276C555.631 360.276 557.768 358.969 559.215 356.356L565.624 359.852C564.6 362.112 562.958 363.877 560.698 365.148C558.474 366.419 555.861 367.055 552.86 367.055ZM581.874 337.713C586.288 337.713 589.677 338.773 592.043 340.891C594.409 342.974 595.591 346.134 595.591 350.371V366.631H587.859V363.083C586.305 365.731 583.41 367.055 579.173 367.055C576.984 367.055 575.077 366.684 573.453 365.943C571.864 365.201 570.646 364.177 569.798 362.871C568.951 361.564 568.527 360.081 568.527 358.422C568.527 355.774 569.516 353.69 571.493 352.172C573.506 350.654 576.595 349.895 580.762 349.895H587.329C587.329 348.094 586.782 346.717 585.687 345.764C584.593 344.775 582.951 344.281 580.762 344.281C579.243 344.281 577.743 344.528 576.26 345.022C574.812 345.481 573.576 346.117 572.552 346.929L569.587 341.156C571.14 340.061 572.994 339.214 575.148 338.614C577.337 338.013 579.579 337.713 581.874 337.713ZM581.238 361.494C582.651 361.494 583.904 361.176 584.999 360.54C586.093 359.869 586.87 358.898 587.329 357.627V354.714H581.662C578.272 354.714 576.578 355.827 576.578 358.051C576.578 359.11 576.984 359.958 577.796 360.593C578.643 361.194 579.791 361.494 581.238 361.494ZM610.961 341.897C611.949 340.52 613.273 339.479 614.933 338.773C616.628 338.066 618.57 337.713 620.759 337.713V345.34C619.841 345.269 619.223 345.234 618.905 345.234C616.539 345.234 614.686 345.905 613.344 347.247C612.002 348.553 611.331 350.53 611.331 353.178V366.631H603.069V338.137H610.961V341.897ZM625.672 338.137H633.934V366.631H625.672V338.137ZM629.803 334.165C628.284 334.165 627.049 333.723 626.095 332.841C625.142 331.958 624.665 330.863 624.665 329.557C624.665 328.251 625.142 327.156 626.095 326.273C627.049 325.391 628.284 324.949 629.803 324.949C631.321 324.949 632.557 325.373 633.51 326.22C634.463 327.068 634.94 328.127 634.94 329.398C634.94 330.775 634.463 331.923 633.51 332.841C632.557 333.723 631.321 334.165 629.803 334.165ZM651.188 367.055C648.823 367.055 646.51 366.772 644.25 366.207C641.99 365.607 640.19 364.866 638.848 363.983L641.602 358.051C642.873 358.863 644.409 359.534 646.21 360.064C648.01 360.558 649.776 360.805 651.506 360.805C655.002 360.805 656.749 359.94 656.749 358.21C656.749 357.398 656.273 356.815 655.319 356.462C654.366 356.109 652.901 355.809 650.923 355.562C648.593 355.209 646.669 354.803 645.15 354.344C643.632 353.885 642.308 353.073 641.178 351.907C640.084 350.742 639.536 349.083 639.536 346.929C639.536 345.128 640.048 343.539 641.072 342.162C642.132 340.75 643.65 339.655 645.627 338.878C647.64 338.102 650.005 337.713 652.724 337.713C654.737 337.713 656.732 337.943 658.709 338.402C660.722 338.825 662.381 339.426 663.688 340.203L660.933 346.081C658.426 344.669 655.69 343.963 652.724 343.963C650.959 343.963 649.635 344.21 648.752 344.704C647.869 345.199 647.428 345.834 647.428 346.611C647.428 347.494 647.904 348.112 648.858 348.465C649.811 348.818 651.329 349.153 653.413 349.471C655.743 349.859 657.65 350.283 659.133 350.742C660.616 351.166 661.904 351.96 662.999 353.126C664.094 354.291 664.641 355.915 664.641 357.998C664.641 359.764 664.111 361.335 663.052 362.712C661.993 364.089 660.439 365.166 658.391 365.943C656.379 366.684 653.978 367.055 651.188 367.055ZM697.65 352.49C697.65 352.596 697.597 353.337 697.491 354.714H675.935C676.324 356.48 677.242 357.875 678.689 358.898C680.137 359.922 681.938 360.434 684.092 360.434C685.574 360.434 686.881 360.223 688.011 359.799C689.176 359.34 690.253 358.634 691.242 357.68L695.637 362.447C692.954 365.519 689.035 367.055 683.88 367.055C680.667 367.055 677.824 366.437 675.353 365.201C672.881 363.93 670.974 362.182 669.633 359.958C668.291 357.733 667.62 355.209 667.62 352.384C667.62 349.595 668.273 347.088 669.58 344.863C670.921 342.604 672.74 340.856 675.035 339.62C677.365 338.349 679.96 337.713 682.82 337.713C685.61 337.713 688.134 338.313 690.394 339.514C692.654 340.714 694.419 342.445 695.69 344.704C696.997 346.929 697.65 349.524 697.65 352.49ZM682.873 343.963C681.002 343.963 679.431 344.493 678.16 345.552C676.889 346.611 676.112 348.059 675.829 349.895H689.864C689.582 348.094 688.805 346.664 687.534 345.605C686.263 344.51 684.709 343.963 682.873 343.963ZM703.151 327.332H711.413V366.631H703.151V327.332ZM730.574 337.713C734.988 337.713 738.377 338.773 740.743 340.891C743.109 342.974 744.292 346.134 744.292 350.371V366.631H736.559V363.083C735.005 365.731 732.11 367.055 727.873 367.055C725.684 367.055 723.777 366.684 722.153 365.943C720.564 365.201 719.346 364.177 718.499 362.871C717.651 361.564 717.227 360.081 717.227 358.422C717.227 355.774 718.216 353.69 720.193 352.172C722.206 350.654 725.295 349.895 729.462 349.895H736.029C736.029 348.094 735.482 346.717 734.387 345.764C733.293 344.775 731.651 344.281 729.462 344.281C727.944 344.281 726.443 344.528 724.96 345.022C723.512 345.481 722.277 346.117 721.253 346.929L718.287 341.156C719.84 340.061 721.694 339.214 723.848 338.614C726.037 338.013 728.279 337.713 730.574 337.713ZM729.939 361.494C731.351 361.494 732.604 361.176 733.699 360.54C734.793 359.869 735.57 358.898 736.029 357.627V354.714H730.362C726.973 354.714 725.278 355.827 725.278 358.051C725.278 359.11 725.684 359.958 726.496 360.593C727.343 361.194 728.491 361.494 729.939 361.494ZM751.769 327.332H760.032V366.631H751.769V327.332ZM796.406 338.137V366.631H788.567V363.241C787.472 364.477 786.166 365.431 784.648 366.101C783.129 366.737 781.488 367.055 779.722 367.055C775.979 367.055 773.014 365.978 770.824 363.824C768.635 361.67 767.541 358.475 767.541 354.238V338.137H775.803V353.02C775.803 357.61 777.727 359.905 781.576 359.905C783.553 359.905 785.142 359.269 786.343 357.998C787.543 356.692 788.143 354.767 788.143 352.225V338.137H796.406ZM830.552 337.713C834.966 337.713 838.356 338.773 840.721 340.891C843.087 342.974 844.27 346.134 844.27 350.371V366.631H836.537V363.083C834.984 365.731 832.088 367.055 827.851 367.055C825.662 367.055 823.755 366.684 822.131 365.943C820.542 365.201 819.324 364.177 818.477 362.871C817.629 361.564 817.206 360.081 817.206 358.422C817.206 355.774 818.194 353.69 820.172 352.172C822.184 350.654 825.274 349.895 829.44 349.895H836.008C836.008 348.094 835.46 346.717 834.366 345.764C833.271 344.775 831.629 344.281 829.44 344.281C827.922 344.281 826.421 344.528 824.938 345.022C823.491 345.481 822.255 346.117 821.231 346.929L818.265 341.156C819.818 340.061 821.672 339.214 823.826 338.614C826.015 338.013 828.257 337.713 830.552 337.713ZM829.917 361.494C831.329 361.494 832.583 361.176 833.677 360.54C834.772 359.869 835.548 358.898 836.008 357.627V354.714H830.34C826.951 354.714 825.256 355.827 825.256 358.051C825.256 359.11 825.662 359.958 826.474 360.593C827.322 361.194 828.469 361.494 829.917 361.494ZM881.082 327.332V366.631H873.19V363.347C871.142 365.819 868.176 367.055 864.292 367.055C861.609 367.055 859.172 366.455 856.983 365.254C854.83 364.054 853.135 362.341 851.899 360.117C850.663 357.892 850.045 355.315 850.045 352.384C850.045 349.453 850.663 346.876 851.899 344.651C853.135 342.427 854.83 340.714 856.983 339.514C859.172 338.313 861.609 337.713 864.292 337.713C867.929 337.713 870.771 338.861 872.819 341.156V327.332H881.082ZM865.722 360.276C867.805 360.276 869.536 359.569 870.913 358.157C872.29 356.709 872.978 354.785 872.978 352.384C872.978 349.983 872.29 348.076 870.913 346.664C869.536 345.216 867.805 344.493 865.722 344.493C863.604 344.493 861.856 345.216 860.479 346.664C859.102 348.076 858.413 349.983 858.413 352.384C858.413 354.785 859.102 356.709 860.479 358.157C861.856 359.569 863.604 360.276 865.722 360.276ZM900.221 337.713C904.635 337.713 908.025 338.773 910.39 340.891C912.756 342.974 913.939 346.134 913.939 350.371V366.631H906.206V363.083C904.653 365.731 901.757 367.055 897.52 367.055C895.331 367.055 893.425 366.684 891.8 365.943C890.211 365.201 888.993 364.177 888.146 362.871C887.299 361.564 886.875 360.081 886.875 358.422C886.875 355.774 887.863 353.69 889.841 352.172C891.853 350.654 894.943 349.895 899.109 349.895H905.677C905.677 348.094 905.129 346.717 904.035 345.764C902.94 344.775 901.298 344.281 899.109 344.281C897.591 344.281 896.09 344.528 894.607 345.022C893.16 345.481 891.924 346.117 890.9 346.929L887.934 341.156C889.488 340.061 891.341 339.214 893.495 338.614C895.684 338.013 897.926 337.713 900.221 337.713ZM899.586 361.494C900.998 361.494 902.252 361.176 903.346 360.54C904.441 359.869 905.218 358.898 905.677 357.627V354.714H900.01C896.62 354.714 894.925 355.827 894.925 358.051C894.925 359.11 895.331 359.958 896.143 360.593C896.991 361.194 898.138 361.494 899.586 361.494ZM920.357 329.557H930.209L928.567 353.761H921.999L920.357 329.557ZM925.283 367.055C923.835 367.055 922.617 366.596 921.629 365.678C920.675 364.724 920.199 363.577 920.199 362.235C920.199 360.893 920.675 359.781 921.629 358.898C922.582 357.98 923.8 357.521 925.283 357.521C926.766 357.521 927.984 357.98 928.937 358.898C929.891 359.781 930.367 360.893 930.367 362.235C930.367 363.577 929.873 364.724 928.884 365.678C927.931 366.596 926.731 367.055 925.283 367.055Z" fill="white"/>
<path d="M146.971 131.386C154.423 131.386 160.109 133.098 164.028 136.52C167.947 139.887 169.907 145.076 169.907 152.087V177.01H155.251V171.214C152.988 175.575 148.572 177.756 142.003 177.756C138.525 177.756 135.516 177.148 132.977 175.934C130.438 174.72 128.506 173.091 127.181 171.049C125.911 168.951 125.277 166.577 125.277 163.928C125.277 159.677 126.905 156.393 130.162 154.074C133.419 151.701 138.442 150.514 145.232 150.514H154.174C153.898 145.766 150.724 143.393 144.652 143.393C142.499 143.393 140.319 143.752 138.111 144.469C135.903 145.132 134.026 146.07 132.48 147.284L127.181 136.603C129.665 134.947 132.674 133.677 136.206 132.794C139.795 131.856 143.383 131.386 146.971 131.386ZM146.391 167.819C148.213 167.819 149.814 167.378 151.194 166.495C152.574 165.611 153.567 164.314 154.174 162.603V158.711H147.385C142.803 158.711 140.512 160.229 140.512 163.265C140.512 164.645 141.037 165.749 142.085 166.577C143.134 167.405 144.569 167.819 146.391 167.819ZM179.837 115.571H195.57V177.01H179.837V115.571ZM224.921 131.386C232.373 131.386 238.059 133.098 241.978 136.52C245.898 139.887 247.857 145.076 247.857 152.087V177.01H233.201V171.214C230.938 175.575 226.522 177.756 219.953 177.756C216.475 177.756 213.467 177.148 210.928 175.934C208.388 174.72 206.456 173.091 205.131 171.049C203.862 168.951 203.227 166.577 203.227 163.928C203.227 159.677 204.855 156.393 208.112 154.074C211.369 151.701 216.392 150.514 223.182 150.514H232.125C231.849 145.766 228.675 143.393 222.603 143.393C220.45 143.393 218.269 143.752 216.061 144.469C213.853 145.132 211.976 146.07 210.431 147.284L205.131 136.603C207.615 134.947 210.624 133.677 214.157 132.794C217.745 131.856 221.333 131.386 224.921 131.386ZM224.341 167.819C226.163 167.819 227.764 167.378 229.144 166.495C230.524 165.611 231.518 164.314 232.125 162.603V158.711H225.335C220.753 158.711 218.463 160.229 218.463 163.265C218.463 164.645 218.987 165.749 220.036 166.577C221.085 167.405 222.52 167.819 224.341 167.819ZM288.756 175.189C287.431 176.017 285.802 176.652 283.87 177.093C281.994 177.535 279.979 177.756 277.826 177.756C271.974 177.756 267.476 176.32 264.329 173.45C261.183 170.579 259.609 166.301 259.609 160.616V145.546H253.068V133.788H259.609V122.113H275.342V133.788H285.609V145.546H275.342V160.45C275.342 162.051 275.756 163.32 276.584 164.259C277.467 165.142 278.626 165.584 280.061 165.584C281.883 165.584 283.484 165.114 284.864 164.176L288.756 175.189ZM347.154 131.386C351.239 131.386 354.938 132.352 358.25 134.284C361.617 136.161 364.267 138.866 366.199 142.399C368.186 145.877 369.18 149.934 369.18 154.571C369.18 159.208 368.186 163.293 366.199 166.826C364.267 170.303 361.617 173.008 358.25 174.94C354.938 176.817 351.239 177.756 347.154 177.756C341.91 177.756 337.743 176.182 334.651 173.036V193.074H318.919V132.132H333.906V136.603C336.832 133.125 341.248 131.386 347.154 131.386ZM343.842 165.252C346.602 165.252 348.866 164.314 350.632 162.437C352.399 160.505 353.282 157.883 353.282 154.571C353.282 151.259 352.399 148.664 350.632 146.788C348.866 144.856 346.602 143.89 343.842 143.89C341.082 143.89 338.819 144.856 337.053 146.788C335.286 148.664 334.403 151.259 334.403 154.571C334.403 157.883 335.286 160.505 337.053 162.437C338.819 164.314 341.082 165.252 343.842 165.252ZM391.479 137.514C393.08 135.471 395.15 133.953 397.69 132.96C400.284 131.911 403.237 131.386 406.549 131.386V145.546C405.114 145.38 403.927 145.297 402.989 145.297C399.622 145.297 396.972 146.208 395.04 148.03C393.163 149.851 392.225 152.639 392.225 156.393V177.01H376.492V132.132H391.479V137.514ZM431.846 131.386C439.298 131.386 444.983 133.098 448.903 136.52C452.822 139.887 454.782 145.076 454.782 152.087V177.01H440.126V171.214C437.862 175.575 433.446 177.756 426.877 177.756C423.4 177.756 420.391 177.148 417.852 175.934C415.313 174.72 413.381 173.091 412.056 171.049C410.786 168.951 410.151 166.577 410.151 163.928C410.151 159.677 411.78 156.393 415.037 154.074C418.294 151.701 423.317 150.514 430.107 150.514H439.049C438.773 145.766 435.599 143.393 429.527 143.393C427.374 143.393 425.194 143.752 422.986 144.469C420.778 145.132 418.901 146.07 417.355 147.284L412.056 136.603C414.54 134.947 417.548 133.677 421.081 132.794C424.669 131.856 428.257 131.386 431.846 131.386ZM431.266 167.819C433.088 167.819 434.688 167.378 436.068 166.495C437.448 165.611 438.442 164.314 439.049 162.603V158.711H432.26C427.678 158.711 425.387 160.229 425.387 163.265C425.387 164.645 425.911 165.749 426.96 166.577C428.009 167.405 429.444 167.819 431.266 167.819ZM485.081 161.278L480.445 165.998V177.01H464.712V115.571H480.445V147.781L496.508 132.132H515.139L496.508 151.342L516.712 177.01H497.667L485.081 161.278ZM552.445 175.189C551.12 176.017 549.492 176.652 547.559 177.093C545.683 177.535 543.668 177.756 541.515 177.756C535.664 177.756 531.165 176.32 528.018 173.45C524.872 170.579 523.298 166.301 523.298 160.616V145.546H516.757V133.788H523.298V122.113H539.031V133.788H549.298V145.546H539.031V160.45C539.031 162.051 539.445 163.32 540.273 164.259C541.156 165.142 542.315 165.584 543.751 165.584C545.572 165.584 547.173 165.114 548.553 164.176L552.445 175.189ZM558.511 132.132H574.244V177.01H558.511V132.132ZM566.378 127.164C563.507 127.164 561.189 126.363 559.422 124.762C557.656 123.161 556.773 121.174 556.773 118.8C556.773 116.427 557.656 114.44 559.422 112.839C561.189 111.238 563.507 110.437 566.378 110.437C569.248 110.437 571.567 111.21 573.333 112.756C575.099 114.246 575.983 116.178 575.983 118.552C575.983 121.036 575.099 123.106 573.333 124.762C571.567 126.363 569.248 127.164 566.378 127.164ZM604.837 161.278L600.2 165.998V177.01H584.468V115.571H600.2V147.781L616.264 132.132H634.894L616.264 151.342L636.468 177.01H617.423L604.837 161.278ZM127.843 216.571H143.576V278.01H127.843V216.571ZM199.672 255.654C199.672 255.764 199.589 257.061 199.424 259.546H166.8C167.462 261.864 168.732 263.658 170.609 264.928C172.541 266.142 174.942 266.749 177.813 266.749C179.965 266.749 181.815 266.446 183.36 265.838C184.961 265.231 186.562 264.238 188.163 262.858L196.443 271.469C192.082 276.327 185.706 278.756 177.316 278.756C172.072 278.756 167.462 277.762 163.488 275.775C159.513 273.787 156.422 271.027 154.214 267.495C152.061 263.962 150.985 259.96 150.985 255.488C150.985 251.072 152.033 247.125 154.131 243.648C156.284 240.115 159.237 237.355 162.991 235.367C166.745 233.38 170.968 232.386 175.66 232.386C180.131 232.386 184.188 233.325 187.832 235.202C191.475 237.023 194.345 239.701 196.443 243.233C198.596 246.711 199.672 250.851 199.672 255.654ZM175.742 243.565C173.314 243.565 171.271 244.255 169.615 245.635C168.014 247.015 166.993 248.892 166.551 251.265H184.934C184.492 248.892 183.443 247.015 181.787 245.635C180.186 244.255 178.171 243.565 175.742 243.565ZM236.155 232.386C241.73 232.386 246.202 234.042 249.569 237.355C252.991 240.667 254.703 245.662 254.703 252.342V278.01H238.97V254.909C238.97 248.781 236.514 245.718 231.601 245.718C228.896 245.718 226.716 246.601 225.06 248.367C223.459 250.134 222.658 252.783 222.658 256.316V278.01H206.926V233.132H221.913V238.017C223.68 236.195 225.777 234.815 228.206 233.877C230.635 232.883 233.285 232.386 236.155 232.386ZM313.501 233.132V269.813C313.501 278.148 311.237 284.386 306.711 288.526C302.184 292.722 295.671 294.819 287.17 294.819C282.753 294.819 278.613 294.322 274.749 293.329C270.885 292.335 267.601 290.872 264.896 288.94L270.609 277.928C272.431 279.418 274.722 280.577 277.482 281.405C280.297 282.288 283.057 282.73 285.762 282.73C289.902 282.73 292.938 281.819 294.87 279.998C296.802 278.176 297.768 275.471 297.768 271.883V270.393C294.732 273.925 290.288 275.692 284.437 275.692C280.463 275.692 276.792 274.809 273.424 273.042C270.057 271.221 267.38 268.681 265.393 265.424C263.405 262.112 262.412 258.303 262.412 253.998C262.412 249.747 263.405 245.994 265.393 242.737C267.38 239.425 270.057 236.885 273.424 235.119C276.792 233.297 280.463 232.386 284.437 232.386C290.84 232.386 295.533 234.456 298.513 238.597V233.132H313.501ZM288.163 263.189C290.978 263.189 293.297 262.333 295.119 260.622C296.995 258.911 297.934 256.703 297.934 253.998C297.934 251.293 297.023 249.112 295.201 247.456C293.38 245.745 291.034 244.89 288.163 244.89C285.293 244.89 282.919 245.745 281.042 247.456C279.221 249.112 278.31 251.293 278.31 253.998C278.31 256.703 279.248 258.911 281.125 260.622C283.002 262.333 285.348 263.189 288.163 263.189ZM343.978 262.278L339.341 266.998V278.01H323.609V216.571H339.341V248.781L355.405 233.132H374.035L355.405 252.342L375.609 278.01H356.564L343.978 262.278ZM398.692 232.386C406.145 232.386 411.83 234.098 415.75 237.52C419.669 240.887 421.628 246.076 421.628 253.087V278.01H406.973V272.214C404.709 276.575 400.293 278.756 393.724 278.756C390.246 278.756 387.238 278.148 384.699 276.934C382.159 275.72 380.227 274.091 378.903 272.049C377.633 269.951 376.998 267.577 376.998 264.928C376.998 260.677 378.627 257.393 381.883 255.074C385.14 252.701 390.164 251.514 396.953 251.514H405.896C405.62 246.766 402.446 244.393 396.374 244.393C394.221 244.393 392.041 244.752 389.832 245.469C387.624 246.132 385.748 247.07 384.202 248.284L378.903 237.603C381.387 235.947 384.395 234.677 387.928 233.794C391.516 232.856 395.104 232.386 398.692 232.386ZM398.113 268.819C399.934 268.819 401.535 268.378 402.915 267.495C404.295 266.611 405.289 265.314 405.896 263.603V259.711H399.106C394.525 259.711 392.234 261.229 392.234 264.265C392.234 265.645 392.758 266.749 393.807 267.577C394.856 268.405 396.291 268.819 398.113 268.819ZM459.794 232.386C463.879 232.386 467.578 233.352 470.89 235.284C474.257 237.161 476.907 239.866 478.839 243.399C480.826 246.877 481.82 250.934 481.82 255.571C481.82 260.208 480.826 264.293 478.839 267.826C476.907 271.303 474.257 274.008 470.89 275.94C467.578 277.817 463.879 278.756 459.794 278.756C454.55 278.756 450.383 277.182 447.291 274.036V294.074H431.559V233.132H446.546V237.603C449.472 234.125 453.888 232.386 459.794 232.386ZM456.482 266.252C459.242 266.252 461.506 265.314 463.272 263.437C465.039 261.505 465.922 258.883 465.922 255.571C465.922 252.259 465.039 249.664 463.272 247.788C461.506 245.856 459.242 244.89 456.482 244.89C453.722 244.89 451.459 245.856 449.693 247.788C447.926 249.664 447.043 252.259 447.043 255.571C447.043 258.883 447.926 261.505 449.693 263.437C451.459 265.314 453.722 266.252 456.482 266.252Z" fill="white"/>
<path fill-rule="evenodd" clip-rule="evenodd" d="M908.6 160.1C910.8 156.1 913.3 152.3 916.4 149C921.9 143.2 928.5 139.1 936.6 138.1C943.7 137.2 950.2 138.6 955.5 143.7C960.5 148.6 961.4 154.6 959.8 161.2C959.1 163.8 958.1 166.3 956.7 168.6C955.3 171 952.9 172 950.5 171.2C948.2 170.4 947.8 168.8 949 166.8C951.3 162.9 952.5 158.7 951.9 154.1C951.4 149.8 948.2 147 943.3 146.3C936 145.2 929.8 147.6 924.6 152.7C920.5 156.6 917.5 161.4 915.1 166.5C912.2 172.6 908.8 178.3 905 183.8C898.4 193.3 890.7 201.7 881.2 208.5C870.3 216.3 858.3 221.3 845 222.8C830.7 224.4 816.9 222.5 803.6 216.7C789.6 210.6 780.3 200.1 775.2 185.8C773 179.7 771.6 173.4 771.1 166.9C771.1 166.7 771.1 166.5 770.9 166.4C770.9 163.5 770.9 160.5 770.9 157.6C771.3 157.4 771.1 157 771.1 156.7C771.8 150.4 773.4 144.5 776.3 138.9C779.4 132.9 783.8 128.4 790.5 126.4C791.6 126.1 792.7 126 793.8 125.5C795 125.5 796.2 125.5 797.5 125.5C798.5 126 799.9 126 800 127.3C800.2 129 799.5 130.5 798.3 131.8C798.1 132 797.9 132.2 797.7 132.3C796.5 132.6 795.3 132.5 794.1 133C790.8 134.4 788.2 136.8 786 139.6C780.1 147.5 778.1 156.5 779.2 166.2C780.1 174.4 782.5 182.1 786.5 189.3C790.8 197 796.3 203.6 804 208C816 214.9 829 217 842.6 215.4C853.6 214.1 863.7 210.3 873 204.3C889.8 193.7 900.8 178.2 908.6 160.1Z" fill="#332F2D"/>
<path fill-rule="evenodd" clip-rule="evenodd" d="M837 246.7C835.9 246.3 834.8 246.6 833.8 246.5C832.2 246.4 830.6 246.7 829.1 246.3C835.1 246.2 841.2 246.3 847.2 246.5C847.2 246.6 847.2 246.7 847.2 246.7C843.8 246.7 840.4 246.7 837 246.7Z" fill="#F4CC9E"/>
<path fill-rule="evenodd" clip-rule="evenodd" d="M847.2 246.7C847.2 246.6 847.2 246.6 847.2 246.5C854.7 246.5 862.1 246.5 869.6 246.5C869.6 246.6 869.6 246.6 869.6 246.7C862.1 246.7 854.7 246.7 847.2 246.7Z" fill="#F4C793"/>
<path fill-rule="evenodd" clip-rule="evenodd" d="M869.6 246.7C869.6 246.6 869.6 246.6 869.6 246.5C872.1 246.5 874.6 246.5 877.1 246.4C880.8 246.2 884.5 246.3 888.1 246.3C886.5 246.7 884.9 246.4 883.2 246.5C882.2 246.6 881.1 246.3 880.1 246.7C876.6 246.7 873.1 246.7 869.6 246.7Z" fill="#F4CC9E"/>
<path fill-rule="evenodd" clip-rule="evenodd" d="M897.2 162.6C899 160.5 900.1 157.8 902 155.8C902.3 155.7 902.6 155.5 902.9 155.4C904.2 154.9 905.3 155.9 905.4 157.6C905.6 159.5 905.2 161.3 904.4 162.9C900.3 171.9 895 180.2 888.3 187.6C880.9 195.7 872.2 202.1 862.1 206.5C859.6 207.6 857.1 208.6 854.4 209.2C852.9 209 851.5 209.6 850.1 209.9C849.8 210 849.6 210.1 849.4 209.8C849.3 209.5 849.3 209.3 849.6 209.2C849.8 209.1 850.1 209.2 849.9 208.7C848.7 209.2 848.3 207.9 847.4 207.5C843.7 205.9 840.7 203.3 837.2 201.5C836.4 201.1 835.8 200.3 834.7 200.5C834.4 200.6 833.8 200.8 833.7 200.3C833.6 199.6 834.3 199.7 834.7 199.6C834.7 199.6 834.7 199.5 834.8 199.4C833.7 199.3 832.5 199.4 832.1 198C832.4 198 832.7 198 833 198.1C833.1 198.6 833.5 198.5 833.9 198.5C835.1 198.5 836.3 198.5 837.5 198.5C838.3 198.5 839.1 198.7 839.9 198.3C840 198.2 840 198.2 840.1 198.1C841.8 198 843.4 198.1 845 197.6C846.1 197.8 847 197.2 848 197.2C848.8 197.2 849.4 196.9 850.2 196.8C850.5 196.8 850.8 196.9 851.1 196.6C851.2 196.6 851.4 196.6 851.5 196.6C852.5 196.3 853.6 196.1 854.5 195.7C856.3 195 858.2 194.7 859.9 193.8C861.4 193 863 192.6 864.5 191.8C867.6 190.3 870.6 188.5 873.6 186.7C875.4 185.6 877.2 184.3 878.8 182.9C880.9 181.2 882.9 179.4 884.9 177.5C886.4 176.1 887.8 174.5 889.3 173.1C890.2 172.2 890.9 171.1 891.7 170.2C893.4 168.3 894.9 166.2 896.3 164.1C896.5 163.8 896.7 163.6 896.6 163.2C896.6 163.1 896.6 163.1 896.7 163.1C897.1 163.1 897.2 162.9 897.2 162.6Z" fill="#F38F2F"/>
<path fill-rule="evenodd" clip-rule="evenodd" d="M795.5 135.5C796.5 135.2 797.5 134.9 798.5 134.6C800.1 135 800.5 135.5 800.7 137.2C800.8 139 800.4 140.8 800.2 142.6C799.5 143.3 800 144.3 799.6 145C799.5 145.1 799.4 145.2 799.4 145.3C799.2 148.9 798.9 152.6 798.7 156.2C798.6 158.2 799 160.2 798.9 162.2C798.9 162.5 798.9 162.8 798.9 163.1C798.9 163.4 799 163.6 799.3 163.8C799.3 164.6 799.3 165.4 799.3 166.2C799.3 166.5 799.2 166.9 799.7 167C799.8 167.7 799.5 168.5 800.1 169.1C799.9 170 800.6 170.8 800.6 171.7C800.6 172 800.7 172.2 801 172.4C801 172.6 801 172.8 801 173C801 173.4 800.9 173.8 801.4 173.9C801.6 174.5 801.7 175 801.9 175.6C802 176.2 802.3 176.7 802.7 177.2C802.7 177.8 803 178.3 803.2 178.8C802.8 179.2 802.5 179.6 801.9 179.9C801.9 179.3 801.5 179 801.1 178.7C799.5 177.5 797.8 176.7 796.1 175.7C792.6 173.5 789 171.4 785.5 169.3C783.9 168.3 782.4 167.4 782.4 165.3C782.4 165.1 782.2 165 782 165C781.3 157.6 782.8 150.7 786.7 144.3C787.4 143.1 788.2 141.9 789.2 140.8C789.5 140.4 789.8 140 790 139.6C790.6 139.5 790.8 139.2 791 138.7C791.4 138.5 791.8 138.2 792 137.8C792.1 137.8 792.2 137.7 792.2 137.6C793.4 136.8 794.4 136 795.5 135.5Z" fill="#F38F2F"/>
<path fill-rule="evenodd" clip-rule="evenodd" d="M798.9 162.2C799 160.2 798.6 158.2 798.7 156.2C798.9 152.6 799.1 148.9 799.4 145.3C799.4 145.2 799.5 145.1 799.6 145C799.6 145.1 799.6 145.3 799.6 145.4C799.7 145.6 799.9 145.4 799.9 145.3C800.2 144.8 800.5 144.3 800.6 143.7C802.2 140.9 804 138.2 806.6 136.1C808 134.9 809.7 134 811.5 133.5C813.2 133 814.3 133.9 814.5 135.7C814.6 137.3 814 138.7 814.1 140.2C812.6 146 812.1 151.9 812.4 157.8C812.5 159.1 812.4 160.5 813 161.8C813.1 163.1 813.3 164.4 813.9 165.7C814 165.9 814 166.1 814.1 166.4C814.1 166.6 814.1 166.9 814.3 167C814.4 167.4 814.4 167.8 814.7 168.1C815 169.6 816 170.8 816.4 172.2C815.9 172.7 815.5 172.3 815.1 172C813.8 171.4 812.7 170.5 811.5 169.7C810.2 168.9 808.8 168.2 807.5 167.2C805.6 165.8 803.7 164.5 801.6 163.5C801.4 163.4 801.2 163.4 801.2 163.2C800.9 161.7 799.6 162.6 798.9 162.2Z" fill="#F1A052"/>
<path fill-rule="evenodd" clip-rule="evenodd" d="M896.7 163.2C896.8 163.5 896.6 163.8 896.4 164.1C894.9 166.2 893.5 168.2 891.8 170.2C891 171.1 890.3 172.3 889.4 173.1C887.9 174.6 886.5 176.1 885 177.5C883 179.4 881 181.2 878.9 182.9C877.2 184.2 875.5 185.5 873.7 186.7C870.7 188.6 867.7 190.3 864.6 191.8C863.1 192.5 861.5 193 860 193.8C858.3 194.7 856.4 195 854.6 195.7C853.7 196.1 852.6 196.2 851.6 196.6C851.7 196 851.5 195.7 851 195.3C850.5 194.9 849.8 194.6 849.3 194.3C847.6 193.1 845.9 192 844.1 190.9C842.8 190 841.3 189.4 840.2 188.3C839.3 187.4 838.4 187.1 837.3 187C836.7 187 836.4 186.7 835.8 186.1C836.6 186.1 837.2 186.1 837.8 186.1H837.9H838C838.4 186.8 839 186.6 839.5 186.3C839.6 186.3 839.8 186.3 839.9 186.3C840.3 186.7 840.8 186.5 841.2 186.5C843.6 186.5 846.1 186.5 848.5 186.5C849.8 186.6 851.1 186.3 852.4 186.3C852.8 186.2 853.1 186.2 853.5 186.1C859.5 185.4 865.3 183.7 870.9 181.5C875.2 179.8 879.3 177.7 883.2 175.2C886.5 173.1 889.5 170.7 892.3 168.1C893 167.5 893.9 166.9 894.2 165.9C895 164.8 895.7 163.9 896.7 163.2Z" fill="#F1A052"/>
<path fill-rule="evenodd" clip-rule="evenodd" d="M812.9 161.8C812.3 160.5 812.4 159.1 812.3 157.8C812 151.9 812.5 146 814 140.2C815.4 138.5 816.6 136.6 818.3 135.2C819.4 134.3 820.6 133.6 822 133.3C824.1 132.8 825.1 133.5 825.1 135.7C825.1 136.9 825 138.1 824.7 139.2C823.4 144.3 823.2 149.4 823.5 154.6C823.7 159.1 824.9 163.5 827.1 167.5C827.4 168 827.6 168.6 827.8 169.1C827.7 169.2 827.7 169.3 827.6 169.5C826.9 169 825.9 169.3 825.2 168.7C824 167.6 822.6 166.7 821.1 166C818.9 164.9 817.1 163 814.7 162.2C814.5 162.1 814.3 161.9 814.1 161.7C813.8 161.4 813.9 160.6 813.3 160.7C812.8 160.7 813.4 161.5 812.9 161.8Z" fill="#F5BA73"/>
<path fill-rule="evenodd" clip-rule="evenodd" d="M888.1 246.3C884.4 246.2 880.7 246.2 877.1 246.4C874.6 246.5 872.1 246.5 869.6 246.5C862.1 246.5 854.7 246.5 847.2 246.5C841.2 246.4 835.1 246.2 829.1 246.3C822.6 246.3 816.1 246 809.6 245.8C809.1 245.8 808.5 245.8 808 245.6C809.2 245.4 810.4 244.9 811.5 244.5C818.8 243.9 826.1 243.8 833.4 243.4C836.9 243.2 840.5 243.2 844 243.1C850.6 243 857.2 242.8 863.8 242.7C864.1 242.7 864.5 242.8 864.8 242.5C868.7 246.8 874.9 246.8 878.8 242.5C879.1 242.8 879.4 242.7 879.7 242.7C886.5 242.8 893.3 242.9 900.1 243.4C903.7 243.6 907.4 244 911 244.7C911.4 244.8 911.9 244.9 912.2 245.4C904.2 246.1 896.2 246.3 888.1 246.3Z" fill="#F39030"/>
<path fill-rule="evenodd" clip-rule="evenodd" d="M878.8 242.4C874.9 246.7 868.6 246.7 864.8 242.4C862 239 861.8 234.7 864.2 231.2C866.5 227.8 870.8 226.3 874.6 227.6C878.6 228.9 881.2 232.6 881 236.9C880.9 239 880.1 240.8 878.8 242.4Z" fill="#332F2D"/>
<path fill-rule="evenodd" clip-rule="evenodd" d="M811.4 244.5C810.3 245 809.1 245.4 807.9 245.6C803.6 245.8 800.3 244.2 798.4 240.3C796.3 236 797.9 230.8 802.2 228.3C806.3 225.9 811.7 227.2 814.4 231.2C817.1 235.2 816.3 240.6 812.5 243.6C812.2 243.9 811.8 244.2 811.4 244.5Z" fill="#332F2D"/>
<path fill-rule="evenodd" clip-rule="evenodd" d="M812.9 161.8C813.4 161.5 812.8 160.7 813.4 160.6C814 160.5 813.9 161.3 814.2 161.6C814.4 161.8 814.5 162 814.8 162.1C817.2 162.9 819 164.7 821.2 165.9C822.6 166.6 824 167.5 825.3 168.6C826 169.2 827 168.9 827.7 169.4C827.8 169.3 827.8 169.2 827.9 169C828.7 169.7 829.3 170.6 829.9 171.4C832.4 174.3 835.3 176.6 838.8 178.1C841.1 179.1 843.5 180.1 846.1 180.4C846.4 180.4 846.7 180.5 846.9 180.8C846.7 180.9 846.3 180.9 846.7 181.2C847.3 181.6 847.8 182.2 848.7 182.1C849.2 182.1 849.7 182 850.2 182.2C850 182.5 849.9 182.5 849.7 182.5C849.4 182.6 848.8 182.3 848.8 183C848.8 183.5 849.3 183.4 849.6 183.4C850.3 183.3 850.8 183.5 851.1 184.2C851.2 184.4 851.5 184.6 851.7 184.7C852.5 185 852.6 185.5 852.3 186.2C851 186.3 849.7 186.6 848.4 186.4C848.6 185.4 848.1 185 847.1 185.1C846.5 185.1 845.8 185.4 845.3 184.8C844.5 183.9 843.4 183.3 842.4 182.7C841.7 182.3 840.8 182 840.4 181.3C839.9 180.4 839.5 180.2 838.6 180.7C839 180.2 839 180 838.5 179.8C837.4 179.5 836.6 178.5 835.4 178.1C835 178 834.7 177.7 834.4 177.4C833.7 176.6 833.1 175.7 831.8 175.9C831.4 175.9 831.2 175.6 831.2 175.2C831.2 174.7 830.8 174.6 830.5 174.8C829.9 175.2 829.5 174.9 829.1 174.4C828.5 173.7 827.7 173.2 826.8 173C826.5 172.9 826.3 172.9 826.1 172.7C824.6 171.2 822.7 170.3 820.9 169.1C819.3 168 817.4 167.4 816 166C815.3 165.3 814.7 164.8 813.7 165.6C813.2 164.4 813 163.1 812.9 161.8Z" fill="#F4C087"/>
<path fill-rule="evenodd" clip-rule="evenodd" d="M852.3 186.1C852.6 185.4 852.5 184.9 851.7 184.6C851.4 184.5 851.2 184.3 851.1 184.1C850.8 183.5 850.3 183.3 849.6 183.3C849.3 183.3 848.8 183.5 848.8 182.9C848.8 182.3 849.3 182.5 849.7 182.4C849.9 182.4 850.1 182.4 850.2 182.1C849.7 181.8 849.2 181.9 848.7 182C847.8 182.1 847.3 181.6 846.7 181.1C846.3 180.8 846.7 180.7 846.9 180.7C847.3 180.7 847.7 180.7 848.1 180.8C848.2 181.2 848.5 181.2 848.8 181.2C849.4 181.2 850 181.2 850.7 181.2C854.4 181.2 858.1 181.4 861.7 180.8C864.5 180.3 867.2 179.8 869.9 179C874.2 177.7 878.4 176.1 882.3 173.9C886.4 171.7 890.2 169 893.7 165.9C893.8 165.8 893.9 165.8 894.1 165.7C893.8 166.7 892.9 167.3 892.2 167.9C889.3 170.5 886.4 172.9 883.1 175C879.2 177.5 875.1 179.6 870.8 181.3C865.2 183.5 859.4 185.2 853.4 185.9C853 186 852.7 186.1 852.3 186.1Z" fill="#F5BA73"/>
<path fill-rule="evenodd" clip-rule="evenodd" d="M800.6 143.7C800.5 144.3 800.1 144.8 799.9 145.3C799.9 145.4 799.7 145.6 799.6 145.4C799.5 145.3 799.6 145.1 799.6 145C800 144.3 799.5 143.3 800.2 142.6C800.3 143 799.9 143.6 800.6 143.7Z" fill="#F4CC9E"/>
<path fill-rule="evenodd" clip-rule="evenodd" d="M850.6 181.2C850 181.2 849.4 181.2 848.7 181.2C848.4 181.2 848.1 181.2 848 180.8C848.9 180.7 849.8 180.9 850.6 181.2Z" fill="#F4C793"/>
<path fill-rule="evenodd" clip-rule="evenodd" d="M897.2 162.6C897.2 162.9 897.1 163.1 896.8 163.1C896.8 162.8 896.9 162.7 897.2 162.6Z" fill="#F1A052"/>
<path fill-rule="evenodd" clip-rule="evenodd" d="M800.7 171.7C800.7 170.8 800.1 170 800.2 169.1C800.3 168.5 800.8 168.6 801.1 168.7C801.6 168.8 802.1 169 802.6 169.4C806.2 172.1 810.2 174.3 813.9 176.9C817.5 179.4 821.3 181.6 824.9 184.1C827.1 185.6 829.5 186.8 831.7 188.4C834.4 190.3 837.3 192 840.1 193.8C841.2 194.5 842.2 195.5 843.7 195.4C843.9 195.4 844.1 195.5 844.1 195.7C844.1 195.9 844.1 196 844 196.2C843.8 196.3 843.4 196.2 843.5 196.7C844.2 196.7 844.9 196.8 845.7 196.8C845.5 197.2 845 197.2 845.1 197.6C843.5 198.1 841.8 198 840.2 198.1C840.1 198.1 840.1 198.1 840 198.1C840 197.6 839.6 197.2 839.2 197.1C837.7 196.4 836.4 195.3 835 194.5C831.4 192.2 827.8 189.9 824.2 187.6C821.6 185.9 819.1 184.2 816.5 182.5C813.7 180.7 810.8 179 808.1 177C807.1 176.3 806 175.6 805 174.9C804 174.2 802.8 173.9 802.1 172.8C802 172.7 801.9 172.5 801.8 172.6C801.7 172.7 801.7 172.9 801.7 173.1C801.6 173.1 801.4 173.1 801.3 173.1C801.3 172.9 801.3 172.7 801.3 172.5C801.1 172.1 801.1 171.8 800.7 171.7Z" fill="#F5BA73"/>
<path fill-rule="evenodd" clip-rule="evenodd" d="M845 197.6C845 197.2 845.4 197.2 845.6 196.8C844.8 196.8 844.1 196.7 843.4 196.7C843.4 196.2 843.8 196.4 843.9 196.2C844 196.1 844.1 195.9 844 195.7C844 195.5 843.8 195.4 843.6 195.4C842.1 195.5 841.1 194.5 840 193.8C837.2 192 834.4 190.3 831.6 188.4C829.4 186.9 827 185.6 824.8 184.1C821.2 181.6 817.4 179.3 813.8 176.9C810.1 174.3 806.1 172.1 802.5 169.4C802.1 169.1 801.6 168.9 801 168.7C800.6 168.6 800.2 168.5 800.1 169.1C799.5 168.5 799.7 167.7 799.7 167C799.7 166.3 799.7 165.6 799.7 164.8C800.4 165.3 799.9 165.9 800.4 166.3C800.6 165.3 801.1 165.8 801.6 166.1C803.6 167.4 805.6 168.9 807.7 170.1C811.1 172.2 814.5 174.3 817.4 177.1C817.5 177.2 817.6 177.3 817.8 177.2C818.5 176.9 819.2 177.3 819.7 177.9C820.5 178.9 821.1 180.1 822.7 179.9C822.7 180 822.7 180.2 822.9 180.2L823 180.1C823 179.9 822.8 179.9 822.7 179.9C822.7 179.8 822.7 179.6 822.7 179.5C823.9 180.2 825 181.1 826.3 181.8C827.7 182.4 829 183.2 830.3 183.8C829.7 184 829.7 184 829.9 184.3C830.9 185.5 832 186.3 833.6 186.5C833.8 186.9 833.1 186.8 833.3 187.2C833.7 187.4 834.1 187.3 834.4 187.3C834.4 187.9 835.1 187.7 835.4 187.9C838 189.6 840.6 191.2 843.1 192.9C844.1 193.6 845.5 193.9 846.1 195.2C847 195.1 846.9 196.4 847.9 196.3C848.3 196.2 848.2 196.8 848.2 197.1C847 197.1 846.1 197.7 845 197.6Z" fill="#F7AD67"/>
<path fill-rule="evenodd" clip-rule="evenodd" d="M854.4 209.2C853.1 209.9 851.6 210.1 850.2 210.4C849.2 210.6 848.3 211 847.3 210.9C846.7 210.9 846.1 210.8 845.7 210.3C845.3 209.9 844.8 209.9 844.3 210.1C844 210.2 843.9 210.5 843.5 210.3C843.8 209.3 844.6 209.1 845.4 208.9C844.6 208.6 843.7 208.9 843 208.6C842.3 208.3 841.6 207.7 841 207.3C839.6 206.5 838.1 206 836.9 204.9C836.3 204.3 835.6 203.9 834.8 203.6C832 202.2 829.4 200.4 826.7 198.7C825.5 198 824.4 197.3 823 197.5C822.8 197.5 822.4 197.7 822.2 197.2C823 197.2 823.7 197.1 823.9 196.3C824.7 196.5 825.5 196.7 826.3 196.9C826.8 197.3 827.5 197.2 828.1 197.4C829.5 197.9 830.9 197.7 832.3 198C832.7 199.4 833.9 199.3 835 199.4C835 199.5 835 199.6 834.9 199.6C834.5 199.8 833.8 199.7 833.9 200.3C834 200.8 834.6 200.6 834.9 200.5C836 200.3 836.6 201.1 837.4 201.5C840.9 203.4 844 205.9 847.6 207.5C848.5 207.9 848.9 209.1 850.1 208.7C850.3 209.2 849.9 209.1 849.8 209.2C849.5 209.3 849.4 209.6 849.6 209.8C849.7 210.1 850 210 850.3 209.9C851.5 209.6 852.9 209.1 854.4 209.2Z" fill="#F3963A"/>
<path fill-rule="evenodd" clip-rule="evenodd" d="M832.1 198C830.7 197.7 829.2 197.9 827.9 197.4C827.3 197.2 826.6 197.4 826.1 196.9C826.5 196.4 827.5 197.2 827.5 196.2C827.5 195.6 826.7 196 826.3 195.8C826.2 195.8 826.2 195.7 826.1 195.6C826.2 195.5 826.5 195.3 826.5 195.2C826.4 194.9 826.1 195 825.9 195C825.4 194.9 824.6 195.3 824.4 194.6C824.2 194 823.7 193.7 823.2 193.4C822.3 192.8 821.4 192.4 820.5 191.8C818.3 190.1 815.9 188.8 813.6 187.2C813 186.8 812.4 186.6 811.8 186.3C811 186 810.2 185.6 809.7 184.9C809.4 184.2 809 184 808.4 184.4C808.2 184.5 808 184.6 808 184.4C808 183.6 807.1 183.5 807 182.8C807 182.5 806.9 182.1 806.4 182.1C806 182.2 806.2 182.6 806.1 182.9C806.1 183 806.1 183.2 806.1 183.3C805 182 804.3 180.5 803.5 179C803.5 178.7 803.5 178.4 803.5 178.1C804.1 178.4 804.2 179.3 805 179.2C805.3 179.2 805.6 179.3 805.8 179.5C807.1 180.5 808.5 181.3 809.9 182.1C812.6 183.8 815.1 185.7 817.9 187.3C821.6 189.4 825 192 828.7 194.3C829.8 195 830.7 196 832.1 195.9C832.3 195.9 832.9 196.3 832.7 196.5C831.7 197.3 832.9 197.1 833.1 197.3C833.3 197.5 833.7 197.5 833.7 197.9C833.4 197.9 833.1 197.9 832.8 197.9C832.7 198 832.4 198 832.1 198Z" fill="#F4C793"/>
<path fill-rule="evenodd" clip-rule="evenodd" d="M848 197.1C848 196.8 848.1 196.3 847.7 196.3C846.7 196.4 846.8 195.1 845.9 195.2C845.3 193.9 844 193.6 842.9 192.9C840.3 191.2 837.7 189.6 835.2 187.9C834.9 187.7 834.3 187.9 834.2 187.3C834.4 187.2 834.8 187.4 835 187C834.6 186.8 834.3 186.8 834.2 187.3C833.8 187.3 833.4 187.4 833.1 187.2C832.9 186.8 833.6 186.9 833.4 186.5C831.9 186.3 830.7 185.5 829.7 184.3C829.5 184 829.5 184 830.1 183.8C830.6 184.1 831 184.3 831.6 184.3C832 185.2 832.7 185.3 833.5 184.9C834.9 185 836.3 185.5 837.6 185.9C837 185.9 836.4 185.9 835.6 185.9C836.1 186.5 836.5 186.8 837.1 186.8C838.2 186.8 839.1 187.2 840 188.1C841.1 189.2 842.6 189.9 843.9 190.7C845.6 191.8 847.4 192.9 849.1 194.1C849.6 194.5 850.3 194.7 850.8 195.1C851.3 195.5 851.5 195.9 851.4 196.4C851.3 196.4 851.1 196.4 851 196.4C850.6 196.1 850.3 196 850.1 196.6C849.5 196.8 848.8 197.2 848 197.1Z" fill="#F5A85D"/>
<path fill-rule="evenodd" clip-rule="evenodd" d="M832.9 198C833.2 198 833.5 198 833.8 198C834.7 198 835.7 198.3 836.6 198.2C837.7 198.2 838.7 198.2 839.8 198.2C839 198.6 838.2 198.4 837.4 198.4C836.2 198.5 835 198.4 833.8 198.4C833.5 198.4 833.1 198.5 832.9 198Z" fill="#F39F48"/>
<path fill-rule="evenodd" clip-rule="evenodd" d="M850.2 196.7C850.4 196.1 850.7 196.2 851.1 196.5C850.8 196.8 850.5 196.7 850.2 196.7Z" fill="#F1A052"/>
<path fill-rule="evenodd" clip-rule="evenodd" d="M839.8 198C839.9 198 840 198 840 198C839.9 198.1 839.9 198.1 839.8 198.2C839.8 198.1 839.8 198.1 839.8 198Z" fill="#F39F48"/>
<path fill-rule="evenodd" clip-rule="evenodd" d="M823.7 196.3C823.5 197.2 822.8 197.2 822 197.2C822.2 197.7 822.6 197.6 822.8 197.5C824.2 197.3 825.3 198 826.5 198.7C829.2 200.4 831.7 202.2 834.6 203.6C835.3 204 836.1 204.4 836.7 204.9C837.9 206 839.5 206.5 840.8 207.3C841.5 207.7 842.1 208.4 842.8 208.6C843.5 208.9 844.4 208.5 845.2 208.9C844.3 209.1 843.5 209.3 843.3 210.3C843.6 210.5 843.8 210.2 844.1 210.1C844.6 209.9 845.1 209.8 845.5 210.3C846 210.8 846.5 210.9 847.1 210.9C845.1 211.5 843.1 211.8 841.1 211.8C839.9 211.9 838.9 211.6 838 210.6C837.7 210.3 837.3 210.1 836.9 209.9C835.4 209 833.8 208.2 832.3 207.2C829.4 205.3 826.4 203.6 823.5 201.8C821.1 200.3 818.6 198.8 816.1 197.4C815.3 197 814.7 196.3 813.9 195.9C810.7 194 807.4 192.1 804.1 190.2C802.2 189.1 800.3 187.9 798.5 186.7C797 185.7 795.4 184.9 793.9 184C791.7 182.6 789.7 180.9 787.1 180.3C787 180.3 786.8 180.1 786.7 180C786.4 179.6 786 179.5 785.5 179.5C784.5 177.5 784 175.3 783.4 173.2C783.2 172.3 782.8 171.4 782.9 170.5C783.5 170.6 783.3 171 783.3 171.4C783.2 172.1 783.6 172.5 784.1 172.9C785.3 173.8 786.6 174.7 787.9 175.5C790.4 177.1 792.7 178.8 795.4 180C796.4 180.5 797.4 181 798.3 181.6C799.8 182.6 801.4 183.6 803 184.5C803.8 185 804.4 185.9 805.5 185.6C805.7 185.6 805.7 185.8 805.8 185.9C806.6 186.3 807.2 187.1 808.2 187.4C809.1 187.6 808.8 187.2 808.8 186.9C809.8 187.6 810.6 188.5 811.5 189.3C814 191.5 816.8 193.3 819.9 194.7C821.1 195.2 822.5 195.5 823.7 196.3Z" fill="#F39F48"/>
<path fill-rule="evenodd" clip-rule="evenodd" d="M785.5 179.5C786 179.4 786.4 179.5 786.7 180C786.8 180.1 786.9 180.3 787.1 180.3C789.7 181 791.7 182.7 793.9 184C795.4 184.9 797 185.7 798.5 186.7C800.4 187.9 802.2 189.1 804.1 190.2C807.3 192.1 810.6 194 813.9 195.9C814.7 196.4 815.3 197 816.1 197.4C818.6 198.8 821.1 200.3 823.5 201.8C826.5 203.6 829.5 205.3 832.3 207.2C833.8 208.2 835.4 209 836.9 209.9C837.3 210.1 837.7 210.3 838 210.6C838.8 211.5 839.9 211.9 841.1 211.8C839.8 212.2 838.4 212.2 837 212.2C835.6 212.2 834.2 212.2 832.8 212.2C832.7 211.6 832.2 211.3 831.8 211C830 210 828.1 209 826.4 207.9C824.2 206.5 821.9 205.2 819.6 203.8C817.9 202.8 816.3 201.7 814.6 200.7C810.7 198.5 807.1 196 803.2 193.9C799.2 191.7 795.5 189 791.4 186.8C790.4 186.3 789.1 185.8 788.8 184.5C788.8 184.3 788.6 184.3 788.5 184.3C788.2 184.4 788.3 184.5 788.3 184.7C788.4 185 788.4 185.4 788.7 185.7C789.2 186.1 789.2 186.6 789 187.1C787.8 186 787.4 184.5 786.7 183.1C786.3 181.9 785.7 180.8 785.5 179.5Z" fill="#F6A652"/>
<path fill-rule="evenodd" clip-rule="evenodd" d="M789.2 187.1C789.5 186.6 789.4 186 788.9 185.7C788.6 185.4 788.6 185.1 788.5 184.7C788.4 184.5 788.4 184.3 788.7 184.3C788.9 184.3 789 184.4 789 184.5C789.3 185.9 790.6 186.3 791.6 186.8C795.6 189 799.3 191.7 803.4 193.9C807.3 196 810.9 198.6 814.8 200.7C816.5 201.6 818.1 202.8 819.8 203.8C822.1 205.2 824.4 206.4 826.6 207.9C828.4 209.1 830.2 210 832 211C832.4 211.2 832.9 211.6 833 212.2C831.3 212.3 829.6 212 827.8 211.8C827.4 211 827 210 825.8 210.9C825.7 211 825.3 211 825.3 210.8C825.2 210 824.4 210.2 824 209.9C824.1 209.5 824.6 209.7 824.6 209.3C824.2 209.1 823.8 209.1 823.3 208.9C821.4 207.8 819.7 206.4 817.7 205.3C814.9 203.8 812.3 202 809.6 200.3C806.2 198.2 802.6 196.3 799.2 194.1C798.3 193.5 797.3 193 796.4 192.6C795.6 192.2 795 191.5 794.1 191.3C793 191 792.6 189.5 791.2 189.6C791.1 188.8 790.6 189.2 790.3 189.3C789.9 188.6 789.2 188 789.2 187.1Z" fill="#F5A85D"/>
<path fill-rule="evenodd" clip-rule="evenodd" d="M790.3 189.4C790.7 189.3 791.1 188.8 791.2 189.7C792.6 189.5 793 191.1 794.1 191.4C795 191.6 795.6 192.3 796.4 192.7C797.4 193.1 798.3 193.6 799.2 194.2C802.6 196.4 806.1 198.3 809.6 200.4C812.3 202.1 814.9 203.9 817.7 205.4C819.6 206.5 821.4 207.9 823.3 209C823.7 209.3 824.2 209.2 824.6 209.4C824.6 209.8 824.1 209.6 824 210C824.4 210.2 825.2 210 825.3 210.9C825.3 211 825.6 211.1 825.8 211C827 210.2 827.3 211.1 827.8 211.9C825.9 211.9 824 211.5 822.2 211C822.2 210.7 822 210.6 821.7 210.6C821 210.5 820.4 210.2 819.8 209.7C819 209 818.2 209.1 817.4 209.7C817.3 209.7 817.1 209.7 817 209.6C817 209 817.6 208.9 818.1 208.5C816.6 208.2 815.6 207.6 814.8 206.5C814.5 206.1 814.1 205.8 813.5 205.8C813.2 205.8 812.9 205.8 812.7 205.6C811.9 204.9 810.8 204.6 810 204C808.3 202.8 806.3 202.2 804.6 200.9C803.9 200.3 803.1 199.5 802 199.5C801.9 199.5 801.7 199.4 801.7 199.3C801.5 198.4 800.7 198.4 800 198C799.2 197.5 798.1 197.5 797.4 196.8C796.8 196.2 796.3 196.1 795.8 196.7C793.7 194.5 791.9 192 790.3 189.4Z" fill="#F8B263"/>
<path fill-rule="evenodd" clip-rule="evenodd" d="M795.9 196.7C796.5 196.1 796.9 196.1 797.5 196.8C798.2 197.5 799.2 197.5 800.1 198C800.7 198.3 801.6 198.3 801.8 199.3C801.8 199.4 802 199.5 802.1 199.5C803.2 199.5 804 200.3 804.7 200.9C806.4 202.2 808.4 202.8 810.1 204C811 204.6 812 204.9 812.8 205.6C813 205.8 813.3 205.9 813.6 205.8C814.2 205.8 814.6 206.1 814.9 206.5C815.6 207.7 816.7 208.3 818.2 208.5C817.8 208.9 817.1 209 817.1 209.6C812.6 208.3 808.3 206.5 804.4 204C801.6 202.2 799 200 796.7 197.6C796.3 197.3 796 197.1 795.9 196.7Z" fill="#F5BA73"/>
<path fill-rule="evenodd" clip-rule="evenodd" d="M783.4 171.3C783.4 171 783.5 170.5 783 170.4C782.9 170.4 782.9 170.3 783 170.2C782.9 169.7 783.4 169 782.6 168.6C782.5 167.3 782.1 166 782.2 164.7C782.4 164.7 782.6 164.8 782.6 165C782.6 167.2 784 168 785.7 169C789.2 171.2 792.8 173.3 796.3 175.4C797.9 176.4 799.7 177.2 801.3 178.4C801.7 178.7 802.1 179 802.1 179.6C802.7 179.4 803 178.9 803.4 178.5C803.5 178.6 803.7 178.7 803.8 178.8C804.5 180.3 805.3 181.8 806.4 183.1C806.6 183.4 806.7 183.8 806.9 184.1C806.6 184.4 806.2 184.5 806.1 184C805.9 183.4 805.5 183.1 804.9 183.1C804.4 183.1 804.4 182.8 804.3 182.4C804.2 182 804.1 181.1 803.2 181.7C802.9 181.9 802.6 181.6 802.6 181.2C802.6 180.6 802.5 180.4 801.9 180.8C801.6 181 801.3 180.7 801.1 180.6C799.8 179.5 798.3 178.8 796.9 177.9C793.3 175.8 789.9 173.3 786.1 171.5C785.4 171.2 784.7 170.9 784.3 170.2C783.7 170.7 783.9 171.3 783.4 171.3Z" fill="#F39030"/>
<path fill-rule="evenodd" clip-rule="evenodd" d="M817.4 209.7C818.2 209 819 209 819.8 209.7C820.4 210.2 821 210.4 821.7 210.6C822 210.7 822.2 210.7 822.2 211C820.5 210.7 818.9 210.4 817.4 209.7Z" fill="#F5BA73"/>
<path fill-rule="evenodd" clip-rule="evenodd" d="M782.6 168.7C783.3 169.1 782.9 169.7 783 170.3C782.7 169.8 782.5 169.2 782.6 168.7Z" fill="#F39F48"/>
<path fill-rule="evenodd" clip-rule="evenodd" d="M803.6 179C803.5 178.9 803.3 178.8 803.2 178.7C803 178.2 802.7 177.7 802.7 177.1C802.8 176.4 802.7 175.8 801.9 175.5C801.7 174.9 801.6 174.4 801.4 173.8C801.4 173.5 801.4 173.2 801.4 172.9C801.4 172.7 801.4 172.5 801.5 172.4C801.6 172.3 801.7 172.4 801.8 172.6C802.5 173.7 803.7 174 804.7 174.7C805.7 175.4 806.8 176.1 807.8 176.8C810.6 178.7 813.4 180.4 816.2 182.3C818.8 184 821.3 185.7 823.9 187.4C827.5 189.7 831.1 192 834.7 194.3C836.1 195.2 837.4 196.2 838.9 196.9C839.3 197.1 839.7 197.4 839.7 197.9C838.6 198 837.5 197.7 836.5 198.1C835.5 198.2 834.6 197.9 833.7 197.9C833.7 197.5 833.3 197.5 833.1 197.3C832.9 197.1 831.7 197.3 832.7 196.5C832.9 196.4 832.3 195.9 832.1 195.9C830.7 195.9 829.8 194.9 828.7 194.3C825.1 192 821.6 189.5 817.9 187.3C815.2 185.7 812.6 183.8 809.9 182.1C808.5 181.2 807.1 180.4 805.8 179.5C805.6 179.3 805.3 179.2 805 179.2C804.1 179.3 804 178.4 803.3 178C803.2 178 803.3 178 803.4 178.1C803.5 178.2 803.5 178.1 803.5 178C803.4 177.9 803.4 177.9 803.3 177.8C803.3 177.8 803.2 177.9 803.3 178C803.6 178.5 803.6 178.7 803.6 179Z" fill="#F4C087"/>
<path fill-rule="evenodd" clip-rule="evenodd" d="M822.6 179.5C822.6 179.6 822.6 179.8 822.6 179.9C821 180.1 820.4 178.8 819.6 177.9C819.1 177.3 818.5 176.9 817.7 177.2C817.5 177.3 817.5 177.2 817.3 177.1C814.4 174.3 811 172.2 807.6 170.1C805.5 168.8 803.5 167.4 801.5 166.1C801 165.8 800.6 165.3 800.3 166.3C799.8 165.9 800.3 165.3 799.6 164.8C799.6 165.7 799.6 166.3 799.6 167C799.1 166.9 799.2 166.5 799.2 166.2C799.2 165.4 799.2 164.6 799.2 163.8C799.2 163.5 799.2 163.2 798.8 163.1C798.8 162.8 798.8 162.5 798.8 162.2C799.5 162.6 800.8 161.6 801 163.2C801 163.4 801.2 163.4 801.4 163.5C803.5 164.5 805.5 165.8 807.3 167.2C808.6 168.1 810 168.8 811.3 169.7C812.5 170.4 813.6 171.3 814.9 172C815.3 172.2 815.7 172.6 816.2 172.2C816.4 172.5 816.7 172.8 816.9 173.1C818.2 175 819.5 176.8 821.2 178.4C821.2 178.7 821.3 178.8 821.6 178.8C821.7 178.9 821.8 178.9 821.8 179C821.9 179 821.9 179 822 179C822.2 179.3 822.3 179.5 822.6 179.5ZM817.4 175.4C817.4 175.1 817.4 174.7 817 174.7C816.7 174.7 816.6 174.8 816.6 175.1C816.6 175.5 816.9 175.7 817.2 175.8C817.5 176 817.4 175.6 817.4 175.4Z" fill="#F5A85D"/>
<path fill-rule="evenodd" clip-rule="evenodd" d="M802 175.6C802.7 175.9 802.9 176.4 802.8 177.2C802.3 176.7 802.1 176.2 802 175.6Z" fill="#F5BA73"/>
<path fill-rule="evenodd" clip-rule="evenodd" d="M801.5 173C801.5 173.3 801.5 173.6 801.5 173.9C801 173.8 801.1 173.4 801.1 173C801.2 173 801.4 173 801.5 173Z" fill="#F7AD67"/>
<path fill-rule="evenodd" clip-rule="evenodd" d="M800.7 171.7C801.1 171.8 801.1 172.1 801.1 172.4C800.8 172.2 800.6 172 800.7 171.7Z" fill="#F7AD67"/>
<path fill-rule="evenodd" clip-rule="evenodd" d="M798.9 163.1C799.3 163.1 799.3 163.4 799.3 163.8C799.1 163.6 798.9 163.4 798.9 163.1Z" fill="#F1A052"/>
<path fill-rule="evenodd" clip-rule="evenodd" d="M822.2 179.1C822.1 179.1 822.1 179.1 822 179.1C821.9 179 821.9 179 821.8 178.9C821.8 178.6 821.6 178.5 821.4 178.5C819.7 176.9 818.4 175.1 817.1 173.2C816.9 172.9 816.6 172.6 816.4 172.3C815.9 170.9 814.9 169.7 814.7 168.2C815 168.1 814.9 167.2 815.5 167.8C816 168.3 816.7 168.6 817.3 169C820.9 171.4 824.5 173.7 828.3 175.9C829.4 176.5 830.4 177.2 831.4 177.8C833.7 179.2 835.9 180.7 838.2 182.1C840.2 183.3 841.9 184.9 844.2 185.4C843.4 186.5 842.2 185.9 841.3 186.4C840.9 186.4 840.4 186.4 840 186.4C839.9 186.2 839.7 186.2 839.6 186.2C839.1 186.2 838.6 186.2 838.1 186.2H838H837.9C836.5 185.8 835.2 185.3 833.8 185.2C833.2 185 832.5 184.8 831.9 184.6C831.3 184.6 830.9 184.4 830.4 184.1C829.1 183.4 827.8 182.7 826.4 182.1C825.1 181.5 824.1 180.5 822.8 179.8C822.6 179.2 822.5 179.1 822.2 179.1Z" fill="#F4CC9E"/>
<path fill-rule="evenodd" clip-rule="evenodd" d="M841.1 186.2C842 185.7 843.2 186.3 844 185.2C841.7 184.7 840 183.1 838 181.9C835.7 180.6 833.5 179 831.2 177.6C830.2 177 829.2 176.3 828.1 175.7C824.3 173.6 820.7 171.2 817.1 168.8C816.5 168.4 815.8 168.2 815.3 167.6C814.7 167 814.8 167.9 814.5 168C814.2 167.7 814.2 167.3 814.1 166.9C814.4 166.5 814.3 166.3 813.9 166.3C813.8 166.1 813.8 165.9 813.7 165.6C814.6 164.8 815.2 165.3 816 166C817.4 167.3 819.3 168 820.9 169.1C822.6 170.3 824.5 171.2 826.1 172.7C826.3 172.9 826.5 173 826.8 173C827.7 173.2 828.5 173.7 829.1 174.4C829.5 174.9 829.9 175.2 830.5 174.8C830.8 174.6 831.2 174.7 831.2 175.2C831.2 175.6 831.3 176 831.8 175.9C833.1 175.8 833.7 176.6 834.4 177.4C834.6 177.7 835 177.9 835.4 178.1C836.5 178.5 837.4 179.4 838.5 179.8C839.1 180 839 180.2 838.6 180.7C839.6 180.2 840 180.4 840.4 181.3C840.8 181.9 841.7 182.2 842.4 182.7C843.4 183.3 844.5 183.9 845.3 184.8C845.8 185.4 846.5 185.1 847.1 185.1C848.1 185 848.6 185.4 848.4 186.4C846 186.4 843.5 186.4 841.1 186.4C841.2 186.3 841.1 186.2 841.1 186.2Z" fill="#F4C793"/>
<path fill-rule="evenodd" clip-rule="evenodd" d="M814 166.3C814.4 166.4 814.6 166.6 814.2 166.9C814 166.8 814 166.6 814 166.3Z" fill="#F4C087"/>
<path fill-rule="evenodd" clip-rule="evenodd" d="M837.9 185.9C838.4 185.9 838.9 185.9 839.4 185.9C839.4 186 839.4 186 839.4 186.1C838.9 186.4 838.3 186.7 837.9 185.9Z" fill="#F5A85D"/>
<path fill-rule="evenodd" clip-rule="evenodd" d="M841.1 186.2C841.1 186.3 841.1 186.3 841.1 186.4C840.7 186.4 840.2 186.6 839.8 186.2C840.3 186.2 840.7 186.2 841.1 186.2Z" fill="#F5A85D"/>
<path fill-rule="evenodd" clip-rule="evenodd" d="M839.4 186.1C839.4 186 839.4 186 839.4 185.9C839.6 185.9 839.7 185.9 839.8 186.1C839.7 186.1 839.6 186.1 839.4 186.1Z" fill="#F4C793"/>
<path fill-rule="evenodd" clip-rule="evenodd" d="M822.6 179.9C822.7 179.9 822.9 179.9 822.9 180.1L822.8 180.2C822.6 180.2 822.6 180 822.6 179.9Z" fill="#F5A85D"/>
<path fill-rule="evenodd" clip-rule="evenodd" d="M823.7 196.3C822.5 195.5 821.1 195.3 819.9 194.7C816.8 193.3 814 191.5 811.5 189.3C810.6 188.5 809.8 187.6 808.8 186.9C808 186.4 807.7 185.4 807.1 184.7C807.1 184.1 806.9 183.6 806.2 183.4C806.2 183.3 806.2 183.1 806.2 183C806.3 182.7 806.1 182.3 806.5 182.2C806.9 182.1 807 182.6 807.1 182.9C807.2 183.6 808.1 183.7 808.1 184.5C808.1 184.7 808.4 184.6 808.5 184.5C809.1 184.2 809.5 184.4 809.8 185C810.2 185.8 811.1 186.1 811.9 186.4C812.5 186.7 813.2 186.9 813.7 187.3C816 188.8 818.4 190.2 820.6 191.9C821.4 192.5 822.4 192.9 823.3 193.5C823.8 193.8 824.2 194.1 824.5 194.7C824.8 195.4 825.5 195 826 195.1C826.2 195.1 826.6 195 826.6 195.3C826.6 195.4 826.3 195.6 826.2 195.7C826.3 195.8 826.3 195.9 826.4 195.9C826.8 196.1 827.5 195.7 827.6 196.3C827.6 197.3 826.5 196.5 826.2 197C825.3 196.7 824.5 196.5 823.7 196.3Z" fill="#F4CC9E"/>
<path fill-rule="evenodd" clip-rule="evenodd" d="M831.7 184.2C832.3 184.4 833 184.6 833.6 184.8C832.7 185.3 832.1 185.2 831.7 184.2Z" fill="#F7AD67"/>
<path fill-rule="evenodd" clip-rule="evenodd" d="M834.3 187.2C834.4 186.7 834.7 186.7 835.1 186.9C834.8 187.4 834.5 187.2 834.3 187.2Z" fill="#F7AD67"/>
<path fill-rule="evenodd" clip-rule="evenodd" d="M836.6 198.2C837.7 197.8 838.8 198.1 839.8 198C839.8 198.1 839.8 198.1 839.8 198.2C838.8 198.2 837.7 198.2 836.6 198.2Z" fill="#F5BA73"/>
<path fill-rule="evenodd" clip-rule="evenodd" d="M807.1 184.7C807.7 185.4 808 186.4 808.8 186.9C808.7 187.3 809 187.7 808.2 187.4C807.2 187.1 806.7 186.3 805.8 185.9C805.7 185.8 805.7 185.6 805.5 185.6C804.4 185.9 803.7 185 803 184.5C801.4 183.6 799.9 182.6 798.3 181.6C797.4 181 796.4 180.4 795.4 180C792.7 178.8 790.4 177 787.9 175.5C786.6 174.7 785.4 173.8 784.1 172.9C783.6 172.5 783.3 172.1 783.3 171.4C783.8 171.4 783.6 170.8 784 170.6C784.4 171.3 785.1 171.5 785.8 171.9C789.6 173.7 793 176.1 796.6 178.3C798 179.2 799.5 179.9 800.8 181C801 181.2 801.3 181.4 801.6 181.2C802.2 180.8 802.3 181.1 802.3 181.6C802.3 182 802.6 182.3 802.9 182.1C803.8 181.5 803.8 182.4 804 182.8C804.1 183.2 804.2 183.4 804.6 183.5C805.2 183.6 805.6 183.8 805.8 184.4C806 184.9 806.3 184.8 806.6 184.5C806.8 184.5 806.9 184.6 807.1 184.7Z" fill="#F3963A"/>
<path fill-rule="evenodd" clip-rule="evenodd" d="M807.1 184.7C807 184.6 806.8 184.5 806.7 184.5C806.5 184.2 806.4 183.8 806.2 183.5C806.9 183.5 807.1 184 807.1 184.7Z" fill="#F4C793"/>
<path fill-rule="evenodd" clip-rule="evenodd" d="M803.3 178C803.4 177.9 803.4 177.9 803.4 177.9C803.5 178 803.5 178 803.6 178.1C803.7 178.2 803.6 178.2 803.5 178.2C803.5 178.1 803.4 178.1 803.3 178Z" fill="#F4C793"/>
<path fill-rule="evenodd" clip-rule="evenodd" d="M817.4 175.4C817.4 175.6 817.4 175.9 817.1 175.8C816.8 175.7 816.5 175.5 816.5 175.1C816.5 174.9 816.6 174.7 816.9 174.7C817.5 174.8 817.4 175.1 817.4 175.4Z" fill="#F7AD67"/>
<path fill-rule="evenodd" clip-rule="evenodd" d="M821.3 178.4C821.6 178.4 821.7 178.6 821.7 178.8C821.5 178.8 821.3 178.7 821.3 178.4Z" fill="#F7AD67"/>
<path fill-rule="evenodd" clip-rule="evenodd" d="M822.2 179.1C822.5 179.1 822.6 179.2 822.6 179.5C822.3 179.5 822.2 179.3 822.2 179.1Z" fill="#F7AD67"/>
<path fill-rule="evenodd" clip-rule="evenodd" d="M821.8 178.8C821.9 178.9 822 178.9 822 179C821.9 179 821.8 178.9 821.8 178.8Z" fill="#F7AD67"/>
</g>
<defs>
<clipPath id="clip0">
<rect width="1440" height="541" fill="white"/>
</clipPath>
</defs>
</svg>
