<svg width="1440" height="540" viewBox="0 0 1440 540" fill="none" xmlns="http://www.w3.org/2000/svg">
<path d="M1440 0H0V540H1440V0Z" fill="url(#paint0_linear)"/>
<path d="M1419 21.9592H19V519.039H1419V21.9592Z" fill="white"/>
<path d="M279.58 329.909V307.161H287.79V327.474C287.79 333.023 290.57 336.208 295.46 336.208C300.21 336.208 303.53 332.894 303.53 327.334V307.151H311.74V342.905H303.53V337.355C301.22 340.739 297.9 343.654 292.34 343.654C284.26 343.654 279.58 338.244 279.58 329.909Z" fill="url(#paint1_linear)"/>
<path d="M322.05 307.161H330.26V312.711C332.57 309.327 335.89 306.413 341.45 306.413C349.52 306.413 354.2 311.833 354.2 320.157V342.905H345.99V322.603C345.99 317.053 343.21 313.869 338.32 313.869C333.57 313.869 330.25 317.183 330.25 322.742V342.925H322.04V307.161H322.05Z" fill="url(#paint2_linear)"/>
<path d="M365.8 333.023V314.198H361.25V307.161H365.8V297.339H374.01V307.161H383.64V314.198H374.01V331.736C374.01 334.92 375.64 336.207 378.42 336.207C380.25 336.207 381.88 335.798 383.51 334.99V341.697C381.47 342.845 379.17 343.524 376.12 343.524C370.07 343.524 365.8 340.879 365.8 333.023Z" fill="url(#paint3_linear)"/>
<path d="M391.51 329.909V307.161H399.72V327.474C399.72 333.023 402.5 336.208 407.39 336.208C412.14 336.208 415.46 332.894 415.46 327.334V307.151H423.67V342.905H415.46V337.355C413.15 340.739 409.83 343.654 404.27 343.654C396.19 343.654 391.51 338.244 391.51 329.909Z" fill="url(#paint4_linear)"/>
<path d="M433.98 307.161H442.19V312.711C444.5 309.327 447.82 306.413 453.38 306.413C461.45 306.413 466.13 311.833 466.13 320.157V342.905H457.92V322.603C457.92 317.053 455.14 313.869 450.25 313.869C445.5 313.869 442.18 317.183 442.18 322.742V342.925H433.97V307.161H433.98Z" fill="url(#paint5_linear)"/>
<path d="M475.97 349.613L479.02 343.454C482.82 345.82 486.89 347.247 491.77 347.247C499.1 347.247 503.1 343.454 503.1 336.277V333.502C500.12 337.365 496.38 340.07 490.48 340.07C482.07 340.07 474.2 333.842 474.2 323.341V323.201C474.2 312.641 482.14 306.413 490.48 306.413C496.52 306.413 500.25 309.187 503.03 312.511V307.161H511.24V335.599C511.24 341.627 509.68 346.089 506.69 349.074C503.43 352.328 498.41 353.885 491.97 353.885C486.08 353.885 480.58 352.397 475.97 349.613ZM503.17 323.341V323.201C503.17 317.312 498.35 313.32 492.65 313.32C486.95 313.32 482.47 317.243 482.47 323.142V323.281C482.47 329.17 487.02 333.163 492.65 333.163C498.36 333.163 503.17 329.101 503.17 323.341Z" fill="url(#paint6_linear)"/>
<path d="M550.05 337.365V342.915H541.84V293.487H550.05V313.12C552.7 309.397 556.43 306.413 562.19 306.413C570.67 306.413 578.88 313.12 578.88 324.968V325.108C578.88 336.956 570.74 343.664 562.19 343.664C556.29 343.654 552.56 340.679 550.05 337.365ZM570.54 325.108V324.968C570.54 318.061 565.86 313.529 560.3 313.529C554.74 313.529 549.85 318.131 549.85 324.968V325.108C549.85 332.015 554.73 336.557 560.3 336.557C565.92 336.547 570.54 332.145 570.54 325.108Z" fill="url(#paint7_linear)"/>
<path d="M609.2 342.915V338.513C606.76 341.428 603.03 343.664 597.6 343.664C590.82 343.664 584.85 339.801 584.85 332.624V332.494C584.85 324.569 591.02 320.776 599.37 320.776C603.71 320.776 606.49 321.385 609.28 322.263V321.585C609.28 316.644 606.16 313.929 600.46 313.929C596.46 313.929 593.47 314.807 590.22 316.165L587.98 309.597C591.91 307.84 595.78 306.612 601.62 306.612C612.2 306.612 617.36 312.162 617.36 321.714V342.905H609.2V342.915ZM609.41 327.953C607.31 327.144 604.39 326.535 601.2 326.535C596.04 326.535 592.99 328.632 592.99 332.085V332.225C592.99 335.609 596.04 337.505 599.91 337.505C605.34 337.505 609.41 334.461 609.41 329.989V327.953Z" fill="url(#paint8_linear)"/>
<path d="M627.11 307.161H635.32V315.216C637.56 309.866 641.7 306.213 648.01 306.482V315.146H647.53C640.34 315.146 635.32 319.818 635.32 329.3V342.915H627.11V307.161Z" fill="url(#paint9_linear)"/>
<path d="M651.94 325.168V325.038C651.94 314.817 659.2 306.413 669.44 306.413C680.84 306.413 686.6 315.356 686.6 325.647C686.6 326.396 686.53 327.134 686.47 327.953H660.15C661.03 333.772 665.17 337.026 670.46 337.026C674.46 337.026 677.31 335.539 680.16 332.764L684.98 337.026C681.59 341.088 676.91 343.733 670.33 343.733C659.95 343.723 651.94 336.207 651.94 325.168ZM678.47 322.533C677.93 317.253 674.81 313.12 669.38 313.12C664.36 313.12 660.83 316.983 660.09 322.533H678.47Z" fill="url(#paint10_linear)"/>
<path d="M694.88 307.161H703.09V312.711C705.4 309.327 708.72 306.413 714.29 306.413C722.36 306.413 727.04 311.833 727.04 320.157V342.905H718.83V322.603C718.83 317.053 716.05 313.869 711.16 313.869C706.41 313.869 703.09 317.183 703.09 322.742V342.925H694.88V307.161Z" fill="url(#paint11_linear)"/>
<path d="M736.87 349.613L739.92 343.454C743.72 345.82 747.79 347.247 752.67 347.247C760 347.247 764 343.454 764 336.277V333.502C761.02 337.365 757.28 340.07 751.38 340.07C742.97 340.07 735.1 333.842 735.1 323.341V323.201C735.1 312.641 743.04 306.413 751.38 306.413C757.42 306.413 761.15 309.187 763.93 312.511V307.161H772.14V335.599C772.14 341.627 770.58 346.089 767.6 349.074C764.34 352.328 759.32 353.885 752.88 353.885C746.98 353.885 741.48 352.397 736.87 349.613ZM764.08 323.341V323.201C764.08 317.312 759.26 313.32 753.56 313.32C747.86 313.32 743.38 317.243 743.38 323.142V323.281C743.38 329.17 747.92 333.163 753.56 333.163C759.26 333.163 764.08 329.101 764.08 323.341Z" fill="url(#paint12_linear)"/>
<path d="M802.74 293.487H810.95V323.012L825.81 307.161H835.78L821.53 321.724L836.25 342.915H826.75L815.96 327.474L810.94 332.684V342.905H802.73V293.487H802.74Z" fill="url(#paint13_linear)"/>
<path d="M842.36 293.886H851.18V301.672H842.36V293.886ZM842.7 307.162H850.91V342.916H842.7V307.162Z" fill="url(#paint14_linear)"/>
<path d="M863.32 333.023V314.198H858.78V307.161H863.32V297.339H871.53V307.161H881.16V314.198H871.53V331.736C871.53 334.92 873.16 336.207 875.94 336.207C877.77 336.207 879.4 335.798 881.03 334.99V341.697C878.99 342.845 876.69 343.524 873.64 343.524C867.59 343.524 863.32 340.879 863.32 333.023Z" fill="url(#paint15_linear)"/>
<path d="M911.35 342.915V338.513C908.91 341.428 905.18 343.664 899.75 343.664C892.96 343.664 887 339.801 887 332.624V332.494C887 324.569 893.17 320.776 901.52 320.776C905.86 320.776 908.64 321.385 911.42 322.263V321.585C911.42 316.644 908.3 313.929 902.6 313.929C898.6 313.929 895.61 314.807 892.36 316.165L890.12 309.597C894.06 307.84 897.92 306.612 903.76 306.612C914.34 306.612 919.5 312.162 919.5 321.714V342.905H911.35V342.915ZM911.55 327.953C909.45 327.144 906.53 326.535 903.34 326.535C898.18 326.535 895.13 328.632 895.13 332.085V332.225C895.13 335.609 898.18 337.505 902.05 337.505C907.48 337.505 911.55 334.461 911.55 329.989V327.953Z" fill="url(#paint16_linear)"/>
<path d="M926.41 349.283C930.55 348.475 932.52 346.369 932.18 342.915H928.72V333.642H937.74V341.498C937.74 349.014 934.14 352.198 927.29 352.737L926.41 349.283Z" fill="url(#paint17_linear)"/>
<path d="M966.7 351.788L969.48 345.69C970.97 346.498 972.6 347.047 974.3 347.047C976.61 347.047 978.03 346.029 979.39 342.915L964.47 307.161H973.22L983.4 333.702L992.69 307.161H1001.24L986.99 343.933C984.14 351.25 980.95 353.954 975.19 353.954C971.72 353.954 969.21 353.136 966.7 351.788Z" fill="url(#paint18_linear)"/>
<path d="M1007.88 329.909V307.161H1016.09V327.474C1016.09 333.023 1018.87 336.208 1023.76 336.208C1028.51 336.208 1031.83 332.894 1031.83 327.334V307.151H1040.04V342.905H1031.83V337.355C1029.52 340.739 1026.2 343.654 1020.64 343.654C1012.56 343.654 1007.88 338.244 1007.88 329.909Z" fill="url(#paint19_linear)"/>
<path d="M1050.35 293.487H1058.56V323.012L1073.42 307.161H1083.39L1069.14 321.724L1083.86 342.915H1074.36L1063.57 327.474L1058.55 332.684V342.905H1050.34V293.487H1050.35Z" fill="url(#paint20_linear)"/>
<path d="M1096.75 333.632H1105.84V342.905H1096.75V333.632ZM1120.91 333.632H1130V342.905H1120.91V333.632ZM1142.91 333.632H1152V342.905H1142.91V333.632Z" fill="url(#paint21_linear)"/>
<path fill-rule="evenodd" clip-rule="evenodd" d="M755.37 202.924C757.21 199.65 759.22 196.506 761.82 193.781C766.38 188.98 771.77 185.626 778.46 184.788C784.29 184.059 789.68 185.187 794.01 189.429C798.11 193.452 798.88 198.413 797.53 203.823C796.99 205.979 796.09 207.995 794.95 209.901C793.76 211.908 791.8 212.706 789.86 212.017C787.99 211.359 787.6 210.071 788.6 208.394C790.5 205.19 791.45 201.726 791.01 197.993C790.59 194.46 787.95 192.174 783.92 191.595C777.87 190.727 772.82 192.703 768.49 196.826C765.09 200.07 762.68 204.012 760.68 208.214C758.3 213.205 755.47 217.926 752.32 222.458C746.9 230.274 740.51 237.181 732.75 242.75C723.81 249.169 713.93 253.261 702.95 254.509C691.17 255.846 679.77 254.259 668.9 249.538C657.38 244.527 649.74 235.873 645.54 224.125C643.76 219.104 642.6 213.944 642.14 208.634C642.13 208.494 642.14 208.334 641.98 208.264C641.98 205.839 641.98 203.423 641.98 200.998C642.29 200.838 642.16 200.529 642.18 200.289C642.74 195.149 644.06 190.238 646.44 185.626C649 180.685 652.65 177.002 658.11 175.335C659 175.066 659.94 175.006 660.79 174.597C661.79 174.597 662.8 174.597 663.81 174.597C664.59 174.966 665.76 175.006 665.87 176.084C666.02 177.471 665.47 178.729 664.5 179.767C664.34 179.937 664.15 180.067 663.96 180.216C663 180.476 661.98 180.406 661.03 180.825C658.29 182.013 656.15 183.919 654.4 186.265C649.54 192.783 647.9 200.139 648.77 208.135C649.5 214.862 651.46 221.2 654.77 227.109C658.3 233.408 662.81 238.878 669.16 242.501C679.03 248.13 689.72 249.887 700.95 248.55C710.01 247.472 718.34 244.338 726 239.437C739.87 230.543 748.94 217.787 755.37 202.924Z" fill="#332F2D"/>
<path fill-rule="evenodd" clip-rule="evenodd" d="M696.45 274.133C695.57 273.803 694.67 274.053 693.78 273.983C692.48 273.883 691.16 274.113 689.87 273.823C694.84 273.733 699.82 273.833 704.8 273.953C704.8 274.013 704.79 274.083 704.79 274.143C702.01 274.133 699.23 274.133 696.45 274.133Z" fill="#FCCC9E"/>
<path fill-rule="evenodd" clip-rule="evenodd" d="M704.79 274.133C704.79 274.073 704.8 274.013 704.8 273.943C710.95 273.943 717.1 273.953 723.25 273.953C723.25 274.013 723.25 274.073 723.25 274.133C717.1 274.133 710.95 274.133 704.79 274.133Z" fill="#FCC793"/>
<path fill-rule="evenodd" clip-rule="evenodd" d="M723.25 274.133C723.25 274.073 723.25 274.013 723.25 273.953C725.31 273.933 727.38 273.973 729.44 273.893C732.47 273.763 735.5 273.773 738.54 273.813C737.22 274.113 735.87 273.883 734.54 273.983C733.68 274.043 732.8 273.823 731.95 274.133C729.04 274.133 726.15 274.133 723.25 274.133Z" fill="#FCCC9E"/>
<path fill-rule="evenodd" clip-rule="evenodd" d="M745.96 205.03C747.47 203.304 748.33 201.118 749.89 199.421C750.13 199.301 750.35 199.161 750.6 199.071C751.65 198.682 752.55 199.471 752.7 200.878C752.87 202.415 752.54 203.882 751.91 205.26C748.5 212.686 744.17 219.513 738.63 225.562C732.51 232.24 725.35 237.49 717.03 241.104C714.99 241.992 712.92 242.86 710.73 243.339C709.49 243.2 708.35 243.639 707.19 243.938C706.98 243.988 706.77 244.068 706.65 243.828C706.55 243.619 706.6 243.429 706.85 243.329C706.98 243.279 707.25 243.339 707.11 242.94C706.11 243.309 705.76 242.271 705.05 241.972C702.03 240.674 699.5 238.558 696.63 237.031C695.99 236.692 695.49 236.013 694.6 236.213C694.33 236.272 693.83 236.422 693.75 236.033C693.63 235.484 694.22 235.584 694.53 235.434C694.56 235.424 694.56 235.344 694.59 235.234C693.72 235.125 692.72 235.194 692.4 234.077C692.63 234.096 692.87 234.106 693.1 234.116C693.19 234.536 693.53 234.446 693.81 234.446C694.81 234.456 695.81 234.476 696.81 234.436C697.47 234.406 698.16 234.635 698.79 234.276C698.85 234.226 698.9 234.176 698.97 234.126C700.34 234.086 701.71 234.116 703.04 233.737C703.91 233.857 704.68 233.378 705.52 233.378C706.15 233.418 706.71 233.128 707.3 233.028C707.54 233.009 707.82 233.098 708.01 232.859C708.13 232.859 708.24 232.849 708.36 232.849C709.19 232.589 710.09 232.479 710.86 232.15C712.31 231.541 713.88 231.332 715.28 230.583C716.49 229.954 717.83 229.575 719.06 228.976C721.63 227.708 724.12 226.291 726.55 224.774C728.06 223.826 729.5 222.787 730.87 221.669C732.6 220.272 734.27 218.785 735.9 217.248C737.15 216.07 738.33 214.802 739.55 213.604C740.28 212.886 740.86 211.948 741.54 211.179C742.94 209.602 744.17 207.925 745.36 206.198C745.52 205.969 745.67 205.779 745.57 205.489C745.57 205.45 745.59 205.41 745.63 205.4C745.87 205.41 745.96 205.27 745.96 205.03Z" fill="#F68F2F"/>
<path fill-rule="evenodd" clip-rule="evenodd" d="M662.2 182.722C663.02 182.482 663.86 182.252 664.68 182.013C665.98 182.302 666.35 182.782 666.46 184.119C666.58 185.626 666.24 187.084 666.08 188.561C665.5 189.12 665.94 189.928 665.59 190.537C665.53 190.627 665.41 190.717 665.41 190.817C665.22 193.801 665.01 196.786 664.87 199.77C664.8 201.417 665.14 203.044 665.05 204.701C665.05 204.93 665.05 205.17 665.05 205.4C665.02 205.659 665.16 205.829 665.38 205.949C665.38 206.607 665.38 207.266 665.39 207.925C665.39 208.204 665.34 208.524 665.72 208.624C665.78 209.223 665.56 209.881 666.08 210.38C665.94 211.129 666.45 211.768 666.46 212.496C666.43 212.756 666.57 212.926 666.77 213.055C666.78 213.225 666.79 213.385 666.8 213.555C666.81 213.844 666.7 214.183 667.13 214.283C667.27 214.752 667.4 215.211 667.54 215.681C667.65 216.15 667.83 216.609 668.18 216.968C668.16 217.457 668.46 217.857 668.59 218.306C668.29 218.595 668.05 218.974 667.56 219.174C667.54 218.645 667.23 218.435 666.88 218.176C665.6 217.218 664.14 216.549 662.79 215.711C659.89 213.914 656.95 212.197 654.03 210.42C652.69 209.602 651.49 208.873 651.52 207.106C651.53 206.937 651.38 206.867 651.22 206.827C650.67 200.738 651.86 195.039 655.07 189.799C655.68 188.8 656.33 187.822 657.12 186.954C657.4 186.654 657.61 186.315 657.78 185.936C658.24 185.896 658.45 185.566 658.64 185.217C659.01 185.067 659.26 184.788 659.5 184.488C659.61 184.488 659.68 184.448 659.7 184.329C660.53 183.78 661.31 183.161 662.2 182.722Z" fill="#F68F2F"/>
<path fill-rule="evenodd" clip-rule="evenodd" d="M665.06 204.701C665.15 203.054 664.81 201.417 664.88 199.77C665.02 196.786 665.23 193.801 665.42 190.817C665.42 190.717 665.54 190.627 665.6 190.537C665.61 190.647 665.57 190.787 665.63 190.867C665.75 191.026 665.84 190.857 665.88 190.787C666.1 190.357 666.39 189.968 666.48 189.469C667.81 187.143 669.31 184.948 671.39 183.191C672.57 182.183 673.92 181.474 675.41 181.055C676.81 180.655 677.74 181.394 677.86 182.851C677.96 184.129 677.43 185.327 677.5 186.594C676.26 191.356 675.85 196.197 676.1 201.088C676.15 202.166 676.1 203.313 676.59 204.352C676.68 205.45 676.86 206.528 677.31 207.536C677.37 207.715 677.42 207.895 677.48 208.075C677.48 208.274 677.45 208.474 677.65 208.604C677.72 208.913 677.77 209.233 677.99 209.492C678.23 210.71 679.03 211.698 679.42 212.846C679 213.235 678.68 212.886 678.32 212.716C677.27 212.197 676.35 211.468 675.36 210.85C674.27 210.171 673.11 209.602 672.07 208.823C670.54 207.665 668.93 206.587 667.18 205.769C667.04 205.709 666.87 205.699 666.85 205.529C666.71 204.242 665.65 204.99 665.06 204.701Z" fill="#F4A052"/>
<path fill-rule="evenodd" clip-rule="evenodd" d="M745.56 205.5C745.65 205.789 745.51 205.979 745.35 206.208C744.15 207.925 742.93 209.612 741.53 211.189C740.85 211.958 740.27 212.896 739.54 213.614C738.32 214.812 737.14 216.08 735.89 217.258C734.26 218.795 732.59 220.272 730.86 221.68C729.49 222.787 728.05 223.836 726.54 224.784C724.11 226.311 721.62 227.728 719.05 228.986C717.82 229.585 716.48 229.954 715.27 230.593C713.86 231.332 712.29 231.551 710.85 232.16C710.07 232.49 709.18 232.599 708.35 232.859C708.4 232.39 708.27 232.09 707.84 231.761C707.4 231.431 706.89 231.222 706.44 230.912C705.04 229.934 703.6 229.026 702.17 228.098C701.09 227.389 699.85 226.84 698.96 225.942C698.22 225.193 697.47 224.924 696.54 224.904C696.06 224.894 695.77 224.644 695.33 224.175C696.03 224.175 696.52 224.175 697.02 224.175H697.1L697.18 224.185C697.52 224.794 697.97 224.594 698.42 224.355C698.53 224.355 698.65 224.345 698.77 224.335V224.365C699.09 224.674 699.49 224.494 699.85 224.534C701.85 224.534 703.86 224.534 705.87 224.534C706.95 224.654 708 224.404 709.06 224.345C709.35 224.295 709.64 224.225 709.93 224.195C714.9 223.636 719.66 222.239 724.29 220.392C727.82 218.985 731.18 217.228 734.4 215.182C737.09 213.465 739.55 211.468 741.9 209.342C742.49 208.813 743.25 208.374 743.49 207.516C744.13 206.807 744.77 206.068 745.56 205.5Z" fill="#F4A052"/>
<path fill-rule="evenodd" clip-rule="evenodd" d="M676.57 204.342C676.08 203.303 676.14 202.156 676.08 201.078C675.82 196.187 676.23 191.346 677.48 186.584C678.61 185.177 679.6 183.64 681.06 182.512C681.97 181.803 682.94 181.194 684.07 180.915C685.79 180.486 686.62 181.065 686.64 182.861C686.65 183.819 686.52 184.808 686.29 185.746C685.26 189.908 685.07 194.13 685.29 198.373C685.49 202.106 686.43 205.669 688.24 208.973C688.48 209.402 688.65 209.861 688.86 210.31C688.81 210.41 688.75 210.51 688.7 210.61C688.11 210.221 687.33 210.46 686.75 209.951C685.74 209.063 684.59 208.334 683.4 207.735C681.57 206.797 680.1 205.26 678.1 204.631C677.92 204.571 677.77 204.381 677.63 204.232C677.39 203.952 677.43 203.343 676.97 203.393C676.51 203.443 676.96 204.112 676.57 204.342Z" fill="#FBBA73"/>
<path fill-rule="evenodd" clip-rule="evenodd" d="M738.53 273.813C735.49 273.773 732.46 273.763 729.43 273.893C727.37 273.973 725.31 273.943 723.24 273.953C717.09 273.953 710.94 273.943 704.79 273.943C699.81 273.823 694.84 273.723 689.86 273.813C684.5 273.843 679.14 273.603 673.78 273.404C673.34 273.384 672.89 273.424 672.46 273.254C673.47 273.094 674.4 272.695 675.33 272.326C681.33 271.857 687.35 271.717 693.36 271.397C696.28 271.238 699.21 271.198 702.13 271.138C707.56 271.018 712.99 270.918 718.42 270.799C718.71 270.799 719.01 270.858 719.26 270.629C722.43 274.152 727.61 274.152 730.8 270.619C731.02 270.829 731.3 270.769 731.56 270.769C737.18 270.838 742.79 270.958 748.4 271.328C751.4 271.527 754.4 271.807 757.36 272.406C757.72 272.475 758.08 272.605 758.35 272.985C751.76 273.673 745.14 273.763 738.53 273.813Z" fill="#F69030"/>
<path fill-rule="evenodd" clip-rule="evenodd" d="M730.82 270.629C727.63 274.162 722.45 274.162 719.28 270.639C716.99 267.874 716.78 264.271 718.75 261.396C720.65 258.631 724.15 257.413 727.33 258.422C730.61 259.46 732.76 262.534 732.63 266.037C732.58 267.774 731.92 269.291 730.82 270.629Z" fill="#332F2D"/>
<path fill-rule="evenodd" clip-rule="evenodd" d="M675.34 272.326C674.41 272.695 673.47 273.094 672.47 273.254C668.96 273.434 666.24 272.126 664.66 268.902C662.9 265.329 664.29 261.077 667.8 259.06C671.2 257.104 675.62 258.142 677.83 261.406C680.07 264.73 679.39 269.172 676.26 271.637C675.95 271.867 675.65 272.096 675.34 272.326Z" fill="#332F2D"/>
<path fill-rule="evenodd" clip-rule="evenodd" d="M676.57 204.342C676.96 204.112 676.5 203.443 676.97 203.393C677.43 203.343 677.39 203.952 677.63 204.232C677.77 204.381 677.92 204.571 678.1 204.631C680.1 205.26 681.57 206.807 683.4 207.735C684.59 208.344 685.74 209.063 686.75 209.951C687.32 210.46 688.11 210.221 688.7 210.61C688.75 210.51 688.81 210.41 688.86 210.31C689.54 210.859 690 211.598 690.54 212.247C692.57 214.632 695 216.499 697.85 217.757C699.77 218.605 701.73 219.384 703.85 219.613C704.08 219.633 704.31 219.723 704.47 219.913C704.29 219.983 703.96 220.022 704.3 220.282C704.78 220.651 705.24 221.071 705.95 221.011C706.35 220.981 706.79 220.901 707.21 221.12C707.08 221.36 706.93 221.33 706.79 221.35C706.5 221.4 706.05 221.21 706.08 221.739C706.11 222.178 706.52 222.069 706.78 222.049C707.34 221.999 707.73 222.169 708.02 222.678C708.13 222.867 708.35 223.047 708.56 223.117C709.21 223.346 709.33 223.756 709.06 224.344C708 224.394 706.94 224.644 705.87 224.534C706.02 223.676 705.65 223.396 704.81 223.456C704.31 223.496 703.72 223.706 703.3 223.237C702.62 222.478 701.72 222.039 700.88 221.51C700.31 221.15 699.53 220.901 699.24 220.382C698.85 219.673 698.51 219.503 697.72 219.893C698.05 219.503 698.08 219.334 697.62 219.194C696.7 218.905 696.02 218.136 695.09 217.817C694.79 217.717 694.5 217.507 694.3 217.268C693.73 216.599 693.21 215.9 692.16 216.01C691.8 216.05 691.69 215.73 691.68 215.401C691.66 214.972 691.36 214.872 691.08 215.042C690.54 215.371 690.27 215.132 689.92 214.742C689.41 214.173 688.75 213.754 687.99 213.564C687.78 213.515 687.6 213.455 687.44 213.305C686.19 212.077 684.61 211.349 683.19 210.37C681.88 209.472 680.33 208.933 679.16 207.835C678.55 207.266 678.06 206.877 677.31 207.526C676.84 206.517 676.66 205.439 676.57 204.342Z" fill="#FBC087"/>
<path fill-rule="evenodd" clip-rule="evenodd" d="M709.05 224.344C709.32 223.756 709.2 223.346 708.55 223.117C708.34 223.047 708.12 222.867 708.01 222.678C707.73 222.168 707.34 221.999 706.77 222.049C706.51 222.069 706.1 222.178 706.07 221.739C706.04 221.21 706.49 221.39 706.78 221.35C706.92 221.33 707.07 221.36 707.2 221.12C706.78 220.901 706.34 220.981 705.94 221.011C705.23 221.071 704.77 220.651 704.29 220.282C703.95 220.022 704.28 219.983 704.46 219.913C704.8 219.933 705.15 219.953 705.49 219.963C705.57 220.312 705.84 220.282 706.1 220.282C706.62 220.282 707.13 220.272 707.64 220.272C710.68 220.292 713.72 220.412 716.74 219.913C719.03 219.543 721.31 219.104 723.52 218.435C727.06 217.367 730.49 216.02 733.74 214.253C737.13 212.417 740.28 210.231 743.16 207.655C743.24 207.585 743.37 207.556 743.47 207.516C743.23 208.374 742.47 208.813 741.88 209.342C739.53 211.478 737.07 213.475 734.38 215.181C731.17 217.228 727.81 218.984 724.27 220.392C719.64 222.238 714.88 223.636 709.91 224.195C709.62 224.225 709.33 224.295 709.05 224.344Z" fill="#FBBA73"/>
<path fill-rule="evenodd" clip-rule="evenodd" d="M666.47 189.479C666.39 189.968 666.09 190.367 665.87 190.797C665.83 190.867 665.74 191.036 665.62 190.877C665.57 190.797 665.6 190.657 665.59 190.547C665.94 189.928 665.5 189.13 666.08 188.571C666.23 188.86 665.82 189.389 666.47 189.479Z" fill="#FCCC9E"/>
<path fill-rule="evenodd" clip-rule="evenodd" d="M707.64 220.273C707.13 220.273 706.61 220.283 706.1 220.283C705.85 220.283 705.57 220.313 705.49 219.963C706.24 219.893 706.94 220.053 707.64 220.273Z" fill="#FCC793"/>
<path fill-rule="evenodd" clip-rule="evenodd" d="M745.96 205.03C745.97 205.27 745.87 205.4 745.63 205.41C745.62 205.18 745.73 205.07 745.96 205.03Z" fill="#F4A052"/>
<path fill-rule="evenodd" clip-rule="evenodd" d="M666.48 212.487C666.47 211.758 665.96 211.129 666.1 210.37C666.2 209.881 666.56 209.971 666.86 210.061C667.28 210.181 667.69 210.331 668.06 210.61C671.04 212.866 674.33 214.672 677.4 216.779C680.39 218.815 683.51 220.661 686.49 222.718C688.29 223.965 690.26 224.973 692.08 226.231C694.33 227.778 696.66 229.216 698.98 230.673C699.89 231.252 700.71 232.08 701.93 231.99C702.08 231.98 702.22 232.04 702.26 232.22C702.3 232.37 702.27 232.509 702.15 232.619C702.02 232.739 701.69 232.609 701.73 233.009C702.3 233.038 702.86 233.058 703.53 233.088C703.38 233.428 702.97 233.438 703.02 233.757C701.69 234.136 700.31 234.106 698.95 234.146C698.89 234.136 698.83 234.116 698.76 234.106C698.73 233.667 698.42 233.408 698.08 233.248C696.84 232.659 695.79 231.801 694.65 231.082C691.68 229.186 688.7 227.299 685.75 225.383C683.63 224.005 681.57 222.558 679.43 221.19C677.11 219.703 674.74 218.296 672.48 216.709C671.65 216.13 670.77 215.581 669.94 214.992C669.13 214.423 668.12 214.163 667.53 213.295C667.46 213.185 667.39 213.065 667.29 213.165C667.21 213.255 667.22 213.435 667.18 213.565C667.06 213.565 666.95 213.565 666.83 213.565C666.82 213.395 666.81 213.235 666.8 213.065C666.82 212.786 666.84 212.536 666.48 212.487Z" fill="#FBBA73"/>
<path fill-rule="evenodd" clip-rule="evenodd" d="M703.02 233.747C702.98 233.428 703.39 233.428 703.53 233.078C702.87 233.048 702.3 233.028 701.73 232.999C701.7 232.609 702.02 232.729 702.15 232.609C702.27 232.499 702.3 232.37 702.26 232.21C702.22 232.03 702.08 231.97 701.93 231.98C700.71 232.07 699.89 231.242 698.98 230.663C696.66 229.206 694.34 227.778 692.08 226.221C690.26 224.963 688.3 223.955 686.49 222.708C683.51 220.651 680.39 218.805 677.4 216.769C674.32 214.662 671.03 212.856 668.06 210.6C667.69 210.321 667.28 210.171 666.86 210.051C666.56 209.971 666.19 209.881 666.1 210.36C665.58 209.851 665.8 209.203 665.74 208.604C665.74 208.045 665.74 207.486 665.74 206.767C666.31 207.186 665.93 207.675 666.34 208.015C666.53 207.176 666.91 207.576 667.3 207.835C668.96 208.943 670.6 210.091 672.31 211.139C675.12 212.856 677.91 214.593 680.3 216.868C680.4 216.958 680.45 216.998 680.6 216.938C681.18 216.689 681.73 217.038 682.12 217.537C682.75 218.326 683.25 219.384 684.57 219.204C684.59 219.314 684.59 219.444 684.74 219.464C684.77 219.464 684.84 219.394 684.83 219.364C684.81 219.214 684.68 219.214 684.57 219.204C684.57 219.084 684.58 218.974 684.58 218.855C685.61 219.394 686.46 220.202 687.51 220.711C688.62 221.24 689.7 221.829 690.79 222.398C690.32 222.558 690.31 222.558 690.49 222.767C691.27 223.746 692.23 224.444 693.5 224.584C693.65 224.913 693.09 224.824 693.23 225.143C693.53 225.303 693.85 225.193 694.17 225.223C694.21 225.742 694.71 225.572 694.99 225.752C697.1 227.149 699.25 228.487 701.36 229.884C702.22 230.453 703.33 230.743 703.82 231.801C704.55 231.691 704.49 232.809 705.28 232.719C705.62 232.679 705.5 233.118 705.53 233.368C704.65 233.388 703.88 233.867 703.02 233.747Z" fill="#F7AD67"/>
<path fill-rule="evenodd" clip-rule="evenodd" d="M710.71 243.339C709.62 243.878 708.43 244.068 707.26 244.337C706.47 244.517 705.68 244.866 704.84 244.757C704.33 244.757 703.87 244.697 703.49 244.258C703.19 243.898 702.75 243.968 702.34 244.128C702.13 244.208 701.98 244.467 701.7 244.278C701.91 243.479 702.57 243.309 703.28 243.14C702.62 242.87 701.91 243.14 701.33 242.92C700.71 242.69 700.22 242.171 699.64 241.822C698.52 241.133 697.23 240.714 696.23 239.816C695.72 239.357 695.13 239.027 694.52 238.738C692.18 237.6 690.06 236.113 687.86 234.745C686.87 234.126 685.97 233.617 684.78 233.757C684.58 233.777 684.25 233.907 684.11 233.468C684.74 233.458 685.32 233.398 685.47 232.689C686.12 232.859 686.77 233.028 687.42 233.198C687.84 233.557 688.41 233.408 688.88 233.587C690 234.007 691.22 233.817 692.37 234.096C692.69 235.214 693.69 235.134 694.56 235.254C694.53 235.354 694.54 235.444 694.5 235.454C694.19 235.604 693.6 235.504 693.72 236.053C693.8 236.432 694.31 236.282 694.57 236.232C695.46 236.033 695.96 236.712 696.6 237.051C699.48 238.578 702 240.694 705.02 241.992C705.73 242.301 706.09 243.329 707.08 242.96C707.22 243.359 706.95 243.299 706.82 243.349C706.57 243.449 706.52 243.639 706.62 243.848C706.74 244.088 706.95 244.008 707.16 243.958C708.34 243.639 709.47 243.2 710.71 243.339Z" fill="#F7963A"/>
<path fill-rule="evenodd" clip-rule="evenodd" d="M692.37 234.076C691.22 233.787 690 233.987 688.88 233.567C688.4 233.388 687.84 233.537 687.42 233.178C687.71 232.769 688.61 233.438 688.58 232.619C688.56 232.09 687.93 232.45 687.61 232.29C687.57 232.27 687.53 232.21 687.47 232.14C687.59 232.03 687.82 231.901 687.81 231.811C687.76 231.531 687.48 231.651 687.3 231.611C686.86 231.531 686.25 231.861 686.04 231.282C685.85 230.773 685.46 230.553 685.07 230.303C684.36 229.844 683.55 229.505 682.88 228.986C681.07 227.579 679.07 226.481 677.17 225.223C676.7 224.913 676.19 224.714 675.67 224.504C675.02 224.255 674.31 223.955 673.98 223.326C673.7 222.777 673.42 222.618 672.89 222.897C672.76 222.967 672.55 223.077 672.55 222.907C672.56 222.288 671.81 222.159 671.76 221.59C671.73 221.34 671.64 220.991 671.3 221.051C670.95 221.111 671.11 221.48 671.07 221.719C671.05 221.839 671.05 221.959 671.04 222.069C670.14 221.001 669.52 219.753 668.94 218.505C668.94 218.266 668.94 218.036 668.94 217.797C669.39 218.036 669.49 218.775 670.19 218.675C670.43 218.645 670.65 218.735 670.84 218.885C671.93 219.673 673.09 220.342 674.23 221.061C676.44 222.448 678.53 224.055 680.79 225.353C683.84 227.119 686.67 229.225 689.66 231.072C690.54 231.621 691.27 232.43 692.44 232.41C692.63 232.4 693.09 232.769 692.95 232.869C692.12 233.537 693.11 233.378 693.25 233.547C693.41 233.727 693.75 233.737 693.77 234.076C693.53 234.086 693.3 234.096 693.06 234.106C692.84 234.106 692.6 234.096 692.37 234.076Z" fill="#FCC793"/>
<path fill-rule="evenodd" clip-rule="evenodd" d="M705.5 233.388C705.47 233.138 705.59 232.699 705.25 232.739C704.46 232.839 704.52 231.711 703.79 231.821C703.3 230.763 702.19 230.483 701.33 229.904C699.22 228.507 697.07 227.169 694.96 225.772C694.68 225.592 694.18 225.762 694.14 225.243C694.34 225.203 694.61 225.353 694.77 225.013C694.45 224.874 694.22 224.824 694.14 225.243C693.82 225.213 693.5 225.313 693.2 225.163C693.06 224.844 693.62 224.934 693.47 224.604C692.2 224.464 691.25 223.766 690.46 222.788C690.29 222.578 690.29 222.568 690.76 222.418C691.14 222.638 691.54 222.817 691.99 222.798C692.33 223.546 692.89 223.656 693.58 223.327C694.76 223.446 695.86 223.816 696.98 224.185C696.48 224.185 695.99 224.185 695.29 224.185C695.73 224.654 696.02 224.894 696.5 224.914C697.44 224.944 698.19 225.213 698.92 225.952C699.81 226.85 701.05 227.399 702.13 228.108C703.56 229.036 705 229.944 706.4 230.922C706.85 231.232 707.35 231.442 707.8 231.771C708.23 232.1 708.36 232.4 708.31 232.869C708.19 232.869 708.08 232.879 707.96 232.879C707.65 232.639 707.38 232.569 707.25 233.049C706.68 233.138 706.12 233.428 705.5 233.388Z" fill="#F7A85D"/>
<path fill-rule="evenodd" clip-rule="evenodd" d="M693.07 234.117C693.31 234.107 693.54 234.097 693.78 234.087C694.56 234.057 695.31 234.367 696.09 234.257C696.97 234.257 697.85 234.267 698.74 234.267L698.76 234.287C698.12 234.637 697.44 234.417 696.78 234.447C695.78 234.487 694.78 234.467 693.78 234.457C693.5 234.447 693.17 234.537 693.07 234.117Z" fill="#F89F48"/>
<path fill-rule="evenodd" clip-rule="evenodd" d="M707.28 233.039C707.41 232.549 707.68 232.619 707.99 232.869C707.8 233.109 707.52 233.019 707.28 233.039Z" fill="#F4A052"/>
<path fill-rule="evenodd" clip-rule="evenodd" d="M698.75 234.096C698.82 234.106 698.88 234.126 698.94 234.136C698.88 234.186 698.82 234.236 698.76 234.286L698.74 234.266C698.75 234.216 698.75 234.156 698.75 234.096Z" fill="#F89F48"/>
<path fill-rule="evenodd" clip-rule="evenodd" d="M685.47 232.669C685.31 233.388 684.73 233.438 684.11 233.448C684.25 233.887 684.58 233.757 684.78 233.737C685.97 233.607 686.88 234.116 687.86 234.725C690.06 236.093 692.18 237.58 694.52 238.718C695.13 239.017 695.72 239.347 696.23 239.796C697.23 240.694 698.51 241.113 699.64 241.802C700.21 242.162 700.71 242.671 701.33 242.9C701.91 243.12 702.63 242.86 703.28 243.12C702.57 243.289 701.91 243.459 701.7 244.258C701.98 244.447 702.14 244.188 702.34 244.108C702.74 243.948 703.18 243.888 703.49 244.238C703.87 244.677 704.33 244.737 704.84 244.737C703.22 245.196 701.56 245.445 699.88 245.445C698.88 245.545 698.04 245.246 697.35 244.497C697.11 244.248 696.76 244.108 696.46 243.928C695.19 243.19 693.87 242.521 692.65 241.702C690.29 240.095 687.8 238.718 685.36 237.241C683.34 236.013 681.3 234.805 679.24 233.647C678.6 233.288 678.06 232.779 677.42 232.41C674.75 230.833 672.04 229.295 669.37 227.708C667.81 226.78 666.28 225.802 664.75 224.824C663.51 224.025 662.19 223.376 660.95 222.608C659.13 221.48 657.48 220.092 655.34 219.543C655.22 219.513 655.1 219.374 655.03 219.264C654.78 218.895 654.42 218.835 654.01 218.885C653.21 217.218 652.74 215.441 652.3 213.664C652.11 212.936 651.8 212.217 651.91 211.428C652.38 211.488 652.23 211.858 652.26 212.137C652.22 212.686 652.49 213.075 652.91 213.375C653.93 214.104 654.96 214.822 656.02 215.501C658.05 216.799 660 218.216 662.2 219.234C663.02 219.613 663.81 220.062 664.57 220.591C665.81 221.45 667.09 222.258 668.4 223.007C669.05 223.376 669.56 224.175 670.5 223.905C670.64 223.865 670.65 224.085 670.73 224.125C671.41 224.484 671.84 225.133 672.68 225.363C673.41 225.562 673.16 225.213 673.2 224.913C674.02 225.492 674.67 226.261 675.42 226.91C677.5 228.736 679.8 230.194 682.33 231.342C683.36 231.811 684.5 232.04 685.47 232.669Z" fill="#F89F48"/>
<path fill-rule="evenodd" clip-rule="evenodd" d="M654.01 218.885C654.41 218.825 654.77 218.895 655.03 219.264C655.11 219.374 655.22 219.514 655.34 219.544C657.48 220.093 659.13 221.48 660.95 222.608C662.19 223.376 663.51 224.025 664.75 224.824C666.28 225.802 667.81 226.78 669.37 227.708C672.04 229.295 674.75 230.833 677.42 232.41C678.05 232.779 678.6 233.288 679.24 233.647C681.3 234.805 683.35 236.013 685.36 237.241C687.79 238.718 690.29 240.105 692.65 241.702C693.87 242.521 695.19 243.19 696.46 243.928C696.76 244.108 697.11 244.248 697.35 244.497C698.04 245.246 698.88 245.545 699.88 245.446C698.78 245.765 697.64 245.765 696.5 245.775C695.36 245.785 694.22 245.755 693.08 245.745C693 245.256 692.62 244.966 692.25 244.767C690.73 243.938 689.22 243.15 687.77 242.202C685.95 241.014 684.03 239.986 682.18 238.858C680.8 238.039 679.46 237.091 678.06 236.322C674.87 234.546 671.89 232.45 668.68 230.713C665.37 228.926 662.31 226.71 659 224.914C658.19 224.474 657.11 224.125 656.85 222.987C656.82 222.857 656.72 222.788 656.59 222.807C656.38 222.847 656.41 222.997 656.46 223.147C656.55 223.416 656.55 223.716 656.81 223.925C657.18 224.245 657.25 224.664 657.04 225.113C656.08 224.195 655.71 222.937 655.16 221.799C654.7 220.871 654.16 219.943 654.01 218.885Z" fill="#F9A652"/>
<path fill-rule="evenodd" clip-rule="evenodd" d="M657.04 225.123C657.25 224.674 657.18 224.255 656.81 223.935C656.55 223.716 656.55 223.426 656.46 223.157C656.41 223.007 656.37 222.857 656.59 222.817C656.72 222.797 656.82 222.867 656.85 222.997C657.11 224.135 658.19 224.484 659 224.923C662.32 226.72 665.38 228.936 668.68 230.723C671.89 232.459 674.87 234.556 678.06 236.332C679.45 237.111 680.8 238.049 682.18 238.868C684.04 239.996 685.96 241.024 687.77 242.211C689.22 243.16 690.74 243.958 692.25 244.777C692.62 244.976 692.99 245.266 693.08 245.755C691.64 245.875 690.24 245.565 688.82 245.425C688.47 244.777 688.19 243.988 687.21 244.667C687.09 244.747 686.83 244.727 686.82 244.607C686.74 243.928 686.1 244.078 685.73 243.898C685.79 243.569 686.24 243.769 686.2 243.399C685.89 243.2 685.51 243.259 685.16 243.05C683.59 242.122 682.18 240.964 680.58 240.095C678.29 238.838 676.12 237.36 673.9 235.993C671.07 234.256 668.15 232.669 665.35 230.862C664.61 230.383 663.81 229.984 663 229.635C662.33 229.345 661.87 228.766 661.1 228.577C660.22 228.357 659.87 227.079 658.72 227.209C658.64 226.52 658.26 226.89 657.96 227C657.6 226.411 657.02 225.912 657.04 225.123Z" fill="#F7A85D"/>
<path fill-rule="evenodd" clip-rule="evenodd" d="M657.97 227.009C658.27 226.9 658.65 226.53 658.73 227.219C659.88 227.089 660.23 228.367 661.11 228.587C661.87 228.776 662.34 229.345 663.01 229.645C663.82 229.994 664.61 230.393 665.36 230.872C668.16 232.679 671.08 234.266 673.91 236.003C676.13 237.37 678.29 238.848 680.59 240.105C682.19 240.984 683.6 242.141 685.17 243.06C685.52 243.269 685.9 243.209 686.21 243.409C686.25 243.778 685.8 243.569 685.74 243.908C686.11 244.098 686.75 243.948 686.83 244.617C686.84 244.737 687.1 244.757 687.22 244.677C688.2 243.988 688.48 244.777 688.83 245.435C687.26 245.425 685.73 245.076 684.21 244.727C684.18 244.477 684.01 244.427 683.79 244.377C683.22 244.258 682.7 244.048 682.24 243.659C681.59 243.11 680.93 243.13 680.28 243.689C680.17 243.669 680.07 243.659 679.96 243.649C679.98 243.14 680.49 243.04 680.85 242.72C679.65 242.501 678.78 242.002 678.17 241.044C677.95 240.704 677.6 240.455 677.13 240.485C676.89 240.495 676.67 240.445 676.47 240.285C675.79 239.746 674.94 239.496 674.24 238.977C672.87 237.959 671.17 237.52 669.81 236.432C669.2 235.943 668.57 235.314 667.65 235.314C667.56 235.314 667.42 235.194 667.4 235.114C667.26 234.346 666.55 234.366 666.04 234.076C665.35 233.687 664.47 233.697 663.91 233.098C663.42 232.559 663.03 232.509 662.55 233.038C660.79 231.212 659.25 229.205 657.97 227.009Z" fill="#FAB263"/>
<path fill-rule="evenodd" clip-rule="evenodd" d="M662.55 233.039C663.03 232.509 663.41 232.569 663.91 233.098C664.46 233.687 665.35 233.677 666.04 234.077C666.55 234.366 667.26 234.346 667.4 235.115C667.42 235.195 667.56 235.314 667.65 235.314C668.57 235.314 669.2 235.943 669.81 236.432C671.17 237.52 672.87 237.959 674.24 238.978C674.94 239.497 675.79 239.746 676.47 240.285C676.67 240.445 676.89 240.495 677.13 240.485C677.59 240.465 677.95 240.704 678.17 241.044C678.78 242.002 679.66 242.501 680.85 242.721C680.49 243.04 679.97 243.14 679.96 243.649C676.25 242.621 672.74 241.104 669.48 239.047C667.14 237.58 665.06 235.783 663.15 233.787C662.92 233.558 662.62 233.388 662.55 233.039Z" fill="#FBBA73"/>
<path fill-rule="evenodd" clip-rule="evenodd" d="M652.27 212.137C652.23 211.858 652.38 211.488 651.92 211.428C651.88 211.388 651.87 211.349 651.89 211.299C651.82 210.859 652.19 210.32 651.59 210.011C651.54 208.943 651.19 207.905 651.24 206.827C651.4 206.867 651.55 206.937 651.54 207.106C651.51 208.873 652.71 209.602 654.05 210.42C656.96 212.197 659.9 213.914 662.81 215.71C664.16 216.549 665.62 217.208 666.9 218.176C667.25 218.435 667.57 218.645 667.58 219.174C668.07 218.974 668.31 218.595 668.61 218.306C668.72 218.376 668.83 218.445 668.94 218.525C669.53 219.783 670.14 221.021 671.04 222.089L671.05 222.079C671.18 222.368 671.3 222.648 671.43 222.937C671.16 223.177 670.87 223.246 670.75 222.837C670.6 222.348 670.26 222.109 669.8 222.069C669.41 222.039 669.37 221.829 669.28 221.51C669.17 221.14 669.15 220.472 668.39 220.931C668.11 221.1 667.88 220.881 667.89 220.541C667.9 220.072 667.8 219.843 667.3 220.192C667.07 220.352 666.83 220.142 666.66 220.002C665.58 219.124 664.36 218.495 663.17 217.787C660.22 216.02 657.4 214.044 654.3 212.536C653.75 212.267 653.17 212.047 652.85 211.498C652.52 211.658 652.7 212.157 652.27 212.137Z" fill="#F69030"/>
<path fill-rule="evenodd" clip-rule="evenodd" d="M680.27 243.689C680.92 243.13 681.58 243.11 682.23 243.659C682.69 244.038 683.21 244.258 683.78 244.377C684.01 244.417 684.18 244.477 684.2 244.727C682.86 244.517 681.53 244.268 680.27 243.689Z" fill="#FBBA73"/>
<path fill-rule="evenodd" clip-rule="evenodd" d="M651.59 210.001C652.19 210.321 651.82 210.85 651.89 211.289C651.66 210.89 651.56 210.46 651.59 210.001Z" fill="#F89F48"/>
<path fill-rule="evenodd" clip-rule="evenodd" d="M668.94 218.515C668.83 218.445 668.72 218.376 668.61 218.296C668.48 217.847 668.18 217.447 668.2 216.958C668.32 216.369 668.16 215.9 667.56 215.671C667.42 215.201 667.29 214.742 667.15 214.273C667.16 214.034 667.16 213.794 667.16 213.545C667.2 213.405 667.19 213.225 667.27 213.145C667.37 213.045 667.44 213.165 667.51 213.275C668.09 214.153 669.11 214.413 669.92 214.972C670.75 215.561 671.63 216.11 672.46 216.689C674.72 218.276 677.09 219.683 679.41 221.17C681.55 222.538 683.61 223.985 685.73 225.363C688.69 227.279 691.67 229.166 694.63 231.062C695.77 231.791 696.82 232.639 698.06 233.228C698.4 233.388 698.71 233.647 698.74 234.087C697.86 234.166 696.95 233.907 696.09 234.236C695.3 234.346 694.55 234.037 693.78 234.067C693.76 233.727 693.42 233.717 693.26 233.538C693.12 233.368 692.12 233.528 692.96 232.859C693.1 232.759 692.63 232.39 692.45 232.4C691.28 232.43 690.55 231.611 689.67 231.062C686.68 229.216 683.85 227.109 680.8 225.343C678.54 224.035 676.45 222.438 674.24 221.051C673.1 220.332 671.94 219.673 670.85 218.875C670.65 218.725 670.43 218.635 670.2 218.665C669.5 218.755 669.4 218.026 668.81 217.707C668.74 217.677 668.8 217.727 668.87 217.767C668.95 217.807 668.99 217.777 668.94 217.697C668.9 217.637 668.84 217.577 668.79 217.517C668.76 217.547 668.72 217.587 668.81 217.707C668.94 218.036 668.94 218.276 668.94 218.515Z" fill="#FBC087"/>
<path fill-rule="evenodd" clip-rule="evenodd" d="M684.57 218.865C684.57 218.984 684.56 219.094 684.56 219.214C683.25 219.394 682.74 218.336 682.11 217.547C681.72 217.048 681.17 216.709 680.59 216.948C680.44 217.008 680.39 216.968 680.29 216.878C677.89 214.593 675.11 212.856 672.3 211.149C670.59 210.111 668.95 208.953 667.29 207.845C666.9 207.596 666.53 207.196 666.33 208.025C665.91 207.675 666.3 207.186 665.73 206.777C665.73 207.496 665.73 208.055 665.73 208.614C665.34 208.514 665.4 208.204 665.4 207.915C665.4 207.256 665.39 206.597 665.39 205.939C665.4 205.679 665.4 205.43 665.06 205.4C665.06 205.17 665.06 204.931 665.06 204.701C665.65 204.99 666.71 204.242 666.85 205.519C666.87 205.689 667.04 205.699 667.18 205.759C668.93 206.587 670.54 207.655 672.07 208.813C673.11 209.592 674.27 210.161 675.36 210.84C676.35 211.458 677.27 212.187 678.32 212.706C678.68 212.886 679 213.235 679.42 212.836C679.61 213.095 679.81 213.345 679.99 213.614C681.04 215.162 682.15 216.669 683.51 217.966C683.51 218.206 683.63 218.326 683.87 218.316L683.86 218.326C683.93 218.386 683.99 218.445 684.05 218.495C684.1 218.495 684.16 218.505 684.21 218.515C684.22 218.755 684.34 218.865 684.57 218.865ZM680.3 215.551C680.29 215.291 680.32 215.002 679.93 215.002C679.72 215.002 679.61 215.122 679.61 215.331C679.61 215.641 679.84 215.83 680.07 215.91C680.32 215.98 680.27 215.701 680.3 215.551Z" fill="#F7A85D"/>
<path fill-rule="evenodd" clip-rule="evenodd" d="M667.57 215.671C668.17 215.9 668.32 216.369 668.21 216.958C667.86 216.599 667.68 216.15 667.57 215.671Z" fill="#FBBA73"/>
<path fill-rule="evenodd" clip-rule="evenodd" d="M667.17 213.554C667.17 213.794 667.17 214.044 667.16 214.283C666.73 214.183 666.84 213.844 666.83 213.554C666.94 213.545 667.05 213.554 667.17 213.554Z" fill="#F7AD67"/>
<path fill-rule="evenodd" clip-rule="evenodd" d="M666.48 212.487C666.84 212.536 666.82 212.786 666.79 213.046C666.59 212.916 666.45 212.746 666.48 212.487Z" fill="#F7AD67"/>
<path fill-rule="evenodd" clip-rule="evenodd" d="M665.06 205.4C665.4 205.44 665.4 205.689 665.39 205.939C665.17 205.829 665.03 205.659 665.06 205.4Z" fill="#F4A052"/>
<path fill-rule="evenodd" clip-rule="evenodd" d="M684.21 218.525C684.16 218.515 684.1 218.505 684.05 218.505C683.99 218.445 683.93 218.386 683.86 218.336L683.87 218.326C683.85 218.106 683.73 217.996 683.51 217.976C682.15 216.679 681.04 215.172 679.99 213.624C679.81 213.365 679.61 213.105 679.42 212.846C679.02 211.698 678.22 210.71 677.99 209.492C678.23 209.432 678.19 208.684 678.65 209.183C679.07 209.632 679.64 209.801 680.13 210.131C683.09 212.087 686.07 214.024 689.16 215.78C690.03 216.269 690.86 216.838 691.71 217.357C693.58 218.485 695.38 219.763 697.28 220.861C698.92 221.809 700.33 223.157 702.23 223.566C701.57 224.484 700.57 223.975 699.84 224.384C699.48 224.384 699.13 224.384 698.77 224.384V224.355C698.68 224.225 698.55 224.205 698.4 224.215C697.99 224.215 697.58 224.205 697.18 224.205L697.1 224.195H697C695.88 223.835 694.78 223.466 693.6 223.336C693.07 223.157 692.54 222.987 692.01 222.807C691.55 222.827 691.15 222.648 690.78 222.428C689.69 221.859 688.62 221.27 687.5 220.741C686.45 220.232 685.6 219.424 684.57 218.885H684.56C684.55 218.645 684.43 218.525 684.21 218.525Z" fill="#FCCC9E"/>
<path fill-rule="evenodd" clip-rule="evenodd" d="M699.82 224.365C700.55 223.955 701.55 224.464 702.21 223.546C700.32 223.137 698.9 221.789 697.26 220.841C695.36 219.743 693.56 218.475 691.69 217.338C690.84 216.829 690.01 216.26 689.14 215.761C686.05 214.004 683.07 212.067 680.11 210.111C679.62 209.792 679.06 209.612 678.63 209.163C678.17 208.664 678.21 209.412 677.97 209.472C677.75 209.213 677.7 208.893 677.63 208.584C677.92 208.294 677.82 208.125 677.46 208.055C677.4 207.875 677.34 207.695 677.29 207.516C678.04 206.867 678.53 207.256 679.14 207.825C680.31 208.923 681.86 209.452 683.17 210.361C684.58 211.339 686.17 212.067 687.42 213.295C687.58 213.445 687.76 213.505 687.97 213.555C688.73 213.754 689.39 214.163 689.9 214.732C690.25 215.122 690.52 215.361 691.06 215.032C691.34 214.862 691.64 214.962 691.66 215.391C691.67 215.721 691.78 216.04 692.14 216C693.19 215.88 693.7 216.579 694.28 217.258C694.48 217.497 694.77 217.697 695.07 217.807C696 218.126 696.68 218.895 697.6 219.184C698.06 219.324 698.03 219.494 697.7 219.883C698.49 219.494 698.83 219.663 699.22 220.372C699.51 220.891 700.29 221.141 700.86 221.5C701.7 222.029 702.6 222.468 703.28 223.227C703.7 223.696 704.3 223.486 704.79 223.446C705.64 223.386 706.01 223.656 705.85 224.524C703.85 224.524 701.84 224.524 699.83 224.524C699.83 224.474 699.82 224.414 699.82 224.365Z" fill="#FCC793"/>
<path fill-rule="evenodd" clip-rule="evenodd" d="M677.47 208.065C677.83 208.135 677.93 208.305 677.64 208.595C677.44 208.465 677.47 208.265 677.47 208.065Z" fill="#FBC087"/>
<path fill-rule="evenodd" clip-rule="evenodd" d="M697.16 224.175C697.56 224.175 697.97 224.185 698.38 224.185C698.39 224.235 698.4 224.295 698.4 224.345C697.95 224.585 697.5 224.785 697.16 224.175Z" fill="#F7A85D"/>
<path fill-rule="evenodd" clip-rule="evenodd" d="M699.82 224.365C699.82 224.425 699.83 224.475 699.84 224.535C699.47 224.495 699.08 224.675 698.76 224.365C699.11 224.365 699.47 224.365 699.82 224.365Z" fill="#F7A85D"/>
<path fill-rule="evenodd" clip-rule="evenodd" d="M698.41 224.345C698.41 224.295 698.4 224.235 698.39 224.185C698.53 224.175 698.67 224.205 698.76 224.325C698.64 224.335 698.52 224.345 698.41 224.345Z" fill="#FCC793"/>
<path fill-rule="evenodd" clip-rule="evenodd" d="M684.56 219.224C684.67 219.244 684.81 219.244 684.82 219.384C684.83 219.414 684.76 219.484 684.73 219.484C684.58 219.464 684.58 219.334 684.56 219.224Z" fill="#F7A85D"/>
<path fill-rule="evenodd" clip-rule="evenodd" d="M685.47 232.669C684.5 232.04 683.35 231.821 682.32 231.351C679.79 230.204 677.49 228.746 675.41 226.92C674.66 226.271 674.01 225.502 673.19 224.923C672.49 224.504 672.3 223.696 671.77 223.137C671.76 222.628 671.6 222.218 671.05 222.079L671.04 222.089C671.05 221.969 671.05 221.849 671.07 221.739C671.11 221.5 670.95 221.13 671.3 221.071C671.63 221.011 671.73 221.36 671.76 221.61C671.82 222.178 672.57 222.308 672.55 222.927C672.55 223.097 672.76 222.987 672.89 222.917C673.42 222.638 673.7 222.797 673.98 223.346C674.31 223.985 675.02 224.275 675.67 224.524C676.19 224.734 676.71 224.933 677.17 225.243C679.07 226.5 681.07 227.608 682.88 229.006C683.55 229.525 684.36 229.864 685.07 230.323C685.46 230.573 685.85 230.793 686.04 231.302C686.26 231.88 686.86 231.551 687.3 231.631C687.48 231.671 687.76 231.541 687.81 231.831C687.82 231.92 687.59 232.05 687.47 232.16C687.53 232.23 687.56 232.29 687.61 232.31C687.93 232.469 688.56 232.11 688.58 232.639C688.61 233.458 687.71 232.779 687.42 233.198C686.78 233.008 686.12 232.839 685.47 232.669Z" fill="#FCCC9E"/>
<path fill-rule="evenodd" clip-rule="evenodd" d="M692.01 222.787C692.54 222.967 693.08 223.137 693.6 223.316C692.91 223.646 692.35 223.546 692.01 222.787Z" fill="#F7AD67"/>
<path fill-rule="evenodd" clip-rule="evenodd" d="M694.15 225.243C694.23 224.823 694.46 224.873 694.78 225.013C694.62 225.353 694.35 225.203 694.15 225.243Z" fill="#F7AD67"/>
<path fill-rule="evenodd" clip-rule="evenodd" d="M696.1 234.256C696.97 233.926 697.88 234.186 698.75 234.106C698.75 234.166 698.75 234.216 698.74 234.266C697.86 234.256 696.98 234.256 696.1 234.256Z" fill="#FBBA73"/>
<path fill-rule="evenodd" clip-rule="evenodd" d="M671.78 223.127C672.31 223.676 672.5 224.494 673.2 224.913C673.16 225.213 673.4 225.552 672.68 225.363C671.85 225.133 671.41 224.484 670.73 224.125C670.65 224.085 670.65 223.865 670.5 223.905C669.56 224.165 669.06 223.376 668.4 223.007C667.09 222.258 665.81 221.45 664.57 220.591C663.81 220.062 663.02 219.613 662.2 219.234C659.99 218.216 658.05 216.798 656.02 215.501C654.96 214.822 653.93 214.113 652.91 213.375C652.49 213.075 652.21 212.686 652.26 212.137C652.69 212.157 652.51 211.658 652.84 211.498C653.17 212.047 653.75 212.267 654.29 212.536C657.4 214.044 660.22 216.02 663.16 217.787C664.35 218.495 665.57 219.124 666.65 220.003C666.82 220.142 667.06 220.342 667.29 220.192C667.79 219.843 667.89 220.072 667.88 220.542C667.87 220.881 668.1 221.101 668.38 220.931C669.13 220.472 669.16 221.14 669.27 221.51C669.37 221.829 669.4 222.039 669.79 222.069C670.25 222.109 670.59 222.348 670.74 222.837C670.87 223.237 671.15 223.177 671.42 222.937C671.54 222.997 671.66 223.067 671.78 223.127Z" fill="#F7963A"/>
<path fill-rule="evenodd" clip-rule="evenodd" d="M671.78 223.127C671.66 223.057 671.55 222.997 671.44 222.927C671.31 222.638 671.19 222.348 671.06 222.069C671.61 222.209 671.77 222.618 671.78 223.127Z" fill="#FCC793"/>
<path fill-rule="evenodd" clip-rule="evenodd" d="M668.66 217.657C668.71 217.607 668.75 217.567 668.78 217.537C668.84 217.597 668.89 217.657 668.93 217.717C668.98 217.807 668.94 217.837 668.86 217.787C668.79 217.757 668.73 217.707 668.66 217.657Z" fill="#FCC793"/>
<path fill-rule="evenodd" clip-rule="evenodd" d="M680.3 215.551C680.27 215.711 680.32 215.98 680.07 215.9C679.84 215.82 679.61 215.631 679.61 215.321C679.61 215.112 679.72 214.992 679.93 214.992C680.32 214.992 680.29 215.291 680.3 215.551Z" fill="#F7AD67"/>
<path fill-rule="evenodd" clip-rule="evenodd" d="M683.5 217.976C683.72 217.996 683.84 218.106 683.86 218.326C683.62 218.336 683.5 218.206 683.5 217.976Z" fill="#F7AD67"/>
<path fill-rule="evenodd" clip-rule="evenodd" d="M684.21 218.525C684.43 218.525 684.55 218.645 684.57 218.865C684.34 218.865 684.22 218.755 684.21 218.525Z" fill="#F7AD67"/>
<path fill-rule="evenodd" clip-rule="evenodd" d="M683.86 218.336C683.93 218.396 683.99 218.456 684.05 218.506C683.98 218.446 683.93 218.386 683.86 218.336Z" fill="#F7AD67"/>
<defs>
<linearGradient id="paint0_linear" x1="0" y1="270" x2="1440" y2="270" gradientUnits="userSpaceOnUse">
<stop stop-color="#D77D27"/>
<stop offset="1" stop-color="#F9A649"/>
</linearGradient>
<linearGradient id="paint1_linear" x1="279.579" y1="325.409" x2="311.735" y2="325.409" gradientUnits="userSpaceOnUse">
<stop stop-color="#D77D27"/>
<stop offset="1" stop-color="#F9A649"/>
</linearGradient>
<linearGradient id="paint2_linear" x1="322.045" y1="324.664" x2="354.202" y2="324.664" gradientUnits="userSpaceOnUse">
<stop stop-color="#D77D27"/>
<stop offset="1" stop-color="#F9A649"/>
</linearGradient>
<linearGradient id="paint3_linear" x1="361.255" y1="320.431" x2="383.643" y2="320.431" gradientUnits="userSpaceOnUse">
<stop stop-color="#D77D27"/>
<stop offset="1" stop-color="#F9A649"/>
</linearGradient>
<linearGradient id="paint4_linear" x1="391.511" y1="325.409" x2="423.667" y2="325.409" gradientUnits="userSpaceOnUse">
<stop stop-color="#D77D27"/>
<stop offset="1" stop-color="#F9A649"/>
</linearGradient>
<linearGradient id="paint5_linear" x1="433.977" y1="324.664" x2="466.134" y2="324.664" gradientUnits="userSpaceOnUse">
<stop stop-color="#D77D27"/>
<stop offset="1" stop-color="#F9A649"/>
</linearGradient>
<linearGradient id="paint6_linear" x1="474.205" y1="330.149" x2="511.246" y2="330.149" gradientUnits="userSpaceOnUse">
<stop stop-color="#D77D27"/>
<stop offset="1" stop-color="#F9A649"/>
</linearGradient>
<linearGradient id="paint7_linear" x1="541.839" y1="318.57" x2="578.88" y2="318.57" gradientUnits="userSpaceOnUse">
<stop stop-color="#D77D27"/>
<stop offset="1" stop-color="#F9A649"/>
</linearGradient>
<linearGradient id="paint8_linear" x1="584.848" y1="325.138" x2="617.344" y2="325.138" gradientUnits="userSpaceOnUse">
<stop stop-color="#D77D27"/>
<stop offset="1" stop-color="#F9A649"/>
</linearGradient>
<linearGradient id="paint9_linear" x1="627.111" y1="324.691" x2="648.006" y2="324.691" gradientUnits="userSpaceOnUse">
<stop stop-color="#D77D27"/>
<stop offset="1" stop-color="#F9A649"/>
</linearGradient>
<linearGradient id="paint10_linear" x1="651.94" y1="325.071" x2="686.606" y2="325.071" gradientUnits="userSpaceOnUse">
<stop stop-color="#D77D27"/>
<stop offset="1" stop-color="#F9A649"/>
</linearGradient>
<linearGradient id="paint11_linear" x1="694.881" y1="324.664" x2="727.037" y2="324.664" gradientUnits="userSpaceOnUse">
<stop stop-color="#D77D27"/>
<stop offset="1" stop-color="#F9A649"/>
</linearGradient>
<linearGradient id="paint12_linear" x1="735.107" y1="330.149" x2="772.149" y2="330.149" gradientUnits="userSpaceOnUse">
<stop stop-color="#D77D27"/>
<stop offset="1" stop-color="#F9A649"/>
</linearGradient>
<linearGradient id="paint13_linear" x1="802.742" y1="318.198" x2="836.256" y2="318.198" gradientUnits="userSpaceOnUse">
<stop stop-color="#D77D27"/>
<stop offset="1" stop-color="#F9A649"/>
</linearGradient>
<linearGradient id="paint14_linear" x1="842.36" y1="318.401" x2="851.178" y2="318.401" gradientUnits="userSpaceOnUse">
<stop stop-color="#D77D27"/>
<stop offset="1" stop-color="#F9A649"/>
</linearGradient>
<linearGradient id="paint15_linear" x1="858.776" y1="320.431" x2="881.162" y2="320.431" gradientUnits="userSpaceOnUse">
<stop stop-color="#D77D27"/>
<stop offset="1" stop-color="#F9A649"/>
</linearGradient>
<linearGradient id="paint16_linear" x1="886.996" y1="325.138" x2="919.49" y2="325.138" gradientUnits="userSpaceOnUse">
<stop stop-color="#D77D27"/>
<stop offset="1" stop-color="#F9A649"/>
</linearGradient>
<linearGradient id="paint17_linear" x1="926.408" y1="343.184" x2="937.739" y2="343.184" gradientUnits="userSpaceOnUse">
<stop stop-color="#D77D27"/>
<stop offset="1" stop-color="#F9A649"/>
</linearGradient>
<linearGradient id="paint18_linear" x1="964.465" y1="330.555" x2="1001.23" y2="330.555" gradientUnits="userSpaceOnUse">
<stop stop-color="#D77D27"/>
<stop offset="1" stop-color="#F9A649"/>
</linearGradient>
<linearGradient id="paint19_linear" x1="1007.88" y1="325.409" x2="1040.04" y2="325.409" gradientUnits="userSpaceOnUse">
<stop stop-color="#D77D27"/>
<stop offset="1" stop-color="#F9A649"/>
</linearGradient>
<linearGradient id="paint20_linear" x1="1050.35" y1="318.198" x2="1083.86" y2="318.198" gradientUnits="userSpaceOnUse">
<stop stop-color="#D77D27"/>
<stop offset="1" stop-color="#F9A649"/>
</linearGradient>
<linearGradient id="paint21_linear" x1="1096.75" y1="338.275" x2="1152" y2="338.275" gradientUnits="userSpaceOnUse">
<stop stop-color="#D77D27"/>
<stop offset="1" stop-color="#F9A649"/>
</linearGradient>
</defs>
</svg>
