<svg width="1440" height="541" viewBox="0 0 1440 541" fill="none" xmlns="http://www.w3.org/2000/svg">
<g clip-path="url(#clip0)">
<path d="M1440 0H0V541H1440V0Z" fill="#FEA621"/>
<path d="M873.1 599.9L0 649.1L94.7 349.1L949.3 290.6L873.1 599.9Z" fill="#FF8000"/>
<path d="M193.938 447.315C193.938 447.455 193.833 449.109 193.621 452.276H152.03C152.874 455.232 154.493 457.519 156.886 459.138C159.349 460.686 162.41 461.46 166.07 461.46C168.814 461.46 171.172 461.073 173.142 460.299C175.183 459.525 177.224 458.258 179.265 456.499L189.821 467.477C184.262 473.67 176.133 476.767 165.436 476.767C158.751 476.767 152.874 475.5 147.807 472.966C142.74 470.433 138.799 466.914 135.984 462.41C133.24 457.906 131.867 452.804 131.867 447.104C131.867 441.474 133.204 436.442 135.879 432.008C138.623 427.504 142.388 423.985 147.174 421.452C151.959 418.918 157.343 417.652 163.325 417.652C169.025 417.652 174.198 418.848 178.843 421.241C183.487 423.563 187.147 426.976 189.821 431.48C192.566 435.914 193.938 441.192 193.938 447.315ZM163.431 431.903C160.334 431.903 157.73 432.782 155.619 434.542C153.578 436.301 152.276 438.694 151.713 441.72H175.148C174.585 438.694 173.248 436.301 171.137 434.542C169.096 432.782 166.527 431.903 163.431 431.903ZM229.154 455.76L223.243 461.777V475.817H203.186V397.489H223.243V438.553L243.722 418.602H267.473L243.722 443.092L269.479 475.817H245.2L229.154 455.76ZM294.391 476.767C289.605 476.767 284.89 476.239 280.246 475.183C275.601 474.057 271.871 472.615 269.056 470.855L275.073 457.132C277.677 458.751 280.773 460.053 284.362 461.038C287.952 461.953 291.506 462.41 295.024 462.41C298.262 462.41 300.549 462.093 301.886 461.46C303.293 460.756 303.997 459.771 303.997 458.504C303.997 457.238 303.153 456.358 301.464 455.865C299.845 455.302 297.241 454.774 293.652 454.282C289.078 453.719 285.172 452.98 281.935 452.065C278.768 451.15 276.023 449.461 273.701 446.998C271.378 444.535 270.217 441.087 270.217 436.653C270.217 432.993 271.308 429.756 273.49 426.941C275.671 424.056 278.838 421.804 282.99 420.185C287.213 418.496 292.245 417.652 298.086 417.652C302.238 417.652 306.355 418.074 310.436 418.918C314.518 419.763 317.931 420.959 320.676 422.507L314.659 436.125C309.592 433.31 304.103 431.903 298.191 431.903C295.024 431.903 292.702 432.29 291.224 433.064C289.746 433.768 289.007 434.718 289.007 435.914C289.007 437.251 289.817 438.201 291.435 438.764C293.054 439.257 295.728 439.785 299.458 440.348C304.173 441.051 308.079 441.861 311.175 442.776C314.272 443.69 316.946 445.379 319.198 447.843C321.521 450.235 322.682 453.613 322.682 457.977C322.682 461.566 321.591 464.803 319.409 467.688C317.228 470.503 313.99 472.72 309.698 474.339C305.475 475.957 300.373 476.767 294.391 476.767ZM370.805 473.494C369.116 474.55 367.04 475.359 364.577 475.922C362.184 476.485 359.616 476.767 356.871 476.767C349.411 476.767 343.676 474.937 339.664 471.277C335.653 467.618 333.647 462.164 333.647 454.915V435.703H325.308V420.713H333.647V405.829H353.704V420.713H366.794V435.703H353.704V454.704C353.704 456.745 354.232 458.364 355.287 459.56C356.413 460.686 357.891 461.249 359.721 461.249C362.043 461.249 364.084 460.651 365.844 459.454L370.805 473.494ZM397.646 425.463C399.687 422.859 402.326 420.924 405.563 419.657C408.871 418.32 412.636 417.652 416.859 417.652V435.703C415.029 435.492 413.516 435.386 412.319 435.386C408.026 435.386 404.648 436.547 402.185 438.87C399.793 441.192 398.596 444.746 398.596 449.532V475.817H378.539V418.602H397.646V425.463ZM449.108 417.652C458.609 417.652 465.857 419.833 470.854 424.196C475.85 428.489 478.349 435.105 478.349 444.042V475.817H459.664V468.427C456.779 473.987 451.149 476.767 442.774 476.767C438.341 476.767 434.505 475.993 431.268 474.444C428.031 472.896 425.567 470.82 423.878 468.216C422.26 465.542 421.451 462.516 421.451 459.138C421.451 453.719 423.527 449.532 427.679 446.576C431.831 443.55 438.235 442.037 446.891 442.037H458.292C457.94 435.984 453.893 432.958 446.152 432.958C443.408 432.958 440.628 433.416 437.813 434.331C434.998 435.175 432.605 436.371 430.634 437.92L423.878 424.302C427.045 422.191 430.881 420.572 435.385 419.446C439.959 418.25 444.534 417.652 449.108 417.652ZM448.369 464.099C450.691 464.099 452.732 463.536 454.492 462.41C456.251 461.284 457.518 459.63 458.292 457.449V452.487H449.636C443.795 452.487 440.874 454.423 440.874 458.293C440.874 460.053 441.543 461.46 442.88 462.516C444.217 463.571 446.047 464.099 448.369 464.099ZM546.537 428.841C556.882 428.841 564.517 430.953 569.444 435.175C574.44 439.398 576.939 445.028 576.939 452.065C576.939 456.639 575.742 460.862 573.349 464.733C571.027 468.533 567.438 471.594 562.582 473.917C557.797 476.169 551.85 477.295 544.742 477.295C539.534 477.295 534.362 476.661 529.224 475.394C524.157 474.128 519.794 472.333 516.134 470.011L523.629 454.282C526.585 456.252 529.822 457.765 533.341 458.821C536.93 459.877 540.519 460.404 544.109 460.404C547.698 460.404 550.548 459.736 552.659 458.399C554.841 456.991 555.932 455.056 555.932 452.593C555.932 450.13 554.876 448.265 552.765 446.998C550.653 445.731 546.924 445.098 541.575 445.098H521.518L525.213 401.923H572.294V418.074H542.525L541.575 428.841H546.537ZM615.619 477.295C609.285 477.295 603.655 475.781 598.729 472.755C593.803 469.729 589.932 465.331 587.117 459.56C584.373 453.719 583 446.822 583 438.87C583 430.917 584.373 424.056 587.117 418.285C589.932 412.444 593.803 408.01 598.729 404.984C603.655 401.958 609.285 400.445 615.619 400.445C621.882 400.445 627.477 401.958 632.404 404.984C637.33 408.01 641.165 412.444 643.91 418.285C646.725 424.056 648.132 430.917 648.132 438.87C648.132 446.822 646.725 453.719 643.91 459.56C641.165 465.331 637.33 469.729 632.404 472.755C627.477 475.781 621.882 477.295 615.619 477.295ZM615.619 460.193C619.138 460.193 621.918 458.504 623.959 455.126C626.07 451.678 627.125 446.259 627.125 438.87C627.125 431.48 626.07 426.097 623.959 422.719C621.918 419.27 619.138 417.546 615.619 417.546C612.03 417.546 609.18 419.27 607.069 422.719C605.028 426.097 604.007 431.48 604.007 438.87C604.007 446.259 605.028 451.678 607.069 455.126C609.18 458.504 612.03 460.193 615.619 460.193ZM672.894 441.931C667.335 441.931 662.795 440.101 659.277 436.442C655.758 432.782 653.999 427.786 653.999 421.452C653.999 417.3 654.808 413.675 656.426 410.579C658.045 407.482 660.262 405.125 663.077 403.506C665.962 401.817 669.235 400.973 672.894 400.973C678.524 400.973 683.099 402.838 686.617 406.568C690.136 410.227 691.896 415.188 691.896 421.452C691.896 427.786 690.136 432.782 686.617 436.442C683.099 440.101 678.524 441.931 672.894 441.931ZM716.597 401.923H731.798L681.339 475.817H666.138L716.597 401.923ZM672.894 431.903C674.794 431.903 676.307 431.058 677.433 429.369C678.559 427.68 679.122 425.041 679.122 421.452C679.122 417.863 678.559 415.224 677.433 413.535C676.307 411.846 674.794 411.001 672.894 411.001C671.064 411.001 669.551 411.881 668.355 413.64C667.229 415.329 666.666 417.933 666.666 421.452C666.666 424.971 667.229 427.61 668.355 429.369C669.551 431.058 671.064 431.903 672.894 431.903ZM725.042 476.767C719.412 476.767 714.838 474.937 711.319 471.277C707.871 467.618 706.147 462.621 706.147 456.288C706.147 450.024 707.906 445.063 711.425 441.403C714.943 437.673 719.483 435.808 725.042 435.808C730.672 435.808 735.247 437.673 738.765 441.403C742.284 445.063 744.044 450.024 744.044 456.288C744.044 462.621 742.284 467.618 738.765 471.277C735.247 474.937 730.672 476.767 725.042 476.767ZM725.042 466.738C726.942 466.738 728.455 465.894 729.581 464.205C730.707 462.516 731.27 459.877 731.27 456.288C731.27 452.698 730.707 450.059 729.581 448.37C728.455 446.681 726.942 445.837 725.042 445.837C723.142 445.837 721.629 446.681 720.503 448.37C719.377 450.059 718.814 452.698 718.814 456.288C718.814 459.877 719.377 462.516 720.503 464.205C721.629 465.894 723.142 466.738 725.042 466.738Z" fill="white"/>
<path d="M203.984 136.926C207.268 136.926 210.11 137.473 212.511 138.568C214.947 139.662 216.819 141.216 218.125 143.228C219.431 145.241 220.085 147.624 220.085 150.378C220.085 153.097 219.431 155.481 218.125 157.528C216.819 159.541 214.947 161.095 212.511 162.189C210.11 163.248 207.268 163.778 203.984 163.778H196.516V174H187.936V136.926H203.984ZM203.507 156.787C206.085 156.787 208.044 156.24 209.386 155.145C210.728 154.015 211.399 152.426 211.399 150.378C211.399 148.295 210.728 146.706 209.386 145.612C208.044 144.482 206.085 143.917 203.507 143.917H196.516V156.787H203.507ZM254.916 167.115V174H226.21V136.926H254.228V143.811H234.737V151.861H251.95V158.535H234.737V167.115H254.916ZM285.364 174L278.214 163.672H277.791H270.323V174H261.743V136.926H277.791C281.074 136.926 283.917 137.473 286.318 138.568C288.754 139.662 290.625 141.216 291.932 143.228C293.238 145.241 293.892 147.624 293.892 150.378C293.892 153.133 293.221 155.516 291.879 157.528C290.573 159.506 288.701 161.024 286.265 162.083L294.58 174H285.364ZM285.206 150.378C285.206 148.295 284.535 146.706 283.193 145.612C281.851 144.482 279.892 143.917 277.314 143.917H270.323V156.84H277.314C279.892 156.84 281.851 156.275 283.193 155.145C284.535 154.015 285.206 152.426 285.206 150.378ZM325.105 166.056H307.892L304.609 174H295.817L312.341 136.926H320.815L337.393 174H328.389L325.105 166.056ZM322.404 159.541L316.525 145.347L310.647 159.541H322.404ZM341.239 136.926H349.819V167.009H368.409V174H341.239V136.926ZM397.93 166.056H380.717L377.433 174H368.641L385.166 136.926H393.64L410.217 174H401.213L397.93 166.056ZM395.229 159.541L389.35 145.347L383.471 159.541H395.229ZM419.881 143.917H408.018V136.926H440.325V143.917H428.461V174H419.881V143.917ZM467.495 166.056H450.282L446.999 174H438.207L454.731 136.926H463.205L479.783 174H470.779L467.495 166.056ZM464.794 159.541L458.915 145.347L453.037 159.541H464.794ZM517.632 136.926V174H510.588L492.103 151.491V174H483.629V136.926H490.726L509.158 159.435V136.926H517.632ZM553.584 174.636C550.653 174.636 547.811 174.247 545.057 173.47C542.338 172.658 540.149 171.617 538.49 170.346L541.403 163.884C542.991 165.049 544.881 165.985 547.07 166.691C549.259 167.397 551.448 167.75 553.637 167.75C556.073 167.75 557.874 167.397 559.039 166.691C560.204 165.95 560.787 164.979 560.787 163.778C560.787 162.895 560.434 162.172 559.728 161.607C559.057 161.006 558.174 160.53 557.08 160.177C556.02 159.824 554.573 159.435 552.737 159.011C549.912 158.341 547.599 157.67 545.799 156.999C543.998 156.328 542.444 155.251 541.138 153.768C539.867 152.285 539.231 150.308 539.231 147.836C539.231 145.682 539.814 143.74 540.979 142.01C542.144 140.245 543.892 138.85 546.222 137.826C548.588 136.802 551.466 136.29 554.855 136.29C557.221 136.29 559.534 136.573 561.793 137.138C564.053 137.703 566.03 138.515 567.725 139.574L565.077 146.088C561.652 144.146 558.227 143.175 554.802 143.175C552.401 143.175 550.618 143.564 549.453 144.341C548.323 145.117 547.758 146.141 547.758 147.413C547.758 148.684 548.411 149.637 549.718 150.273C551.06 150.873 553.09 151.473 555.809 152.073C558.633 152.744 560.946 153.415 562.747 154.086C564.547 154.757 566.083 155.816 567.355 157.264C568.661 158.711 569.314 160.671 569.314 163.143C569.314 165.261 568.714 167.203 567.513 168.969C566.348 170.699 564.583 172.076 562.217 173.1C559.851 174.124 556.974 174.636 553.584 174.636ZM603.883 167.115V174H575.177V136.926H603.194V143.811H583.704V151.861H600.917V158.535H583.704V167.115H603.883ZM624.215 159.435L619.237 164.626V174H610.71V136.926H619.237V154.245L635.655 136.926H645.189L629.829 153.45L646.089 174H636.079L624.215 159.435ZM666.525 174.636C662.676 174.636 659.198 173.806 656.091 172.146C653.019 170.487 650.6 168.209 648.835 165.314C647.105 162.383 646.24 159.1 646.24 155.463C646.24 151.826 647.105 148.56 648.835 145.665C650.6 142.734 653.019 140.439 656.091 138.78C659.198 137.12 662.676 136.29 666.525 136.29C670.373 136.29 673.834 137.12 676.905 138.78C679.977 140.439 682.396 142.734 684.161 145.665C685.927 148.56 686.809 151.826 686.809 155.463C686.809 159.1 685.927 162.383 684.161 165.314C682.396 168.209 679.977 170.487 676.905 172.146C673.834 173.806 670.373 174.636 666.525 174.636ZM666.525 167.327C668.714 167.327 670.691 166.832 672.456 165.844C674.222 164.82 675.599 163.407 676.588 161.607C677.612 159.806 678.124 157.758 678.124 155.463C678.124 153.168 677.612 151.12 676.588 149.319C675.599 147.518 674.222 146.124 672.456 145.135C670.691 144.111 668.714 143.599 666.525 143.599C664.335 143.599 662.358 144.111 660.593 145.135C658.827 146.124 657.433 147.518 656.409 149.319C655.42 151.12 654.926 153.168 654.926 155.463C654.926 157.758 655.42 159.806 656.409 161.607C657.433 163.407 658.827 164.82 660.593 165.844C662.358 166.832 664.335 167.327 666.525 167.327ZM693.258 136.926H701.838V167.009H720.428V174H693.258V136.926ZM749.948 166.056H732.735L729.451 174H720.66L737.184 136.926H745.658L762.236 174H753.232L749.948 166.056ZM747.247 159.541L741.368 145.347L735.489 159.541H747.247ZM800.084 136.926V174H791.504V158.8H774.662V174H766.082V136.926H774.662V151.544H791.504V136.926H800.084ZM337.514 208.917H325.651V201.926H357.958V208.917H346.094V239H337.514V208.917ZM391.281 232.115V239H362.575V201.926H390.592V208.811H371.102V216.861H388.315V223.535H371.102V232.115H391.281ZM421.729 239L414.579 228.672H414.155H406.687V239H398.107V201.926H414.155C417.439 201.926 420.281 202.473 422.682 203.568C425.119 204.662 426.99 206.216 428.296 208.228C429.603 210.241 430.256 212.624 430.256 215.378C430.256 218.133 429.585 220.516 428.243 222.528C426.937 224.506 425.066 226.024 422.629 227.083L430.945 239H421.729ZM421.57 215.378C421.57 213.295 420.899 211.706 419.557 210.612C418.216 209.482 416.256 208.917 413.679 208.917H406.687V221.84H413.679C416.256 221.84 418.216 221.275 419.557 220.145C420.899 219.015 421.57 217.426 421.57 215.378ZM470.791 239L470.738 216.755L459.828 235.081H455.962L445.104 217.232V239H437.054V201.926H444.151L458.027 224.965L471.692 201.926H478.736L478.842 239H470.791ZM504.109 239.636C498.813 239.636 494.682 238.17 491.716 235.24C488.785 232.309 487.32 228.125 487.32 222.687V201.926H495.9V222.37C495.9 229.008 498.654 232.327 504.162 232.327C506.846 232.327 508.894 231.532 510.306 229.943C511.718 228.319 512.425 225.795 512.425 222.37V201.926H520.899V222.687C520.899 228.125 519.416 232.309 516.45 235.24C513.519 238.17 509.406 239.636 504.109 239.636ZM552.999 239L545.849 228.672H545.425H537.957V239H529.377V201.926H545.425C548.709 201.926 551.551 202.473 553.952 203.568C556.388 204.662 558.26 206.216 559.566 208.228C560.873 210.241 561.526 212.624 561.526 215.378C561.526 218.133 560.855 220.516 559.513 222.528C558.207 224.506 556.335 226.024 553.899 227.083L562.214 239H552.999ZM552.84 215.378C552.84 213.295 552.169 211.706 550.827 210.612C549.486 209.482 547.526 208.917 544.948 208.917H537.957V221.84H544.948C547.526 221.84 549.486 221.275 550.827 220.145C552.169 219.015 552.84 217.426 552.84 215.378ZM592.74 231.056H575.527L572.243 239H563.451L579.976 201.926H588.45L605.027 239H596.023L592.74 231.056ZM590.039 224.541L584.16 210.347L578.281 224.541H590.039ZM642.876 201.926V239H634.296V223.8H617.454V239H608.874V201.926H617.454V216.544H634.296V201.926H642.876ZM650.006 201.926H659.857L658.215 226.13H651.648L650.006 201.926ZM654.931 239.424C653.484 239.424 652.265 238.965 651.277 238.047C650.323 237.093 649.847 235.946 649.847 234.604C649.847 233.262 650.323 232.15 651.277 231.267C652.23 230.349 653.448 229.89 654.931 229.89C656.414 229.89 657.632 230.349 658.586 231.267C659.539 232.15 660.016 233.262 660.016 234.604C660.016 235.946 659.521 237.093 658.533 238.047C657.579 238.965 656.379 239.424 654.931 239.424Z" fill="white"/>
<path d="M1056 259.6H1015.4L1035.7 224.5L1056 259.6ZM1022.4 255.6H1049.1L1035.7 232.5L1022.4 255.6Z" fill="white"/>
<path d="M499.9 16.2L505.7 22" stroke="white" stroke-width="3" stroke-linecap="round" stroke-linejoin="round"/>
<path d="M514.4 30.7999L520.3 36.5999" stroke="white" stroke-width="3" stroke-linecap="round" stroke-linejoin="round"/>
<path d="M520.3 16.2L514.4 22" stroke="white" stroke-width="3" stroke-linecap="round" stroke-linejoin="round"/>
<path d="M505.7 30.7999L499.9 36.5999" stroke="white" stroke-width="3" stroke-linecap="round" stroke-linejoin="round"/>
<path d="M184.4 113.9L190.2 119.8" stroke="white" stroke-width="3" stroke-linecap="round" stroke-linejoin="round"/>
<path d="M198.9 128.5L204.8 134.4" stroke="white" stroke-width="3" stroke-linecap="round" stroke-linejoin="round"/>
<path d="M204.8 113.9L198.9 119.8" stroke="white" stroke-width="3" stroke-linecap="round" stroke-linejoin="round"/>
<path d="M190.2 128.5L184.4 134.4" stroke="white" stroke-width="3" stroke-linecap="round" stroke-linejoin="round"/>
<path d="M383.4 262.9L389.2 268.8" stroke="white" stroke-width="3" stroke-linecap="round" stroke-linejoin="round"/>
<path d="M397.9 277.5L403.8 283.4" stroke="white" stroke-width="3" stroke-linecap="round" stroke-linejoin="round"/>
<path d="M403.8 262.9L397.9 268.8" stroke="white" stroke-width="3" stroke-linecap="round" stroke-linejoin="round"/>
<path d="M389.2 277.5L383.4 283.4" stroke="white" stroke-width="3" stroke-linecap="round" stroke-linejoin="round"/>
<path d="M119.6 252.3C121.146 252.3 122.4 251.046 122.4 249.5C122.4 247.954 121.146 246.7 119.6 246.7C118.053 246.7 116.8 247.954 116.8 249.5C116.8 251.046 118.053 252.3 119.6 252.3Z" fill="white"/>
<path d="M119.6 264.6C121.146 264.6 122.4 263.346 122.4 261.8C122.4 260.254 121.146 259 119.6 259C118.053 259 116.8 260.254 116.8 261.8C116.8 263.346 118.053 264.6 119.6 264.6Z" fill="white"/>
<path d="M119.6 277C121.146 277 122.4 275.746 122.4 274.2C122.4 272.654 121.146 271.4 119.6 271.4C118.053 271.4 116.8 272.654 116.8 274.2C116.8 275.746 118.053 277 119.6 277Z" fill="white"/>
<path d="M119.6 289.3C121.146 289.3 122.4 288.046 122.4 286.5C122.4 284.954 121.146 283.7 119.6 283.7C118.053 283.7 116.8 284.954 116.8 286.5C116.8 288.046 118.053 289.3 119.6 289.3Z" fill="white"/>
<path d="M119.6 301.6C121.146 301.6 122.4 300.346 122.4 298.8C122.4 297.254 121.146 296 119.6 296C118.053 296 116.8 297.254 116.8 298.8C116.8 300.346 118.053 301.6 119.6 301.6Z" fill="white"/>
<path d="M131 252.3C132.546 252.3 133.8 251.046 133.8 249.5C133.8 247.954 132.546 246.7 131 246.7C129.453 246.7 128.2 247.954 128.2 249.5C128.2 251.046 129.453 252.3 131 252.3Z" fill="white"/>
<path d="M131 264.6C132.546 264.6 133.8 263.346 133.8 261.8C133.8 260.254 132.546 259 131 259C129.453 259 128.2 260.254 128.2 261.8C128.2 263.346 129.453 264.6 131 264.6Z" fill="white"/>
<path d="M131 277C132.546 277 133.8 275.746 133.8 274.2C133.8 272.654 132.546 271.4 131 271.4C129.453 271.4 128.2 272.654 128.2 274.2C128.2 275.746 129.453 277 131 277Z" fill="white"/>
<path d="M131 289.3C132.546 289.3 133.8 288.046 133.8 286.5C133.8 284.954 132.546 283.7 131 283.7C129.453 283.7 128.2 284.954 128.2 286.5C128.2 288.046 129.453 289.3 131 289.3Z" fill="white"/>
<path d="M131 301.6C132.546 301.6 133.8 300.346 133.8 298.8C133.8 297.254 132.546 296 131 296C129.453 296 128.2 297.254 128.2 298.8C128.2 300.346 129.453 301.6 131 301.6Z" fill="white"/>
<path d="M142.3 252.3C143.846 252.3 145.1 251.046 145.1 249.5C145.1 247.954 143.846 246.7 142.3 246.7C140.754 246.7 139.5 247.954 139.5 249.5C139.5 251.046 140.754 252.3 142.3 252.3Z" fill="white"/>
<path d="M142.3 264.6C143.846 264.6 145.1 263.346 145.1 261.8C145.1 260.254 143.846 259 142.3 259C140.754 259 139.5 260.254 139.5 261.8C139.5 263.346 140.754 264.6 142.3 264.6Z" fill="white"/>
<path d="M142.3 277C143.846 277 145.1 275.746 145.1 274.2C145.1 272.654 143.846 271.4 142.3 271.4C140.754 271.4 139.5 272.654 139.5 274.2C139.5 275.746 140.754 277 142.3 277Z" fill="white"/>
<path d="M142.3 289.3C143.846 289.3 145.1 288.046 145.1 286.5C145.1 284.954 143.846 283.7 142.3 283.7C140.754 283.7 139.5 284.954 139.5 286.5C139.5 288.046 140.754 289.3 142.3 289.3Z" fill="white"/>
<path d="M142.3 301.6C143.846 301.6 145.1 300.346 145.1 298.8C145.1 297.254 143.846 296 142.3 296C140.754 296 139.5 297.254 139.5 298.8C139.5 300.346 140.754 301.6 142.3 301.6Z" fill="white"/>
<path d="M153.7 252.3C155.246 252.3 156.5 251.046 156.5 249.5C156.5 247.954 155.246 246.7 153.7 246.7C152.154 246.7 150.9 247.954 150.9 249.5C150.9 251.046 152.154 252.3 153.7 252.3Z" fill="white"/>
<path d="M153.7 264.6C155.246 264.6 156.5 263.346 156.5 261.8C156.5 260.254 155.246 259 153.7 259C152.154 259 150.9 260.254 150.9 261.8C150.9 263.346 152.154 264.6 153.7 264.6Z" fill="white"/>
<path d="M153.7 277C155.246 277 156.5 275.746 156.5 274.2C156.5 272.654 155.246 271.4 153.7 271.4C152.154 271.4 150.9 272.654 150.9 274.2C150.9 275.746 152.154 277 153.7 277Z" fill="white"/>
<path d="M153.7 289.3C155.246 289.3 156.5 288.046 156.5 286.5C156.5 284.954 155.246 283.7 153.7 283.7C152.154 283.7 150.9 284.954 150.9 286.5C150.9 288.046 152.154 289.3 153.7 289.3Z" fill="white"/>
<path d="M153.7 301.6C155.246 301.6 156.5 300.346 156.5 298.8C156.5 297.254 155.246 296 153.7 296C152.154 296 150.9 297.254 150.9 298.8C150.9 300.346 152.154 301.6 153.7 301.6Z" fill="white"/>
<path d="M165 252.3C166.546 252.3 167.8 251.046 167.8 249.5C167.8 247.954 166.546 246.7 165 246.7C163.453 246.7 162.2 247.954 162.2 249.5C162.2 251.046 163.453 252.3 165 252.3Z" fill="white"/>
<path d="M165 264.6C166.546 264.6 167.8 263.346 167.8 261.8C167.8 260.254 166.546 259 165 259C163.453 259 162.2 260.254 162.2 261.8C162.2 263.346 163.453 264.6 165 264.6Z" fill="white"/>
<path d="M165 277C166.546 277 167.8 275.746 167.8 274.2C167.8 272.654 166.546 271.4 165 271.4C163.453 271.4 162.2 272.654 162.2 274.2C162.2 275.746 163.453 277 165 277Z" fill="white"/>
<path d="M165 289.3C166.546 289.3 167.8 288.046 167.8 286.5C167.8 284.954 166.546 283.7 165 283.7C163.453 283.7 162.2 284.954 162.2 286.5C162.2 288.046 163.453 289.3 165 289.3Z" fill="white"/>
<path d="M165 301.6C166.546 301.6 167.8 300.346 167.8 298.8C167.8 297.254 166.546 296 165 296C163.453 296 162.2 297.254 162.2 298.8C162.2 300.346 163.453 301.6 165 301.6Z" fill="white"/>
<path d="M97.3002 78.7H56.7002L77.0002 43.5L97.3002 78.7ZM63.6002 74.7H90.3002L77.0002 51.5L63.6002 74.7Z" fill="white"/>
<path fill-rule="evenodd" clip-rule="evenodd" d="M947.2 149C949 145.7 951 142.6 953.7 139.8C958.3 135 963.7 131.6 970.3 130.8C976.1 130.1 981.5 131.2 985.9 135.5C990 139.5 990.8 144.5 989.4 149.9C988.9 152.1 988 154.1 986.8 156C985.6 158 983.7 158.8 981.7 158.1C979.8 157.4 979.4 156.2 980.4 154.5C982.3 151.3 983.2 147.8 982.8 144.1C982.4 140.6 979.7 138.3 975.7 137.7C969.6 136.8 964.6 138.8 960.3 142.9C956.9 146.2 954.5 150.1 952.5 154.3C950.1 159.3 947.3 164 944.1 168.6C938.7 176.4 932.3 183.4 924.5 188.9C915.6 195.3 905.7 199.4 894.7 200.7C882.9 202 871.5 200.5 860.6 195.7C849.1 190.7 841.4 182 837.2 170.2C835.4 165.2 834.3 160 833.8 154.7C833.8 154.6 833.8 154.4 833.6 154.3C833.6 151.9 833.6 149.4 833.6 147C833.9 146.8 833.8 146.5 833.8 146.3C834.4 141.2 835.7 136.2 838.1 131.6C840.7 126.7 844.3 123 849.8 121.3C850.7 121 851.6 121 852.5 120.6C853.5 120.6 854.5 120.6 855.5 120.6C856.3 121 857.5 121 857.6 122.1C857.7 123.5 857.2 124.8 856.2 125.8C856 126 855.8 126.1 855.7 126.2C854.7 126.5 853.7 126.4 852.8 126.8C850.1 128 847.9 129.9 846.2 132.3C841.3 138.8 839.7 146.2 840.6 154.2C841.3 160.9 843.3 167.3 846.6 173.2C850.1 179.5 854.6 185 861 188.6C870.9 194.2 881.6 196 892.8 194.7C901.9 193.6 910.2 190.5 917.8 185.6C931.7 176.7 940.8 163.9 947.2 149Z" fill="#332F2D"/>
<path fill-rule="evenodd" clip-rule="evenodd" d="M888.3 220.4C887.4 220.1 886.5 220.3 885.6 220.2C884.3 220.1 883 220.3 881.7 220C886.7 219.9 891.7 220 896.6 220.1C896.6 220.2 896.6 220.2 896.6 220.3C893.8 220.4 891.1 220.4 888.3 220.4Z" fill="#F4CC9E"/>
<path fill-rule="evenodd" clip-rule="evenodd" d="M896.6 220.4C896.6 220.3 896.6 220.3 896.6 220.2C902.7 220.2 908.9 220.2 915 220.2C915 220.3 915 220.3 915 220.4C908.9 220.4 902.8 220.4 896.6 220.4Z" fill="#F4C793"/>
<path fill-rule="evenodd" clip-rule="evenodd" d="M915.1 220.4C915.1 220.3 915.1 220.3 915.1 220.2C917.2 220.2 919.2 220.2 921.3 220.1C924.3 220 927.4 220 930.4 220C929.1 220.3 927.7 220.1 926.4 220.2C925.5 220.3 924.7 220 923.8 220.4C920.9 220.4 918 220.4 915.1 220.4Z" fill="#F4CC9E"/>
<path fill-rule="evenodd" clip-rule="evenodd" d="M937.8 151.1C939.3 149.4 940.2 147.2 941.7 145.5C941.9 145.4 942.2 145.2 942.4 145.2C943.4 144.8 944.4 145.6 944.5 147C944.7 148.5 944.3 150 943.7 151.4C940.3 158.8 936 165.7 930.4 171.7C924.3 178.4 917.1 183.6 908.8 187.3C906.8 188.2 904.7 189.1 902.5 189.5C901.3 189.4 900.1 189.8 899 190.1C898.8 190.2 898.6 190.2 898.5 190C898.4 189.8 898.5 189.6 898.7 189.5C898.8 189.4 899.1 189.5 899 189.1C898 189.5 897.7 188.4 896.9 188.1C893.9 186.8 891.4 184.7 888.5 183.1C887.9 182.8 887.4 182.1 886.5 182.3C886.2 182.4 885.7 182.5 885.6 182.1C885.5 181.6 886.1 181.6 886.4 181.5C886.4 181.5 886.4 181.4 886.5 181.3C885.6 181.2 884.6 181.3 884.3 180.1C884.5 180.1 884.8 180.1 885 180.1C885.1 180.5 885.4 180.4 885.7 180.4C886.7 180.4 887.7 180.4 888.7 180.4C889.4 180.4 890 180.6 890.7 180.2C890.8 180.2 890.8 180.1 890.9 180.1C892.3 180.1 893.6 180.1 895 179.7C895.9 179.8 896.6 179.3 897.5 179.3C898.1 179.3 898.7 179.1 899.3 178.9C899.5 178.9 899.8 179 900 178.7C900.1 178.7 900.2 178.7 900.4 178.7C901.2 178.4 902.1 178.3 902.9 178C904.3 177.4 905.9 177.2 907.3 176.4C908.5 175.8 909.8 175.4 911.1 174.8C913.7 173.5 916.2 172.1 918.6 170.6C920.1 169.7 921.5 168.6 922.9 167.5C924.6 166.1 926.3 164.6 927.9 163.1C929.2 161.9 930.3 160.7 931.5 159.4C932.2 158.7 932.8 157.7 933.5 157C934.9 155.4 936.1 153.7 937.3 152C937.5 151.8 937.6 151.6 937.5 151.3C937.5 151.3 937.5 151.2 937.6 151.2C937.7 151.5 937.8 151.4 937.8 151.1Z" fill="#F38F2F"/>
<path fill-rule="evenodd" clip-rule="evenodd" d="M854 128.8C854.8 128.6 855.7 128.3 856.5 128.1C857.8 128.4 858.2 128.9 858.3 130.2C858.4 131.7 858.1 133.2 857.9 134.7C857.3 135.3 857.8 136.1 857.4 136.7C857.3 136.8 857.2 136.9 857.2 137C857 140 856.8 143 856.7 146C856.6 147.6 857 149.3 856.9 150.9C856.9 151.1 856.9 151.4 856.9 151.6C856.9 151.9 857 152 857.2 152.1C857.2 152.8 857.2 153.4 857.2 154.1C857.2 154.4 857.1 154.7 857.5 154.8C857.6 155.4 857.3 156.1 857.9 156.6C857.8 157.4 858.3 158 858.3 158.7C858.3 159 858.4 159.1 858.6 159.3C858.6 159.5 858.6 159.6 858.6 159.8C858.6 160.1 858.5 160.4 858.9 160.5C859 161 859.2 161.4 859.3 161.9C859.4 162.4 859.6 162.8 859.9 163.2C859.9 163.7 860.2 164.1 860.3 164.5C860 164.8 859.8 165.2 859.3 165.4C859.3 164.9 859 164.7 858.6 164.4C857.3 163.4 855.9 162.8 854.5 161.9C851.6 160.1 848.7 158.4 845.7 156.6C844.4 155.8 843.2 155 843.2 153.3C843.2 153.1 843.1 153.1 842.9 153C842.4 146.9 843.5 141.2 846.7 135.9C847.3 134.9 848 133.9 848.8 133.1C849.1 132.8 849.3 132.5 849.5 132.1C850 132.1 850.2 131.7 850.4 131.4C850.8 131.3 851 131 851.3 130.7C851.4 130.7 851.5 130.7 851.5 130.5C852.4 129.9 853.1 129.2 854 128.8Z" fill="#F38F2F"/>
<path fill-rule="evenodd" clip-rule="evenodd" d="M856.9 150.8C857 149.1 856.6 147.5 856.7 145.9C856.8 142.9 857.1 139.9 857.2 136.9C857.2 136.8 857.3 136.7 857.4 136.6C857.4 136.7 857.4 136.9 857.4 136.9C857.5 137.1 857.6 136.9 857.6 136.8C857.8 136.4 858.1 136 858.2 135.5C859.5 133.2 861 131 863.1 129.2C864.3 128.2 865.6 127.5 867.1 127.1C868.5 126.7 869.4 127.4 869.5 128.9C869.6 130.2 869.1 131.4 869.1 132.6C867.9 137.4 867.4 142.2 867.7 147.1C867.8 148.2 867.7 149.3 868.2 150.4C868.3 151.5 868.5 152.6 868.9 153.6C869 153.8 869 154 869.1 154.1C869.1 154.3 869.1 154.5 869.3 154.6C869.4 154.9 869.4 155.2 869.6 155.5C869.8 156.7 870.6 157.7 871 158.9C870.6 159.3 870.3 158.9 869.9 158.8C868.8 158.3 867.9 157.5 866.9 156.9C865.8 156.2 864.7 155.7 863.6 154.9C862.1 153.7 860.5 152.7 858.7 151.8C858.6 151.7 858.4 151.7 858.4 151.6C858.5 150.4 857.5 151.1 856.9 150.8Z" fill="#F1A052"/>
<path fill-rule="evenodd" clip-rule="evenodd" d="M937.4 151.6C937.5 151.9 937.3 152.1 937.2 152.3C936 154 934.8 155.7 933.4 157.3C932.7 158.1 932.1 159 931.4 159.7C930.2 160.9 929 162.2 927.8 163.4C926.2 164.9 924.5 166.4 922.8 167.8C921.4 168.9 920 170 918.5 170.9C916.1 172.4 913.6 173.8 911 175.1C909.8 175.7 908.4 176.1 907.2 176.7C905.8 177.4 904.2 177.7 902.8 178.3C902 178.6 901.1 178.7 900.3 179C900.3 178.5 900.2 178.2 899.8 177.9C899.4 177.6 898.9 177.4 898.4 177C897 176 895.6 175.1 894.1 174.2C893 173.5 891.8 172.9 890.9 172C890.2 171.3 889.4 171 888.5 171C888 171 887.7 170.7 887.3 170.3C888 170.3 888.5 170.3 889 170.3H889.1H889.2C889.5 170.9 890 170.7 890.4 170.5C890.5 170.5 890.6 170.5 890.7 170.5C891 170.8 891.4 170.6 891.8 170.7C893.8 170.7 895.8 170.7 897.8 170.7C898.9 170.8 899.9 170.6 901 170.5C901.3 170.5 901.6 170.4 901.9 170.4C906.9 169.8 911.6 168.4 916.3 166.6C919.8 165.2 923.2 163.4 926.4 161.4C929.1 159.7 931.6 157.7 933.9 155.5C934.5 155 935.3 154.5 935.5 153.7C936 152.9 936.6 152.2 937.4 151.6Z" fill="#F1A052"/>
<path fill-rule="evenodd" clip-rule="evenodd" d="M868.4 150.5C867.9 149.5 868 148.3 867.9 147.2C867.6 142.3 868.1 137.4 869.3 132.7C870.4 131.3 871.4 129.8 872.9 128.6C873.8 127.9 874.8 127.3 875.9 127C877.6 126.6 878.5 127.1 878.5 129C878.5 130 878.4 131 878.1 131.9C877.1 136.1 876.9 140.3 877.1 144.6C877.3 148.3 878.2 151.9 880 155.2C880.2 155.6 880.4 156.1 880.6 156.5C880.5 156.6 880.5 156.7 880.4 156.8C879.8 156.4 879 156.6 878.5 156.1C877.5 155.2 876.3 154.5 875.2 153.9C873.4 153 871.9 151.4 869.9 150.8C869.7 150.7 869.6 150.6 869.4 150.4C869.2 150.1 869.2 149.5 868.7 149.6C868.3 149.6 868.8 150.2 868.4 150.5Z" fill="#F5BA73"/>
<path fill-rule="evenodd" clip-rule="evenodd" d="M930.4 220.1C927.4 220.1 924.3 220 921.3 220.2C919.2 220.3 917.2 220.2 915.1 220.3C909 220.3 902.8 220.3 896.7 220.3C891.7 220.2 886.7 220.1 881.8 220.2C876.4 220.2 871.1 220 865.7 219.8C865.3 219.8 864.8 219.8 864.4 219.6C865.4 219.4 866.3 219 867.3 218.7C873.3 218.2 879.3 218.1 885.3 217.8C888.2 217.6 891.1 217.6 894.1 217.5C899.5 217.4 905 217.3 910.4 217.2C910.7 217.2 911 217.3 911.2 217C914.4 220.5 919.5 220.5 922.7 217C922.9 217.2 923.2 217.1 923.5 217.1C929.1 217.2 934.7 217.3 940.3 217.7C943.3 217.9 946.3 218.2 949.3 218.8C949.7 218.9 950 219 950.3 219.4C943.6 219.9 937 220 930.4 220.1Z" fill="#F39030"/>
<path fill-rule="evenodd" clip-rule="evenodd" d="M922.6 216.9C919.4 220.4 914.2 220.4 911.1 216.9C908.8 214.1 908.6 210.5 910.6 207.6C912.5 204.8 916 203.6 919.2 204.6C922.5 205.6 924.6 208.7 924.5 212.2C924.4 214 923.7 215.5 922.6 216.9Z" fill="#332F2D"/>
<path fill-rule="evenodd" clip-rule="evenodd" d="M867.2 218.6C866.3 219 865.3 219.4 864.3 219.5C860.8 219.7 858.1 218.4 856.5 215.1C854.7 211.5 856.1 207.3 859.6 205.2C863 203.2 867.4 204.3 869.6 207.6C871.8 210.9 871.2 215.4 868 217.8C867.8 218.1 867.5 218.3 867.2 218.6Z" fill="#332F2D"/>
<path fill-rule="evenodd" clip-rule="evenodd" d="M868.4 150.5C868.8 150.3 868.3 149.6 868.8 149.5C869.3 149.4 869.2 150.1 869.5 150.3C869.6 150.5 869.8 150.6 870 150.7C872 151.3 873.5 152.9 875.3 153.8C876.5 154.4 877.6 155.1 878.6 156C879.2 156.5 880 156.3 880.5 156.7C880.6 156.6 880.6 156.5 880.7 156.4C881.4 157 881.8 157.7 882.4 158.3C884.4 160.7 886.9 162.6 889.7 163.8C891.6 164.6 893.6 165.4 895.7 165.7C895.9 165.7 896.2 165.8 896.3 166C896.1 166.1 895.8 166.1 896.1 166.4C896.6 166.8 897 167.2 897.7 167.1C898.1 167.1 898.5 167 899 167.2C898.9 167.4 898.7 167.4 898.6 167.4C898.3 167.4 897.9 167.3 897.9 167.8C897.9 168.2 898.3 168.1 898.6 168.1C899.2 168 899.6 168.2 899.8 168.7C899.9 168.9 900.1 169.1 900.3 169.1C901 169.3 901.1 169.7 900.8 170.3C899.7 170.4 898.7 170.6 897.6 170.5C897.8 169.6 897.4 169.4 896.5 169.4C896 169.4 895.4 169.6 895 169.2C894.3 168.4 893.4 168 892.6 167.5C892 167.1 891.2 166.9 891 166.4C890.6 165.7 890.3 165.5 889.5 165.9C889.8 165.5 889.9 165.3 889.4 165.2C888.5 164.9 887.8 164.1 886.9 163.8C886.6 163.7 886.3 163.5 886.1 163.3C885.5 162.6 885 161.9 884 162C883.6 162 883.5 161.7 883.5 161.4C883.5 161 883.2 160.9 882.9 161C882.4 161.3 882.1 161.1 881.7 160.7C881.2 160.1 880.5 159.7 879.8 159.5C879.6 159.4 879.4 159.4 879.2 159.2C878 158 876.4 157.2 875 156.3C873.7 155.4 872.1 154.9 871 153.8C870.4 153.2 869.9 152.8 869.1 153.5C868.7 152.6 868.5 151.6 868.4 150.5Z" fill="#F4C087"/>
<path fill-rule="evenodd" clip-rule="evenodd" d="M900.9 170.5C901.2 169.9 901.1 169.5 900.4 169.3C900.2 169.2 900 169 899.9 168.9C899.6 168.4 899.2 168.2 898.7 168.3C898.4 168.3 898 168.4 898 168C898 167.5 898.4 167.7 898.7 167.6C898.8 167.6 899 167.6 899.1 167.4C898.7 167.2 898.2 167.3 897.8 167.3C897.1 167.4 896.6 166.9 896.2 166.6C895.9 166.3 896.2 166.3 896.4 166.2C896.7 166.2 897.1 166.2 897.4 166.3C897.5 166.6 897.8 166.6 898 166.6C898.5 166.6 899 166.6 899.5 166.6C902.5 166.6 905.6 166.7 908.6 166.2C910.9 165.8 913.2 165.4 915.4 164.7C918.9 163.6 922.4 162.3 925.6 160.5C929 158.7 932.1 156.5 935 153.9C935.1 153.8 935.2 153.8 935.3 153.8C935.1 154.7 934.3 155.1 933.7 155.6C931.4 157.7 928.9 159.7 926.2 161.5C923 163.5 919.6 165.3 916.1 166.7C911.5 168.5 906.7 169.9 901.7 170.5C901.4 170.4 901.2 170.4 900.9 170.5Z" fill="#F5BA73"/>
<path fill-rule="evenodd" clip-rule="evenodd" d="M858.3 135.6C858.2 136.1 857.9 136.5 857.7 136.9C857.7 137 857.6 137.1 857.5 137C857.4 136.9 857.5 136.8 857.5 136.7C857.8 136.1 857.4 135.3 858 134.7C858.1 134.9 857.6 135.5 858.3 135.6Z" fill="#F4CC9E"/>
<path fill-rule="evenodd" clip-rule="evenodd" d="M899.5 166.4C899 166.4 898.5 166.4 898 166.4C897.7 166.4 897.5 166.4 897.4 166.1C898.1 166 898.8 166.2 899.5 166.4Z" fill="#F4C793"/>
<path fill-rule="evenodd" clip-rule="evenodd" d="M937.8 151.1C937.8 151.3 937.7 151.5 937.5 151.5C937.4 151.3 937.6 151.2 937.8 151.1Z" fill="#F1A052"/>
<path fill-rule="evenodd" clip-rule="evenodd" d="M858.3 158.6C858.3 157.9 857.8 157.2 857.9 156.5C858 156 858.4 156.1 858.7 156.2C859.1 156.3 859.5 156.5 859.9 156.7C862.9 159 866.2 160.8 869.2 162.9C872.2 164.9 875.3 166.8 878.3 168.9C880.1 170.1 882.1 171.2 883.9 172.4C886.2 174 888.5 175.4 890.8 176.8C891.7 177.4 892.5 178.2 893.8 178.1C894 178.1 894.1 178.1 894.1 178.3C894.1 178.5 894.1 178.6 894 178.7C893.9 178.8 893.5 178.7 893.6 179.1C894.2 179.1 894.7 179.2 895.4 179.2C895.3 179.5 894.8 179.5 894.9 179.9C893.6 180.3 892.2 180.2 890.8 180.3C890.7 180.3 890.7 180.3 890.6 180.3C890.6 179.9 890.3 179.6 889.9 179.4C888.7 178.8 887.6 178 886.5 177.2C883.5 175.3 880.6 173.4 877.6 171.5C875.5 170.1 873.4 168.7 871.3 167.3C869 165.8 866.6 164.4 864.3 162.8C863.5 162.2 862.6 161.7 861.8 161.1C861 160.5 860 160.3 859.4 159.4C859.3 159.3 859.3 159.2 859.2 159.3C859.1 159.4 859.1 159.6 859.1 159.7C859 159.7 858.9 159.7 858.8 159.7C858.8 159.5 858.8 159.4 858.8 159.2C858.6 158.9 858.7 158.7 858.3 158.6Z" fill="#F5BA73"/>
<path fill-rule="evenodd" clip-rule="evenodd" d="M894.8 179.9C894.8 179.6 895.2 179.6 895.3 179.2C894.6 179.2 894.1 179.1 893.5 179.1C893.5 178.7 893.8 178.8 893.9 178.7C894 178.6 894 178.5 894 178.3C894 178.1 893.8 178.1 893.7 178.1C892.5 178.2 891.7 177.4 890.7 176.8C888.4 175.3 886.1 173.9 883.8 172.4C882 171.1 880 170.1 878.2 168.9C875.2 166.8 872.1 165 869.1 162.9C866 160.8 862.7 159 859.8 156.7C859.4 156.4 859 156.3 858.6 156.2C858.3 156.1 857.9 156 857.8 156.5C857.3 156 857.5 155.3 857.4 154.7C857.4 154.1 857.4 153.6 857.4 152.9C858 153.3 857.6 153.8 858 154.2C858.2 153.4 858.6 153.8 859 154C860.7 155.1 862.3 156.3 864 157.3C866.8 159 869.6 160.8 872 163C872.1 163.1 872.1 163.1 872.3 163.1C872.9 162.9 873.4 163.2 873.8 163.7C874.4 164.5 874.9 165.6 876.2 165.4C876.2 165.5 876.2 165.6 876.4 165.7L876.5 165.6C876.5 165.5 876.4 165.5 876.2 165.4C876.2 165.3 876.2 165.2 876.2 165C877.2 165.5 878.1 166.4 879.1 166.9C880.2 167.4 881.3 168 882.4 168.6C881.9 168.8 881.9 168.8 882.1 169C882.9 170 883.8 170.7 885.1 170.8C885.3 171.1 884.7 171 884.8 171.4C885.1 171.6 885.4 171.5 885.7 171.5C885.7 172 886.2 171.9 886.5 172C888.6 173.4 890.8 174.7 892.9 176.1C893.8 176.7 894.9 177 895.4 178C896.1 177.9 896.1 179 896.9 178.9C897.2 178.9 897.1 179.3 897.2 179.6C896.5 179.6 895.7 180 894.8 179.9Z" fill="#F7AD67"/>
<path fill-rule="evenodd" clip-rule="evenodd" d="M902.5 189.5C901.4 190 900.2 190.2 899.1 190.5C898.3 190.7 897.5 191 896.7 190.9C896.2 190.9 895.7 190.8 895.3 190.4C895 190 894.6 190.1 894.2 190.3C894 190.4 893.8 190.6 893.6 190.5C893.8 189.7 894.5 189.5 895.2 189.4C894.5 189.1 893.8 189.4 893.2 189.2C892.6 189 892.1 188.5 891.5 188.1C890.4 187.4 889.1 187 888.1 186.1C887.6 185.6 887 185.3 886.4 185C884.1 183.9 881.9 182.4 879.7 181C878.7 180.4 877.8 179.9 876.6 180C876.4 180 876.1 180.1 875.9 179.7C876.5 179.7 877.1 179.6 877.3 178.9C877.9 179.1 878.6 179.2 879.3 179.4C879.7 179.8 880.3 179.6 880.8 179.8C881.9 180.2 883.1 180 884.3 180.3C884.6 181.4 885.6 181.3 886.5 181.5C886.5 181.6 886.5 181.7 886.4 181.7C886.1 181.8 885.5 181.8 885.6 182.3C885.7 182.7 886.2 182.5 886.5 182.5C887.4 182.3 887.9 183 888.5 183.3C891.4 184.8 893.9 187 896.9 188.3C897.6 188.6 898 189.6 899 189.3C899.1 189.7 898.9 189.6 898.7 189.7C898.5 189.8 898.4 190 898.5 190.2C898.6 190.4 898.8 190.4 899 190.3C900.2 189.8 901.3 189.4 902.5 189.5Z" fill="#F3963A"/>
<path fill-rule="evenodd" clip-rule="evenodd" d="M884.2 180.2C883.1 179.9 881.8 180.1 880.7 179.7C880.2 179.5 879.7 179.7 879.2 179.3C879.5 178.9 880.4 179.6 880.4 178.7C880.4 178.2 879.8 178.5 879.4 178.4L879.3 178.3C879.4 178.2 879.7 178.1 879.6 178C879.6 177.7 879.3 177.8 879.1 177.8C878.7 177.7 878.1 178 877.8 177.5C877.6 177 877.2 176.8 876.8 176.5C876.1 176 875.3 175.7 874.6 175.2C872.8 173.8 870.8 172.7 868.9 171.4C868.4 171.1 867.9 170.9 867.4 170.7C866.8 170.4 866 170.2 865.7 169.5C865.4 169 865.1 168.8 864.6 169.1C864.5 169.2 864.3 169.3 864.3 169.1C864.3 168.5 863.6 168.4 863.5 167.8C863.5 167.6 863.4 167.2 863 167.3C862.6 167.4 862.8 167.7 862.8 168C862.8 168.1 862.8 168.2 862.8 168.4C861.9 167.3 861.3 166.1 860.7 164.8C860.7 164.6 860.7 164.3 860.7 164.1C861.2 164.3 861.2 165.1 862 165C862.2 165 862.5 165.1 862.7 165.2C863.8 166 865 166.7 866.1 167.4C868.3 168.8 870.4 170.4 872.7 171.7C875.8 173.5 878.6 175.6 881.6 177.4C882.5 177.9 883.2 178.8 884.4 178.7C884.6 178.7 885 179.1 884.9 179.2C884.1 179.9 885.1 179.7 885.2 179.9C885.4 180.1 885.7 180.1 885.7 180.4C885.5 180.4 885.2 180.4 885 180.4C884.7 180.3 884.4 180.3 884.2 180.2Z" fill="#F4C793"/>
<path fill-rule="evenodd" clip-rule="evenodd" d="M897.3 179.6C897.3 179.4 897.4 178.9 897 178.9C896.2 179 896.3 177.9 895.5 178C895 176.9 893.9 176.7 893 176.1C890.9 174.7 888.7 173.4 886.6 172C886.3 171.8 885.8 172 885.8 171.5C886 171.5 886.3 171.6 886.4 171.3C886.1 171.2 885.8 171.1 885.8 171.5C885.5 171.5 885.2 171.6 884.9 171.4C884.8 171.1 885.3 171.2 885.2 170.8C883.9 170.7 883 170 882.2 169C882 168.8 882 168.8 882.5 168.6C882.9 168.8 883.3 169 883.7 169C884 169.8 884.6 169.9 885.3 169.5C886.5 169.6 887.6 170 888.7 170.4C888.2 170.4 887.7 170.4 887 170.4C887.4 170.9 887.7 171.1 888.2 171.1C889.1 171.1 889.9 171.4 890.6 172.1C891.5 173 892.7 173.6 893.8 174.3C895.2 175.2 896.7 176.1 898.1 177.1C898.5 177.4 899.1 177.6 899.5 178C899.9 178.3 900.1 178.6 900 179.1C899.9 179.1 899.8 179.1 899.6 179.1C899.3 178.9 899 178.8 898.9 179.3C898.5 179.3 897.9 179.6 897.3 179.6Z" fill="#F5A85D"/>
<path fill-rule="evenodd" clip-rule="evenodd" d="M884.9 180.3C885.1 180.3 885.4 180.3 885.6 180.3C886.4 180.3 887.1 180.6 887.9 180.5C888.8 180.5 889.7 180.5 890.5 180.5C889.9 180.9 889.2 180.6 888.5 180.7C887.5 180.7 886.5 180.7 885.5 180.7C885.3 180.6 885 180.7 884.9 180.3Z" fill="#F39F48"/>
<path fill-rule="evenodd" clip-rule="evenodd" d="M899.1 179.2C899.2 178.7 899.5 178.8 899.8 179C899.6 179.3 899.3 179.2 899.1 179.2Z" fill="#F1A052"/>
<path fill-rule="evenodd" clip-rule="evenodd" d="M890.6 180.3C890.7 180.3 890.7 180.3 890.8 180.3C890.7 180.4 890.7 180.4 890.6 180.4V180.3Z" fill="#F39F48"/>
<path fill-rule="evenodd" clip-rule="evenodd" d="M877.3 178.8C877.1 179.5 876.6 179.6 875.9 179.6C876 180 876.4 179.9 876.6 179.9C877.8 179.8 878.7 180.3 879.7 180.9C881.9 182.3 884 183.8 886.4 184.9C887 185.2 887.6 185.5 888.1 186C889.1 186.9 890.4 187.3 891.5 188C892.1 188.4 892.6 188.9 893.2 189.1C893.8 189.3 894.5 189.1 895.2 189.3C894.5 189.5 893.8 189.6 893.6 190.4C893.9 190.6 894 190.3 894.2 190.2C894.6 190 895 190 895.3 190.3C895.7 190.7 896.1 190.8 896.7 190.8C895.1 191.3 893.4 191.5 891.7 191.5C890.7 191.6 889.9 191.3 889.2 190.5C889 190.2 888.6 190.1 888.3 189.9C887 189.2 885.7 188.5 884.5 187.7C882.1 186.1 879.6 184.7 877.2 183.2C875.2 182 873.1 180.8 871.1 179.6C870.5 179.2 869.9 178.7 869.3 178.4C866.6 176.8 863.9 175.3 861.2 173.7C859.6 172.8 858.1 171.8 856.6 170.8C855.4 170 854 169.3 852.8 168.6C851 167.5 849.3 166.1 847.2 165.5C847.1 165.5 847 165.3 846.9 165.2C846.6 164.8 846.3 164.8 845.9 164.8C845.1 163.1 844.6 161.4 844.2 159.6C844 158.9 843.7 158.1 843.8 157.4C844.3 157.5 844.1 157.8 844.2 158.1C844.2 158.6 844.4 159 844.9 159.3C845.9 160 846.9 160.7 848 161.4C850 162.7 852 164.1 854.2 165.1C855 165.5 855.8 165.9 856.6 166.5C857.8 167.4 859.1 168.2 860.4 168.9C861.1 169.3 861.6 170.1 862.5 169.8C862.6 169.8 862.7 170 862.7 170C863.4 170.4 863.8 171 864.6 171.2C865.3 171.4 865.1 171.1 865.1 170.8C865.9 171.4 866.6 172.1 867.3 172.8C869.4 174.6 871.7 176.1 874.2 177.2C875.2 178 876.3 178.2 877.3 178.8Z" fill="#F39F48"/>
<path fill-rule="evenodd" clip-rule="evenodd" d="M845.8 165C846.2 164.9 846.6 165 846.8 165.4C846.9 165.5 847 165.7 847.1 165.7C849.2 166.2 850.9 167.6 852.7 168.8C853.9 169.6 855.3 170.2 856.5 171C858 172 859.6 173 861.1 173.9C863.8 175.5 866.5 177 869.2 178.6C869.8 179 870.4 179.5 871 179.8C873.1 181 875.1 182.2 877.1 183.4C879.5 184.9 882 186.3 884.4 187.9C885.6 188.7 886.9 189.4 888.2 190.1C888.5 190.3 888.9 190.4 889.1 190.7C889.8 191.5 890.6 191.7 891.6 191.7C890.5 192 889.4 192 888.2 192C887.1 192 885.9 192 884.8 192C884.7 191.5 884.3 191.2 884 191C882.5 190.2 881 189.4 879.5 188.4C877.7 187.2 875.8 186.2 873.9 185.1C872.5 184.3 871.2 183.3 869.8 182.6C866.6 180.8 863.6 178.7 860.4 177C857.1 175.2 854 173 850.7 171.2C849.9 170.8 848.8 170.4 848.6 169.3C848.6 169.2 848.5 169.1 848.3 169.1C848.1 169.1 848.1 169.3 848.2 169.4C848.3 169.7 848.3 170 848.5 170.2C848.9 170.5 848.9 170.9 848.7 171.4C847.7 170.5 847.4 169.2 846.8 168.1C846.5 167 846 166.1 845.8 165Z" fill="#F6A652"/>
<path fill-rule="evenodd" clip-rule="evenodd" d="M848.9 171.3C849.1 170.8 849 170.4 848.7 170.1C848.4 169.9 848.4 169.6 848.4 169.3C848.4 169.2 848.3 169 848.5 169C848.6 169 848.7 169 848.8 169.2C849.1 170.3 850.1 170.7 850.9 171.1C854.2 172.9 857.3 175.1 860.6 176.9C863.8 178.6 866.8 180.7 870 182.5C871.4 183.3 872.7 184.2 874.1 185C876 186.1 877.9 187.2 879.7 188.3C881.2 189.3 882.7 190 884.2 190.9C884.6 191.1 884.9 191.4 885 191.9C883.6 192 882.2 191.7 880.7 191.6C880.4 190.9 880.1 190.2 879.1 190.8C879 190.9 878.7 190.9 878.7 190.7C878.6 190 878 190.2 877.6 190C877.7 189.7 878.1 189.9 878.1 189.5C877.8 189.3 877.4 189.4 877.1 189.2C875.5 188.3 874.1 187.1 872.5 186.2C870.2 184.9 868 183.5 865.8 182.1C863 180.4 860 178.8 857.3 177C856.6 176.5 855.8 176.1 855 175.8C854.3 175.5 853.9 174.9 853.1 174.7C852.2 174.5 851.9 173.2 850.7 173.3C850.6 172.6 850.2 173 849.9 173.1C849.4 172.6 848.8 172.1 848.9 171.3Z" fill="#F5A85D"/>
<path fill-rule="evenodd" clip-rule="evenodd" d="M849.8 173.2C850.1 173.1 850.5 172.7 850.6 173.4C851.7 173.3 852.1 174.6 853 174.8C853.8 175 854.2 175.6 854.9 175.9C855.7 176.3 856.5 176.6 857.2 177.1C860 178.9 862.9 180.5 865.7 182.2C867.9 183.6 870.1 185 872.4 186.3C874 187.2 875.4 188.3 877 189.3C877.4 189.5 877.7 189.5 878 189.6C878 190 877.6 189.8 877.5 190.1C877.9 190.3 878.5 190.1 878.6 190.8C878.6 190.9 878.9 190.9 879 190.9C880 190.2 880.3 191 880.6 191.7C879 191.7 877.5 191.3 876 191C876 190.7 875.8 190.7 875.6 190.7C875 190.6 874.5 190.4 874.1 190C873.5 189.5 872.8 189.5 872.1 190C872 190 871.9 190 871.8 190C871.8 189.5 872.3 189.4 872.7 189.1C871.5 188.9 870.6 188.4 870 187.4C869.8 187.1 869.4 186.8 869 186.8C868.8 186.8 868.5 186.8 868.3 186.6C867.6 186.1 866.8 185.8 866.1 185.3C864.7 184.3 863 183.8 861.7 182.8C861.1 182.3 860.5 181.7 859.5 181.7C859.4 181.7 859.3 181.6 859.2 181.5C859.1 180.7 858.3 180.7 857.8 180.5C857.1 180.1 856.2 180.1 855.7 179.5C855.2 179 854.8 178.9 854.3 179.4C852.6 177.4 851.1 175.4 849.8 173.2Z" fill="#F8B263"/>
<path fill-rule="evenodd" clip-rule="evenodd" d="M854.4 179.2C854.9 178.7 855.3 178.7 855.8 179.3C856.4 179.9 857.2 179.9 857.9 180.3C858.4 180.6 859.1 180.6 859.3 181.3C859.3 181.4 859.5 181.5 859.6 181.5C860.5 181.5 861.1 182.1 861.8 182.6C863.2 183.7 864.9 184.1 866.2 185.1C866.9 185.6 867.7 185.9 868.4 186.4C868.6 186.6 868.8 186.6 869.1 186.6C869.6 186.6 869.9 186.8 870.1 187.2C870.7 188.2 871.6 188.7 872.8 188.9C872.4 189.2 871.9 189.3 871.9 189.8C868.2 188.8 864.7 187.3 861.4 185.2C859.1 183.7 857 181.9 855.1 179.9C854.7 179.7 854.4 179.6 854.4 179.2Z" fill="#F5BA73"/>
<path fill-rule="evenodd" clip-rule="evenodd" d="M844.1 158.3C844.1 158 844.2 157.7 843.7 157.6V157.5C843.6 157.1 844 156.5 843.4 156.2C843.3 155.1 843 154.1 843 153C843.2 153 843.3 153.1 843.3 153.3C843.3 155.1 844.5 155.8 845.8 156.6C848.7 158.4 851.7 160.1 854.6 161.9C856 162.7 857.4 163.4 858.7 164.4C859 164.7 859.4 164.9 859.4 165.4C859.9 165.2 860.1 164.8 860.4 164.5C860.5 164.6 860.6 164.6 860.7 164.7C861.3 166 861.9 167.2 862.8 168.3C862.9 168.6 863.1 168.9 863.2 169.2C862.9 169.4 862.6 169.5 862.5 169.1C862.3 168.6 862 168.4 861.5 168.3C861.1 168.3 861.1 168.1 861 167.7C860.9 167.3 860.9 166.7 860.1 167.1C859.8 167.3 859.6 167 859.6 166.7C859.6 166.2 859.5 166 859 166.3C858.8 166.5 858.5 166.3 858.4 166.1C857.3 165.2 856.1 164.6 854.9 163.9C852 162.1 849.1 160.1 846 158.6C845.5 158.3 844.9 158.1 844.5 157.6C844.3 157.8 844.5 158.3 844.1 158.3Z" fill="#F39030"/>
<path fill-rule="evenodd" clip-rule="evenodd" d="M872.1 189.9C872.7 189.3 873.4 189.3 874.1 189.9C874.6 190.3 875.1 190.5 875.6 190.6C875.8 190.6 876 190.7 876 190.9C874.7 190.7 873.4 190.5 872.1 189.9Z" fill="#F5BA73"/>
<path fill-rule="evenodd" clip-rule="evenodd" d="M843.4 156.1C844 156.4 843.6 157 843.7 157.4C843.5 157 843.4 156.6 843.4 156.1Z" fill="#F39F48"/>
<path fill-rule="evenodd" clip-rule="evenodd" d="M860.8 164.7C860.7 164.6 860.6 164.6 860.5 164.5C860.4 164 860.1 163.7 860.1 163.2C860.2 162.6 860.1 162.1 859.5 161.9C859.4 161.4 859.2 161 859.1 160.5C859.1 160.3 859.1 160 859.1 159.8C859.1 159.7 859.1 159.5 859.2 159.4C859.3 159.3 859.4 159.4 859.4 159.5C860 160.4 861 160.6 861.8 161.2C862.6 161.8 863.5 162.3 864.3 162.9C866.6 164.5 868.9 165.9 871.3 167.4C873.4 168.8 875.5 170.2 877.6 171.6C880.6 173.5 883.5 175.4 886.5 177.3C887.6 178 888.7 178.9 889.9 179.5C890.2 179.7 890.5 179.9 890.6 180.4C889.7 180.5 888.8 180.2 887.9 180.6C887.1 180.7 886.4 180.4 885.6 180.4C885.6 180.1 885.2 180 885.1 179.9C885 179.7 884 179.9 884.8 179.2C884.9 179.1 884.5 178.7 884.3 178.7C883.1 178.7 882.4 177.9 881.5 177.4C878.5 175.5 875.7 173.4 872.6 171.7C870.3 170.4 868.3 168.8 866 167.4C864.9 166.7 863.7 166 862.6 165.2C862.4 165.1 862.2 165 861.9 165C861.2 165.1 861.1 164.4 860.5 164C860.4 164 860.5 164 860.6 164.1C860.7 164.1 860.7 164.1 860.7 164C860.7 163.9 860.6 163.9 860.5 163.8C860.5 163.8 860.4 163.9 860.5 164C860.8 164.2 860.8 164.4 860.8 164.7Z" fill="#F4C087"/>
<path fill-rule="evenodd" clip-rule="evenodd" d="M876.4 165C876.4 165.1 876.4 165.2 876.4 165.4C875.1 165.6 874.6 164.5 874 163.7C873.6 163.2 873.1 162.9 872.5 163.1C872.4 163.2 872.3 163.1 872.2 163C869.8 160.7 867 159 864.2 157.3C862.5 156.3 860.9 155.1 859.2 154C858.8 153.7 858.4 153.3 858.2 154.2C857.8 153.9 858.2 153.4 857.6 152.9C857.6 153.6 857.6 154.2 857.6 154.7C857.2 154.6 857.3 154.3 857.3 154C857.3 153.3 857.3 152.7 857.3 152C857.3 151.7 857.3 151.5 857 151.5C857 151.3 857 151 857 150.8C857.6 151.1 858.7 150.3 858.8 151.6C858.8 151.8 859 151.8 859.1 151.8C860.9 152.6 862.5 153.7 864 154.9C865 155.7 866.2 156.3 867.3 156.9C868.3 157.5 869.2 158.3 870.3 158.8C870.7 159 871 159.3 871.4 158.9C871.6 159.2 871.8 159.4 872 159.7C873 161.3 874.2 162.8 875.5 164.1C875.5 164.3 875.6 164.5 875.9 164.5C876 164.6 876 164.6 876.1 164.7C876.2 164.7 876.2 164.7 876.3 164.7C876 164.9 876.2 165 876.4 165ZM872.1 161.7C872.1 161.4 872.1 161.1 871.7 161.1C871.5 161.1 871.4 161.2 871.4 161.4C871.4 161.7 871.6 161.9 871.9 162C872.1 162.1 872.1 161.8 872.1 161.7Z" fill="#F5A85D"/>
<path fill-rule="evenodd" clip-rule="evenodd" d="M859.4 161.8C860 162 860.2 162.5 860 163.1C859.7 162.7 859.5 162.3 859.4 161.8Z" fill="#F5BA73"/>
<path fill-rule="evenodd" clip-rule="evenodd" d="M859 159.7C859 159.9 859 160.2 859 160.4C858.6 160.3 858.7 160 858.7 159.7C858.8 159.7 858.9 159.7 859 159.7Z" fill="#F7AD67"/>
<path fill-rule="evenodd" clip-rule="evenodd" d="M858.3 158.6C858.7 158.6 858.6 158.9 858.6 159.2C858.4 159 858.3 158.9 858.3 158.6Z" fill="#F7AD67"/>
<path fill-rule="evenodd" clip-rule="evenodd" d="M856.9 151.5C857.2 151.5 857.2 151.8 857.2 152C857 151.9 856.9 151.8 856.9 151.5Z" fill="#F1A052"/>
<path fill-rule="evenodd" clip-rule="evenodd" d="M876 164.7C875.9 164.7 875.9 164.7 875.8 164.7C875.7 164.6 875.7 164.6 875.6 164.5C875.6 164.3 875.5 164.2 875.2 164.1C873.8 162.8 872.7 161.3 871.7 159.7C871.5 159.4 871.3 159.2 871.1 158.9C870.7 157.7 869.9 156.8 869.7 155.5C869.9 155.4 869.9 154.7 870.4 155.2C870.8 155.6 871.4 155.8 871.9 156.1C874.9 158.1 877.8 160 880.9 161.8C881.8 162.3 882.6 162.9 883.4 163.4C885.3 164.5 887.1 165.8 889 166.9C890.6 167.9 892.1 169.2 893.9 169.6C893.2 170.5 892.2 170 891.5 170.4C891.1 170.4 890.8 170.4 890.4 170.4C890.3 170.3 890.2 170.2 890 170.3C889.6 170.3 889.2 170.3 888.8 170.3H888.7H888.6C887.5 169.9 886.4 169.6 885.2 169.4C884.7 169.2 884.1 169.1 883.6 168.9C883.1 168.9 882.7 168.7 882.4 168.5C881.3 167.9 880.2 167.3 879.1 166.8C878 166.3 877.2 165.5 876.2 164.9C876.4 164.8 876.3 164.7 876 164.7Z" fill="#F4CC9E"/>
<path fill-rule="evenodd" clip-rule="evenodd" d="M891.6 170.5C892.3 170.1 893.3 170.6 894 169.7C892.1 169.3 890.7 167.9 889.1 167C887.2 165.9 885.4 164.6 883.5 163.5C882.7 163 881.8 162.4 881 161.9C877.9 160.1 874.9 158.2 872 156.2C871.5 155.9 870.9 155.7 870.5 155.3C870 154.8 870.1 155.6 869.8 155.6C869.6 155.3 869.5 155 869.5 154.7C869.8 154.4 869.7 154.2 869.3 154.2C869.2 154 869.2 153.8 869.1 153.7C869.9 153 870.3 153.4 871 154C872.2 155.1 873.7 155.6 875 156.5C876.4 157.5 878 158.2 879.2 159.4C879.4 159.6 879.5 159.6 879.8 159.7C880.6 159.9 881.2 160.3 881.7 160.9C882 161.3 882.3 161.5 882.9 161.2C883.2 161 883.5 161.1 883.5 161.6C883.5 161.9 883.6 162.2 884 162.2C885 162.1 885.6 162.8 886.1 163.5C886.3 163.7 886.6 163.9 886.9 164C887.8 164.3 888.5 165.1 889.4 165.4C889.9 165.5 889.8 165.7 889.5 166.1C890.3 165.7 890.6 165.9 891 166.6C891.3 167.1 892.1 167.4 892.6 167.7C893.4 168.2 894.3 168.7 895 169.4C895.4 169.9 896 169.7 896.5 169.6C897.3 169.5 897.7 169.8 897.6 170.7C895.6 170.7 893.6 170.7 891.6 170.7C891.7 170.6 891.6 170.6 891.6 170.5Z" fill="#F4C793"/>
<path fill-rule="evenodd" clip-rule="evenodd" d="M869.3 154.2C869.7 154.3 869.8 154.4 869.5 154.7C869.3 154.6 869.3 154.4 869.3 154.2Z" fill="#F4C087"/>
<path fill-rule="evenodd" clip-rule="evenodd" d="M889 170.3C889.4 170.3 889.8 170.3 890.2 170.3C890.2 170.4 890.2 170.4 890.2 170.5C889.8 170.7 889.3 170.9 889 170.3Z" fill="#F5A85D"/>
<path fill-rule="evenodd" clip-rule="evenodd" d="M891.6 170.5C891.6 170.6 891.6 170.6 891.6 170.7C891.2 170.7 890.8 170.8 890.5 170.5C890.9 170.5 891.3 170.5 891.6 170.5Z" fill="#F5A85D"/>
<path fill-rule="evenodd" clip-rule="evenodd" d="M890.2 170.5C890.2 170.4 890.2 170.4 890.2 170.3C890.3 170.3 890.5 170.3 890.6 170.4C890.5 170.5 890.3 170.5 890.2 170.5Z" fill="#F4C793"/>
<path fill-rule="evenodd" clip-rule="evenodd" d="M876.4 165.4C876.5 165.4 876.6 165.4 876.7 165.6L876.6 165.7C876.4 165.6 876.4 165.5 876.4 165.4Z" fill="#F5A85D"/>
<path fill-rule="evenodd" clip-rule="evenodd" d="M877.3 178.8C876.3 178.2 875.2 177.9 874.1 177.5C871.6 176.4 869.3 174.9 867.2 173.1C866.4 172.4 865.8 171.7 865 171.1C864.3 170.7 864.1 169.9 863.6 169.3C863.6 168.8 863.4 168.4 862.9 168.2C862.9 168.1 862.9 168 862.9 167.8C862.9 167.6 862.8 167.2 863.1 167.1C863.4 167 863.5 167.4 863.6 167.6C863.7 168.2 864.4 168.3 864.4 168.9C864.4 169.1 864.6 169 864.7 168.9C865.2 168.6 865.5 168.8 865.8 169.3C866.1 169.9 866.8 170.2 867.5 170.5C868 170.7 868.5 170.9 869 171.2C870.9 172.5 872.9 173.6 874.7 175C875.4 175.5 876.2 175.9 876.9 176.3C877.3 176.5 877.7 176.8 877.9 177.3C878.1 177.9 878.7 177.6 879.2 177.6C879.4 177.6 879.7 177.5 879.7 177.8C879.7 177.9 879.5 178 879.4 178.1C879.5 178.2 879.5 178.2 879.5 178.2C879.8 178.4 880.4 178 880.5 178.5C880.5 179.3 879.6 178.6 879.3 179.1C878.6 179.2 877.9 179 877.3 178.8Z" fill="#F4CC9E"/>
<path fill-rule="evenodd" clip-rule="evenodd" d="M883.8 168.9C884.3 169.1 884.9 169.2 885.4 169.4C884.7 169.8 884.2 169.7 883.8 168.9Z" fill="#F7AD67"/>
<path fill-rule="evenodd" clip-rule="evenodd" d="M886 171.4C886.1 171 886.3 171 886.6 171.2C886.4 171.5 886.2 171.4 886 171.4Z" fill="#F7AD67"/>
<path fill-rule="evenodd" clip-rule="evenodd" d="M887.9 180.4C888.8 180.1 889.7 180.3 890.6 180.2C890.6 180.3 890.6 180.3 890.6 180.4C889.7 180.4 888.8 180.4 887.9 180.4Z" fill="#F5BA73"/>
<path fill-rule="evenodd" clip-rule="evenodd" d="M863.6 169.3C864.1 169.9 864.3 170.7 865 171.1C865 171.4 865.2 171.7 864.5 171.5C863.7 171.3 863.2 170.6 862.6 170.3C862.5 170.3 862.5 170 862.4 170.1C861.5 170.4 861 169.6 860.3 169.2C859 168.5 857.7 167.6 856.5 166.8C855.7 166.3 855 165.8 854.1 165.4C851.9 164.4 849.9 163 847.9 161.7C846.8 161 845.8 160.3 844.8 159.6C844.4 159.3 844.1 158.9 844.1 158.4C844.5 158.4 844.4 157.9 844.7 157.8C845 158.4 845.6 158.6 846.2 158.8C849.3 160.3 852.1 162.3 855.1 164.1C856.3 164.8 857.5 165.4 858.6 166.3C858.8 166.4 859 166.6 859.2 166.5C859.7 166.2 859.8 166.4 859.8 166.9C859.8 167.2 860 167.5 860.3 167.3C861.1 166.8 861.1 167.5 861.2 167.9C861.3 168.2 861.3 168.4 861.7 168.5C862.2 168.5 862.5 168.8 862.7 169.3C862.8 169.7 863.1 169.6 863.4 169.4C863.4 169.1 863.5 169.2 863.6 169.3Z" fill="#F3963A"/>
<path fill-rule="evenodd" clip-rule="evenodd" d="M863.6 169.3C863.5 169.2 863.4 169.2 863.3 169.1C863.2 168.8 863 168.5 862.9 168.2C863.4 168.4 863.6 168.8 863.6 169.3Z" fill="#F4C793"/>
<path fill-rule="evenodd" clip-rule="evenodd" d="M860.5 163.8C860.6 163.7 860.6 163.7 860.6 163.7C860.7 163.8 860.7 163.8 860.8 163.9C860.9 164 860.8 164 860.7 164C860.6 163.9 860.6 163.8 860.5 163.8Z" fill="#F4C793"/>
<path fill-rule="evenodd" clip-rule="evenodd" d="M872.1 161.7C872.1 161.9 872.1 162.1 871.9 162C871.7 161.9 871.4 161.7 871.4 161.4C871.4 161.2 871.5 161.1 871.7 161.1C872.1 161.1 872.1 161.4 872.1 161.7Z" fill="#F7AD67"/>
<path fill-rule="evenodd" clip-rule="evenodd" d="M875.3 164.1C875.5 164.1 875.6 164.2 875.7 164.5C875.4 164.5 875.3 164.3 875.3 164.1Z" fill="#F7AD67"/>
<path fill-rule="evenodd" clip-rule="evenodd" d="M876 164.7C876.2 164.7 876.3 164.8 876.4 165C876.2 165 876 164.9 876 164.7Z" fill="#F7AD67"/>
<path fill-rule="evenodd" clip-rule="evenodd" d="M875.7 164.5C875.8 164.6 875.8 164.6 875.9 164.7C875.8 164.6 875.8 164.5 875.7 164.5Z" fill="#F7AD67"/>
<path d="M1275.7 489.9C1311.2 489 1343.8 461.6 1353.2 439.3C1377.7 381.5 1348.9 351.4 1342.9 346.3C1342.9 346.3 1342.9 346.3 1342.8 346.2C1341.6 345.2 1340.7 344.7 1340.5 344.5C1340.4 344.4 1340.2 344.2 1339.7 343.9C1339.7 343.9 1339.7 343.9 1339.6 343.9C1336.9 342.2 1305.5 354.9 1322.4 374.7C1326.7 379.8 1326.6 403.4 1324.9 410.3C1324.7 411.2 1324.5 412 1324.2 412.8C1316.2 440 1291 453.6 1272 457.9C1250.8 462.7 1260.8 490.3 1275.7 489.9Z" fill="#F7B992"/>
<path d="M1362.9 403.3L1311.2 402.3C1308.1 402.2 1305.6 399.6 1305.7 396.5L1306 390.3L1310.4 291.5L1373.2 292.9L1369 392.5L1368.8 398C1368.5 400.9 1366 403.3 1362.9 403.3Z" fill="white"/>
<path d="M1315.6 274.5C1305.9 288.9 1309.7 308.4 1324 318.1C1338.4 327.8 1357.9 324 1367.6 309.7C1377.3 295.3 1373.5 275.8 1359.2 266.1C1344.8 256.4 1325.3 260.2 1315.6 274.5Z" fill="white"/>
<path d="M1181.4 600.7H1325.4C1334.6 600.7 1342.1 593.2 1342.1 584V508.3C1342.1 499.1 1334.6 491.6 1325.4 491.6H1181.4C1172.2 491.6 1164.7 499.1 1164.7 508.3V584C1164.8 593.2 1172.2 600.7 1181.4 600.7Z" fill="#C0AACA"/>
<path d="M1271.9 242V288C1271.9 301.5 1261 312.4 1247.5 312.4H1242.7C1229.2 312.4 1218.3 301.5 1218.3 288V242H1271.9Z" fill="#FB8F72"/>
<path d="M1332.9 266.4H1174C1167.7 266.4 1162.7 271.5 1162.7 277.7V525.6C1162.7 528.7 1165.2 531.3 1168.4 531.3H1338.6C1341.7 531.3 1344.3 528.8 1344.3 525.6V277.8C1344.3 271.5 1339.2 266.4 1332.9 266.4Z" fill="white"/>
<path d="M1200.1 293.3C1130.9 351.1 1157.9 404.4 1172.3 424.2C1175.4 428.5 1173.7 434.7 1168.8 436.7L1163.3 439C1160 440.4 1156.1 439.5 1153.7 436.7C1093.7 366.8 1148.1 286.7 1166.2 263.8C1169.1 260.2 1174.4 259.6 1178 262.5L1200 280.4C1204.1 283.7 1204.1 289.9 1200.1 293.3Z" fill="#4D1F03"/>
<path d="M1179.29 191.774L1326.59 191.774L1326.59 104.574L1179.29 104.574L1179.29 191.774Z" fill="#141112"/>
<path d="M1199.9 203V173.9C1199.9 173.9 1191.5 164.4 1180.3 168.9" fill="#FB8F72"/>
<path d="M1299.8 171.4C1299.8 171.4 1308.5 161.6 1320.2 166.2C1332.9 171.2 1326.9 213.2 1299.8 201.7V171.4Z" fill="#FB8F72"/>
<path d="M1199 171.4C1199 171.4 1190.3 161.6 1178.6 166.2C1165.9 171.2 1171.9 213.2 1199 201.7V171.4Z" fill="#FB8F72"/>
<path d="M1288.7 236.1L1282.3 242.1C1273.4 250.4 1261 255.1 1248 255.1C1236.2 255.1 1224.7 251.2 1216.1 244.1L1206.7 236.4C1196.5 228.1 1190.7 216.5 1190.7 204.3V130.2H1302.2V206.1C1302.2 217.3 1297.4 228 1288.7 236.1Z" fill="#FCAC7D"/>
<path d="M1221 176.5C1223.76 176.5 1226 174.261 1226 171.5C1226 168.739 1223.76 166.5 1221 166.5C1218.24 166.5 1216 168.739 1216 171.5C1216 174.261 1218.24 176.5 1221 176.5Z" fill="#110E0F"/>
<path d="M1272 176.9C1274.76 176.9 1277 174.661 1277 171.9C1277 169.139 1274.76 166.9 1272 166.9C1269.24 166.9 1267 169.139 1267 171.9C1267 174.661 1269.24 176.9 1272 176.9Z" fill="#110E0F"/>
<path d="M1261.6 218.9C1262 220.4 1261.2 223.2 1255.1 229C1252.5 230.6 1248.2 232.7 1242.8 233C1235.8 233.4 1230.4 230.7 1227.6 229C1220.5 223.3 1219.3 220.5 1219.6 218.9C1220.2 216.2 1225.7 217 1241.3 216.9C1255.7 216.8 1261 216.1 1261.6 218.9Z" fill="#FB8F72"/>
<path d="M1277.5 155.4H1259.9C1259.2 155.4 1258.6 154.8 1258.6 154.1V149.5C1258.6 148.8 1259.2 148.2 1259.9 148.2H1277.5C1278.2 148.2 1278.8 148.8 1278.8 149.5V154.1C1278.8 154.8 1278.2 155.4 1277.5 155.4Z" fill="#110E0F"/>
<path d="M1226.8 155.4H1209.2C1208.5 155.4 1207.9 154.8 1207.9 154.1V149.5C1207.9 148.8 1208.5 148.2 1209.2 148.2H1226.8C1227.5 148.2 1228.1 148.8 1228.1 149.5V154.1C1228.1 154.8 1227.5 155.4 1226.8 155.4Z" fill="#110E0F"/>
<path d="M1313.1 126.8H1184.8C1179.3 126.8 1174.8 122.3 1174.8 116.8V83.7C1174.8 78.2 1179.3 73.7 1184.8 73.7H1313.1C1318.6 73.7 1323.1 78.2 1323.1 83.7V116.9C1323.1 122.4 1318.6 126.8 1313.1 126.8Z" fill="#141112"/>
<path d="M1225.7 199.8H1197.1C1192.4 199.8 1188.5 196 1188.5 191.2V158.3C1188.5 155.9 1190.4 154 1192.8 154H1230C1232.4 154 1234.3 155.9 1234.3 158.3V191.2C1234.3 195.9 1230.5 199.8 1225.7 199.8Z" stroke="#141112" stroke-width="2" stroke-miterlimit="10" stroke-linecap="round" stroke-linejoin="round"/>
<path d="M1288.9 199.4H1260.3C1255.6 199.4 1251.7 195.6 1251.7 190.8V157.9C1251.7 155.5 1253.6 153.6 1256 153.6H1293.2C1295.6 153.6 1297.5 155.5 1297.5 157.9V190.8C1297.5 195.5 1293.7 199.4 1288.9 199.4Z" stroke="#141112" stroke-width="2" stroke-miterlimit="10" stroke-linecap="round" stroke-linejoin="round"/>
<path d="M1234.3 170.5H1251.7" stroke="#141112" stroke-width="2" stroke-miterlimit="10" stroke-linecap="round" stroke-linejoin="round"/>
<path d="M1249.2 199.9V181.3C1249.2 178.9 1247.3 177 1244.9 177H1241.3C1238.9 177 1237 178.9 1237 181.3V199.9C1237 202.3 1238.9 204.2 1241.3 204.2H1244.9C1247.2 204.2 1249.2 202.3 1249.2 199.9Z" fill="#FB8F72"/>
<path d="M1354.76 308.109C1362.08 299.912 1355.73 282.293 1340.57 268.755C1325.41 255.217 1307.19 250.887 1299.87 259.084C1292.55 267.281 1298.9 284.9 1314.06 298.438C1329.22 311.976 1347.44 316.306 1354.76 308.109Z" fill="#4D1F03"/>
<path d="M1227.92 306.794C1235.24 298.598 1228.88 280.978 1213.73 267.441C1198.57 253.903 1180.35 249.573 1173.03 257.77C1165.71 265.966 1172.06 283.586 1187.22 297.123C1202.37 310.661 1220.6 314.991 1227.92 306.794Z" fill="#4D1F03"/>
<path d="M1212 468.885C1216.86 460.467 1208.04 446.278 1192.31 437.193C1176.57 428.108 1159.88 427.567 1155.02 435.985C1150.16 444.403 1158.97 458.591 1174.71 467.677C1190.44 476.762 1207.14 477.303 1212 468.885Z" fill="#4D1F03"/>
<path d="M1061.3 472.5C1095 483.6 1134.9 468.8 1151.4 450.9C1193.9 404.7 1177 366.7 1173 359.9V359.8C1172.2 358.4 1171.5 357.6 1171.4 357.4C1171.4 357.3 1171.2 357 1170.9 356.6C1170.9 356.6 1170.9 356.6 1170.8 356.5C1168.8 354 1135 355.4 1144.2 379.7C1146.6 385.9 1138.5 408.1 1134.6 414C1134.1 414.7 1133.6 415.4 1133.1 416.1C1116.4 439 1088.1 443.3 1068.7 441C1047 438.5 1047.1 467.8 1061.3 472.5Z" fill="#F7B992"/>
<path d="M1172.6 420.3L1124.2 401.9C1121.3 400.8 1119.8 397.5 1121 394.6L1123.4 388.8L1160.8 297.3L1219.5 319.7L1182 412L1179.9 417.1C1178.7 419.9 1175.5 421.4 1172.6 420.3Z" fill="white"/>
<path d="M1171.5 283.1C1157.5 293.3 1154.5 313 1164.8 327C1175.1 341 1194.7 344 1208.7 333.7C1222.7 323.5 1225.7 303.8 1215.4 289.8C1205.1 275.9 1185.4 272.9 1171.5 283.1Z" fill="white"/>
<path d="M1358.4 365.1C1358.4 365.1 1335.2 456 1354.7 454.7C1374.3 453.4 1381.8 405 1380.7 382.7C1379.8 360.4 1358.4 365.1 1358.4 365.1Z" fill="#4D1F03"/>
<path d="M1329.5 272.1H1309.6C1309.6 272.1 1307.9 300.4 1314.5 351.2C1321.1 402.1 1357.6 414.9 1357.6 414.9L1357.1 392.7C1330.4 382 1329.5 272.1 1329.5 272.1Z" fill="#F9B602"/>
<path d="M1205.5 308.4C1205.5 308.4 1166.5 445.9 1187.7 473.6C1210.8 504 1324.5 487.3 1346.9 460.7C1369.3 434.1 1359.1 312.1 1348.5 289.5C1337.9 266.8 1233.4 221.4 1205.5 308.4Z" fill="#4D1F03"/>
<path d="M1259 258.4C1258.3 264.6 1254.2 270.2 1246.7 270.1C1239.2 270 1228 296.9 1225.3 302.6C1218.6 316.9 1213.3 332.4 1210 348C1204.1 375.8 1200.6 411.6 1206.2 439.8C1209.3 455.4 1216.1 468.6 1231 473.1C1243.2 476.8 1257.3 477.7 1270 477.6C1299.9 477.2 1327.1 464.1 1353.1 449.4C1367.4 409.6 1358.3 309.7 1348.7 289.4C1341.8 275.2 1297.6 251.7 1259 258.4Z" fill="#A0642F"/>
<path d="M1191.6 366C1165.9 369 1163.3 388.6 1163.3 388.6C1155.8 451.6 1182.6 459.7 1182.6 459.7C1206.6 465.3 1208.1 364 1191.6 366Z" fill="#4D1F03"/>
<path d="M1163.6 387C1163.3 388 1163.2 388.6 1163.2 388.6C1155.7 451.6 1182.5 459.7 1182.5 459.7C1203.3 464.6 1207.2 389.7 1197.2 370.5C1188.2 381.2 1176.1 386.4 1163.6 387Z" fill="#A0642F"/>
<g opacity="0.22">
<g opacity="0.22">
<g opacity="0.22">
<path opacity="0.22" d="M1312.2 286.4C1312.4 291.6 1315.9 296.4 1320.6 294C1323.6 292.5 1324.5 283.5 1326.6 280.1C1328.6 277 1330.9 274.6 1333.4 272.9C1331 270.9 1328.2 269.7 1325 269.8C1317.7 270.2 1311.9 277.6 1312.2 286.4Z" fill="white"/>
</g>
</g>
</g>
<path d="M1326.4 444.3H1237.2C1230.6 444.3 1225.2 438.9 1225.2 432.3V387.2C1225.2 380.6 1230.6 375.2 1237.2 375.2H1326.4C1333 375.2 1338.4 380.6 1338.4 387.2V432.3C1338.4 438.9 1333 444.3 1326.4 444.3Z" fill="#4D1F03"/>
</g>
<defs>
<clipPath id="clip0">
<rect width="1440" height="541" fill="white"/>
</clipPath>
</defs>
</svg>
