<svg width="293" height="49" viewBox="0 0 293 49" fill="none" xmlns="http://www.w3.org/2000/svg">
<rect width="293" height="49" rx="2" fill="#FEC684"/>
<path d="M24.2031 16.7812L28.8516 28.3828L33.5 16.7812H35.9316V31H34.0566V25.4629L34.2324 19.4863L29.5645 31H28.1289L23.4707 19.5156L23.6562 25.4629V31H21.7812V16.7812H24.2031ZM45.4824 29.9551C44.7793 30.7819 43.7474 31.1953 42.3867 31.1953C41.2604 31.1953 40.401 30.8698 39.8086 30.2188C39.2227 29.5612 38.9264 28.5911 38.9199 27.3086V20.4336H40.7266V27.2598C40.7266 28.8613 41.3776 29.6621 42.6797 29.6621C44.0599 29.6621 44.9779 29.1478 45.4336 28.1191V20.4336H47.2402V31H45.5215L45.4824 29.9551ZM51.957 31H50.1504V16H51.957V31ZM61.3809 31C61.2767 30.7917 61.1921 30.4206 61.127 29.8867C60.2871 30.7591 59.2845 31.1953 58.1191 31.1953C57.0775 31.1953 56.2214 30.9023 55.5508 30.3164C54.8867 29.724 54.5547 28.9753 54.5547 28.0703C54.5547 26.9701 54.9714 26.1172 55.8047 25.5117C56.6445 24.8997 57.8229 24.5938 59.3398 24.5938H61.0977V23.7637C61.0977 23.1322 60.9089 22.6309 60.5312 22.2598C60.1536 21.8822 59.597 21.6934 58.8613 21.6934C58.2168 21.6934 57.6764 21.8561 57.2402 22.1816C56.804 22.5072 56.5859 22.901 56.5859 23.3633H54.7695C54.7695 22.8359 54.9551 22.3281 55.3262 21.8398C55.7038 21.3451 56.2116 20.9544 56.8496 20.668C57.4941 20.3815 58.2005 20.2383 58.9688 20.2383C60.1862 20.2383 61.14 20.5443 61.8301 21.1562C62.5202 21.7617 62.8783 22.5983 62.9043 23.666V28.5293C62.9043 29.4993 63.028 30.2708 63.2754 30.8438V31H61.3809ZM58.3828 29.623C58.9492 29.623 59.4863 29.4766 59.9941 29.1836C60.502 28.8906 60.8698 28.5098 61.0977 28.041V25.873H59.6816C57.4681 25.873 56.3613 26.5208 56.3613 27.8164C56.3613 28.3828 56.5501 28.8255 56.9277 29.1445C57.3053 29.4635 57.7904 29.623 58.3828 29.623ZM67.6992 31H65.8926V20.4336H67.6992V31ZM65.7461 17.6309C65.7461 17.3379 65.834 17.0905 66.0098 16.8887C66.1921 16.6868 66.459 16.5859 66.8105 16.5859C67.1621 16.5859 67.429 16.6868 67.6113 16.8887C67.7936 17.0905 67.8848 17.3379 67.8848 17.6309C67.8848 17.9238 67.7936 18.168 67.6113 18.3633C67.429 18.5586 67.1621 18.6562 66.8105 18.6562C66.459 18.6562 66.1921 18.5586 66.0098 18.3633C65.834 18.168 65.7461 17.9238 65.7461 17.6309ZM86.3027 26.4883C86.127 27.9922 85.5703 29.1543 84.6328 29.9746C83.7018 30.7884 82.4616 31.1953 80.9121 31.1953C79.2324 31.1953 77.8848 30.5931 76.8691 29.3887C75.86 28.1842 75.3555 26.5729 75.3555 24.5547V23.1875C75.3555 21.8659 75.5898 20.7038 76.0586 19.7012C76.5339 18.6986 77.2044 17.9303 78.0703 17.3965C78.9362 16.8561 79.9388 16.5859 81.0781 16.5859C82.5885 16.5859 83.7995 17.0091 84.7109 17.8555C85.6224 18.6953 86.153 19.8607 86.3027 21.3516H84.418C84.2552 20.2188 83.9004 19.3984 83.3535 18.8906C82.8132 18.3828 82.0547 18.1289 81.0781 18.1289C79.8802 18.1289 78.9395 18.5716 78.2559 19.457C77.5788 20.3424 77.2402 21.6022 77.2402 23.2363V24.6133C77.2402 26.1562 77.5625 27.3835 78.207 28.2949C78.8516 29.2064 79.7533 29.6621 80.9121 29.6621C81.9538 29.6621 82.7513 29.4277 83.3047 28.959C83.8646 28.4837 84.2357 27.6602 84.418 26.4883H86.3027ZM95.1113 31C95.0072 30.7917 94.9225 30.4206 94.8574 29.8867C94.0176 30.7591 93.015 31.1953 91.8496 31.1953C90.8079 31.1953 89.9518 30.9023 89.2812 30.3164C88.6172 29.724 88.2852 28.9753 88.2852 28.0703C88.2852 26.9701 88.7018 26.1172 89.5352 25.5117C90.375 24.8997 91.5534 24.5938 93.0703 24.5938H94.8281V23.7637C94.8281 23.1322 94.6393 22.6309 94.2617 22.2598C93.8841 21.8822 93.3275 21.6934 92.5918 21.6934C91.9473 21.6934 91.4069 21.8561 90.9707 22.1816C90.5345 22.5072 90.3164 22.901 90.3164 23.3633H88.5C88.5 22.8359 88.6855 22.3281 89.0566 21.8398C89.4342 21.3451 89.9421 20.9544 90.5801 20.668C91.2246 20.3815 91.931 20.2383 92.6992 20.2383C93.9167 20.2383 94.8704 20.5443 95.5605 21.1562C96.2507 21.7617 96.6087 22.5983 96.6348 23.666V28.5293C96.6348 29.4993 96.7585 30.2708 97.0059 30.8438V31H95.1113ZM92.1133 29.623C92.6797 29.623 93.2168 29.4766 93.7246 29.1836C94.2324 28.8906 94.6003 28.5098 94.8281 28.041V25.873H93.4121C91.1986 25.873 90.0918 26.5208 90.0918 27.8164C90.0918 28.3828 90.2806 28.8255 90.6582 29.1445C91.0358 29.4635 91.5208 29.623 92.1133 29.623ZM104.574 22.0547C104.301 22.0091 104.005 21.9863 103.686 21.9863C102.501 21.9863 101.697 22.4909 101.273 23.5V31H99.4668V20.4336H101.225L101.254 21.6543C101.846 20.7103 102.686 20.2383 103.773 20.2383C104.125 20.2383 104.392 20.2839 104.574 20.375V22.0547ZM108.207 31H106.4V20.4336H108.207V31ZM106.254 17.6309C106.254 17.3379 106.342 17.0905 106.518 16.8887C106.7 16.6868 106.967 16.5859 107.318 16.5859C107.67 16.5859 107.937 16.6868 108.119 16.8887C108.301 17.0905 108.393 17.3379 108.393 17.6309C108.393 17.9238 108.301 18.168 108.119 18.3633C107.937 18.5586 107.67 18.6562 107.318 18.6562C106.967 18.6562 106.7 18.5586 106.518 18.3633C106.342 18.168 106.254 17.9238 106.254 17.6309ZM118.227 25.4336V31H116.352V16.7812H121.596C123.152 16.7812 124.369 17.1784 125.248 17.9727C126.133 18.7669 126.576 19.8184 126.576 21.127C126.576 22.5072 126.143 23.5716 125.277 24.3203C124.418 25.0625 123.184 25.4336 121.576 25.4336H118.227ZM118.227 23.9004H121.596C122.598 23.9004 123.367 23.666 123.9 23.1973C124.434 22.722 124.701 22.0384 124.701 21.1465C124.701 20.3001 124.434 19.623 123.9 19.1152C123.367 18.6074 122.634 18.3438 121.703 18.3242H118.227V23.9004ZM133.793 22.0547C133.52 22.0091 133.223 21.9863 132.904 21.9863C131.719 21.9863 130.915 22.4909 130.492 23.5V31H128.686V20.4336H130.443L130.473 21.6543C131.065 20.7103 131.905 20.2383 132.992 20.2383C133.344 20.2383 133.611 20.2839 133.793 20.375V22.0547ZM134.789 25.6191C134.789 24.584 134.991 23.653 135.395 22.8262C135.805 21.9993 136.371 21.3613 137.094 20.9121C137.823 20.4629 138.653 20.2383 139.584 20.2383C141.023 20.2383 142.185 20.7363 143.07 21.7324C143.962 22.7285 144.408 24.0534 144.408 25.707V25.834C144.408 26.8626 144.21 27.7871 143.812 28.6074C143.422 29.4212 142.859 30.056 142.123 30.5117C141.394 30.9674 140.554 31.1953 139.604 31.1953C138.171 31.1953 137.009 30.6973 136.117 29.7012C135.232 28.7051 134.789 27.3867 134.789 25.7461V25.6191ZM136.605 25.834C136.605 27.0059 136.876 27.9466 137.416 28.6562C137.963 29.3659 138.692 29.7207 139.604 29.7207C140.521 29.7207 141.251 29.3626 141.791 28.6465C142.331 27.9238 142.602 26.9147 142.602 25.6191C142.602 24.4603 142.325 23.5228 141.771 22.8066C141.225 22.084 140.495 21.7227 139.584 21.7227C138.692 21.7227 137.973 22.0775 137.426 22.7871C136.879 23.4967 136.605 24.5124 136.605 25.834ZM146.234 25.6289C146.234 24.0078 146.618 22.7057 147.387 21.7227C148.155 20.7331 149.161 20.2383 150.404 20.2383C151.641 20.2383 152.621 20.6615 153.344 21.5078V16H155.15V31H153.49L153.402 29.8672C152.68 30.7526 151.674 31.1953 150.385 31.1953C149.161 31.1953 148.161 30.694 147.387 29.6914C146.618 28.6888 146.234 27.3802 146.234 25.7656V25.6289ZM148.041 25.834C148.041 27.0319 148.288 27.9694 148.783 28.6465C149.278 29.3236 149.962 29.6621 150.834 29.6621C151.98 29.6621 152.816 29.1478 153.344 28.1191V23.2656C152.803 22.2695 151.973 21.7715 150.854 21.7715C149.968 21.7715 149.278 22.1133 148.783 22.7969C148.288 23.4805 148.041 24.4928 148.041 25.834ZM164.486 29.9551C163.783 30.7819 162.751 31.1953 161.391 31.1953C160.264 31.1953 159.405 30.8698 158.812 30.2188C158.227 29.5612 157.93 28.5911 157.924 27.3086V20.4336H159.73V27.2598C159.73 28.8613 160.382 29.6621 161.684 29.6621C163.064 29.6621 163.982 29.1478 164.438 28.1191V20.4336H166.244V31H164.525L164.486 29.9551ZM171.947 26.1074L170.814 27.2891V31H169.008V16H170.814V25.0723L171.781 23.9102L175.072 20.4336H177.27L173.158 24.8477L177.748 31H175.629L171.947 26.1074ZM192.221 24.7207H186.254V31H184.379V16.7812H193.188V18.3242H186.254V23.1875H192.221V24.7207ZM201.342 31C201.238 30.7917 201.153 30.4206 201.088 29.8867C200.248 30.7591 199.245 31.1953 198.08 31.1953C197.038 31.1953 196.182 30.9023 195.512 30.3164C194.848 29.724 194.516 28.9753 194.516 28.0703C194.516 26.9701 194.932 26.1172 195.766 25.5117C196.605 24.8997 197.784 24.5938 199.301 24.5938H201.059V23.7637C201.059 23.1322 200.87 22.6309 200.492 22.2598C200.115 21.8822 199.558 21.6934 198.822 21.6934C198.178 21.6934 197.637 21.8561 197.201 22.1816C196.765 22.5072 196.547 22.901 196.547 23.3633H194.73C194.73 22.8359 194.916 22.3281 195.287 21.8398C195.665 21.3451 196.173 20.9544 196.811 20.668C197.455 20.3815 198.161 20.2383 198.93 20.2383C200.147 20.2383 201.101 20.5443 201.791 21.1562C202.481 21.7617 202.839 22.5983 202.865 23.666V28.5293C202.865 29.4993 202.989 30.2708 203.236 30.8438V31H201.342ZM198.344 29.623C198.91 29.623 199.447 29.4766 199.955 29.1836C200.463 28.8906 200.831 28.5098 201.059 28.041V25.873H199.643C197.429 25.873 196.322 26.5208 196.322 27.8164C196.322 28.3828 196.511 28.8255 196.889 29.1445C197.266 29.4635 197.751 29.623 198.344 29.623ZM209.027 28.5488L211.645 20.4336H213.49L209.701 31H208.324L204.496 20.4336H206.342L209.027 28.5488ZM214.594 25.6191C214.594 24.584 214.796 23.653 215.199 22.8262C215.609 21.9993 216.176 21.3613 216.898 20.9121C217.628 20.4629 218.458 20.2383 219.389 20.2383C220.827 20.2383 221.99 20.7363 222.875 21.7324C223.767 22.7285 224.213 24.0534 224.213 25.707V25.834C224.213 26.8626 224.014 27.7871 223.617 28.6074C223.227 29.4212 222.663 30.056 221.928 30.5117C221.199 30.9674 220.359 31.1953 219.408 31.1953C217.976 31.1953 216.814 30.6973 215.922 29.7012C215.036 28.7051 214.594 27.3867 214.594 25.7461V25.6191ZM216.41 25.834C216.41 27.0059 216.68 27.9466 217.221 28.6562C217.768 29.3659 218.497 29.7207 219.408 29.7207C220.326 29.7207 221.055 29.3626 221.596 28.6465C222.136 27.9238 222.406 26.9147 222.406 25.6191C222.406 24.4603 222.13 23.5228 221.576 22.8066C221.029 22.084 220.3 21.7227 219.389 21.7227C218.497 21.7227 217.777 22.0775 217.23 22.7871C216.684 23.4967 216.41 24.5124 216.41 25.834ZM231.586 22.0547C231.312 22.0091 231.016 21.9863 230.697 21.9863C229.512 21.9863 228.708 22.4909 228.285 23.5V31H226.479V20.4336H228.236L228.266 21.6543C228.858 20.7103 229.698 20.2383 230.785 20.2383C231.137 20.2383 231.404 20.2839 231.586 20.375V22.0547ZM235.219 31H233.412V20.4336H235.219V31ZM233.266 17.6309C233.266 17.3379 233.354 17.0905 233.529 16.8887C233.712 16.6868 233.979 16.5859 234.33 16.5859C234.682 16.5859 234.949 16.6868 235.131 16.8887C235.313 17.0905 235.404 17.3379 235.404 17.6309C235.404 17.9238 235.313 18.168 235.131 18.3633C234.949 18.5586 234.682 18.6562 234.33 18.6562C233.979 18.6562 233.712 18.5586 233.529 18.3633C233.354 18.168 233.266 17.9238 233.266 17.6309ZM240.57 17.875V20.4336H242.543V21.8301H240.57V28.3828C240.57 28.806 240.658 29.125 240.834 29.3398C241.01 29.5482 241.309 29.6523 241.732 29.6523C241.941 29.6523 242.227 29.6133 242.592 29.5352V31C242.117 31.1302 241.654 31.1953 241.205 31.1953C240.398 31.1953 239.789 30.9512 239.379 30.4629C238.969 29.9746 238.764 29.2812 238.764 28.3828V21.8301H236.84V20.4336H238.764V17.875H240.57ZM246.361 20.4336L246.41 21.6055C247.185 20.694 248.23 20.2383 249.545 20.2383C251.023 20.2383 252.029 20.8047 252.562 21.9375C252.914 21.4297 253.37 21.0195 253.93 20.707C254.496 20.3945 255.163 20.2383 255.932 20.2383C258.249 20.2383 259.428 21.4655 259.467 23.9199V31H257.66V24.0273C257.66 23.2721 257.488 22.709 257.143 22.3379C256.798 21.9603 256.218 21.7715 255.404 21.7715C254.734 21.7715 254.177 21.9733 253.734 22.377C253.292 22.7741 253.035 23.3112 252.963 23.9883V31H251.146V24.0762C251.146 22.5397 250.395 21.7715 248.891 21.7715C247.706 21.7715 246.895 22.276 246.459 23.2852V31H244.652V20.4336H246.361ZM268.725 29.9551C268.021 30.7819 266.99 31.1953 265.629 31.1953C264.503 31.1953 263.643 30.8698 263.051 30.2188C262.465 29.5612 262.169 28.5911 262.162 27.3086V20.4336H263.969V27.2598C263.969 28.8613 264.62 29.6621 265.922 29.6621C267.302 29.6621 268.22 29.1478 268.676 28.1191V20.4336H270.482V31H268.764L268.725 29.9551Z" fill="white"/>
</svg>
