<svg width="140" height="42" viewBox="0 0 140 42" fill="none" xmlns="http://www.w3.org/2000/svg">
<rect width="140" height="42" rx="5" fill="#F19933"/>
<path d="M37.7715 26.0234C37.1914 26.7181 36.3714 27.2588 35.3115 27.6455C34.2516 28.0251 33.0771 28.2148 31.7881 28.2148C30.4346 28.2148 29.2458 27.9212 28.2217 27.334C27.2048 26.7396 26.417 25.8802 25.8584 24.7559C25.307 23.6315 25.0241 22.3102 25.0098 20.792V19.7285C25.0098 18.1673 25.2712 16.8174 25.7939 15.6787C26.3239 14.5329 27.083 13.6592 28.0713 13.0576C29.0667 12.4489 30.2305 12.1445 31.5625 12.1445C33.4173 12.1445 34.8675 12.5885 35.9131 13.4766C36.9587 14.3574 37.5781 15.6429 37.7715 17.333H34.6348C34.4915 16.4378 34.1729 15.7826 33.6787 15.3672C33.1917 14.9518 32.5186 14.7441 31.6592 14.7441C30.5635 14.7441 29.7292 15.1559 29.1562 15.9795C28.5833 16.8031 28.2933 18.0277 28.2861 19.6533V20.6523C28.2861 22.2923 28.5977 23.5312 29.2207 24.3691C29.8438 25.207 30.7568 25.626 31.96 25.626C33.1702 25.626 34.0332 25.3682 34.5488 24.8525V22.1562H31.6162V19.7822H37.7715V26.0234ZM39.7051 22.0811C39.7051 20.9281 39.9271 19.9004 40.3711 18.998C40.8151 18.0957 41.4525 17.3975 42.2832 16.9033C43.1211 16.4092 44.0915 16.1621 45.1943 16.1621C46.7627 16.1621 48.041 16.6419 49.0293 17.6016C50.0247 18.5612 50.5798 19.8646 50.6943 21.5117L50.7158 22.3066C50.7158 24.0898 50.2181 25.5221 49.2227 26.6035C48.2272 27.6777 46.8916 28.2148 45.2158 28.2148C43.54 28.2148 42.2008 27.6777 41.1982 26.6035C40.2028 25.5293 39.7051 24.0684 39.7051 22.2207V22.0811ZM42.8096 22.3066C42.8096 23.4095 43.0173 24.2546 43.4326 24.8418C43.848 25.4219 44.4424 25.7119 45.2158 25.7119C45.9678 25.7119 46.555 25.4255 46.9775 24.8525C47.4001 24.2725 47.6113 23.3486 47.6113 22.0811C47.6113 20.9997 47.4001 20.1618 46.9775 19.5674C46.555 18.973 45.9606 18.6758 45.1943 18.6758C44.4352 18.6758 43.848 18.973 43.4326 19.5674C43.0173 20.1546 42.8096 21.0677 42.8096 22.3066ZM71.04 28H67.8174V21.2969H61.5332V28H58.3105V12.3594H61.5332V18.6973H67.8174V12.3594H71.04V28ZM73.1777 22.0811C73.1777 20.9281 73.3997 19.9004 73.8438 18.998C74.2878 18.0957 74.9251 17.3975 75.7559 16.9033C76.5938 16.4092 77.5641 16.1621 78.667 16.1621C80.2354 16.1621 81.5137 16.6419 82.502 17.6016C83.4974 18.5612 84.0524 19.8646 84.167 21.5117L84.1885 22.3066C84.1885 24.0898 83.6908 25.5221 82.6953 26.6035C81.6999 27.6777 80.3643 28.2148 78.6885 28.2148C77.0127 28.2148 75.6735 27.6777 74.6709 26.6035C73.6755 25.5293 73.1777 24.0684 73.1777 22.2207V22.0811ZM76.2822 22.3066C76.2822 23.4095 76.4899 24.2546 76.9053 24.8418C77.3206 25.4219 77.915 25.7119 78.6885 25.7119C79.4404 25.7119 80.0277 25.4255 80.4502 24.8525C80.8727 24.2725 81.084 23.3486 81.084 22.0811C81.084 20.9997 80.8727 20.1618 80.4502 19.5674C80.0277 18.973 79.4333 18.6758 78.667 18.6758C77.9079 18.6758 77.3206 18.973 76.9053 19.5674C76.4899 20.1546 76.2822 21.0677 76.2822 22.3066ZM89.0117 16.377L89.1084 17.6768C89.932 16.667 91.0456 16.1621 92.4492 16.1621C93.946 16.1621 94.9736 16.7529 95.5322 17.9346C96.3486 16.7529 97.5124 16.1621 99.0234 16.1621C100.284 16.1621 101.222 16.5309 101.838 17.2686C102.454 17.999 102.762 19.1019 102.762 20.5771V28H99.6465V20.5879C99.6465 19.929 99.5176 19.4492 99.2598 19.1484C99.002 18.8405 98.5472 18.6865 97.8955 18.6865C96.9645 18.6865 96.32 19.1305 95.9619 20.0186L95.9727 28H92.8682V20.5986C92.8682 19.9255 92.7357 19.4385 92.4707 19.1377C92.2057 18.8369 91.7546 18.6865 91.1172 18.6865C90.2363 18.6865 89.599 19.0518 89.2051 19.7822V28H86.1006V16.377H89.0117ZM110.507 28.2148C108.802 28.2148 107.413 27.6921 106.339 26.6465C105.272 25.6009 104.738 24.208 104.738 22.4678V22.167C104.738 20.9997 104.964 19.9577 105.415 19.041C105.866 18.1172 106.504 17.4082 107.327 16.9141C108.158 16.4128 109.103 16.1621 110.163 16.1621C111.753 16.1621 113.003 16.6634 113.912 17.666C114.829 18.6686 115.287 20.0902 115.287 21.9307V23.1982H107.886C107.986 23.9574 108.287 24.5661 108.788 25.0244C109.297 25.4827 109.938 25.7119 110.711 25.7119C111.907 25.7119 112.841 25.2786 113.515 24.4121L115.04 26.1201C114.575 26.779 113.944 27.2946 113.149 27.667C112.354 28.0322 111.474 28.2148 110.507 28.2148ZM110.152 18.6758C109.536 18.6758 109.035 18.8835 108.648 19.2988C108.269 19.7142 108.025 20.3086 107.918 21.082H112.236V20.835C112.222 20.1475 112.036 19.6175 111.678 19.2451C111.32 18.8656 110.811 18.6758 110.152 18.6758Z" fill="white"/>
</svg>
