<svg width="233" height="49" viewBox="0 0 233 49" fill="none" xmlns="http://www.w3.org/2000/svg">
<rect width="233" height="49" rx="2" fill="#FEC684"/>
<path d="M60.2871 16.7812L64.9355 28.3828L69.584 16.7812H72.0156V31H70.1406V25.4629L70.3164 19.4863L65.6484 31H64.2129L59.5547 19.5156L59.7402 25.4629V31H57.8652V16.7812H60.2871ZM81.5664 29.9551C80.8633 30.7819 79.8314 31.1953 78.4707 31.1953C77.3444 31.1953 76.485 30.8698 75.8926 30.2188C75.3066 29.5612 75.0104 28.5911 75.0039 27.3086V20.4336H76.8105V27.2598C76.8105 28.8613 77.4616 29.6621 78.7637 29.6621C80.1439 29.6621 81.0618 29.1478 81.5176 28.1191V20.4336H83.3242V31H81.6055L81.5664 29.9551ZM88.041 31H86.2344V16H88.041V31ZM97.4648 31C97.3607 30.7917 97.276 30.4206 97.2109 29.8867C96.3711 30.7591 95.3685 31.1953 94.2031 31.1953C93.1615 31.1953 92.3053 30.9023 91.6348 30.3164C90.9707 29.724 90.6387 28.9753 90.6387 28.0703C90.6387 26.9701 91.0553 26.1172 91.8887 25.5117C92.7285 24.8997 93.9069 24.5938 95.4238 24.5938H97.1816V23.7637C97.1816 23.1322 96.9928 22.6309 96.6152 22.2598C96.2376 21.8822 95.681 21.6934 94.9453 21.6934C94.3008 21.6934 93.7604 21.8561 93.3242 22.1816C92.888 22.5072 92.6699 22.901 92.6699 23.3633H90.8535C90.8535 22.8359 91.0391 22.3281 91.4102 21.8398C91.7878 21.3451 92.2956 20.9544 92.9336 20.668C93.5781 20.3815 94.2845 20.2383 95.0527 20.2383C96.2702 20.2383 97.224 20.5443 97.9141 21.1562C98.6042 21.7617 98.9622 22.5983 98.9883 23.666V28.5293C98.9883 29.4993 99.112 30.2708 99.3594 30.8438V31H97.4648ZM94.4668 29.623C95.0332 29.623 95.5703 29.4766 96.0781 29.1836C96.5859 28.8906 96.9538 28.5098 97.1816 28.041V25.873H95.7656C93.5521 25.873 92.4453 26.5208 92.4453 27.8164C92.4453 28.3828 92.6341 28.8255 93.0117 29.1445C93.3893 29.4635 93.8743 29.623 94.4668 29.623ZM103.783 31H101.977V20.4336H103.783V31ZM101.83 17.6309C101.83 17.3379 101.918 17.0905 102.094 16.8887C102.276 16.6868 102.543 16.5859 102.895 16.5859C103.246 16.5859 103.513 16.6868 103.695 16.8887C103.878 17.0905 103.969 17.3379 103.969 17.6309C103.969 17.9238 103.878 18.168 103.695 18.3633C103.513 18.5586 103.246 18.6562 102.895 18.6562C102.543 18.6562 102.276 18.5586 102.094 18.3633C101.918 18.168 101.83 17.9238 101.83 17.6309ZM111.928 31V16.7812H116.576C118.119 16.7812 119.278 17.1003 120.053 17.7383C120.834 18.3763 121.225 19.3203 121.225 20.5703C121.225 21.2344 121.036 21.8236 120.658 22.3379C120.281 22.8457 119.766 23.2396 119.115 23.5195C119.883 23.7344 120.489 24.1445 120.932 24.75C121.381 25.349 121.605 26.0651 121.605 26.8984C121.605 28.1745 121.192 29.1771 120.365 29.9062C119.538 30.6354 118.37 31 116.859 31H111.928ZM113.803 24.3496V29.4668H116.898C117.771 29.4668 118.458 29.2422 118.959 28.793C119.467 28.3372 119.721 27.7122 119.721 26.918C119.721 25.2057 118.79 24.3496 116.928 24.3496H113.803ZM113.803 22.8457H116.635C117.455 22.8457 118.109 22.6406 118.598 22.2305C119.092 21.8203 119.34 21.2637 119.34 20.5605C119.34 19.7793 119.112 19.2129 118.656 18.8613C118.201 18.5033 117.507 18.3242 116.576 18.3242H113.803V22.8457ZM128.49 31.1953C127.058 31.1953 125.893 30.7266 124.994 29.7891C124.096 28.8451 123.646 27.5853 123.646 26.0098V25.6777C123.646 24.6296 123.845 23.6953 124.242 22.875C124.646 22.0482 125.206 21.4036 125.922 20.9414C126.645 20.4727 127.426 20.2383 128.266 20.2383C129.639 20.2383 130.707 20.6908 131.469 21.5957C132.23 22.5007 132.611 23.7962 132.611 25.4824V26.2344H125.453C125.479 27.276 125.782 28.1191 126.361 28.7637C126.947 29.4017 127.689 29.7207 128.588 29.7207C129.226 29.7207 129.766 29.5905 130.209 29.3301C130.652 29.0697 131.039 28.7246 131.371 28.2949L132.475 29.1543C131.589 30.515 130.261 31.1953 128.49 31.1953ZM128.266 21.7227C127.536 21.7227 126.924 21.9896 126.43 22.5234C125.935 23.0508 125.629 23.793 125.512 24.75H130.805V24.6133C130.753 23.6953 130.505 22.9857 130.062 22.4844C129.62 21.9766 129.021 21.7227 128.266 21.7227ZM136.674 31H134.867V16H136.674V31ZM146.098 31C145.993 30.7917 145.909 30.4206 145.844 29.8867C145.004 30.7591 144.001 31.1953 142.836 31.1953C141.794 31.1953 140.938 30.9023 140.268 30.3164C139.604 29.724 139.271 28.9753 139.271 28.0703C139.271 26.9701 139.688 26.1172 140.521 25.5117C141.361 24.8997 142.54 24.5938 144.057 24.5938H145.814V23.7637C145.814 23.1322 145.626 22.6309 145.248 22.2598C144.87 21.8822 144.314 21.6934 143.578 21.6934C142.934 21.6934 142.393 21.8561 141.957 22.1816C141.521 22.5072 141.303 22.901 141.303 23.3633H139.486C139.486 22.8359 139.672 22.3281 140.043 21.8398C140.421 21.3451 140.928 20.9544 141.566 20.668C142.211 20.3815 142.917 20.2383 143.686 20.2383C144.903 20.2383 145.857 20.5443 146.547 21.1562C147.237 21.7617 147.595 22.5983 147.621 23.666V28.5293C147.621 29.4993 147.745 30.2708 147.992 30.8438V31H146.098ZM143.1 29.623C143.666 29.623 144.203 29.4766 144.711 29.1836C145.219 28.8906 145.587 28.5098 145.814 28.041V25.873H144.398C142.185 25.873 141.078 26.5208 141.078 27.8164C141.078 28.3828 141.267 28.8255 141.645 29.1445C142.022 29.4635 142.507 29.623 143.1 29.623ZM152.162 20.4336L152.221 21.7617C153.028 20.7461 154.083 20.2383 155.385 20.2383C157.618 20.2383 158.744 21.498 158.764 24.0176V31H156.957V24.0078C156.951 23.2461 156.775 22.6829 156.43 22.3184C156.091 21.9538 155.561 21.7715 154.838 21.7715C154.252 21.7715 153.738 21.9277 153.295 22.2402C152.852 22.5527 152.507 22.9629 152.26 23.4707V31H150.453V20.4336H152.162ZM163.354 20.4336V32.2207C163.354 34.252 162.432 35.2676 160.59 35.2676C160.193 35.2676 159.825 35.209 159.486 35.0918V33.6465C159.695 33.6986 159.968 33.7246 160.307 33.7246C160.71 33.7246 161.016 33.6139 161.225 33.3926C161.439 33.1777 161.547 32.8001 161.547 32.2598V20.4336H163.354ZM161.361 17.6309C161.361 17.3444 161.449 17.1003 161.625 16.8984C161.807 16.6901 162.071 16.5859 162.416 16.5859C162.768 16.5859 163.035 16.6868 163.217 16.8887C163.399 17.0905 163.49 17.3379 163.49 17.6309C163.49 17.9238 163.399 18.168 163.217 18.3633C163.035 18.5586 162.768 18.6562 162.416 18.6562C162.064 18.6562 161.801 18.5586 161.625 18.3633C161.449 18.168 161.361 17.9238 161.361 17.6309ZM172.797 31C172.693 30.7917 172.608 30.4206 172.543 29.8867C171.703 30.7591 170.701 31.1953 169.535 31.1953C168.493 31.1953 167.637 30.9023 166.967 30.3164C166.303 29.724 165.971 28.9753 165.971 28.0703C165.971 26.9701 166.387 26.1172 167.221 25.5117C168.061 24.8997 169.239 24.5938 170.756 24.5938H172.514V23.7637C172.514 23.1322 172.325 22.6309 171.947 22.2598C171.57 21.8822 171.013 21.6934 170.277 21.6934C169.633 21.6934 169.092 21.8561 168.656 22.1816C168.22 22.5072 168.002 22.901 168.002 23.3633H166.186C166.186 22.8359 166.371 22.3281 166.742 21.8398C167.12 21.3451 167.628 20.9544 168.266 20.668C168.91 20.3815 169.617 20.2383 170.385 20.2383C171.602 20.2383 172.556 20.5443 173.246 21.1562C173.936 21.7617 174.294 22.5983 174.32 23.666V28.5293C174.32 29.4993 174.444 30.2708 174.691 30.8438V31H172.797ZM169.799 29.623C170.365 29.623 170.902 29.4766 171.41 29.1836C171.918 28.8906 172.286 28.5098 172.514 28.041V25.873H171.098C168.884 25.873 167.777 26.5208 167.777 27.8164C167.777 28.3828 167.966 28.8255 168.344 29.1445C168.721 29.4635 169.206 29.623 169.799 29.623Z" fill="white"/>
</svg>
