<svg width="192" height="66" viewBox="0 0 192 66" fill="none" xmlns="http://www.w3.org/2000/svg">
<rect x="0.5" y="0.5" width="191" height="65" stroke="#363636"/>
<path d="M17.1816 37.6201H23.2461V39H15.4854V26.2031H17.1816V37.6201ZM28.7814 39H27.0939V26.2031H28.7814V39ZM43.5102 39H41.8139V33.085H35.3627V39H33.6752V26.2031H35.3627V31.7051H41.8139V26.2031H43.5102V39ZM55.5318 35.6602H50.1705L48.9664 39H47.2262L52.1129 26.2031H53.5895L58.485 39H56.7535L55.5318 35.6602ZM50.6803 34.2715H55.0309L52.8512 28.2861L50.6803 34.2715ZM69.7068 27.5918H65.5936V39H63.9148V27.5918H59.8104V26.2031H69.7068V27.5918ZM82.5705 33.0498L81.0061 34.6758V39H79.3186V26.2031H81.0061V32.5312L86.6926 26.2031H88.7316L83.6955 31.8545L89.1271 39H87.1057L82.5705 33.0498ZM99.4701 35.6602H94.1088L92.9047 39H91.1645L96.0512 26.2031H97.5277L102.423 39H100.692L99.4701 35.6602ZM94.6186 34.2715H98.9691L96.7895 28.2861L94.6186 34.2715ZM113.645 27.5918H109.532V39H107.853V27.5918H103.749V26.2031H113.645V27.5918ZM124.577 33.085H119.031V37.6201H125.473V39H117.344V26.2031H125.386V27.5918H119.031V31.7051H124.577V33.085ZM138.822 37.3213C138.389 37.9424 137.782 38.4082 137.003 38.7188C136.229 39.0234 135.327 39.1758 134.296 39.1758C133.253 39.1758 132.327 38.9326 131.519 38.4463C130.71 37.9541 130.083 37.2568 129.638 36.3545C129.198 35.4521 128.973 34.4062 128.961 33.2168V32.1006C128.961 30.1729 129.409 28.6787 130.306 27.6182C131.208 26.5576 132.474 26.0273 134.103 26.0273C135.438 26.0273 136.514 26.3701 137.328 27.0557C138.143 27.7354 138.641 28.7021 138.822 29.9561H137.135C136.818 28.2627 135.811 27.416 134.111 27.416C132.98 27.416 132.122 27.8145 131.536 28.6113C130.956 29.4023 130.663 30.5508 130.657 32.0566V33.1025C130.657 34.5381 130.985 35.6807 131.642 36.5303C132.298 37.374 133.186 37.7959 134.305 37.7959C134.938 37.7959 135.491 37.7256 135.966 37.585C136.44 37.4443 136.833 37.207 137.144 36.873V33.999H134.182V32.6279H138.822V37.3213ZM153.287 33.0146C153.287 34.2686 153.076 35.3643 152.654 36.3018C152.233 37.2334 151.635 37.9453 150.862 38.4375C150.088 38.9297 149.186 39.1758 148.154 39.1758C147.147 39.1758 146.253 38.9297 145.474 38.4375C144.695 37.9395 144.088 37.2334 143.654 36.3193C143.227 35.3994 143.007 34.3359 142.995 33.1289V32.2061C142.995 30.9756 143.209 29.8887 143.637 28.9453C144.065 28.002 144.668 27.2812 145.447 26.7832C146.233 26.2793 147.129 26.0273 148.137 26.0273C149.162 26.0273 150.065 26.2764 150.844 26.7744C151.629 27.2666 152.233 27.9844 152.654 28.9277C153.076 29.8652 153.287 30.958 153.287 32.2061V33.0146ZM151.609 32.1885C151.609 30.6709 151.304 29.5078 150.695 28.6992C150.085 27.8848 149.233 27.4775 148.137 27.4775C147.071 27.4775 146.23 27.8848 145.614 28.6992C145.005 29.5078 144.692 30.6328 144.674 32.0742V33.0146C144.674 34.4854 144.982 35.6426 145.597 36.4863C146.218 37.3242 147.071 37.7432 148.154 37.7432C149.244 37.7432 150.088 37.3477 150.686 36.5566C151.283 35.7598 151.591 34.6201 151.609 33.1377V32.1885ZM162.312 33.8232H159.306V39H157.61V26.2031H161.846C163.288 26.2031 164.395 26.5312 165.168 27.1875C165.948 27.8438 166.337 28.7988 166.337 30.0527C166.337 30.8496 166.121 31.5439 165.687 32.1357C165.259 32.7275 164.662 33.1699 163.894 33.4629L166.9 38.8945V39H165.089L162.312 33.8232ZM159.306 32.4434H161.899C162.737 32.4434 163.402 32.2266 163.894 31.793C164.392 31.3594 164.641 30.7793 164.641 30.0527C164.641 29.2617 164.404 28.6553 163.929 28.2334C163.46 27.8115 162.781 27.5977 161.89 27.5918H159.306V32.4434ZM172.321 39H170.633V26.2031H172.321V39Z" fill="#363636"/>
</svg>
