<svg width="60" height="82" viewBox="0 0 60 82" fill="none" xmlns="http://www.w3.org/2000/svg">
<path d="M7.19971 75.0117H2.3584L1.25977 78H0.314941L4.35059 67.3359H5.20752L9.24316 78H8.30566L7.19971 75.0117ZM2.63672 74.2427H6.91406L4.77539 68.4346L2.63672 74.2427ZM11.5942 78H10.7153V66.75H11.5942V78ZM18.9844 78C18.8965 77.751 18.8403 77.3823 18.8159 76.894C18.5083 77.2944 18.1152 77.6045 17.6367 77.8242C17.1631 78.0391 16.6602 78.1465 16.1279 78.1465C15.3662 78.1465 14.7485 77.9341 14.2749 77.5093C13.8062 77.0845 13.5718 76.5474 13.5718 75.8979C13.5718 75.1265 13.8916 74.5161 14.5312 74.0669C15.1758 73.6177 16.0718 73.3931 17.2192 73.3931H18.8086V72.4922C18.8086 71.9258 18.6328 71.4814 18.2812 71.1592C17.9346 70.832 17.4268 70.6685 16.7578 70.6685C16.1475 70.6685 15.6421 70.8247 15.2417 71.1372C14.8413 71.4497 14.6411 71.8257 14.6411 72.2651L13.7622 72.2578C13.7622 71.6279 14.0552 71.0835 14.6411 70.6245C15.2271 70.1606 15.9473 69.9287 16.8018 69.9287C17.6855 69.9287 18.3813 70.1509 18.8892 70.5952C19.4019 71.0347 19.6655 71.6499 19.6802 72.4409V76.1909C19.6802 76.9575 19.7607 77.5312 19.9219 77.9121V78H18.9844ZM16.2305 77.3701C16.8164 77.3701 17.3389 77.2285 17.7979 76.9453C18.2617 76.6621 18.5986 76.2837 18.8086 75.8101V74.0669H17.2412C16.3672 74.0767 15.6836 74.2378 15.1904 74.5503C14.6973 74.8579 14.4507 75.2827 14.4507 75.8247C14.4507 76.269 14.6143 76.6377 14.9414 76.9307C15.2734 77.2236 15.7031 77.3701 16.2305 77.3701ZM23.3862 68.0464V70.0752H25.0269V70.793H23.3862V76.0737C23.3862 76.5132 23.4644 76.8403 23.6206 77.0552C23.7817 77.27 24.0479 77.3774 24.4189 77.3774C24.5654 77.3774 24.8022 77.353 25.1294 77.3042L25.166 78.022C24.9365 78.105 24.624 78.1465 24.2285 78.1465C23.6279 78.1465 23.1909 77.9731 22.9175 77.6265C22.644 77.2749 22.5073 76.7598 22.5073 76.0811V70.793H21.0498V70.0752H22.5073V68.0464H23.3862ZM37.6392 68.105H33.9844V78H33.0835V68.105H29.436V67.3359H37.6392V68.105ZM43.5571 76.9966C43.0298 77.7632 42.1875 78.1465 41.0303 78.1465C40.1855 78.1465 39.5435 77.9023 39.104 77.4141C38.6646 76.9209 38.4399 76.1934 38.4302 75.2314V70.0752H39.3018V75.1216C39.3018 76.6304 39.9121 77.3848 41.1328 77.3848C42.4023 77.3848 43.2056 76.8599 43.5425 75.8101V70.0752H44.4214V78H43.5718L43.5571 76.9966ZM47.688 78H46.8091V66.75H47.688V78ZM51.0571 78H50.1782V70.0752H51.0571V78ZM50.0244 67.7827C50.0244 67.6167 50.0781 67.4775 50.1855 67.3652C50.293 67.248 50.4395 67.1895 50.625 67.1895C50.8105 67.1895 50.957 67.248 51.0645 67.3652C51.1768 67.4775 51.2329 67.6167 51.2329 67.7827C51.2329 67.9487 51.1768 68.0879 51.0645 68.2002C50.957 68.3125 50.8105 68.3687 50.625 68.3687C50.4395 68.3687 50.293 68.3125 50.1855 68.2002C50.0781 68.0879 50.0244 67.9487 50.0244 67.7827ZM58.1909 75.9858C58.1909 75.5513 58.0151 75.2021 57.6636 74.9385C57.3169 74.6748 56.792 74.4697 56.0889 74.3232C55.3857 74.1719 54.8389 74.001 54.4482 73.8105C54.0625 73.6152 53.7744 73.3784 53.584 73.1001C53.3984 72.8218 53.3057 72.4849 53.3057 72.0894C53.3057 71.4644 53.5669 70.9492 54.0894 70.5439C54.6118 70.1338 55.2808 69.9287 56.0962 69.9287C56.98 69.9287 57.688 70.1484 58.2202 70.5879C58.7573 71.0225 59.0259 71.5913 59.0259 72.2944H58.147C58.147 71.8306 57.9517 71.4448 57.561 71.1372C57.1753 70.8296 56.687 70.6758 56.0962 70.6758C55.52 70.6758 55.0562 70.8052 54.7046 71.064C54.3579 71.3179 54.1846 71.6499 54.1846 72.0601C54.1846 72.4556 54.3286 72.7632 54.6167 72.9829C54.9097 73.1978 55.4395 73.3955 56.2061 73.5762C56.9775 73.7568 57.5537 73.9497 57.9346 74.1548C58.3203 74.3599 58.606 74.6064 58.7915 74.8945C58.9771 75.1826 59.0698 75.5317 59.0698 75.9419C59.0698 76.6108 58.7988 77.1455 58.2568 77.5459C57.7197 77.9463 57.0166 78.1465 56.1475 78.1465C55.2246 78.1465 54.4751 77.9243 53.8989 77.48C53.3276 77.0308 53.042 76.4644 53.042 75.7808H53.9209C53.9551 76.2935 54.1699 76.6938 54.5654 76.9819C54.9658 77.2651 55.4932 77.4067 56.1475 77.4067C56.7578 77.4067 57.251 77.2725 57.627 77.0039C58.0029 76.7354 58.1909 76.396 58.1909 75.9858Z" fill="#363636"/>
<path d="M51.3393 4.21292L57.7483 10.6274C58.5558 11.4354 59.0001 12.5088 59.0001 13.651C59.0001 14.7931 58.5558 15.8664 57.7483 16.6744L28.7751 45.4134C28.6468 45.5408 28.4893 45.6327 28.3161 45.6828L13.3617 49.9591C13.2657 49.9862 13.1666 49.9999 13.0686 49.9999C12.789 49.9999 12.5167 49.8902 12.3133 49.6866C12.0389 49.412 11.9345 49.0101 12.041 48.6373L16.3136 33.6701C16.3637 33.4968 16.4555 33.3391 16.5828 33.2107L45.2942 4.21602C46.9153 2.59363 49.7245 2.59673 51.3393 4.21292Z" fill="#FDC98D"/>
<path d="M51.7483 7.62739L45.3393 1.21292C43.7245 -0.40327 40.9153 -0.406375 39.2942 1.21602L10.5828 30.2107C10.4555 30.3391 10.3637 30.4968 10.3136 30.6701L6.041 45.6373C5.93455 46.0101 6.0389 46.412 6.31328 46.6866C6.51667 46.8902 6.78896 46.9999 7.06855 46.9999C7.16659 46.9999 7.26573 46.9862 7.36167 46.9591L22.3161 42.6828C22.4893 42.6327 22.6468 42.5408 22.7751 42.4134L51.7483 13.6744C52.5558 12.8664 53.0001 11.7931 53.0001 10.651C53.0001 9.50885 52.5558 8.43543 51.7483 7.62739ZM34.6395 8.98621L38.5714 12.9182L18.0428 33.4469L16.5695 30.4993C16.3879 30.1373 16.0187 29.9089 15.6139 29.9089H13.9033L34.6395 8.98621ZM8.62385 44.3763L10.0152 39.5057L13.4943 42.9848L8.62385 44.3763ZM20.9548 40.8536L15.8441 42.3135L10.6865 37.1559L12.1464 32.0452H14.9535L16.7946 35.7275C16.8979 35.9341 17.0658 36.1021 17.2724 36.2053L20.9547 38.0464V40.8536H20.9548ZM23.0912 39.0968V37.3862C23.0912 36.9814 22.8628 36.6122 22.5008 36.4306L19.5532 34.9573L40.0818 14.4287L44.0138 18.3607L23.0912 39.0968ZM50.241 12.189L45.5311 16.8569L36.1431 7.46896L40.8079 2.76221C41.6153 1.95476 43.0214 1.95476 43.8288 2.76221L50.2379 9.17127C50.6416 9.57494 50.8638 10.1111 50.8638 10.6817C50.8638 11.2523 50.6416 11.7885 50.241 12.189Z" fill="#363636"/>
</svg>
