<svg width="49" height="50" viewBox="0 0 49 50" fill="none" xmlns="http://www.w3.org/2000/svg">
<path d="M13.3057 6.95953C13.3057 6.53464 13.6499 6.19092 14.0743 6.19092H14.4554L14.1005 5.07912C14.0476 4.88254 14.0753 4.67235 14.177 4.49593C14.279 4.31951 14.4467 4.19037 14.6439 4.13791L18.3557 3.14334C18.767 3.03143 19.1869 3.27608 19.2968 3.68667L20.9915 9.26519C20.9915 8.8403 21.3357 8.49658 21.7601 8.49658H24.0657V6.19098C24.0657 5.76608 24.4099 5.42236 24.8343 5.42236H28.6773L28.6772 4.65387C28.6772 4.22897 29.0213 3.88525 29.4458 3.88525H33.2887C33.5159 3.88525 33.72 3.9837 33.8607 4.14033C33.9362 4.08546 34.0218 4.04429 34.1138 4.01981L37.8255 3.02524C38.0226 2.97413 38.2323 3.00115 38.4087 3.10169C38.5851 3.20369 38.7143 3.37178 38.7667 3.56857L40.0328 8.29392L41.2277 8.98396C41.5954 9.1963 41.7211 9.66634 41.5092 10.034L43.7826 7.26588C44.0378 6.92723 44.5193 6.85833 44.859 7.11423L47.9282 9.42671C48.5 10 48.5 10 48.0798 10.503L44.9601 14.6432C45.8855 15.6 46.3528 16.6909 46.3529 17.7765L44.0472 49.288C44.0172 49.6896 43.6826 50.0003 43.2801 50.0003H14.0744C13.6716 50.0003 13.3373 49.6896 13.3077 49.288L11.002 17.7765C10.9867 17.5634 11.0602 17.3532 11.2059 17.197C11.3511 17.0403 11.5551 16.9517 11.7688 16.9517C12.4968 16.8829 12.8292 17.0707 13.3057 17.7195V6.95953Z" fill="#FDC98D"/>
<g clip-path="url(#clip0)">
<path d="M8.54147 10.8175C8.29682 10.4714 7.81732 10.3882 7.47045 10.6336C5.77752 11.8301 4.88281 13.2433 4.88281 14.7198C4.88281 15.1445 5.22698 15.4884 5.65143 15.4884C6.07587 15.4884 6.42004 15.1447 6.42004 14.7196C6.42004 13.5121 7.47372 12.5138 8.35762 11.8886C8.70438 11.6438 8.78645 11.1643 8.54147 10.8175Z" fill="#363636"/>
<path d="M29.598 7.64758C28.9705 7.53196 28.3231 7.43221 27.6735 7.34957C27.2512 7.29925 26.8676 7.59489 26.814 8.0154C26.7608 8.43657 27.0588 8.82161 27.4798 8.87486C28.1016 8.95367 28.7209 9.04971 29.3203 9.15925C29.3673 9.16814 29.4143 9.17197 29.46 9.17197C29.8239 9.17197 30.1471 8.91292 30.2151 8.54229C30.2919 8.12483 30.0154 7.72403 29.598 7.64758Z" fill="#363636"/>
<path d="M38.6801 11.4802C38.3758 11.1845 37.8883 11.192 37.5934 11.4968C37.2976 11.8015 37.3051 12.2878 37.6099 12.5836C38.3335 13.2853 38.7002 14.0035 38.7002 14.7196C38.7002 15.1444 39.0443 15.4882 39.4688 15.4882C39.8932 15.4882 40.2374 15.1445 40.2374 14.7196C40.2373 13.5722 39.7133 12.4822 38.6801 11.4802Z" fill="#363636"/>
<path d="M8.91901 3.19107H7.95709C7.53265 3.19107 7.18848 3.53479 7.18848 3.95968V14.7197C7.18848 15.1445 7.53265 15.4883 7.95709 15.4883C8.38153 15.4883 8.7257 15.1446 8.7257 14.7197V4.72818H8.91901C9.34345 4.72818 9.68762 4.38446 9.68762 3.95957C9.68762 3.53468 9.34345 3.19107 8.91901 3.19107Z" fill="#363636"/>
<path d="M16.3368 12.4697L13.1795 0.686642C13.0697 0.276048 12.6498 0.0314019 12.2384 0.143311L8.52665 1.13788C8.32952 1.19034 8.16177 1.31948 8.05977 1.4959C7.9581 1.67232 7.93041 1.88251 7.98332 2.07908L12.1405 17.594C12.2324 17.9377 12.5426 18.1637 12.8823 18.1637C12.9478 18.1637 13.015 18.1554 13.0816 18.1371C13.4918 18.0275 13.7349 17.6058 13.6249 17.196L9.66679 2.42325L11.8942 1.82667L14.8524 12.8675C14.962 13.2781 15.3826 13.5219 15.7935 13.4108C16.2037 13.3014 16.4467 12.8795 16.3368 12.4697Z" fill="#363636"/>
<path d="M18.3356 5.49683H15.6429C15.2184 5.49683 14.8743 5.84055 14.8743 6.26544V19.4265C14.8743 19.8513 15.2184 20.1952 15.6429 20.1952C16.0673 20.1952 16.4115 19.8514 16.4115 19.4265V7.03394H18.3357C18.7601 7.03394 19.1043 6.69022 19.1043 6.26533C19.1043 5.84043 18.76 5.49683 18.3356 5.49683Z" fill="#363636"/>
<path d="M22.5601 2.42227H18.7171C18.2927 2.42227 17.9485 2.76599 17.9485 3.19088V20.4569C17.9485 20.818 18.2 21.1302 18.5524 21.2074C19.8515 21.4926 21.1996 21.6367 22.5599 21.6367C22.9844 21.6367 23.3286 21.293 23.3286 20.8681V3.19088C23.3286 2.76599 22.9845 2.42227 22.5601 2.42227ZM21.7914 20.083C21.0122 20.0485 20.2413 19.9629 19.4857 19.8271V3.95939H21.7914V20.083Z" fill="#363636"/>
<path d="M27.1715 0.885193H23.3286C22.9041 0.885193 22.5599 1.22891 22.5599 1.65381V18.564C22.5599 18.9887 22.9041 19.3326 23.3286 19.3326C23.753 19.3326 24.0972 18.9889 24.0972 18.564V2.42231H26.4029V11.8951C26.4029 12.3199 26.7471 12.6638 27.1715 12.6638C27.5959 12.6638 27.9401 12.32 27.9401 11.8951V1.65369C27.94 1.22891 27.5959 0.885193 27.1715 0.885193Z" fill="#363636"/>
<path d="M17.3997 19.3009C17.1316 19.2123 16.872 19.1178 16.6201 19.015C16.2264 18.8521 15.7787 19.0427 15.6185 19.436C15.5795 19.5312 15.561 19.6296 15.561 19.7266C15.5614 20.0297 15.7418 20.3164 16.0399 20.4381C16.3226 20.5537 16.6149 20.661 16.9159 20.7601C16.9958 20.7872 17.0769 20.799 17.1568 20.799C17.479 20.799 17.7794 20.5949 17.8864 20.2721C18.0201 19.8698 17.802 19.4352 17.3997 19.3009Z" fill="#363636"/>
<path d="M22.1028 20.0862C20.4515 20.0451 18.8296 19.7746 17.4114 19.3057C17.009 19.173 16.5737 19.3905 16.4405 19.7935C16.307 20.1967 16.5253 20.6313 16.928 20.7648C18.5053 21.288 20.2337 21.577 22.0637 21.6235C22.0706 21.6235 22.077 21.6235 22.0837 21.6235C22.4991 21.6235 22.8411 21.2917 22.8513 20.8744C22.8623 20.4496 22.5269 20.0975 22.1028 20.0862Z" fill="#363636"/>
<path d="M27.9153 20.0476L27.6523 19.3255C27.5543 19.3578 27.457 19.3908 27.3569 19.4207C27.3566 19.4207 27.3566 19.4207 27.3562 19.4207C27.3562 19.4207 27.3558 19.4207 27.3554 19.4207C26.9488 19.5429 26.7184 19.9716 26.8404 20.3776C26.9405 20.711 27.2456 20.9255 27.5764 20.9255C27.6496 20.9255 27.724 20.915 27.7975 20.8932C27.9117 20.8589 28.0219 20.822 28.1325 20.7853C28.1352 20.7845 28.1374 20.7837 28.1396 20.783L27.9153 20.0476Z" fill="#363636"/>
<path d="M30.3264 18.9679L29.867 18.3472L29.7041 18.4432C29.4526 18.5835 29.3107 18.8456 29.3112 19.1149C29.3112 19.2417 29.3427 19.37 29.4091 19.4886C29.5502 19.7409 29.8115 19.8819 30.0804 19.8819C30.2077 19.8819 30.3363 19.8504 30.4553 19.7836L30.6592 19.6642L30.3264 18.9679Z" fill="#363636"/>
<path d="M29.4251 19.4725C29.2663 19.0799 28.821 18.8879 28.4269 19.0462L28.1099 19.167C27.7129 19.3163 27.5117 19.76 27.661 20.1569C27.7768 20.4655 28.0697 20.6553 28.3804 20.6553C28.4704 20.6553 28.5616 20.6396 28.651 20.6067L28.7238 20.5789C28.8176 20.5435 28.9106 20.509 29.0022 20.4715C29.3942 20.3124 29.5837 19.8651 29.4251 19.4725Z" fill="#363636"/>
<path d="M30.1526 19.1056C29.9699 18.7221 29.5109 18.5599 29.1281 18.743L28.8935 18.8474C28.608 18.9749 28.4383 19.2557 28.4379 19.5491C28.4379 19.6543 28.4598 19.7609 28.5051 19.8621C28.6326 20.148 28.9134 20.3177 29.2071 20.3177C29.3119 20.3177 29.4185 20.2965 29.5204 20.2511L29.7901 20.1303C30.0666 19.9983 30.2279 19.7227 30.2276 19.4361C30.2277 19.3249 30.2037 19.2124 30.1526 19.1056Z" fill="#363636"/>
<path d="M13.9302 17.378C13.9288 17.3766 13.9277 17.375 13.9261 17.3736C13.9253 17.3728 13.9246 17.372 13.9239 17.3712C13.8758 17.327 13.8279 17.2826 13.7809 17.2385C13.7254 17.1858 13.6714 17.1318 13.6202 17.0778C13.6199 17.077 13.6199 17.077 13.6195 17.077C13.6191 17.0762 13.6187 17.0762 13.6187 17.0762C13.3293 16.7647 12.8434 16.7483 12.5327 17.038C12.2224 17.3267 12.2047 17.8125 12.4937 18.1232C12.4941 18.1239 12.4945 18.1239 12.4945 18.1239C12.4948 18.1247 12.4948 18.1247 12.4953 18.1247C12.5451 18.1788 12.5973 18.2313 12.6517 18.2846C12.7276 18.3588 12.8067 18.4323 12.8859 18.5052C12.8862 18.5059 12.8866 18.5059 12.887 18.5059C12.887 18.5067 12.8873 18.5067 12.8878 18.5067C13.0346 18.6426 13.2196 18.7095 13.4039 18.7095C13.611 18.7095 13.8175 18.6255 13.9695 18.461C14.2554 18.1509 14.2353 17.6668 13.9302 17.378Z" fill="#363636"/>
<path d="M16.5789 18.998C16.5785 18.998 16.5785 18.998 16.5785 18.998C16.5778 18.9972 16.5774 18.9972 16.5766 18.9972C16.3395 18.899 16.1086 18.7968 15.8873 18.6872C15.5053 18.498 15.0457 18.6549 14.8579 19.0361C14.8039 19.1451 14.7783 19.2613 14.7783 19.3754C14.7781 19.6585 14.9353 19.9317 15.2066 20.0652C15.4592 20.1898 15.7211 20.307 15.9916 20.418C16.0877 20.4577 16.1871 20.4766 16.2847 20.4766C16.5863 20.4766 16.8726 20.298 16.9954 20.0014C17.1576 19.6097 16.971 19.1601 16.5789 18.998Z" fill="#363636"/>
<path d="M14.4789 17.8334C14.3427 17.7322 14.2078 17.6292 14.0836 17.522C14.0814 17.5206 14.0796 17.5184 14.0773 17.5168C13.756 17.2391 13.2711 17.2721 12.993 17.5927C12.8669 17.7383 12.8051 17.9176 12.8047 18.0955C12.8044 18.3108 12.8941 18.5247 13.0693 18.6771C13.2234 18.8114 13.3907 18.9397 13.5615 19.0665C13.6993 19.1685 13.8598 19.2182 14.019 19.2182C14.2539 19.2182 14.4857 19.1107 14.6364 18.9082C14.8899 18.5673 14.8192 18.0862 14.4789 17.8334Z" fill="#363636"/>
<path d="M15.1095 18.2596C15.0263 18.2077 14.9436 18.1568 14.8629 18.1049C14.7754 18.048 14.69 17.991 14.607 17.9323C14.2617 17.686 13.7817 17.7686 13.5363 18.1131C13.2905 18.4584 13.3709 18.938 13.7158 19.1841C13.8053 19.2485 13.8982 19.3109 13.9926 19.3725C14.0954 19.4391 14.2001 19.5052 14.3067 19.5698C14.4316 19.6463 14.5697 19.6824 14.7059 19.6824C14.9643 19.6824 15.2174 19.5517 15.3621 19.3156C15.5834 18.9538 15.4705 18.4809 15.1095 18.2596Z" fill="#363636"/>
<path d="M15.8088 18.647C15.6035 18.5442 15.4037 18.4375 15.2139 18.325C14.8479 18.1104 14.377 18.2312 14.1611 18.5958C14.0883 18.7188 14.0541 18.8533 14.0541 18.9861C14.0541 19.2495 14.1892 19.5054 14.4317 19.6487C14.6508 19.7779 14.8813 19.901 15.118 20.0204C15.2287 20.0759 15.3464 20.1022 15.4625 20.1022C15.744 20.1022 16.015 19.9475 16.1502 19.6789C16.2057 19.5679 16.232 19.45 16.232 19.3344C16.2321 19.0529 16.0771 18.7819 15.8088 18.647Z" fill="#363636"/>
<path d="M13.4735 16.9023L13.4207 16.8408C13.3857 16.8003 13.3509 16.7597 13.3175 16.7192C13.291 16.6869 13.265 16.6539 13.2406 16.6208C12.9894 16.2785 12.5087 16.2042 12.1669 16.4542C11.8246 16.7049 11.7495 17.1853 11.9999 17.5282C12.0274 17.5659 12.0565 17.6033 12.0885 17.6432C12.15 17.7204 12.2199 17.8022 12.3047 17.9006C12.4567 18.0784 12.6717 18.1693 12.8886 18.1693C13.0651 18.1693 13.2426 18.1086 13.3873 17.9854C13.7097 17.7098 13.7483 17.2258 13.4735 16.9023Z" fill="#363636"/>
<path d="M35.1106 5.98375L33.5926 5.10717C33.2245 4.89405 32.7543 5.02093 32.5425 5.38863C32.3305 5.75644 32.4563 6.22637 32.824 6.4387L33.6764 6.93092L26.3059 19.6966C25.3794 19.9046 24.4141 20.0321 23.423 20.0794L30.3759 8.03661C30.5877 7.6688 30.4621 7.19887 30.0944 6.98654C29.7255 6.77342 29.2567 6.90109 29.0443 7.268L21.4219 20.4704C21.2865 20.7054 21.2847 20.9944 21.4175 21.2307C21.5505 21.4678 21.7982 21.6165 22.0695 21.6233L22.2376 21.6285C22.3442 21.6329 22.4513 21.6367 22.56 21.6367C24.0922 21.6367 25.5825 21.461 26.9885 21.115C27.192 21.0654 27.3661 20.9347 27.4708 20.7531L35.392 7.03382C35.6039 6.66612 35.4783 6.19608 35.1106 5.98375Z" fill="#363636"/>
<path d="M13.1087 16.4121L13.0524 16.325C13.0165 16.2695 12.9792 16.214 12.9485 16.157C12.7481 15.7832 12.2831 15.6412 11.9079 15.8432C11.6495 15.9813 11.5022 16.2469 11.5027 16.5216C11.5027 16.644 11.5321 16.7677 11.594 16.8835C11.6451 16.9787 11.7049 17.0719 11.7656 17.1649L11.8129 17.2378C11.9592 17.4683 12.2077 17.5936 12.4617 17.5936C12.6027 17.5936 12.7458 17.5547 12.8734 17.4735C13.1036 17.3264 13.2293 17.0779 13.2293 16.8242C13.2292 16.6831 13.1901 16.5396 13.1087 16.4121Z" fill="#363636"/>
<path d="M33.3933 14.5267C32.9711 14.4592 32.5794 14.7436 32.5113 15.1624L32.4849 15.2932C32.4736 15.3456 32.4684 15.3981 32.4684 15.4492C32.4684 15.8019 32.7197 16.1075 33.0819 16.1839C33.133 16.1945 33.1839 16.1997 33.2342 16.1997C33.5931 16.1997 33.9188 15.9378 33.9964 15.5735C34.0081 15.5188 34.0197 15.4639 34.0287 15.4084C34.0354 15.3666 34.0385 15.3252 34.0385 15.2839C34.0387 14.9141 33.7704 14.5882 33.3933 14.5267Z" fill="#363636"/>
<path d="M12.8384 15.9085L12.7873 15.7959C12.7704 15.76 12.7523 15.7238 12.7392 15.6864C12.5984 15.2856 12.1589 15.0716 11.7593 15.2158C11.4428 15.3268 11.2448 15.6233 11.2448 15.9407C11.2448 16.0255 11.2592 16.1109 11.2883 16.1951C11.3183 16.28 11.3555 16.3632 11.3942 16.4459L11.4287 16.5209C11.5544 16.8107 11.8371 16.9832 12.1338 16.9832C12.2358 16.9832 12.3399 16.9631 12.4397 16.9194C12.7295 16.7941 12.9024 16.511 12.9024 16.2138C12.9022 16.1119 12.8821 16.0084 12.8384 15.9085Z" fill="#363636"/>
<path d="M31.5758 18.1175C31.3297 17.7722 30.8501 17.6927 30.5037 17.9381L30.2932 18.0814C29.9413 18.3171 29.8464 18.7929 30.081 19.1456C30.229 19.3686 30.4728 19.4886 30.7216 19.4886C30.8669 19.4886 31.0141 19.4473 31.1444 19.3619C31.2295 19.3056 31.3146 19.2485 31.3969 19.19C31.6068 19.0399 31.7186 18.8042 31.7189 18.5648C31.7191 18.4097 31.6726 18.2534 31.5758 18.1175Z" fill="#363636"/>
<path d="M12.6593 15.3811L12.6112 15.2055C12.5376 14.7881 12.1403 14.5149 11.7222 14.5825C11.3486 14.6478 11.0859 14.9722 11.0859 15.3384C11.0859 15.3827 11.0898 15.4278 11.0976 15.4727C11.1105 15.5456 11.1295 15.6176 11.1656 15.7429C11.251 16.095 11.5653 16.3307 11.9117 16.3307C11.9716 16.3307 12.0325 16.3239 12.0936 16.3088C12.4452 16.2239 12.6814 15.9088 12.6809 15.5627C12.6809 15.5028 12.6743 15.4419 12.6593 15.3811Z" fill="#363636"/>
<path d="M32.1076 17.548L31.5041 17.0699L31.4151 17.1668C31.2691 17.3161 31.1959 17.5097 31.1959 17.7035C31.1959 17.9031 31.2728 18.1027 31.4271 18.2535C31.5767 18.3999 31.7704 18.4727 31.9644 18.4727C32.164 18.4727 32.3633 18.3955 32.5142 18.2416C32.5615 18.1935 32.606 18.144 32.6789 18.0622L32.1076 17.548Z" fill="#363636"/>
<path d="M33.8977 15.8563C33.8973 15.5343 33.6929 15.2342 33.3704 15.1275C32.9653 14.9932 32.5319 15.2123 32.3992 15.6154C32.398 15.6184 32.3575 15.7421 32.3567 15.7445C32.3225 15.8346 32.3064 15.9261 32.3064 16.017C32.3064 16.3269 32.4959 16.6197 32.8032 16.7359C32.893 16.7697 32.9848 16.7855 33.0753 16.7855C33.3855 16.7855 33.6777 16.5962 33.7942 16.2893C33.813 16.2399 33.8292 16.1903 33.845 16.1408L33.1288 15.857L33.8584 16.0987C33.885 16.0184 33.8977 15.9366 33.8977 15.8563Z" fill="#363636"/>
<path d="M32.0667 17.687C31.806 17.3611 31.3027 17.3275 30.9709 17.5804C30.9634 17.5858 30.9033 17.6331 30.8959 17.6391C30.7183 17.7845 30.6305 17.988 30.6305 18.1959C30.6305 18.3669 30.6895 18.541 30.8069 18.6889C30.9539 18.8751 31.1783 18.9689 31.4062 18.9689C31.5807 18.9689 31.757 18.9134 31.9021 18.8039L31.9943 18.7302C32.1654 18.5853 32.2488 18.3895 32.2491 18.1876C32.2491 18.0143 32.1876 17.8371 32.0667 17.687Z" fill="#363636"/>
<path d="M32.962 16.4221C32.6159 16.176 32.1356 16.2554 31.8902 16.6023L31.7858 16.7382C31.6794 16.8756 31.6283 17.0354 31.6283 17.1945C31.6283 17.4226 31.7341 17.6486 31.9311 17.8025C32.0677 17.9089 32.2308 17.9593 32.3939 17.9593C32.6301 17.9593 32.8659 17.8529 33.0206 17.6553C33.0623 17.6013 33.1036 17.5487 33.1422 17.4939C33.2383 17.3588 33.2847 17.2035 33.2847 17.0496C33.2851 16.8087 33.173 16.5721 32.962 16.4221Z" fill="#363636"/>
<path d="M33.1909 15.8871C32.8205 15.6867 32.3447 15.8442 32.1408 16.2128C32.0763 16.3292 32.0459 16.4537 32.0463 16.5769C32.0463 16.8374 32.1836 17.0903 32.4258 17.2344C32.5463 17.3064 32.6794 17.3402 32.8116 17.3402C33.0699 17.3402 33.3239 17.2111 33.472 16.9797C33.484 16.9609 33.5087 16.9198 33.5189 16.9001C33.5773 16.7891 33.6048 16.672 33.6048 16.5572C33.6043 16.2864 33.4512 16.0274 33.1909 15.8871Z" fill="#363636"/>
<path d="M35.0541 9.54288L32.6496 0.568452C32.5972 0.371654 32.468 0.203566 32.2916 0.101564C32.1152 0.00102671 31.9054 -0.0259935 31.7084 0.0251198L27.9966 1.01969C27.7995 1.07215 27.6317 1.20129 27.5297 1.37771C27.4281 1.55413 27.4004 1.76432 27.4533 1.96089L30.6024 13.7139C30.6943 14.0576 31.0045 14.2836 31.3442 14.2836C31.41 14.2836 31.4772 14.2754 31.5435 14.2571C31.9537 14.1476 32.1968 13.7258 32.0868 13.316L29.1367 2.30518L31.364 1.70859L33.5697 9.94076C33.6795 10.3506 34.0986 10.5944 34.5107 10.4841C34.9209 10.3744 35.164 9.95269 35.0541 9.54288Z" fill="#363636"/>
<path d="M42.1098 6.9335C42.0812 6.73231 41.974 6.55003 41.811 6.42687L38.7419 4.11439C38.4022 3.85848 37.9207 3.92738 37.6655 4.26604L25.8171 19.9888C25.6234 20.2455 25.6107 20.5959 25.7844 20.8668C25.9278 21.0897 26.1732 21.2195 26.431 21.2195C26.4857 21.2195 26.5413 21.2136 26.5968 21.2016C30.7456 20.2861 33.5561 18.0914 34.0208 15.4884H35.5624C35.8038 15.4884 36.0311 15.3751 36.1763 15.1822L41.9627 7.50317C42.085 7.34026 42.1382 7.13536 42.1098 6.9335ZM35.1788 13.9509H33.32C32.8956 13.9509 32.5514 14.2946 32.5514 14.7195C32.5514 16.4165 30.9772 18.0212 28.4639 19.03L38.4307 5.80439L40.2722 7.1921L35.1788 13.9509Z" fill="#363636"/>
<path d="M40.0319 14.1968C39.8867 14.04 39.6825 13.9515 39.4689 13.9515H33.3203C32.8959 13.9515 32.5517 14.2952 32.5517 14.7201C32.5517 17.6361 27.9764 20.1002 22.5602 20.1002C17.144 20.1002 12.5687 17.6362 12.5687 14.7201C12.5687 14.2953 12.2245 13.9515 11.8001 13.9515H5.65161C5.43793 13.9515 5.23393 14.0401 5.08869 14.1968C4.94301 14.3531 4.86949 14.5633 4.8848 14.7763L7.19053 46.2879C7.22014 46.6894 7.5544 47.0002 7.95723 47.0002H37.163C37.5654 47.0002 37.9 46.6894 37.93 46.2879L40.2357 14.7763C40.2511 14.563 40.1775 14.3528 40.0319 14.1968ZM36.4484 45.4629H8.67146L6.47798 15.4885H11.0987C11.717 18.9928 16.5291 21.6371 22.5601 21.6371C28.5911 21.6371 33.403 18.9928 34.0215 15.4885H38.642L36.4484 45.4629Z" fill="#363636"/>
<path d="M22.5601 27.0168C18.7461 27.0168 15.6429 30.1195 15.6429 33.934C15.6429 37.7485 18.7461 40.8512 22.5601 40.8512C26.374 40.8512 29.4773 37.7485 29.4773 33.934C29.4773 30.1195 26.3741 27.0168 22.5601 27.0168ZM22.5601 39.3141C19.5936 39.3141 17.1801 36.9004 17.1801 33.934C17.1801 30.9676 19.5935 28.5539 22.5601 28.5539C25.5267 28.5539 27.9402 30.9676 27.9402 33.934C27.9402 36.9004 25.5266 39.3141 22.5601 39.3141Z" fill="#363636"/>
</g>
<defs>
<clipPath id="clip0">
<rect width="47" height="47" fill="white"/>
</clipPath>
</defs>
</svg>
