<svg width="72" height="80" viewBox="0 0 72 80" fill="none" xmlns="http://www.w3.org/2000/svg">
<path fill-rule="evenodd" clip-rule="evenodd" d="M48.1814 34H35.8186C34.8781 39.1202 30.3921 43 25 43C18.9249 43 14 38.0751 14 32C14 30.4592 14.3168 28.9923 14.8888 27.6611C13.6867 25.5485 13 23.1045 13 20.5C13 12.4919 19.4919 6 27.5 6C30.1837 6 32.6971 6.72909 34.853 8H48.147C50.3029 6.72909 52.8163 6 55.5 6C63.5081 6 70 12.4919 70 20.5C70 22.7068 69.507 24.7984 68.6252 26.6708C69.5012 28.2496 70 30.0665 70 32C70 38.0751 65.0751 43 59 43C53.6079 43 49.1219 39.1202 48.1814 34Z" fill="#FDC98D"/>
<mask id="path-2-inside-1" fill="white">
<path fill-rule="evenodd" clip-rule="evenodd" d="M42.1814 28H29.8186C28.8781 33.1202 24.3921 37 19 37C12.9249 37 8 32.0751 8 26C8 24.4592 8.31681 22.9923 8.88883 21.6611C7.68666 19.5485 7 17.1045 7 14.5C7 6.49187 13.4919 0 21.5 0C24.1837 0 26.6971 0.729089 28.853 2H42.147C44.3029 0.729089 46.8163 0 49.5 0C57.5081 0 64 6.49187 64 14.5C64 16.7068 63.507 18.7984 62.6252 20.6708C63.5012 22.2496 64 24.0665 64 26C64 32.0751 59.0751 37 53 37C47.6079 37 43.1219 33.1202 42.1814 28Z"/>
</mask>
<path d="M42.1814 28L44.1485 27.6387L43.8475 26H42.1814V28ZM29.8186 28V26H28.1525L27.8515 27.6387L29.8186 28ZM8.88883 21.6611L10.7264 22.4507L11.1191 21.5366L10.6271 20.6719L8.88883 21.6611ZM28.853 2L27.8373 3.72291L28.3074 4H28.853V2ZM42.147 2V4H42.6926L43.1627 3.72291L42.147 2ZM62.6252 20.6708L60.8158 19.8187L60.3793 20.7454L60.8763 21.6412L62.6252 20.6708ZM42.1814 26H29.8186V30H42.1814V26ZM27.8515 27.6387C27.0823 31.8267 23.4096 35 19 35V39C25.3747 39 30.674 34.4137 31.7857 28.3613L27.8515 27.6387ZM19 35C14.0294 35 10 30.9706 10 26H6C6 33.1797 11.8203 39 19 39V35ZM10 26C10 24.7356 10.2596 23.5371 10.7264 22.4507L7.05128 20.8715C6.37406 22.4476 6 24.1827 6 26H10ZM10.6271 20.6719C9.59194 18.8529 9 16.7486 9 14.5H5C5 17.4603 5.78139 20.2442 7.15057 22.6503L10.6271 20.6719ZM9 14.5C9 7.59644 14.5964 2 21.5 2V-2C12.3873 -2 5 5.3873 5 14.5H9ZM21.5 2C23.8168 2 25.9808 2.62844 27.8373 3.72291L29.8687 0.277093C27.4135 -1.17026 24.5506 -2 21.5 -2V2ZM28.853 4H42.147V0H28.853V4ZM43.1627 3.72291C45.0192 2.62844 47.1832 2 49.5 2V-2C46.4494 -2 43.5865 -1.17026 41.1313 0.277093L43.1627 3.72291ZM49.5 2C56.4036 2 62 7.59644 62 14.5H66C66 5.3873 58.6127 -2 49.5 -2V2ZM62 14.5C62 16.4061 61.5747 18.2072 60.8158 19.8187L64.4346 21.523C65.4393 19.3896 66 17.0075 66 14.5H62ZM60.8763 21.6412C61.5918 22.9307 62 24.4147 62 26H66C66 23.7184 65.4105 21.5685 64.374 19.7005L60.8763 21.6412ZM62 26C62 30.9706 57.9706 35 53 35V39C60.1797 39 66 33.1797 66 26H62ZM53 35C48.5904 35 44.9177 31.8267 44.1485 27.6387L40.2143 28.3613C41.326 34.4137 46.6253 39 53 39V35Z" fill="#363636" mask="url(#path-2-inside-1)"/>
<circle cx="50.5" cy="9.5" r="2.5" fill="#363636"/>
<circle cx="55.5" cy="14.5" r="2.5" fill="#363636"/>
<circle cx="50.5" cy="19.5" r="2.5" fill="#363636"/>
<circle cx="45.5" cy="14.5" r="2.5" fill="#363636"/>
<mask id="path-8-inside-2" fill="white">
<path fill-rule="evenodd" clip-rule="evenodd" d="M21 22C19.8954 22 19 21.1046 19 20V16.5H15.5C14.3954 16.5 13.5 15.6046 13.5 14.5C13.5 13.3954 14.3954 12.5 15.5 12.5H19V9C19 7.89543 19.8954 7 21 7C22.1046 7 23 7.89543 23 9V12.5H26.5C27.6046 12.5 28.5 13.3954 28.5 14.5C28.5 15.6046 27.6046 16.5 26.5 16.5H23V20C23 21.1046 22.1046 22 21 22Z"/>
</mask>
<path d="M19 16.5H20V15.5H19V16.5ZM19 12.5V13.5H20V12.5H19ZM23 12.5H22V13.5H23V12.5ZM23 16.5V15.5H22V16.5H23ZM18 20C18 21.6569 19.3431 23 21 23V21C20.4477 21 20 20.5523 20 20H18ZM18 16.5V20H20V16.5H18ZM15.5 17.5H19V15.5H15.5V17.5ZM12.5 14.5C12.5 16.1569 13.8431 17.5 15.5 17.5V15.5C14.9477 15.5 14.5 15.0523 14.5 14.5H12.5ZM15.5 11.5C13.8431 11.5 12.5 12.8431 12.5 14.5H14.5C14.5 13.9477 14.9477 13.5 15.5 13.5V11.5ZM19 11.5H15.5V13.5H19V11.5ZM18 9V12.5H20V9H18ZM21 6C19.3431 6 18 7.34315 18 9H20C20 8.44772 20.4477 8 21 8V6ZM24 9C24 7.34315 22.6569 6 21 6V8C21.5523 8 22 8.44772 22 9H24ZM24 12.5V9H22V12.5H24ZM26.5 11.5H23V13.5H26.5V11.5ZM29.5 14.5C29.5 12.8431 28.1569 11.5 26.5 11.5V13.5C27.0523 13.5 27.5 13.9477 27.5 14.5H29.5ZM26.5 17.5C28.1569 17.5 29.5 16.1569 29.5 14.5H27.5C27.5 15.0523 27.0523 15.5 26.5 15.5V17.5ZM23 17.5H26.5V15.5H23V17.5ZM24 20V16.5H22V20H24ZM21 23C22.6569 23 24 21.6569 24 20H22C22 20.5523 21.5523 21 21 21V23Z" fill="#363636" mask="url(#path-8-inside-2)"/>
<path d="M3.05713 71.6567V76H2.15625V65.3359H5.78906C6.89746 65.3359 7.77148 65.6191 8.41113 66.1855C9.05566 66.752 9.37793 67.5308 9.37793 68.522C9.37793 69.5229 9.06787 70.2969 8.44775 70.8438C7.83252 71.3857 6.93896 71.6567 5.76709 71.6567H3.05713ZM3.05713 70.895H5.78906C6.66309 70.895 7.32959 70.6875 7.78857 70.2725C8.24756 69.8574 8.47705 69.2788 8.47705 68.5366C8.47705 67.7993 8.24756 67.2134 7.78857 66.7788C7.33447 66.3394 6.6875 66.1147 5.84766 66.105H3.05713V70.895ZM14.1606 76.1465C13.4868 76.1465 12.8765 75.9805 12.3296 75.6484C11.7876 75.3164 11.3652 74.855 11.0625 74.2642C10.7598 73.6685 10.6084 73.002 10.6084 72.2646V71.9497C10.6084 71.188 10.7549 70.502 11.0479 69.8916C11.3457 69.2812 11.7583 68.8027 12.2856 68.4561C12.813 68.1045 13.3843 67.9287 13.9995 67.9287C14.9614 67.9287 15.7231 68.2583 16.2847 68.9175C16.8511 69.5718 17.1343 70.4678 17.1343 71.6055V72.0962H11.48V72.2646C11.48 73.1631 11.7363 73.9126 12.249 74.5132C12.7666 75.1089 13.416 75.4067 14.1973 75.4067C14.666 75.4067 15.0786 75.3213 15.4351 75.1504C15.7964 74.9795 16.1235 74.7061 16.4165 74.3301L16.9658 74.7476C16.3213 75.6802 15.3862 76.1465 14.1606 76.1465ZM13.9995 68.6758C13.3403 68.6758 12.7837 68.9175 12.3296 69.4009C11.8804 69.8843 11.6069 70.5337 11.5093 71.3491H16.2627V71.2539C16.2383 70.4922 16.021 69.8721 15.6108 69.3936C15.2007 68.915 14.6636 68.6758 13.9995 68.6758ZM22.5029 68.8223C22.3174 68.7881 22.1196 68.771 21.9097 68.771C21.3628 68.771 20.8989 68.9248 20.5181 69.2324C20.1421 69.5352 19.8735 69.9771 19.7124 70.5581V76H18.8408V68.0752H19.6978L19.7124 69.335C20.1763 68.3975 20.9209 67.9287 21.9463 67.9287C22.1904 67.9287 22.3833 67.9604 22.5249 68.0239L22.5029 68.8223ZM24.6929 68.0752L24.7222 69.3643C25.0151 68.8857 25.3813 68.5269 25.8208 68.2876C26.2603 68.0483 26.7485 67.9287 27.2856 67.9287C28.5356 67.9287 29.3291 68.4414 29.666 69.4668C29.9492 68.9736 30.3276 68.5952 30.8013 68.3315C31.2749 68.063 31.7974 67.9287 32.3687 67.9287C34.0679 67.9287 34.9346 68.8564 34.9688 70.7119V76H34.0898V70.7778C34.085 70.0698 33.9312 69.5449 33.6284 69.2031C33.3306 68.8613 32.8423 68.6904 32.1636 68.6904C31.5337 68.7002 31.0015 68.9053 30.5669 69.3057C30.1323 69.7012 29.8906 70.1846 29.8418 70.7559V76H28.9629V70.7119C28.958 70.0332 28.7969 69.5278 28.4795 69.1958C28.167 68.8589 27.6836 68.6904 27.0293 68.6904C26.4775 68.6904 26.0039 68.8491 25.6084 69.1665C25.2129 69.479 24.9199 69.9453 24.7295 70.5654V76H23.8506V68.0752H24.6929ZM42.1978 76C42.1099 75.751 42.0537 75.3823 42.0293 74.894C41.7217 75.2944 41.3286 75.6045 40.8501 75.8242C40.3765 76.0391 39.8735 76.1465 39.3413 76.1465C38.5796 76.1465 37.9619 75.9341 37.4883 75.5093C37.0195 75.0845 36.7852 74.5474 36.7852 73.8979C36.7852 73.1265 37.105 72.5161 37.7446 72.0669C38.3892 71.6177 39.2852 71.3931 40.4326 71.3931H42.022V70.4922C42.022 69.9258 41.8462 69.4814 41.4946 69.1592C41.1479 68.832 40.6401 68.6685 39.9712 68.6685C39.3608 68.6685 38.8555 68.8247 38.4551 69.1372C38.0547 69.4497 37.8545 69.8257 37.8545 70.2651L36.9756 70.2578C36.9756 69.6279 37.2686 69.0835 37.8545 68.6245C38.4404 68.1606 39.1606 67.9287 40.0151 67.9287C40.8989 67.9287 41.5947 68.1509 42.1025 68.5952C42.6152 69.0347 42.8789 69.6499 42.8936 70.4409V74.1909C42.8936 74.9575 42.9741 75.5312 43.1353 75.9121V76H42.1978ZM39.4438 75.3701C40.0298 75.3701 40.5522 75.2285 41.0112 74.9453C41.4751 74.6621 41.812 74.2837 42.022 73.8101V72.0669H40.4546C39.5806 72.0767 38.897 72.2378 38.4038 72.5503C37.9106 72.8579 37.6641 73.2827 37.6641 73.8247C37.6641 74.269 37.8276 74.6377 38.1548 74.9307C38.4868 75.2236 38.9165 75.3701 39.4438 75.3701ZM46.2188 76H45.3398V68.0752H46.2188V76ZM45.186 65.7827C45.186 65.6167 45.2397 65.4775 45.3472 65.3652C45.4546 65.248 45.6011 65.1895 45.7866 65.1895C45.9722 65.1895 46.1187 65.248 46.2261 65.3652C46.3384 65.4775 46.3945 65.6167 46.3945 65.7827C46.3945 65.9487 46.3384 66.0879 46.2261 66.2002C46.1187 66.3125 45.9722 66.3687 45.7866 66.3687C45.6011 66.3687 45.4546 66.3125 45.3472 66.2002C45.2397 66.0879 45.186 65.9487 45.186 65.7827ZM49.4414 68.0752L49.4707 69.4302C49.7686 68.9419 50.1396 68.5708 50.584 68.3169C51.0283 68.0581 51.519 67.9287 52.0562 67.9287C52.9058 67.9287 53.5381 68.168 53.9531 68.6465C54.3682 69.125 54.5781 69.8428 54.583 70.7998V76H53.7114V70.7925C53.7065 70.0845 53.5552 69.5571 53.2573 69.2104C52.9644 68.8638 52.4932 68.6904 51.8438 68.6904C51.3018 68.6904 50.8208 68.8613 50.4009 69.2031C49.9858 69.54 49.6782 69.9966 49.478 70.5728V76H48.6064V68.0752H49.4414ZM61.856 76C61.7681 75.751 61.7119 75.3823 61.6875 74.894C61.3799 75.2944 60.9868 75.6045 60.5083 75.8242C60.0347 76.0391 59.5317 76.1465 58.9995 76.1465C58.2378 76.1465 57.6201 75.9341 57.1465 75.5093C56.6777 75.0845 56.4434 74.5474 56.4434 73.8979C56.4434 73.1265 56.7632 72.5161 57.4028 72.0669C58.0474 71.6177 58.9434 71.3931 60.0908 71.3931H61.6802V70.4922C61.6802 69.9258 61.5044 69.4814 61.1528 69.1592C60.8062 68.832 60.2983 68.6685 59.6294 68.6685C59.019 68.6685 58.5137 68.8247 58.1133 69.1372C57.7129 69.4497 57.5127 69.8257 57.5127 70.2651L56.6338 70.2578C56.6338 69.6279 56.9268 69.0835 57.5127 68.6245C58.0986 68.1606 58.8188 67.9287 59.6733 67.9287C60.5571 67.9287 61.2529 68.1509 61.7607 68.5952C62.2734 69.0347 62.5371 69.6499 62.5518 70.4409V74.1909C62.5518 74.9575 62.6323 75.5312 62.7935 75.9121V76H61.856ZM59.1021 75.3701C59.688 75.3701 60.2104 75.2285 60.6694 74.9453C61.1333 74.6621 61.4702 74.2837 61.6802 73.8101V72.0669H60.1128C59.2388 72.0767 58.5552 72.2378 58.062 72.5503C57.5688 72.8579 57.3223 73.2827 57.3223 73.8247C57.3223 74.269 57.4858 74.6377 57.813 74.9307C58.145 75.2236 58.5747 75.3701 59.1021 75.3701ZM65.7305 68.0752L65.7598 69.4302C66.0576 68.9419 66.4287 68.5708 66.873 68.3169C67.3174 68.0581 67.8081 67.9287 68.3452 67.9287C69.1948 67.9287 69.8271 68.168 70.2422 68.6465C70.6572 69.125 70.8672 69.8428 70.8721 70.7998V76H70.0005V70.7925C69.9956 70.0845 69.8442 69.5571 69.5464 69.2104C69.2534 68.8638 68.7822 68.6904 68.1328 68.6904C67.5908 68.6904 67.1099 68.8613 66.6899 69.2031C66.2749 69.54 65.9673 69.9966 65.7671 70.5728V76H64.8955V68.0752H65.7305Z" fill="#363636"/>
</svg>
