<svg width="116" height="79" viewBox="0 0 116 79" fill="none" xmlns="http://www.w3.org/2000/svg">
<path d="M5.36816 64.3359L9.30127 73.7476L13.249 64.3359H14.4502V75H13.5493V70.3564L13.6226 65.5957L9.65283 75H8.95703L5.00195 65.6323L5.0752 70.3271V75H4.17432V64.3359H5.36816ZM21.9502 75C21.8623 74.751 21.8062 74.3823 21.7817 73.894C21.4741 74.2944 21.0811 74.6045 20.6025 74.8242C20.1289 75.0391 19.626 75.1465 19.0938 75.1465C18.332 75.1465 17.7144 74.9341 17.2407 74.5093C16.772 74.0845 16.5376 73.5474 16.5376 72.8979C16.5376 72.1265 16.8574 71.5161 17.4971 71.0669C18.1416 70.6177 19.0376 70.3931 20.1851 70.3931H21.7744V69.4922C21.7744 68.9258 21.5986 68.4814 21.2471 68.1592C20.9004 67.832 20.3926 67.6685 19.7236 67.6685C19.1133 67.6685 18.6079 67.8247 18.2075 68.1372C17.8071 68.4497 17.6069 68.8257 17.6069 69.2651L16.728 69.2578C16.728 68.6279 17.021 68.0835 17.6069 67.6245C18.1929 67.1606 18.9131 66.9287 19.7676 66.9287C20.6514 66.9287 21.3472 67.1509 21.855 67.5952C22.3677 68.0347 22.6313 68.6499 22.646 69.4409V73.1909C22.646 73.9575 22.7266 74.5312 22.8877 74.9121V75H21.9502ZM19.1963 74.3701C19.7822 74.3701 20.3047 74.2285 20.7637 73.9453C21.2275 73.6621 21.5645 73.2837 21.7744 72.8101V71.0669H20.207C19.333 71.0767 18.6494 71.2378 18.1562 71.5503C17.6631 71.8579 17.4165 72.2827 17.4165 72.8247C17.4165 73.269 17.5801 73.6377 17.9072 73.9307C18.2393 74.2236 18.6689 74.3701 19.1963 74.3701ZM26.8721 71.0083L25.8687 71.9751V75H24.9897V63.75H25.8687V70.9497L26.6963 70.0562L29.7285 67.0752H30.8345L27.4727 70.415L31.1274 75H30.0801L26.8721 71.0083ZM37.3457 75C37.2578 74.751 37.2017 74.3823 37.1772 73.894C36.8696 74.2944 36.4766 74.6045 35.998 74.8242C35.5244 75.0391 35.0215 75.1465 34.4893 75.1465C33.7275 75.1465 33.1099 74.9341 32.6362 74.5093C32.1675 74.0845 31.9331 73.5474 31.9331 72.8979C31.9331 72.1265 32.2529 71.5161 32.8926 71.0669C33.5371 70.6177 34.4331 70.3931 35.5806 70.3931H37.1699V69.4922C37.1699 68.9258 36.9941 68.4814 36.6426 68.1592C36.2959 67.832 35.7881 67.6685 35.1191 67.6685C34.5088 67.6685 34.0034 67.8247 33.603 68.1372C33.2026 68.4497 33.0024 68.8257 33.0024 69.2651L32.1235 69.2578C32.1235 68.6279 32.4165 68.0835 33.0024 67.6245C33.5884 67.1606 34.3086 66.9287 35.1631 66.9287C36.0469 66.9287 36.7427 67.1509 37.2505 67.5952C37.7632 68.0347 38.0269 68.6499 38.0415 69.4409V73.1909C38.0415 73.9575 38.1221 74.5312 38.2832 74.9121V75H37.3457ZM34.5918 74.3701C35.1777 74.3701 35.7002 74.2285 36.1592 73.9453C36.623 73.6621 36.96 73.2837 37.1699 72.8101V71.0669H35.6025C34.7285 71.0767 34.0449 71.2378 33.5518 71.5503C33.0586 71.8579 32.812 72.2827 32.812 72.8247C32.812 73.269 32.9756 73.6377 33.3027 73.9307C33.6348 74.2236 34.0645 74.3701 34.5918 74.3701ZM41.2202 67.0752L41.2495 68.4302C41.5474 67.9419 41.9185 67.5708 42.3628 67.3169C42.8071 67.0581 43.2979 66.9287 43.835 66.9287C44.6846 66.9287 45.3169 67.168 45.7319 67.6465C46.147 68.125 46.3569 68.8428 46.3618 69.7998V75H45.4902V69.7925C45.4854 69.0845 45.334 68.5571 45.0361 68.2104C44.7432 67.8638 44.272 67.6904 43.6226 67.6904C43.0806 67.6904 42.5996 67.8613 42.1797 68.2031C41.7646 68.54 41.457 68.9966 41.2568 69.5728V75H40.3853V67.0752H41.2202ZM53.6348 75C53.5469 74.751 53.4907 74.3823 53.4663 73.894C53.1587 74.2944 52.7656 74.6045 52.2871 74.8242C51.8135 75.0391 51.3105 75.1465 50.7783 75.1465C50.0166 75.1465 49.3989 74.9341 48.9253 74.5093C48.4565 74.0845 48.2222 73.5474 48.2222 72.8979C48.2222 72.1265 48.542 71.5161 49.1816 71.0669C49.8262 70.6177 50.7222 70.3931 51.8696 70.3931H53.459V69.4922C53.459 68.9258 53.2832 68.4814 52.9316 68.1592C52.585 67.832 52.0771 67.6685 51.4082 67.6685C50.7979 67.6685 50.2925 67.8247 49.8921 68.1372C49.4917 68.4497 49.2915 68.8257 49.2915 69.2651L48.4126 69.2578C48.4126 68.6279 48.7056 68.0835 49.2915 67.6245C49.8774 67.1606 50.5977 66.9287 51.4521 66.9287C52.3359 66.9287 53.0317 67.1509 53.5396 67.5952C54.0522 68.0347 54.3159 68.6499 54.3306 69.4409V73.1909C54.3306 73.9575 54.4111 74.5312 54.5723 74.9121V75H53.6348ZM50.8809 74.3701C51.4668 74.3701 51.9893 74.2285 52.4482 73.9453C52.9121 73.6621 53.249 73.2837 53.459 72.8101V71.0669H51.8916C51.0176 71.0767 50.334 71.2378 49.8408 71.5503C49.3477 71.8579 49.1011 72.2827 49.1011 72.8247C49.1011 73.269 49.2646 73.6377 49.5918 73.9307C49.9238 74.2236 50.3535 74.3701 50.8809 74.3701ZM57.5093 67.0752L57.5386 68.4302C57.8364 67.9419 58.2075 67.5708 58.6519 67.3169C59.0962 67.0581 59.5869 66.9287 60.124 66.9287C60.9736 66.9287 61.606 67.168 62.021 67.6465C62.436 68.125 62.646 68.8428 62.6509 69.7998V75H61.7793V69.7925C61.7744 69.0845 61.623 68.5571 61.3252 68.2104C61.0322 67.8638 60.561 67.6904 59.9116 67.6904C59.3696 67.6904 58.8887 67.8613 58.4688 68.2031C58.0537 68.54 57.7461 68.9966 57.5459 69.5728V75H56.6743V67.0752H57.5093ZM72.7583 70.5615H69.6602V75H68.752V64.3359H72.2163C73.354 64.3359 74.2427 64.6118 74.8823 65.1636C75.522 65.7153 75.8418 66.4868 75.8418 67.478C75.8418 68.1616 75.6416 68.7646 75.2412 69.2871C74.8408 69.8096 74.3037 70.1709 73.6299 70.3711L76.2959 74.9048V75H75.3364L72.7583 70.5615ZM69.6602 69.7925H72.4214C73.1782 69.7925 73.7861 69.5776 74.2451 69.1479C74.7041 68.7183 74.9336 68.1616 74.9336 67.478C74.9336 66.7261 74.6943 66.1426 74.2158 65.7275C73.7373 65.3125 73.0659 65.105 72.2017 65.105H69.6602V69.7925ZM79.0718 75H78.1929V67.0752H79.0718V75ZM78.0391 64.7827C78.0391 64.6167 78.0928 64.4775 78.2002 64.3652C78.3076 64.248 78.4541 64.1895 78.6396 64.1895C78.8252 64.1895 78.9717 64.248 79.0791 64.3652C79.1914 64.4775 79.2476 64.6167 79.2476 64.7827C79.2476 64.9487 79.1914 65.0879 79.0791 65.2002C78.9717 65.3125 78.8252 65.3687 78.6396 65.3687C78.4541 65.3687 78.3076 65.3125 78.2002 65.2002C78.0928 65.0879 78.0391 64.9487 78.0391 64.7827ZM82.2944 67.0752L82.3237 68.4302C82.6216 67.9419 82.9927 67.5708 83.437 67.3169C83.8813 67.0581 84.3721 66.9287 84.9092 66.9287C85.7588 66.9287 86.3911 67.168 86.8062 67.6465C87.2212 68.125 87.4312 68.8428 87.436 69.7998V75H86.5645V69.7925C86.5596 69.0845 86.4082 68.5571 86.1104 68.2104C85.8174 67.8638 85.3462 67.6904 84.6968 67.6904C84.1548 67.6904 83.6738 67.8613 83.2539 68.2031C82.8389 68.54 82.5312 68.9966 82.3311 69.5728V75H81.4595V67.0752H82.2944ZM89.355 70.9644C89.355 69.7241 89.6284 68.7427 90.1753 68.02C90.7271 67.2925 91.4741 66.9287 92.4165 66.9287C93.4956 66.9287 94.3159 67.3584 94.8774 68.2178L94.9214 67.0752H95.7417V74.8389C95.7417 75.8594 95.4561 76.6675 94.8848 77.2632C94.3135 77.8589 93.5396 78.1567 92.563 78.1567C92.0112 78.1567 91.4839 78.0322 90.981 77.7832C90.4829 77.5391 90.0898 77.2119 89.8018 76.8018L90.2925 76.2744C90.9126 77.0361 91.6499 77.417 92.5044 77.417C93.2368 77.417 93.8081 77.1997 94.2183 76.7651C94.6284 76.3354 94.8408 75.7373 94.8555 74.9707V73.9746C94.2939 74.7559 93.4761 75.1465 92.4019 75.1465C91.4839 75.1465 90.7466 74.7803 90.1899 74.0479C89.6333 73.3154 89.355 72.3267 89.355 71.0815V70.9644ZM90.2412 71.1182C90.2412 72.1289 90.4438 72.9272 90.8491 73.5132C91.2544 74.0942 91.8257 74.3848 92.563 74.3848C93.6421 74.3848 94.4062 73.9014 94.8555 72.9346V69.2505C94.6504 68.7427 94.355 68.3569 93.9692 68.0933C93.5835 67.8247 93.1196 67.6904 92.5776 67.6904C91.8403 67.6904 91.2666 67.981 90.8564 68.562C90.4463 69.1382 90.2412 69.9902 90.2412 71.1182ZM103.029 75C102.941 74.751 102.885 74.3823 102.861 73.894C102.553 74.2944 102.16 74.6045 101.682 74.8242C101.208 75.0391 100.705 75.1465 100.173 75.1465C99.4111 75.1465 98.7935 74.9341 98.3198 74.5093C97.8511 74.0845 97.6167 73.5474 97.6167 72.8979C97.6167 72.1265 97.9365 71.5161 98.5762 71.0669C99.2207 70.6177 100.117 70.3931 101.264 70.3931H102.854V69.4922C102.854 68.9258 102.678 68.4814 102.326 68.1592C101.979 67.832 101.472 67.6685 100.803 67.6685C100.192 67.6685 99.687 67.8247 99.2866 68.1372C98.8862 68.4497 98.686 68.8257 98.686 69.2651L97.8071 69.2578C97.8071 68.6279 98.1001 68.0835 98.686 67.6245C99.272 67.1606 99.9922 66.9287 100.847 66.9287C101.73 66.9287 102.426 67.1509 102.934 67.5952C103.447 68.0347 103.71 68.6499 103.725 69.4409V73.1909C103.725 73.9575 103.806 74.5312 103.967 74.9121V75H103.029ZM100.275 74.3701C100.861 74.3701 101.384 74.2285 101.843 73.9453C102.307 73.6621 102.644 73.2837 102.854 72.8101V71.0669H101.286C100.412 71.0767 99.7285 71.2378 99.2354 71.5503C98.7422 71.8579 98.4956 72.2827 98.4956 72.8247C98.4956 73.269 98.6592 73.6377 98.9863 73.9307C99.3184 74.2236 99.748 74.3701 100.275 74.3701ZM106.904 67.0752L106.933 68.4302C107.231 67.9419 107.602 67.5708 108.046 67.3169C108.491 67.0581 108.981 66.9287 109.519 66.9287C110.368 66.9287 111 67.168 111.416 67.6465C111.831 68.125 112.041 68.8428 112.045 69.7998V75H111.174V69.7925C111.169 69.0845 111.018 68.5571 110.72 68.2104C110.427 67.8638 109.956 67.6904 109.306 67.6904C108.764 67.6904 108.283 67.8613 107.863 68.2031C107.448 68.54 107.141 68.9966 106.94 69.5728V75H106.069V67.0752H106.904Z" fill="#363636"/>
<path d="M47.3057 6.95953C47.3057 6.53464 47.6499 6.19092 48.0743 6.19092H48.4554L48.1005 5.07912C48.0476 4.88254 48.0753 4.67235 48.177 4.49593C48.279 4.31951 48.4467 4.19037 48.6439 4.13791L52.3557 3.14334C52.767 3.03143 53.1869 3.27608 53.2968 3.68667L54.9915 9.26519C54.9915 8.8403 55.3357 8.49658 55.7601 8.49658H58.0657V6.19098C58.0657 5.76608 58.4099 5.42236 58.8343 5.42236H62.6773L62.6772 4.65387C62.6772 4.22897 63.0213 3.88525 63.4458 3.88525H67.2887C67.5159 3.88525 67.72 3.9837 67.8607 4.14033C67.9362 4.08546 68.0218 4.04429 68.1138 4.01981L71.8255 3.02524C72.0226 2.97413 72.2323 3.00115 72.4087 3.10169C72.5851 3.20369 72.7143 3.37178 72.7667 3.56857L74.0328 8.29392L75.2277 8.98396C75.5954 9.1963 75.7211 9.66634 75.5092 10.034L77.7826 7.26588C78.0378 6.92723 78.5193 6.85833 78.859 7.11423L81.9282 9.42671C82.5 10 82.5 10 82.0798 10.503L78.9601 14.6432C79.8855 15.6 80.3528 16.6909 80.3529 17.7765L78.0472 49.288C78.0172 49.6896 77.6826 50.0003 77.2801 50.0003H48.0744C47.6716 50.0003 47.3373 49.6896 47.3077 49.288L45.002 17.7765C44.9867 17.5634 45.0602 17.3532 45.2059 17.197C45.3511 17.0403 45.5551 16.9517 45.7688 16.9517C46.4968 16.8829 46.8292 17.0707 47.3057 17.7195V6.95953Z" fill="#FDC98D"/>
<g clip-path="url(#clip0)">
<path d="M42.5415 10.8175C42.2968 10.4714 41.8173 10.3882 41.4705 10.6336C39.7775 11.8301 38.8828 13.2433 38.8828 14.7198C38.8828 15.1445 39.227 15.4884 39.6514 15.4884C40.0759 15.4884 40.42 15.1447 40.42 14.7196C40.42 13.5121 41.4737 12.5138 42.3576 11.8886C42.7044 11.6438 42.7865 11.1643 42.5415 10.8175Z" fill="#363636"/>
<path d="M63.598 7.64758C62.9705 7.53196 62.3231 7.43221 61.6735 7.34957C61.2512 7.29925 60.8676 7.59489 60.814 8.0154C60.7608 8.43657 61.0588 8.82161 61.4798 8.87486C62.1016 8.95367 62.7209 9.04971 63.3203 9.15925C63.3673 9.16814 63.4143 9.17197 63.46 9.17197C63.8239 9.17197 64.1471 8.91292 64.2151 8.54229C64.2919 8.12483 64.0154 7.72403 63.598 7.64758Z" fill="#363636"/>
<path d="M72.6801 11.4802C72.3758 11.1845 71.8883 11.192 71.5934 11.4968C71.2976 11.8015 71.3051 12.2878 71.6099 12.5836C72.3335 13.2853 72.7002 14.0035 72.7002 14.7196C72.7002 15.1444 73.0443 15.4882 73.4688 15.4882C73.8932 15.4882 74.2374 15.1445 74.2374 14.7196C74.2373 13.5722 73.7133 12.4822 72.6801 11.4802Z" fill="#363636"/>
<path d="M42.919 3.19107H41.9571C41.5326 3.19107 41.1885 3.53479 41.1885 3.95968V14.7197C41.1885 15.1445 41.5326 15.4883 41.9571 15.4883C42.3815 15.4883 42.7257 15.1446 42.7257 14.7197V4.72818H42.919C43.3435 4.72818 43.6876 4.38446 43.6876 3.95957C43.6876 3.53468 43.3435 3.19107 42.919 3.19107Z" fill="#363636"/>
<path d="M50.3368 12.4697L47.1795 0.686642C47.0697 0.276048 46.6498 0.0314019 46.2384 0.143311L42.5267 1.13788C42.3295 1.19034 42.1618 1.31948 42.0598 1.4959C41.9581 1.67232 41.9304 1.88251 41.9833 2.07908L46.1405 17.594C46.2324 17.9377 46.5426 18.1637 46.8823 18.1637C46.9478 18.1637 47.015 18.1554 47.0816 18.1371C47.4918 18.0275 47.7349 17.6058 47.6249 17.196L43.6668 2.42325L45.8942 1.82667L48.8524 12.8675C48.962 13.2781 49.3826 13.5219 49.7935 13.4108C50.2037 13.3014 50.4467 12.8795 50.3368 12.4697Z" fill="#363636"/>
<path d="M52.3356 5.49683H49.6429C49.2184 5.49683 48.8743 5.84055 48.8743 6.26544V19.4265C48.8743 19.8513 49.2184 20.1952 49.6429 20.1952C50.0673 20.1952 50.4115 19.8514 50.4115 19.4265V7.03394H52.3357C52.7601 7.03394 53.1043 6.69022 53.1043 6.26533C53.1043 5.84043 52.76 5.49683 52.3356 5.49683Z" fill="#363636"/>
<path d="M56.5601 2.42227H52.7171C52.2927 2.42227 51.9485 2.76599 51.9485 3.19088V20.4569C51.9485 20.818 52.2 21.1302 52.5524 21.2074C53.8515 21.4926 55.1996 21.6367 56.5599 21.6367C56.9844 21.6367 57.3286 21.293 57.3286 20.8681V3.19088C57.3286 2.76599 56.9845 2.42227 56.5601 2.42227ZM55.7914 20.083C55.0122 20.0485 54.2413 19.9629 53.4857 19.8271V3.95939H55.7914V20.083Z" fill="#363636"/>
<path d="M61.1715 0.885193H57.3286C56.9041 0.885193 56.5599 1.22891 56.5599 1.65381V18.564C56.5599 18.9887 56.9041 19.3326 57.3286 19.3326C57.753 19.3326 58.0972 18.9889 58.0972 18.564V2.42231H60.4029V11.8951C60.4029 12.3199 60.7471 12.6638 61.1715 12.6638C61.5959 12.6638 61.9401 12.32 61.9401 11.8951V1.65369C61.94 1.22891 61.5959 0.885193 61.1715 0.885193Z" fill="#363636"/>
<path d="M51.3997 19.3009C51.1316 19.2123 50.872 19.1178 50.6201 19.015C50.2264 18.8521 49.7787 19.0427 49.6185 19.436C49.5795 19.5312 49.561 19.6296 49.561 19.7266C49.5614 20.0297 49.7418 20.3164 50.0399 20.4381C50.3226 20.5537 50.6149 20.661 50.9159 20.7601C50.9958 20.7872 51.0769 20.799 51.1568 20.799C51.479 20.799 51.7794 20.5949 51.8864 20.2721C52.0201 19.8698 51.802 19.4352 51.3997 19.3009Z" fill="#363636"/>
<path d="M56.1028 20.0862C54.4515 20.0451 52.8296 19.7746 51.4114 19.3057C51.009 19.173 50.5737 19.3905 50.4405 19.7935C50.307 20.1967 50.5253 20.6313 50.928 20.7648C52.5053 21.288 54.2337 21.577 56.0637 21.6235C56.0706 21.6235 56.077 21.6235 56.0837 21.6235C56.4991 21.6235 56.8411 21.2917 56.8513 20.8744C56.8623 20.4496 56.5269 20.0975 56.1028 20.0862Z" fill="#363636"/>
<path d="M61.9153 20.0476L61.6523 19.3255C61.5543 19.3578 61.457 19.3908 61.3569 19.4207C61.3566 19.4207 61.3566 19.4207 61.3562 19.4207C61.3562 19.4207 61.3558 19.4207 61.3554 19.4207C60.9488 19.5429 60.7184 19.9716 60.8404 20.3776C60.9405 20.711 61.2456 20.9255 61.5764 20.9255C61.6496 20.9255 61.724 20.915 61.7975 20.8932C61.9117 20.8589 62.0219 20.822 62.1325 20.7853C62.1352 20.7845 62.1374 20.7837 62.1396 20.783L61.9153 20.0476Z" fill="#363636"/>
<path d="M64.3264 18.9679L63.867 18.3472L63.7041 18.4432C63.4526 18.5835 63.3107 18.8456 63.3112 19.1149C63.3112 19.2417 63.3427 19.37 63.4091 19.4886C63.5502 19.7409 63.8115 19.8819 64.0804 19.8819C64.2077 19.8819 64.3363 19.8504 64.4553 19.7836L64.6592 19.6642L64.3264 18.9679Z" fill="#363636"/>
<path d="M63.4251 19.4725C63.2663 19.0799 62.821 18.8879 62.4269 19.0462L62.1099 19.167C61.7129 19.3163 61.5117 19.76 61.661 20.1569C61.7768 20.4655 62.0697 20.6553 62.3804 20.6553C62.4704 20.6553 62.5616 20.6396 62.651 20.6067L62.7238 20.5789C62.8176 20.5435 62.9106 20.509 63.0022 20.4715C63.3942 20.3124 63.5837 19.8651 63.4251 19.4725Z" fill="#363636"/>
<path d="M64.1526 19.1056C63.9699 18.7221 63.5109 18.5599 63.1281 18.743L62.8935 18.8474C62.608 18.9749 62.4383 19.2557 62.4379 19.5491C62.4379 19.6543 62.4598 19.7609 62.5051 19.8621C62.6326 20.148 62.9134 20.3177 63.2071 20.3177C63.3119 20.3177 63.4185 20.2965 63.5204 20.2511L63.7901 20.1303C64.0666 19.9983 64.2279 19.7227 64.2276 19.4361C64.2277 19.3249 64.2037 19.2124 64.1526 19.1056Z" fill="#363636"/>
<path d="M47.9302 17.378C47.9288 17.3766 47.9277 17.375 47.9261 17.3736C47.9253 17.3728 47.9246 17.372 47.9239 17.3712C47.8758 17.327 47.8279 17.2826 47.7809 17.2385C47.7254 17.1858 47.6714 17.1318 47.6202 17.0778C47.6199 17.077 47.6199 17.077 47.6195 17.077C47.6191 17.0762 47.6187 17.0762 47.6187 17.0762C47.3293 16.7647 46.8434 16.7483 46.5327 17.038C46.2224 17.3267 46.2047 17.8125 46.4937 18.1232C46.4941 18.1239 46.4945 18.1239 46.4945 18.1239C46.4948 18.1247 46.4948 18.1247 46.4953 18.1247C46.5451 18.1788 46.5973 18.2313 46.6517 18.2846C46.7276 18.3588 46.8067 18.4323 46.8859 18.5052C46.8862 18.5059 46.8866 18.5059 46.887 18.5059C46.887 18.5067 46.8873 18.5067 46.8878 18.5067C47.0346 18.6426 47.2196 18.7095 47.4039 18.7095C47.611 18.7095 47.8175 18.6255 47.9695 18.461C48.2554 18.1509 48.2353 17.6668 47.9302 17.378Z" fill="#363636"/>
<path d="M50.5789 18.998C50.5785 18.998 50.5785 18.998 50.5785 18.998C50.5778 18.9972 50.5774 18.9972 50.5766 18.9972C50.3395 18.899 50.1086 18.7968 49.8873 18.6872C49.5053 18.498 49.0457 18.6549 48.8579 19.0361C48.8039 19.1451 48.7783 19.2613 48.7783 19.3754C48.7781 19.6585 48.9353 19.9317 49.2066 20.0652C49.4592 20.1898 49.7211 20.307 49.9916 20.418C50.0877 20.4577 50.1871 20.4766 50.2847 20.4766C50.5863 20.4766 50.8726 20.298 50.9954 20.0014C51.1576 19.6097 50.971 19.1601 50.5789 18.998Z" fill="#363636"/>
<path d="M48.4789 17.8334C48.3427 17.7322 48.2078 17.6292 48.0836 17.522C48.0814 17.5206 48.0796 17.5184 48.0773 17.5168C47.756 17.2391 47.2711 17.2721 46.993 17.5927C46.8669 17.7383 46.8051 17.9176 46.8047 18.0955C46.8044 18.3108 46.8941 18.5247 47.0693 18.6771C47.2234 18.8114 47.3907 18.9397 47.5615 19.0665C47.6993 19.1685 47.8598 19.2182 48.019 19.2182C48.2539 19.2182 48.4857 19.1107 48.6364 18.9082C48.8899 18.5673 48.8192 18.0862 48.4789 17.8334Z" fill="#363636"/>
<path d="M49.1095 18.2596C49.0263 18.2077 48.9436 18.1568 48.8629 18.1049C48.7754 18.048 48.69 17.991 48.607 17.9323C48.2617 17.686 47.7817 17.7686 47.5363 18.1131C47.2905 18.4584 47.3709 18.938 47.7158 19.1841C47.8053 19.2485 47.8982 19.3109 47.9926 19.3725C48.0954 19.4391 48.2001 19.5052 48.3067 19.5698C48.4316 19.6463 48.5697 19.6824 48.7059 19.6824C48.9643 19.6824 49.2174 19.5517 49.3621 19.3156C49.5834 18.9538 49.4705 18.4809 49.1095 18.2596Z" fill="#363636"/>
<path d="M49.8088 18.647C49.6035 18.5442 49.4037 18.4375 49.2139 18.325C48.8479 18.1104 48.377 18.2312 48.1611 18.5958C48.0883 18.7188 48.0541 18.8533 48.0541 18.9861C48.0541 19.2495 48.1892 19.5054 48.4317 19.6487C48.6508 19.7779 48.8813 19.901 49.118 20.0204C49.2287 20.0759 49.3464 20.1022 49.4625 20.1022C49.744 20.1022 50.015 19.9475 50.1502 19.6789C50.2057 19.5679 50.232 19.45 50.232 19.3344C50.2321 19.0529 50.0771 18.7819 49.8088 18.647Z" fill="#363636"/>
<path d="M47.4735 16.9023L47.4207 16.8408C47.3857 16.8003 47.3509 16.7597 47.3175 16.7192C47.291 16.6869 47.265 16.6539 47.2406 16.6208C46.9894 16.2785 46.5087 16.2042 46.1669 16.4542C45.8246 16.7049 45.7495 17.1853 45.9999 17.5282C46.0274 17.5659 46.0565 17.6033 46.0885 17.6432C46.15 17.7204 46.2199 17.8022 46.3047 17.9006C46.4567 18.0784 46.6717 18.1693 46.8886 18.1693C47.0651 18.1693 47.2426 18.1086 47.3873 17.9854C47.7097 17.7098 47.7483 17.2258 47.4735 16.9023Z" fill="#363636"/>
<path d="M69.1106 5.98375L67.5926 5.10717C67.2245 4.89405 66.7543 5.02093 66.5425 5.38863C66.3305 5.75644 66.4563 6.22637 66.824 6.4387L67.6764 6.93092L60.3059 19.6966C59.3794 19.9046 58.4141 20.0321 57.423 20.0794L64.3759 8.03661C64.5877 7.6688 64.4621 7.19887 64.0944 6.98654C63.7255 6.77342 63.2567 6.90109 63.0443 7.268L55.4219 20.4704C55.2865 20.7054 55.2847 20.9944 55.4175 21.2307C55.5505 21.4678 55.7982 21.6165 56.0695 21.6233L56.2376 21.6285C56.3442 21.6329 56.4513 21.6367 56.56 21.6367C58.0922 21.6367 59.5825 21.461 60.9885 21.115C61.192 21.0654 61.3661 20.9347 61.4708 20.7531L69.392 7.03382C69.6039 6.66612 69.4783 6.19608 69.1106 5.98375Z" fill="#363636"/>
<path d="M47.1087 16.4121L47.0524 16.325C47.0165 16.2695 46.9792 16.214 46.9485 16.157C46.7481 15.7832 46.2831 15.6412 45.9079 15.8432C45.6495 15.9813 45.5022 16.2469 45.5027 16.5216C45.5027 16.644 45.5321 16.7677 45.594 16.8835C45.6451 16.9787 45.7049 17.0719 45.7656 17.1649L45.8129 17.2378C45.9592 17.4683 46.2077 17.5936 46.4617 17.5936C46.6027 17.5936 46.7458 17.5547 46.8734 17.4735C47.1036 17.3264 47.2293 17.0779 47.2293 16.8242C47.2292 16.6831 47.1901 16.5396 47.1087 16.4121Z" fill="#363636"/>
<path d="M67.3933 14.5267C66.9711 14.4592 66.5794 14.7436 66.5113 15.1624L66.4849 15.2932C66.4736 15.3456 66.4684 15.3981 66.4684 15.4492C66.4684 15.8019 66.7197 16.1075 67.0819 16.1839C67.133 16.1945 67.1839 16.1997 67.2342 16.1997C67.5931 16.1997 67.9188 15.9378 67.9964 15.5735C68.0081 15.5188 68.0197 15.4639 68.0287 15.4084C68.0354 15.3666 68.0385 15.3252 68.0385 15.2839C68.0387 14.9141 67.7704 14.5882 67.3933 14.5267Z" fill="#363636"/>
<path d="M46.8384 15.9085L46.7873 15.7959C46.7704 15.76 46.7523 15.7238 46.7392 15.6864C46.5984 15.2856 46.1589 15.0716 45.7593 15.2158C45.4428 15.3268 45.2448 15.6233 45.2448 15.9407C45.2448 16.0255 45.2592 16.1109 45.2883 16.1951C45.3183 16.28 45.3555 16.3632 45.3942 16.4459L45.4287 16.5209C45.5544 16.8107 45.8371 16.9832 46.1338 16.9832C46.2358 16.9832 46.3399 16.9631 46.4397 16.9194C46.7295 16.7941 46.9024 16.511 46.9024 16.2138C46.9022 16.1119 46.8821 16.0084 46.8384 15.9085Z" fill="#363636"/>
<path d="M65.5758 18.1175C65.3297 17.7722 64.8501 17.6927 64.5037 17.9381L64.2932 18.0814C63.9413 18.3171 63.8464 18.7929 64.081 19.1456C64.229 19.3686 64.4728 19.4886 64.7216 19.4886C64.8669 19.4886 65.0141 19.4473 65.1444 19.3619C65.2295 19.3056 65.3146 19.2485 65.3969 19.19C65.6068 19.0399 65.7186 18.8042 65.7189 18.5648C65.7191 18.4097 65.6726 18.2534 65.5758 18.1175Z" fill="#363636"/>
<path d="M46.6593 15.3811L46.6112 15.2055C46.5376 14.7881 46.1403 14.5149 45.7222 14.5825C45.3486 14.6478 45.0859 14.9722 45.0859 15.3384C45.0859 15.3827 45.0898 15.4278 45.0976 15.4727C45.1105 15.5456 45.1295 15.6176 45.1656 15.7429C45.251 16.095 45.5653 16.3307 45.9117 16.3307C45.9716 16.3307 46.0325 16.3239 46.0936 16.3088C46.4452 16.2239 46.6814 15.9088 46.6809 15.5627C46.6809 15.5028 46.6743 15.4419 46.6593 15.3811Z" fill="#363636"/>
<path d="M66.1076 17.548L65.5041 17.0699L65.4151 17.1668C65.2691 17.3161 65.1959 17.5097 65.1959 17.7035C65.1959 17.9031 65.2728 18.1027 65.4271 18.2535C65.5767 18.3999 65.7704 18.4727 65.9644 18.4727C66.164 18.4727 66.3633 18.3955 66.5142 18.2416C66.5615 18.1935 66.606 18.144 66.6789 18.0622L66.1076 17.548Z" fill="#363636"/>
<path d="M67.8977 15.8563C67.8973 15.5343 67.6929 15.2342 67.3704 15.1275C66.9653 14.9932 66.5319 15.2123 66.3992 15.6154C66.398 15.6184 66.3575 15.7421 66.3567 15.7445C66.3225 15.8346 66.3064 15.9261 66.3064 16.017C66.3064 16.3269 66.4959 16.6197 66.8032 16.7359C66.893 16.7697 66.9848 16.7855 67.0753 16.7855C67.3855 16.7855 67.6777 16.5962 67.7942 16.2893C67.813 16.2399 67.8292 16.1903 67.845 16.1408L67.1288 15.857L67.8584 16.0987C67.885 16.0184 67.8977 15.9366 67.8977 15.8563Z" fill="#363636"/>
<path d="M66.0667 17.687C65.806 17.3611 65.3027 17.3275 64.9709 17.5804C64.9634 17.5858 64.9033 17.6331 64.8959 17.6391C64.7183 17.7845 64.6305 17.988 64.6305 18.1959C64.6305 18.3669 64.6895 18.541 64.8069 18.6889C64.9539 18.8751 65.1783 18.9689 65.4062 18.9689C65.5807 18.9689 65.757 18.9134 65.9021 18.8039L65.9943 18.7302C66.1654 18.5853 66.2488 18.3895 66.2491 18.1876C66.2491 18.0143 66.1876 17.8371 66.0667 17.687Z" fill="#363636"/>
<path d="M66.962 16.4221C66.6159 16.176 66.1356 16.2554 65.8902 16.6023L65.7858 16.7382C65.6794 16.8756 65.6283 17.0354 65.6283 17.1945C65.6283 17.4226 65.7341 17.6486 65.9311 17.8025C66.0677 17.9089 66.2308 17.9593 66.3939 17.9593C66.6301 17.9593 66.8659 17.8529 67.0206 17.6553C67.0623 17.6013 67.1036 17.5487 67.1422 17.4939C67.2383 17.3588 67.2847 17.2035 67.2847 17.0496C67.2851 16.8087 67.173 16.5721 66.962 16.4221Z" fill="#363636"/>
<path d="M67.1909 15.8871C66.8205 15.6867 66.3447 15.8442 66.1408 16.2128C66.0763 16.3292 66.0459 16.4537 66.0463 16.5769C66.0463 16.8374 66.1836 17.0903 66.4258 17.2344C66.5463 17.3064 66.6794 17.3402 66.8116 17.3402C67.0699 17.3402 67.3239 17.2111 67.472 16.9797C67.484 16.9609 67.5087 16.9198 67.5189 16.9001C67.5773 16.7891 67.6048 16.672 67.6048 16.5572C67.6043 16.2864 67.4512 16.0274 67.1909 15.8871Z" fill="#363636"/>
<path d="M69.0541 9.54288L66.6496 0.568452C66.5972 0.371654 66.468 0.203566 66.2916 0.101564C66.1152 0.00102671 65.9054 -0.0259935 65.7084 0.0251198L61.9966 1.01969C61.7995 1.07215 61.6317 1.20129 61.5297 1.37771C61.4281 1.55413 61.4004 1.76432 61.4533 1.96089L64.6024 13.7139C64.6943 14.0576 65.0045 14.2836 65.3442 14.2836C65.41 14.2836 65.4772 14.2754 65.5435 14.2571C65.9537 14.1476 66.1968 13.7258 66.0868 13.316L63.1367 2.30518L65.364 1.70859L67.5697 9.94076C67.6795 10.3506 68.0986 10.5944 68.5107 10.4841C68.9209 10.3744 69.164 9.95269 69.0541 9.54288Z" fill="#363636"/>
<path d="M76.1098 6.9335C76.0812 6.73231 75.974 6.55003 75.811 6.42687L72.7419 4.11439C72.4022 3.85848 71.9207 3.92738 71.6655 4.26604L59.8171 19.9888C59.6234 20.2455 59.6107 20.5959 59.7844 20.8668C59.9278 21.0897 60.1732 21.2195 60.431 21.2195C60.4857 21.2195 60.5413 21.2136 60.5968 21.2016C64.7456 20.2861 67.5561 18.0914 68.0208 15.4884H69.5624C69.8038 15.4884 70.0311 15.3751 70.1763 15.1822L75.9627 7.50317C76.085 7.34026 76.1382 7.13536 76.1098 6.9335ZM69.1788 13.9509H67.32C66.8956 13.9509 66.5514 14.2946 66.5514 14.7195C66.5514 16.4165 64.9772 18.0212 62.4639 19.03L72.4307 5.80439L74.2722 7.1921L69.1788 13.9509Z" fill="#363636"/>
<path d="M74.0319 14.1968C73.8867 14.04 73.6825 13.9515 73.4689 13.9515H67.3203C66.8959 13.9515 66.5517 14.2952 66.5517 14.7201C66.5517 17.6361 61.9764 20.1002 56.5602 20.1002C51.144 20.1002 46.5687 17.6362 46.5687 14.7201C46.5687 14.2953 46.2245 13.9515 45.8001 13.9515H39.6516C39.4379 13.9515 39.2339 14.0401 39.0887 14.1968C38.943 14.3531 38.8695 14.5633 38.8848 14.7763L41.1905 46.2879C41.2201 46.6894 41.5544 47.0002 41.9572 47.0002H71.163C71.5654 47.0002 71.9 46.6894 71.93 46.2879L74.2357 14.7763C74.2511 14.563 74.1775 14.3528 74.0319 14.1968ZM70.4484 45.4629H42.6715L40.478 15.4885H45.0987C45.717 18.9928 50.5291 21.6371 56.5601 21.6371C62.5911 21.6371 67.403 18.9928 68.0215 15.4885H72.642L70.4484 45.4629Z" fill="#363636"/>
<path d="M56.5601 27.0168C52.7461 27.0168 49.6429 30.1195 49.6429 33.934C49.6429 37.7485 52.7461 40.8512 56.5601 40.8512C60.374 40.8512 63.4773 37.7485 63.4773 33.934C63.4773 30.1195 60.3741 27.0168 56.5601 27.0168ZM56.5601 39.3141C53.5936 39.3141 51.1801 36.9004 51.1801 33.934C51.1801 30.9676 53.5935 28.5539 56.5601 28.5539C59.5267 28.5539 61.9402 30.9676 61.9402 33.934C61.9402 36.9004 59.5266 39.3141 56.5601 39.3141Z" fill="#363636"/>
</g>
<defs>
<clipPath id="clip0">
<rect width="47" height="47" fill="white" transform="translate(34)"/>
</clipPath>
</defs>
</svg>
