<svg width="24" height="26" viewBox="0 0 24 26" fill="none" xmlns="http://www.w3.org/2000/svg">
<path d="M1 9.55556L0.69303 9.16088C0.571236 9.25561 0.5 9.40126 0.5 9.55556H1ZM12 1L12.307 0.605324C12.1264 0.464892 11.8736 0.464892 11.693 0.605324L12 1ZM1 25.4444H0.5C0.5 25.7206 0.723858 25.9444 1 25.9444V25.4444ZM8.33337 25.4444V25.9444C8.60952 25.9444 8.83337 25.7206 8.83337 25.4444H8.33337ZM8.33337 13.2227V12.7227C8.05723 12.7227 7.83337 12.9465 7.83337 13.2227H8.33337ZM15.6667 13.2227H16.1667C16.1667 12.9465 15.9428 12.7227 15.6667 12.7227V13.2227ZM15.6667 25.4444H15.1667C15.1667 25.7206 15.3906 25.9444 15.6667 25.9444V25.4444ZM23 25.4444V25.9444C23.2761 25.9444 23.5 25.7206 23.5 25.4444H23ZM23 9.55556H23.5C23.5 9.40126 23.4288 9.25561 23.307 9.16088L23 9.55556ZM1.30697 9.95023L12.307 1.39468L11.693 0.605324L0.69303 9.16088L1.30697 9.95023ZM1.5 23V9.55556H0.5V23H1.5ZM1.5 25.4444V23H0.5V25.4444H1.5ZM8.33337 24.9444H1V25.9444H8.33337V24.9444ZM8.83337 25.4444V13.2227H7.83337V25.4444H8.83337ZM8.33337 13.7227H15.6667V12.7227H8.33337V13.7227ZM15.1667 13.2227V25.4444H16.1667V13.2227H15.1667ZM23 24.9444H15.6667V25.9444H23V24.9444ZM22.5 23V25.4444H23.5V23H22.5ZM22.5 9.55556V23H23.5V9.55556H22.5ZM11.693 1.39468L22.693 9.95023L23.307 9.16088L12.307 0.605324L11.693 1.39468Z" fill="black"/>
</svg>
