<svg width="161" height="69" viewBox="0 0 161 69" fill="none" xmlns="http://www.w3.org/2000/svg">
<path d="M9.85172 65.12C8.81172 65.12 7.81172 64.9533 6.85172 64.62C5.90505 64.2867 5.17172 63.8467 4.65172 63.3L5.23172 62.16C5.73838 62.6667 6.41172 63.08 7.25172 63.4C8.09172 63.7067 8.95838 63.86 9.85172 63.86C11.105 63.86 12.045 63.6333 12.6717 63.18C13.2984 62.7133 13.6117 62.1133 13.6117 61.38C13.6117 60.82 13.4384 60.3733 13.0917 60.04C12.7584 59.7067 12.345 59.4533 11.8517 59.28C11.3584 59.0933 10.6717 58.8933 9.79172 58.68C8.73838 58.4133 7.89838 58.16 7.27172 57.92C6.64505 57.6667 6.10505 57.2867 5.65172 56.78C5.21172 56.2733 4.99172 55.5867 4.99172 54.72C4.99172 54.0133 5.17838 53.3733 5.55172 52.8C5.92505 52.2133 6.49838 51.7467 7.27172 51.4C8.04505 51.0533 9.00505 50.88 10.1517 50.88C10.9517 50.88 11.7317 50.9933 12.4917 51.22C13.265 51.4333 13.9317 51.7333 14.4917 52.12L13.9917 53.3C13.405 52.9133 12.7784 52.6267 12.1117 52.44C11.445 52.24 10.7917 52.14 10.1517 52.14C8.92505 52.14 7.99838 52.38 7.37172 52.86C6.75838 53.3267 6.45172 53.9333 6.45172 54.68C6.45172 55.24 6.61838 55.6933 6.95172 56.04C7.29838 56.3733 7.72505 56.6333 8.23172 56.82C8.75172 56.9933 9.44505 57.1867 10.3117 57.4C11.3384 57.6533 12.165 57.9067 12.7917 58.16C13.4317 58.4 13.9717 58.7733 14.4117 59.28C14.8517 59.7733 15.0717 60.4467 15.0717 61.3C15.0717 62.0067 14.8784 62.6533 14.4917 63.24C14.1184 63.8133 13.5384 64.2733 12.7517 64.62C11.965 64.9533 10.9984 65.12 9.85172 65.12ZM20.6564 65.1C19.6164 65.1 18.6831 64.8733 17.8564 64.42C17.0431 63.9667 16.4031 63.3333 15.9364 62.52C15.4697 61.6933 15.2364 60.7667 15.2364 59.74C15.2364 58.7133 15.4697 57.7933 15.9364 56.98C16.4031 56.1667 17.0431 55.5333 17.8564 55.08C18.6831 54.6267 19.6164 54.4 20.6564 54.4C21.5631 54.4 22.3697 54.58 23.0764 54.94C23.7964 55.2867 24.3631 55.8 24.7764 56.48L23.7164 57.2C23.3697 56.68 22.9297 56.2933 22.3964 56.04C21.8631 55.7733 21.2831 55.64 20.6564 55.64C19.8964 55.64 19.2097 55.8133 18.5964 56.16C17.9964 56.4933 17.5231 56.9733 17.1764 57.6C16.8431 58.2267 16.6764 58.94 16.6764 59.74C16.6764 60.5533 16.8431 61.2733 17.1764 61.9C17.5231 62.5133 17.9964 62.9933 18.5964 63.34C19.2097 63.6733 19.8964 63.84 20.6564 63.84C21.2831 63.84 21.8631 63.7133 22.3964 63.46C22.9297 63.2067 23.3697 62.82 23.7164 62.3L24.7764 63.02C24.3631 63.7 23.7964 64.22 23.0764 64.58C22.3564 64.9267 21.5497 65.1 20.6564 65.1ZM31.0697 54.4C32.3897 54.4 33.4364 54.7867 34.2097 55.56C34.9964 56.32 35.3897 57.4333 35.3897 58.9V65H33.9697V59.04C33.9697 57.9467 33.6964 57.1133 33.1497 56.54C32.603 55.9667 31.823 55.68 30.8097 55.68C29.6764 55.68 28.7764 56.02 28.1097 56.7C27.4564 57.3667 27.1297 58.2933 27.1297 59.48V65H25.7097V50.16H27.1297V56.32C27.5164 55.7067 28.0497 55.2333 28.7297 54.9C29.4097 54.5667 30.1897 54.4 31.0697 54.4ZM41.8839 65.1C40.8706 65.1 39.9572 64.8733 39.1439 64.42C38.3306 63.9533 37.6906 63.3133 37.2239 62.5C36.7572 61.6867 36.5239 60.7667 36.5239 59.74C36.5239 58.7133 36.7572 57.7933 37.2239 56.98C37.6906 56.1667 38.3306 55.5333 39.1439 55.08C39.9572 54.6267 40.8706 54.4 41.8839 54.4C42.8972 54.4 43.8106 54.6267 44.6239 55.08C45.4372 55.5333 46.0706 56.1667 46.5239 56.98C46.9906 57.7933 47.2239 58.7133 47.2239 59.74C47.2239 60.7667 46.9906 61.6867 46.5239 62.5C46.0706 63.3133 45.4372 63.9533 44.6239 64.42C43.8106 64.8733 42.8972 65.1 41.8839 65.1ZM41.8839 63.84C42.6306 63.84 43.2972 63.6733 43.8839 63.34C44.4839 62.9933 44.9506 62.5067 45.2839 61.88C45.6172 61.2533 45.7839 60.54 45.7839 59.74C45.7839 58.94 45.6172 58.2267 45.2839 57.6C44.9506 56.9733 44.4839 56.4933 43.8839 56.16C43.2972 55.8133 42.6306 55.64 41.8839 55.64C41.1372 55.64 40.4639 55.8133 39.8639 56.16C39.2772 56.4933 38.8106 56.9733 38.4639 57.6C38.1306 58.2267 37.9639 58.94 37.9639 59.74C37.9639 60.54 38.1306 61.2533 38.4639 61.88C38.8106 62.5067 39.2772 62.9933 39.8639 63.34C40.4639 63.6733 41.1372 63.84 41.8839 63.84ZM52.723 65.1C51.7096 65.1 50.7963 64.8733 49.983 64.42C49.1696 63.9533 48.5296 63.3133 48.063 62.5C47.5963 61.6867 47.363 60.7667 47.363 59.74C47.363 58.7133 47.5963 57.7933 48.063 56.98C48.5296 56.1667 49.1696 55.5333 49.983 55.08C50.7963 54.6267 51.7096 54.4 52.723 54.4C53.7363 54.4 54.6496 54.6267 55.463 55.08C56.2763 55.5333 56.9096 56.1667 57.363 56.98C57.8296 57.7933 58.063 58.7133 58.063 59.74C58.063 60.7667 57.8296 61.6867 57.363 62.5C56.9096 63.3133 56.2763 63.9533 55.463 64.42C54.6496 64.8733 53.7363 65.1 52.723 65.1ZM52.723 63.84C53.4696 63.84 54.1363 63.6733 54.723 63.34C55.323 62.9933 55.7896 62.5067 56.123 61.88C56.4563 61.2533 56.623 60.54 56.623 59.74C56.623 58.94 56.4563 58.2267 56.123 57.6C55.7896 56.9733 55.323 56.4933 54.723 56.16C54.1363 55.8133 53.4696 55.64 52.723 55.64C51.9763 55.64 51.303 55.8133 50.703 56.16C50.1163 56.4933 49.6496 56.9733 49.303 57.6C48.9696 58.2267 48.803 58.94 48.803 59.74C48.803 60.54 48.9696 61.2533 49.303 61.88C49.6496 62.5067 50.1163 62.9933 50.703 63.34C51.303 63.6733 51.9763 63.84 52.723 63.84ZM59.262 50.16H60.682V65H59.262V50.16ZM71.7731 54.48L66.5131 66.26C66.0865 67.2467 65.5931 67.9467 65.0331 68.36C64.4731 68.7733 63.7998 68.98 63.0131 68.98C62.5065 68.98 62.0331 68.9 61.5931 68.74C61.1531 68.58 60.7731 68.34 60.4531 68.02L61.1131 66.96C61.6465 67.4933 62.2865 67.76 63.0331 67.76C63.5131 67.76 63.9198 67.6267 64.2531 67.36C64.5998 67.0933 64.9198 66.64 65.2131 66L65.6731 64.98L60.9731 54.48H62.4531L66.4131 63.42L70.3731 54.48H71.7731Z" fill="#2F2B29"/>
<path d="M83.4217 65.24C82.315 65.24 81.2417 65.0933 80.2017 64.8C79.175 64.4933 78.3484 64.1 77.7217 63.62L78.8217 61.18C79.4217 61.62 80.135 61.9733 80.9617 62.24C81.7884 62.5067 82.615 62.64 83.4417 62.64C84.3617 62.64 85.0417 62.5067 85.4817 62.24C85.9217 61.96 86.1417 61.5933 86.1417 61.14C86.1417 60.8067 86.0084 60.5333 85.7417 60.32C85.4884 60.0933 85.155 59.9133 84.7417 59.78C84.3417 59.6467 83.795 59.5 83.1017 59.34C82.035 59.0867 81.1617 58.8333 80.4817 58.58C79.8017 58.3267 79.215 57.92 78.7217 57.36C78.2417 56.8 78.0017 56.0533 78.0017 55.12C78.0017 54.3067 78.2217 53.5733 78.6617 52.92C79.1017 52.2533 79.7617 51.7267 80.6417 51.34C81.535 50.9533 82.6217 50.76 83.9017 50.76C84.795 50.76 85.6684 50.8667 86.5217 51.08C87.375 51.2933 88.1217 51.6 88.7617 52L87.7617 54.46C86.4684 53.7267 85.175 53.36 83.8817 53.36C82.975 53.36 82.3017 53.5067 81.8617 53.8C81.435 54.0933 81.2217 54.48 81.2217 54.96C81.2217 55.44 81.4684 55.8 81.9617 56.04C82.4684 56.2667 83.235 56.4933 84.2617 56.72C85.3284 56.9733 86.2017 57.2267 86.8817 57.48C87.5617 57.7333 88.1417 58.1333 88.6217 58.68C89.115 59.2267 89.3617 59.9667 89.3617 60.9C89.3617 61.7 89.135 62.4333 88.6817 63.1C88.2417 63.7533 87.575 64.2733 86.6817 64.66C85.7884 65.0467 84.7017 65.24 83.4217 65.24ZM96.8803 53.64H92.4003V51H104.6V53.64H100.12V65H96.8803V53.64ZM115.528 65.24C114.075 65.24 112.762 64.9267 111.588 64.3C110.428 63.6733 109.515 62.8133 108.848 61.72C108.195 60.6133 107.868 59.3733 107.868 58C107.868 56.6267 108.195 55.3933 108.848 54.3C109.515 53.1933 110.428 52.3267 111.588 51.7C112.762 51.0733 114.075 50.76 115.528 50.76C116.982 50.76 118.288 51.0733 119.448 51.7C120.608 52.3267 121.522 53.1933 122.188 54.3C122.855 55.3933 123.188 56.6267 123.188 58C123.188 59.3733 122.855 60.6133 122.188 61.72C121.522 62.8133 120.608 63.6733 119.448 64.3C118.288 64.9267 116.982 65.24 115.528 65.24ZM115.528 62.48C116.355 62.48 117.102 62.2933 117.768 61.92C118.435 61.5333 118.955 61 119.328 60.32C119.715 59.64 119.908 58.8667 119.908 58C119.908 57.1333 119.715 56.36 119.328 55.68C118.955 55 118.435 54.4733 117.768 54.1C117.102 53.7133 116.355 53.52 115.528 53.52C114.702 53.52 113.955 53.7133 113.288 54.1C112.622 54.4733 112.095 55 111.708 55.68C111.335 56.36 111.148 57.1333 111.148 58C111.148 58.8667 111.335 59.64 111.708 60.32C112.095 61 112.622 61.5333 113.288 61.92C113.955 62.2933 114.702 62.48 115.528 62.48ZM137.143 65L134.443 61.1H134.283H131.463V65H128.223V51H134.283C135.523 51 136.597 51.2067 137.503 51.62C138.423 52.0333 139.13 52.62 139.623 53.38C140.117 54.14 140.363 55.04 140.363 56.08C140.363 57.12 140.11 58.02 139.603 58.78C139.11 59.5267 138.403 60.1 137.483 60.5L140.623 65H137.143ZM137.083 56.08C137.083 55.2933 136.83 54.6933 136.323 54.28C135.817 53.8533 135.077 53.64 134.103 53.64H131.463V58.52H134.103C135.077 58.52 135.817 58.3067 136.323 57.88C136.83 57.4533 137.083 56.8533 137.083 56.08ZM156.37 62.4V65H145.53V51H156.11V53.6H148.75V56.64H155.25V59.16H148.75V62.4H156.37Z" fill="#F09832"/>
<path d="M92.3873 41.4999C92.3873 41.7492 84.1422 41.9513 73.9713 41.9513C63.8005 41.9513 55.5554 41.7492 55.5554 41.4999C55.5554 41.2506 68.8559 40.5972 79.0267 40.5972C89.1975 40.5972 92.3873 41.2506 92.3873 41.4999Z" fill="#F09832"/>
<ellipse cx="56.2687" cy="38.4834" rx="3.1596" ry="3.15967" fill="#2F2B29"/>
<ellipse cx="78.4758" cy="38.4834" rx="3.1596" ry="3.15967" fill="#2F2B29"/>
<path d="M103.13 7.71403C96.4494 6.50039 93.4898 14.3794 93.1287 14.8308L90.4654 13.7018C96.9669 -1.13405 113.484 4.71376 107.553 15.207C106.379 17.2833 103.942 15.8647 104.754 14.8308C105.567 13.7969 107.571 8.52085 103.13 7.71403Z" fill="#2F2B29"/>
<path d="M60.9694 3.42637C58.9554 4.37964 57.2731 8.00686 57.2013 10.0735C57.0158 15.418 59.9573 20.3492 63.4252 22.3472C71.3321 26.9026 83.6087 24.261 89.8193 11.991C90.2096 11.22 89.1937 10.5575 88.6771 11.22C81.9415 21.8308 59.6551 24.4994 62.1109 6.74801C62.3601 4.94679 63.3287 2.30968 60.9694 3.42637Z" fill="url(#paint0_linear)"/>
<path d="M57.1903 3.54796C54.9257 4.56532 52.9748 8.56278 52.8517 10.8591C52.5332 16.7976 55.7086 22.3427 59.532 24.6375C68.2494 29.8696 81.9875 27.1919 89.166 13.6805C90.2675 11.7543 89.4248 9.9622 88.052 12.0326C80.3231 23.6881 55.2851 26.9507 58.3932 7.26533C58.7085 5.26787 59.8432 2.3562 57.1903 3.54796Z" fill="url(#paint1_linear)"/>
<path d="M52.2969 4.08743C49.7692 5.38211 47.7832 9.14289 47.7832 12.6637C47.7832 19.4344 51.7553 25.5447 56.269 27.9204C66.5602 33.3369 82.1085 29.455 89.4899 13.6567C90.6315 11.3998 89.5578 9.41378 88.1146 11.8512C77.6728 30.0117 51.3127 31.0047 53.6598 8.4357C53.898 6.14563 55.2579 2.57079 52.2969 4.08743Z" fill="url(#paint2_linear)"/>
<path d="M52.7767 3.00431C52.0545 3.00431 51.0314 3.75661 50.6101 4.08763C36.0761 23.5873 71.8044 48.6089 90.762 13.0401C91.9733 11.9315 93.7411 13.3109 93.1285 14.9208C85.3643 30.1774 73.7196 34.9791 63.4283 33.8788C49.0747 32.3441 45.4637 23.4067 44.2902 16.5457C43.1166 9.68475 45.7349 4.2682 47.9917 2.3724C50.2486 0.476603 53.6593 0.130554 53.9302 1.2139C53.9979 1.4847 53.6794 3.00431 52.7767 3.00431Z" fill="#2F2B29"/>
<path fill-rule="evenodd" clip-rule="evenodd" d="M47.783 12.664C47.783 9.14322 49.6171 5.11149 52.1448 3.8168C52.5465 3.7309 52.988 3.64215 53.4607 3.5526C53.2502 2.946 52.6916 2.76571 51.4616 3.41211C48.8112 4.80495 46.7287 8.85086 46.7288 12.6386C46.7288 19.9226 50.8937 26.4961 55.6266 29.0519C66.4175 34.8792 82.7207 30.7029 90.4605 13.7069C91.4743 11.6506 90.822 9.80328 89.6792 10.8788C90.076 11.274 90.1128 12.4252 89.4897 13.6571C82.1084 29.4553 66.5601 33.3373 56.2688 27.9207C51.7551 25.545 47.7831 19.4347 47.783 12.664Z" fill="white"/>
<defs>
<linearGradient id="paint0_linear" x1="63.9507" y1="15.32" x2="60.5202" y2="20.8268" gradientUnits="userSpaceOnUse">
<stop stop-color="#F5BD7C"/>
<stop offset="1" stop-color="#FFEEE4"/>
</linearGradient>
<linearGradient id="paint1_linear" x1="58.0825" y1="26.0629" x2="63.0478" y2="18.3895" gradientUnits="userSpaceOnUse">
<stop stop-color="#FFE8DB"/>
<stop offset="1" stop-color="#E8A659"/>
</linearGradient>
<linearGradient id="paint2_linear" x1="58.3541" y1="20.6455" x2="53.9305" y2="27.9578" gradientUnits="userSpaceOnUse">
<stop stop-color="#F09832"/>
<stop offset="1" stop-color="#FDC789"/>
</linearGradient>
</defs>
</svg>
