<svg width="566" height="308" viewBox="0 0 566 308" fill="none" xmlns="http://www.w3.org/2000/svg">
<path d="M497.879 252.58H89.5532C80.2195 252.58 72.5781 244.935 72.5781 235.597V16.9823C72.5781 7.6446 80.2195 0 89.5532 0H497.879C507.213 0 514.855 7.6446 514.855 16.9823V235.649C514.803 244.935 507.213 252.58 497.879 252.58Z" fill="#363636"/>
<path d="M476.77 230.381H97.8807C94.4959 230.381 91.7266 227.61 91.7266 224.224V30.4924C91.7266 27.1062 94.4959 24.3357 97.8807 24.3357H476.77C480.154 24.3357 482.924 27.1062 482.924 30.4924V224.224C482.924 227.61 480.154 230.381 476.77 230.381Z" fill="white"/>
<path d="M500.802 159.357H496.956C495.315 159.357 493.981 158.023 493.981 156.381V95.6857C493.981 94.0439 495.315 92.71 496.956 92.71H500.802C502.443 92.71 503.777 94.0439 503.777 95.6857V156.381C503.726 158.023 502.392 159.357 500.802 159.357Z" fill="#FF8000"/>
<path d="M195.643 60.7976C195.335 56.8983 198.31 54.0251 202.72 53.9738C209.49 53.8199 216.259 54.0252 223.029 53.8712C227.183 53.7686 229.644 55.6156 231.029 59.4123C232.773 64.1837 234.824 68.8013 236.311 73.6754C237.388 77.2155 239.337 78.139 242.927 78.139C284.211 78.0364 325.444 78.0877 366.676 78.0877C368.164 78.0877 369.702 78.0364 371.241 78.139C376.523 78.5494 379.241 82.0896 377.651 87.2202C371.702 106.768 365.548 126.213 359.497 145.709C358.009 150.583 354.266 151.455 349.906 151.455C324.059 151.404 298.212 151.609 272.313 151.609H266.774C268.621 160.28 268.621 160.947 277.288 160.947C298.93 160.947 320.572 160.844 342.214 160.896C350.317 160.896 356.676 164.179 360.574 171.413C364.112 178.032 363.804 184.702 359.907 191.166C355.342 198.606 346.163 202.094 337.906 199.683C329.393 197.22 323.597 189.576 323.495 180.802C323.495 178.853 323.7 176.544 323.854 174.389H284.98C284.673 178.75 284.878 182.393 283.955 186.036C281.852 194.296 274.518 199.939 266.21 200.299C257.441 200.658 249.748 195.784 246.671 187.78C243.645 179.93 245.594 170.9 252.312 165.77C255.646 163.256 255.543 161.203 254.261 157.817C243.184 129.188 232.157 100.508 221.285 71.7257C220.003 68.3395 218.413 67.0056 214.772 67.3134C210.772 67.6726 206.669 67.4673 202.618 67.3647C198.464 67.2108 196.002 64.9533 195.643 60.7976Z" fill="#FEC684"/>
<path d="M253.953 119.081C256.158 125.597 258.158 130.368 260.312 135.602C260.671 136.422 262.005 137.346 262.928 137.346C269.954 137.5 277.031 137.295 284.724 137.295C284.16 130.676 283.647 125.546 283.185 119.03C273.236 119.081 263.902 119.081 253.953 119.081Z" fill="white"/>
<path d="M274.263 112.616C277.032 112.616 279.75 112.616 282.776 112.616C282.109 105.023 281.596 98.5586 281.032 92.0427C268.365 92.0427 256.262 92.0427 243.39 92.0427C245.749 97.4299 248.005 103.484 249.851 109.076C250.775 111.898 252.364 112.668 255.082 112.616C261.493 112.411 267.904 112.616 274.263 112.616Z" fill="white"/>
<path d="M291.545 137.5C300.11 137.5 308.161 137.5 316.675 137.5C317.188 130.984 317.649 125.597 318.162 119.081C308.674 119.081 299.546 119.081 290.109 119.081C290.571 125.597 291.032 130.984 291.545 137.5Z" fill="white"/>
<path d="M289.341 109.333C289.495 110.462 291.546 112.155 292.828 112.206C300.213 112.463 307.649 112.206 315.086 112.36C317.957 112.411 318.932 111.334 319.086 108.615C319.393 103.227 319.804 97.4299 320.265 91.9915C309.29 91.9915 298.777 91.9915 287.956 91.9915C288.366 97.4299 288.623 103.689 289.341 109.333Z" fill="white"/>
<path d="M325.546 112.257C335.136 112.257 344.06 112.36 353.034 112.155C354.265 112.103 356.163 110.769 356.573 109.589C358.573 103.894 360.214 98.5073 362.06 92.0427C350.009 92.0427 338.675 92.0427 327.033 92.0427C326.52 98.5073 326.059 105.382 325.546 112.257Z" fill="white"/>
<path d="M323.445 137.449C331.292 137.449 338.369 137.551 345.395 137.398C346.369 137.398 347.959 136.628 348.216 135.91C350.113 130.471 351.703 124.468 353.447 119.081C343.549 119.081 334.471 119.081 324.933 119.081C324.471 125.597 324.009 130.933 323.445 137.449Z" fill="white"/>
<path d="M258.929 180.699C259.134 184.342 261.237 186.6 264.93 186.959C268.263 187.318 271.494 184.086 271.494 180.494C271.032 177.159 269.237 174.799 265.442 174.543C261.904 174.337 258.724 177.262 258.929 180.699Z" fill="white" stroke="#FEC684" stroke-miterlimit="10"/>
<path d="M343.395 187.01C347.088 186.651 349.191 184.445 349.447 180.802C349.652 177.365 346.524 174.44 342.985 174.543C339.241 174.902 337.19 177.108 336.934 180.7C336.729 184.086 340.113 187.318 343.395 187.01Z" fill="white" stroke="#FEC684" stroke-miterlimit="10"/>
<path d="M318.644 125.814H282.284C279.412 125.814 277.053 123.453 277.053 120.58V113.808C277.053 110.935 279.412 108.575 282.284 108.575H318.644C321.516 108.575 323.875 110.935 323.875 113.808V120.58C323.875 123.453 321.516 125.814 318.644 125.814Z" fill="#363636" stroke="#282727" stroke-miterlimit="10"/>
<path d="M314.179 51.2035C314.179 58.5403 308.23 64.4405 300.947 64.4405C293.614 64.4405 287.716 58.489 287.716 51.2035C287.716 43.918 293.665 37.9666 300.947 37.9666C308.23 37.9666 314.179 43.918 314.179 51.2035Z" fill="#FEA621"/>
<path d="M302.435 43.8669H299.409V58.5405H302.435V43.8669Z" fill="white"/>
<path d="M308.231 49.7158H293.563V52.7429H308.231V49.7158Z" fill="white"/>
<path d="M292.577 114.412C293.279 114.412 293.916 114.576 294.487 114.903C295.067 115.221 295.521 115.675 295.848 116.265C296.176 116.845 296.34 117.524 296.34 118.301C296.34 119.078 296.176 119.761 295.849 120.351C295.521 120.931 295.067 121.385 294.487 121.712C293.916 122.031 293.279 122.19 292.577 122.19C291.538 122.19 290.747 121.862 290.204 121.207L290.205 122.078H288.113L288.112 111.66H290.303L290.303 115.324C290.855 114.716 291.613 114.412 292.577 114.412ZM292.198 120.393C292.76 120.393 293.218 120.206 293.574 119.831C293.939 119.447 294.122 118.937 294.122 118.301C294.122 117.664 293.939 117.159 293.574 116.784C293.218 116.401 292.76 116.209 292.198 116.209C291.636 116.209 291.173 116.401 290.808 116.784C290.452 117.159 290.275 117.664 290.275 118.301C290.275 118.937 290.452 119.447 290.808 119.831C291.173 120.206 291.637 120.393 292.198 120.393Z" fill="white"/>
<path d="M305.416 114.524L305.416 122.078H303.338L303.338 121.179C303.048 121.507 302.701 121.759 302.299 121.937C301.896 122.106 301.461 122.19 300.993 122.19C300.001 122.19 299.215 121.904 298.634 121.333C298.054 120.762 297.764 119.915 297.764 118.792L297.764 114.524H299.954L299.954 118.469C299.954 119.686 300.464 120.294 301.485 120.294C302.009 120.294 302.43 120.126 302.748 119.789C303.066 119.443 303.225 118.933 303.225 118.259L303.225 114.524H305.416Z" fill="white"/>
<path d="M314.942 114.524L311.53 122.541C311.184 123.411 310.754 124.024 310.239 124.38C309.733 124.736 309.12 124.914 308.4 124.914C308.007 124.914 307.618 124.853 307.234 124.731C306.851 124.609 306.537 124.441 306.294 124.226L307.094 122.667C307.262 122.817 307.454 122.934 307.67 123.018C307.894 123.102 308.114 123.145 308.329 123.145C308.629 123.145 308.872 123.07 309.059 122.92C309.247 122.78 309.415 122.541 309.565 122.204L309.593 122.134L306.321 114.524H308.582L310.702 119.649L312.836 114.524H314.942Z" fill="white"/>
<path d="M521.008 260.584H448.594C436.594 260.584 426.85 250.835 426.85 238.83V238.368C426.85 226.362 436.594 216.614 448.594 216.614H521.008C533.008 216.614 542.752 226.362 542.752 238.368V238.83C542.701 250.835 533.008 260.584 521.008 260.584Z" fill="#FEA621"/>
<path d="M524.547 239.086C514.751 244.473 500.648 243.96 484.75 243.96C437.004 243.96 436.645 230.415 433.312 226.414C430.696 229.595 429.209 233.494 429.209 237.752V238.163C429.209 248.732 438.697 257.3 450.338 257.3H519.213C530.906 257.3 540.342 248.732 540.342 238.163V237.752C540.342 235.495 539.881 233.289 539.111 231.288C534.65 234.52 529.521 236.316 524.547 239.086Z" fill="#FF8000"/>
<path d="M461.312 228.311C464.697 228.311 467.518 230.569 467.518 233.801C467.518 237.084 465.774 238.418 463.774 239.034V239.188C466.082 239.701 468.031 241.189 468.031 244.78C468.031 248.372 465.107 250.732 461.518 250.732H446.389V228.311H461.312ZM453.62 233.236V237.033H458.594C459.517 237.033 460.235 236.263 460.235 235.289V234.981C460.235 234.057 459.466 233.236 458.594 233.236H453.62ZM453.62 241.651V245.499H459.107C460.03 245.499 460.748 244.729 460.748 243.754V243.446C460.748 242.472 460.03 241.702 459.107 241.702H453.62V241.651Z" fill="url(#paint0_linear)"/>
<path d="M493.211 241.702C493.211 247.91 489.108 251.143 482.082 251.143C475.056 251.143 470.902 247.91 470.902 241.702V228.312H478.082V241.6C478.082 244.011 479.364 245.756 482.031 245.756C484.647 245.756 486.031 244.011 486.031 241.6V228.312H493.211V241.702Z" fill="url(#paint1_linear)"/>
<path d="M511.982 242.011V250.733H504.802V242.011L495.93 228.26H504.186L508.494 235.751H508.648L512.956 228.26H520.803L511.982 242.011Z" fill="url(#paint2_linear)"/>
<path d="M462.543 227.337C465.928 227.337 468.748 229.595 468.748 232.827C468.748 236.11 467.005 237.444 465.004 238.06V238.214C467.312 238.727 469.261 240.215 469.261 243.806C469.261 247.398 466.338 249.758 462.748 249.758H447.619V227.337H462.543ZM454.799 232.263V236.059H459.774C460.697 236.059 461.415 235.29 461.415 234.315V234.007C461.415 233.083 460.645 232.263 459.774 232.263H454.799ZM454.799 240.728V244.576H460.286C461.209 244.576 461.927 243.806 461.927 242.832V242.524C461.927 241.549 461.209 240.779 460.286 240.779H454.799V240.728Z" fill="#FAF7F5"/>
<path d="M494.442 240.728C494.442 246.936 490.34 250.168 483.314 250.168C476.288 250.168 472.134 246.936 472.134 240.728V227.337H479.314V240.625C479.314 243.037 480.596 244.781 483.263 244.781C485.878 244.781 487.263 243.037 487.263 240.625V227.337H494.442V240.728Z" fill="#FAF7F5"/>
<path d="M513.161 241.087V249.809H505.982V241.087L497.109 227.337H505.366L509.674 234.828H509.828L514.136 227.337H521.982L513.161 241.087Z" fill="#FAF7F5"/>
<path d="M547.419 226.208L549.316 229.697L562.65 223.335L557.727 216.922L547.419 226.208Z" fill="#FF8000"/>
<path d="M552.394 236.264V239.599L565.215 242.831V234.52L552.394 236.264Z" fill="#FF8000"/>
<path d="M548.189 247.295L547.317 249.758L557.164 259.301L561.267 252.631L548.189 247.295Z" fill="#FF8000"/>
<path d="M423.876 226.568L421.875 230.262L406.9 223.797L411.003 216.717L423.876 226.568Z" fill="#FF8000"/>
<path d="M419.003 237.342V241.292L401.105 244.678L400.233 234.725L419.003 237.342Z" fill="#FF8000"/>
<path d="M423.003 248.372L424.951 250.425L415.669 262.789L410.592 255.606L423.003 248.372Z" fill="#FF8000"/>
<path d="M422.337 210.765L429.312 218.41L432.132 215.639C432.132 215.639 429.26 205.635 429.312 205.635L422.337 210.765Z" fill="#FF8000"/>
<path d="M429.721 257.3L423.875 264.021L428.901 268.125L432.132 259.66L429.721 257.3Z" fill="#FF8000"/>
<path d="M540.906 207.379L538.649 215.383L540.803 217.64L547.419 210.765L540.906 207.379Z" fill="#FF8000"/>
<path d="M540.086 257.351L541.984 255.915L548.035 261.712L544.086 265.098L540.086 257.351Z" fill="#FF8000"/>
<path d="M494.597 221.283C494.597 222.155 488.905 222.873 481.93 222.873C474.955 222.873 469.263 222.155 469.263 221.283C469.263 220.411 474.955 219.692 481.93 219.692C488.905 219.692 494.597 220.359 494.597 221.283Z" fill="#F1806D"/>
<path d="M506.854 221.488C506.854 222.258 505.264 222.874 503.315 222.874C501.366 222.874 499.776 222.258 499.776 221.488C499.776 220.719 501.366 220.103 503.315 220.103C505.264 220.103 506.854 220.719 506.854 221.488Z" fill="#F1806D"/>
<path d="M524.187 221.488C524.187 222.258 521.213 222.874 517.572 222.874C513.93 222.874 510.956 222.258 510.956 221.488C510.956 220.719 513.93 220.103 517.572 220.103C521.264 220.103 524.187 220.719 524.187 221.488Z" fill="#F1806D"/>
<path d="M538.394 255.504L517.162 248.372L513.777 269.356L523.162 264.072L530.24 283.517L542.24 276.745L528.291 261.199L538.394 255.504Z" fill="#F6E316"/>
<path d="M50.2185 89.6828L48.0133 125.135L22.3711 122.519C22.3711 122.519 28.0636 99.5849 30.6791 92.3507C31.91 88.9132 37.4487 88.0923 41.295 88.0923C44.5259 88.1436 50.2185 89.6828 50.2185 89.6828Z" fill="#FEA621"/>
<path d="M82.5782 175.056L30.422 174.184L2.93364 219.795C0.471996 223.899 1.75409 229.235 5.80555 231.749L50.8332 259.608L57.1925 250.271L25.909 223.232C25.1398 222.565 25.0372 221.437 25.7039 220.667C30.1656 215.434 45.8586 196.81 51.1409 189.832L58.8336 190.345L64.7313 298.498H75.86C75.86 298.498 83.7577 216.306 83.3988 197.477C84.3732 188.344 82.5782 175.056 82.5782 175.056Z" fill="#1A1A1A"/>
<path d="M38.0639 122.057L26.9865 116.157C26.9865 116.157 33.8586 122.467 33.2432 132.062C32.8329 138.064 46.0643 152.225 38.3716 150.48C34.5253 149.608 22.0119 124.622 18.4733 121.031C15.0372 117.542 3.95978 115.746 4.16492 121.031C4.37006 126.315 12.7294 124.622 13.191 127.188C13.6525 129.804 22.576 160.177 41.4999 166.847C55.1929 171.67 51.6542 162.281 52.2184 154.585C52.7312 146.889 38.0639 122.057 38.0639 122.057Z" fill="#F5E0B7"/>
<path d="M35.3462 178.904L76.425 178.134C79.9123 178.442 83.3484 181.213 83.3484 168.95L88.323 101.226C88.6307 97.7376 86.1177 94.6593 82.6304 94.3514L42.885 88.3999C36.1155 88.1947 31.5512 94.1462 31.2435 97.5837L29.6537 172.029C29.2947 175.466 31.8589 178.545 35.3462 178.904Z" fill="#FEA621"/>
<path d="M57.0183 72.6488L54.0342 92.4341L66.7117 94.3478L69.6958 74.5626L57.0183 72.6488Z" fill="#F5E0B7"/>
<path d="M48.8844 71.3664C50.5768 79.8319 58.7823 85.373 67.2955 83.6799C75.7575 81.9868 81.2962 73.7778 79.6038 65.261C77.9114 56.7955 69.7059 51.2545 61.1927 52.9476C52.7308 54.6407 47.1921 62.9009 48.8844 71.3664Z" fill="#F5E0B7"/>
<path d="M79.8084 70.1351C79.8084 65.5176 82.8855 52.5372 69.1926 50.0232C59.2947 48.2275 58.628 50.3823 52.9867 47.9196C46.73 45.1491 48.8327 42.5838 48.3199 42.1221C47.3455 41.3525 45.2428 43.9178 44.4735 48.3814C43.7556 52.5885 44.6787 58.1808 50.2687 61.4644C55.8587 64.748 61.8589 62.4392 67.8592 64.5428C73.8595 66.6463 68.7823 72.5978 68.6285 74.1883C68.4746 75.7788 72.4748 77.5232 73.244 74.5988C75.1416 67.6212 79.8084 70.1351 79.8084 70.1351Z" fill="black"/>
<path d="M40.3714 127.906L5.39546 130.471C3.34409 130.625 1.54914 129.086 1.39529 127.034L0.0106034 107.845C-0.14325 105.793 1.39529 103.997 3.44666 103.843L38.4226 101.278C40.474 101.124 42.2689 102.663 42.4228 104.715L43.8075 123.904C43.9613 125.956 42.4228 127.752 40.3714 127.906Z" fill="#363636"/>
<path d="M50.9369 87.5275C52.0651 93.2738 57.6552 97.0191 63.4503 95.8904C69.1941 94.7617 72.9379 89.1693 71.8096 83.3717C70.6814 77.6255 65.0914 73.8801 59.2962 75.0089C53.5011 76.1889 49.7574 81.7813 50.9369 87.5275Z" fill="#F5E0B7"/>
<path d="M87.2962 124.417C87.2962 124.417 75.3469 127.547 74.8854 128.829C74.4238 130.112 57.859 151.25 53.5511 146.941C43.3455 136.731 33.704 122.621 29.0884 119.44C24.1138 116.054 15.6006 114.72 13.0877 117.696C10.5748 120.723 12.9851 123.801 17.293 123.288C21.6009 122.724 25.037 123.801 26.0114 125.341C27.0371 126.88 41.4992 163.82 53.0895 165.359C60.7309 166.386 84.9884 146.068 87.2962 124.417Z" fill="#F5E0B7"/>
<path d="M50.8327 259.659L57.1919 250.322L64.3717 255.196L51.4481 274.179C50.5762 275.41 47.4992 273.923 47.653 272.435L50.8327 259.659Z" fill="#CCCCCC"/>
<path d="M65.0391 298.396H76.3216V307.066H53.3975C51.859 307.066 51.3462 303.68 52.6796 302.91L65.0391 298.396Z" fill="#CCCCCC"/>
<defs>
<linearGradient id="paint0_linear" x1="446.394" y1="239.519" x2="468.035" y2="239.519" gradientUnits="userSpaceOnUse">
<stop stop-color="#E0543B"/>
<stop offset="0.9679" stop-color="#EB8F7F"/>
</linearGradient>
<linearGradient id="paint1_linear" x1="470.906" y1="239.715" x2="493.231" y2="239.715" gradientUnits="userSpaceOnUse">
<stop stop-color="#E0543B"/>
<stop offset="0.9679" stop-color="#EB8F7F"/>
</linearGradient>
<linearGradient id="paint2_linear" x1="495.876" y1="239.519" x2="520.742" y2="239.519" gradientUnits="userSpaceOnUse">
<stop stop-color="#E0543B"/>
<stop offset="0.9679" stop-color="#EB8F7F"/>
</linearGradient>
</defs>
</svg>
