<svg width="479" height="296" viewBox="0 0 479 296" fill="none" xmlns="http://www.w3.org/2000/svg">
<path d="M283.782 224L288.13 217L293.565 224L297.913 217L303.347 224L308.782 217" stroke="#F5AC57" stroke-opacity="0.75" stroke-width="2" stroke-linecap="round" stroke-linejoin="round"/>
<path d="M283.782 217L288.13 210L293.565 217L297.913 210L303.347 217L308.782 210" stroke="#F5AC57" stroke-opacity="0.75" stroke-width="2" stroke-linecap="round" stroke-linejoin="round"/>
<mask id="mask0" mask-type="alpha" maskUnits="userSpaceOnUse" x="253" y="48" width="83" height="83">
<path d="M253.783 102.891L307.546 49.0002" stroke="black"/>
<path d="M256.862 105.963L310.625 52.0727" stroke="black"/>
<path d="M259.94 109.035L313.704 55.1447" stroke="black"/>
<path d="M263.021 112.107L316.784 58.2167" stroke="black"/>
<path d="M266.101 115.18L319.864 61.289" stroke="black"/>
<path d="M269.18 118.252L322.943 64.3612" stroke="black"/>
<path d="M272.259 121.324L326.022 67.4333" stroke="black"/>
<path d="M275.339 124.396L329.102 70.5053" stroke="black"/>
<path d="M278.418 127.469L332.181 73.5778" stroke="black"/>
<path d="M281.498 130.541L335.261 76.6501" stroke="black"/>
</mask>
<g mask="url(#mask0)">
<circle cx="294.136" cy="89.3862" r="20.1182" transform="rotate(-45.0679 294.136 89.3862)" fill="#F5AC57" fill-opacity="0.75"/>
</g>
<circle cx="156.282" cy="149.5" r="90.5" fill="#FFF6E3"/>
<path d="M109.782 88.5444C112.321 86.787 113.197 84.1499 116.282 84.0444C119.53 83.9332 120.044 88.2703 123.282 88.5444C127.025 88.8611 128.072 83.4586 131.782 84.0444C134.675 84.5012 134.853 88.5444 137.782 88.5444C140.711 88.5444 140.861 84.2555 143.782 84.0444C147.024 83.81 147.544 88.2703 150.782 88.5444C154.525 88.8611 156.282 84.0444 156.282 84.0444" stroke="#F5AC57" stroke-opacity="0.75" stroke-width="2"/>
<path d="M109.782 94.5444C112.321 92.787 113.197 90.1499 116.282 90.0444C119.53 89.9332 120.044 94.2703 123.282 94.5444C127.025 94.8611 128.072 89.4586 131.782 90.0444C134.675 90.5012 134.853 94.5444 137.782 94.5444C140.711 94.5444 140.861 90.2555 143.782 90.0444C147.024 89.81 147.544 94.2703 150.782 94.5444C154.525 94.8611 156.282 90.0444 156.282 90.0444" stroke="#F5AC57" stroke-opacity="0.75" stroke-width="2"/>
<path d="M109.782 106.544C112.321 104.787 113.197 102.15 116.282 102.044C119.53 101.933 120.044 106.27 123.282 106.544C127.025 106.861 128.072 101.459 131.782 102.044C134.675 102.501 134.853 106.544 137.782 106.544C140.711 106.544 140.861 102.256 143.782 102.044C147.024 101.81 147.544 106.27 150.782 106.544C154.525 106.861 156.282 102.044 156.282 102.044" stroke="#F5AC57" stroke-opacity="0.75" stroke-width="2"/>
<path d="M109.782 100.544C112.321 98.787 113.197 96.1499 116.282 96.0444C119.53 95.9332 120.044 100.27 123.282 100.544C127.025 100.861 128.072 95.4586 131.782 96.0444C134.675 96.5012 134.853 100.544 137.782 100.544C140.711 100.544 140.861 96.2555 143.782 96.0444C147.024 95.81 147.544 100.27 150.782 100.544C154.525 100.861 156.282 96.0444 156.282 96.0444" stroke="#F5AC57" stroke-opacity="0.75" stroke-width="2"/>
<path d="M59.8449 151.069C61.8862 144.212 70.2585 141.654 75.7832 146.2L87.171 155.571C89.0269 157.098 91.3707 157.906 93.7733 157.846L108.516 157.48C115.669 157.302 120.688 164.475 118.072 171.134L112.679 184.86C111.8 187.097 111.756 189.575 112.556 191.842L117.46 205.75C119.839 212.498 114.569 219.488 107.427 219.058L92.7061 218.17C90.3071 218.026 87.9362 218.75 86.0275 220.21L74.3154 229.172C68.6333 233.52 60.3567 230.668 58.5592 223.743L54.8542 209.468C54.2504 207.142 52.8289 205.111 50.8501 203.747L38.7075 195.377C32.8167 191.317 32.9715 182.564 39.0023 178.715L51.4333 170.78C53.4592 169.487 54.9515 167.507 55.6372 165.204L59.8449 151.069Z" fill="#FEC684"/>
<path d="M69.1621 142.367C71.0568 136.589 78.2304 134.611 82.8184 138.603L95.1136 149.3C97.1987 151.115 99.8675 152.117 102.631 152.125L118.929 152.168C125.01 152.184 129.108 158.396 126.729 163.993L120.355 178.992C119.273 181.535 119.145 184.383 119.992 187.014L124.987 202.528C126.851 208.316 122.209 214.133 116.151 213.6L99.9163 212.172C97.1631 211.93 94.4147 212.688 92.1743 214.307L78.9639 223.851C74.0344 227.412 67.0685 224.796 65.7031 218.869L62.0439 202.988C61.4233 200.295 59.8535 197.915 57.6218 196.284L44.4624 186.67C39.552 183.082 39.8881 175.649 45.1023 172.519L59.0756 164.131C61.4454 162.708 63.2235 160.48 64.0846 157.854L69.1621 142.367Z" stroke="#363636" stroke-width="3"/>
<ellipse cx="73.5073" cy="174.937" rx="1.79656" ry="4.87638" transform="rotate(-15.4111 73.5073 174.937)" fill="#363636"/>
<path d="M67.2881 172.657C68.4713 171.799 71.1006 169.104 72.1524 165.193M92.0573 159.174C94.0647 160.662 98.7724 163.446 101.544 162.682" stroke="#363636" stroke-width="2" stroke-linecap="round"/>
<ellipse cx="95.7749" cy="168.798" rx="1.79656" ry="4.87638" transform="rotate(-15.4111 95.7749 168.798)" fill="#363636"/>
<path d="M86.488 195.952C86.3516 195.457 98.4927 190.246 98.6545 191.799C98.8182 192.393 98.4098 192.843 98.1851 192.993" stroke="#363636" stroke-width="2" stroke-linecap="round"/>
<path d="M397.793 149.934C403.335 145.409 411.697 147.999 413.712 154.864L420.602 178.337C421.279 180.643 422.764 182.628 424.785 183.929L445.355 197.17C451.371 201.043 451.492 209.796 445.586 213.834L425.39 227.64C423.406 228.997 421.977 231.022 421.364 233.346L415.127 257.001C413.303 263.92 405.016 266.74 399.35 262.37L379.979 247.43C378.076 245.962 375.708 245.228 373.309 245.364L348.884 246.742C341.741 247.145 336.497 240.135 338.902 233.397L347.126 210.357C347.934 208.093 347.899 205.614 347.029 203.374L338.171 180.571C335.58 173.902 340.627 166.749 347.779 166.954L372.232 167.655C374.635 167.724 376.981 166.925 378.843 165.405L397.793 149.934Z" fill="#FEC684"/>
<path d="M385.418 145.133C390.129 141.287 397.237 143.489 398.95 149.324L405.84 172.797C406.618 175.449 408.325 177.732 410.649 179.228L431.22 192.47C436.333 195.761 436.436 203.202 431.416 206.634L411.22 220.44C408.939 222 407.295 224.329 406.59 227.002L400.354 250.657C398.803 256.537 391.759 258.935 386.943 255.22L367.572 240.28C365.384 238.592 362.66 237.748 359.901 237.904L335.476 239.282C329.404 239.625 324.948 233.666 326.992 227.939L335.215 204.899C336.144 202.296 336.105 199.445 335.104 196.869L326.246 174.065C324.044 168.397 328.333 162.317 334.412 162.491L358.866 163.192C361.629 163.271 364.328 162.353 366.468 160.605L385.418 145.133Z" stroke="#363636" stroke-width="3"/>
<ellipse cx="365.792" cy="184.324" rx="2.21458" ry="6.01101" transform="rotate(17.2064 365.792 184.324)" fill="#363636"/>
<path d="M359.283 179C361.782 176.5 368.282 177 370.861 173.308M395.527 180.284C399.782 182.5 399.66 189.181 403.045 190.229" stroke="#363636" stroke-width="2" stroke-linecap="round"/>
<ellipse cx="392.993" cy="192.747" rx="2.21458" ry="6.01101" transform="rotate(17.2064 392.993 192.747)" fill="#363636"/>
<path d="M380.281 216.849C380.258 216.217 366.563 213.5 364.563 215.5" stroke="#363636" stroke-width="2" stroke-linecap="round"/>
<path d="M242.616 38.6187C246.612 34.0351 253.989 35.0095 256.659 40.4736L278.422 85.0153C279.635 87.4986 281.702 89.4619 284.245 90.5457L329.848 109.986C335.442 112.371 336.795 119.688 332.423 123.915L296.787 158.377C294.8 160.298 293.571 162.871 293.326 165.624L288.93 215.002C288.39 221.06 281.849 224.608 276.478 221.756L232.691 198.513C230.249 197.217 227.423 196.844 224.729 197.461L176.409 208.539C170.481 209.898 165.085 204.773 166.137 198.783L174.712 149.957C175.19 147.235 174.672 144.431 173.252 142.06L147.785 99.5276C144.661 94.31 147.867 87.5951 153.889 86.7446L202.975 79.8113C205.712 79.4248 208.218 78.0655 210.035 75.9824L242.616 38.6187Z" fill="white" stroke="#363636" stroke-width="3"/>
<ellipse cx="217.365" cy="112.056" rx="3.5" ry="9.5" transform="rotate(7.52433 217.365 112.056)" fill="#363636"/>
<path d="M207.937 103.246C210.712 102.604 217.475 99.7649 222.331 93.5472M262.614 97.8592C265.086 102.052 271.418 110.622 276.97 111.355" stroke="#363636" stroke-width="2" stroke-linecap="round"/>
<ellipse cx="261.977" cy="117.949" rx="3.5" ry="9.5" transform="rotate(7.52433 261.977 117.949)" fill="#363636"/>
<path d="M224.7 159.616C224.831 158.624 250.569 158.494 249.681 161.402C249.524 162.592 248.449 163.089 247.932 163.189" stroke="#363636" stroke-width="2" stroke-linecap="round"/>
<path d="M145.779 68.1492L209.545 26.5722L274.112 3.90208C276.636 2.9525 277.575 5.02222 276.035 6.51053L247.445 28.4009C253.6 37.2586 258.473 41.4835 263.943 45.2146C264.752 51.8769 256.349 63.3832 246.778 69.2384C226.915 81.3893 199.267 86.267 188.535 80.3428L188.509 80.1828C188.005 76.9838 186.869 69.7822 185.464 65.4446L150.348 71.0809C146.84 71.4915 143.718 70.3689 145.779 68.1492Z" fill="#F5AC57"/>
<path d="M247.445 28.4009L276.035 6.51053C277.575 5.02222 276.636 2.9525 274.112 3.90208L209.545 26.5722L145.779 68.1492C143.718 70.3689 146.84 71.4915 150.348 71.0809L185.464 65.4446M247.445 28.4009L192.493 64.1132L185.464 65.4446M247.445 28.4009C253.6 37.2586 258.473 41.4835 263.943 45.2146C264.752 51.8769 256.349 63.3832 246.778 69.2384C226.915 81.3893 199.267 86.267 188.535 80.3428C188.043 77.2298 186.892 69.8561 185.464 65.4446" stroke="#363636" stroke-width="3"/>
<path d="M206.283 37.9542C208.116 38.1208 210.283 39.3542 204.283 42.9542C196.783 47.4542 170.283 56.9542 171.783 79.4542C173.283 101.954 171.783 91 171.783 91" stroke="#363636" stroke-width="2"/>
<path d="M201.282 37.0001C199.924 39.0628 202.116 41.8335 203.283 43.0002C205.95 42.1668 210.683 39.1001 208.283 37.5001C205.283 35.5001 202.79 34.7112 201.282 37.0001Z" fill="#363636"/>
<path d="M163.783 122.357C167.858 120.665 173.371 116.844 167.618 106.398C165.221 102.045 166.659 98.4181 170.734 96C178.645 98.0279 179.069 109.411 176.487 114.619C172.652 122.357 165.86 123.244 163.783 122.357Z" fill="#F5AC57" stroke="#363636" stroke-width="2"/>
<path d="M175.409 92.8137C175.409 94.92 173.702 96.6275 171.596 96.6275C169.49 96.6275 167.782 94.92 167.782 92.8137C167.782 90.7074 169.49 89 171.596 89C173.702 89 175.409 90.7074 175.409 92.8137Z" fill="#F5AC57" stroke="#363636" stroke-width="2"/>
<path d="M191.512 78.3599C196.631 80.9287 203.691 80.226 206.581 79.5536C203.84 76.5011 193.856 77.0362 193.856 77.0362C193.856 77.0362 193.899 74.9967 193.856 74C193.713 70.6437 190.574 68.6703 189.163 67.5C189.163 67.5 191.663 72.5 191.512 78.3599Z" fill="#FFEFDD"/>
<path d="M260.329 47C259.129 52.6 254.162 57.6667 251.829 59.5C251.163 55.452 257.829 48 257.829 48L255.829 47C252.699 45.4 251.858 41.3333 251.829 39.5C252.496 40.8333 255.129 44.2 260.329 47Z" fill="#FFEFDD"/>
</svg>
