<svg width="25" height="24" viewBox="0 0 25 24" fill="none" xmlns="http://www.w3.org/2000/svg">
<path d="M9.37467 22.9168C9.94997 22.9168 10.4163 22.4505 10.4163 21.8752C10.4163 21.2999 9.94997 20.8335 9.37467 20.8335C8.79938 20.8335 8.33301 21.2999 8.33301 21.8752C8.33301 22.4505 8.79938 22.9168 9.37467 22.9168Z" stroke="black" stroke-linecap="round" stroke-linejoin="round"/>
<path d="M20.8332 22.9168C21.4085 22.9168 21.8748 22.4505 21.8748 21.8752C21.8748 21.2999 21.4085 20.8335 20.8332 20.8335C20.2579 20.8335 19.7915 21.2999 19.7915 21.8752C19.7915 22.4505 20.2579 22.9168 20.8332 22.9168Z" stroke="black" stroke-linecap="round" stroke-linejoin="round"/>
<path d="M1.0415 1.0415H5.20817L7.99984 14.9894C8.09509 15.469 8.35599 15.8998 8.73686 16.2064C9.11774 16.513 9.59431 16.6759 10.0832 16.6665H20.2082C20.697 16.6759 21.1736 16.513 21.5545 16.2064C21.9353 15.8998 22.1962 15.469 22.2915 14.9894L23.9582 6.24984H6.24984" stroke="black" stroke-linecap="round" stroke-linejoin="round"/>
</svg>
