<svg width="463" height="73" viewBox="0 0 463 73" fill="none" xmlns="http://www.w3.org/2000/svg">
<path d="M105.023 17.397L105.365 19.7407L105.866 17.6289L109.381 5.22656H111.359L114.789 17.6289L115.277 19.7773L115.656 17.3848L118.415 5.22656H120.771L116.461 23H114.325L110.663 10.0483L110.382 8.69336L110.102 10.0483L106.305 23H104.169L99.8721 5.22656H102.216L105.023 17.397ZM125.482 23H123.224V9.79199H125.482V23ZM123.041 6.28857C123.041 5.92236 123.151 5.61312 123.371 5.36084C123.598 5.10856 123.932 4.98242 124.372 4.98242C124.811 4.98242 125.145 5.10856 125.373 5.36084C125.6 5.61312 125.714 5.92236 125.714 6.28857C125.714 6.65479 125.6 6.95996 125.373 7.2041C125.145 7.44824 124.811 7.57031 124.372 7.57031C123.932 7.57031 123.598 7.44824 123.371 7.2041C123.151 6.95996 123.041 6.65479 123.041 6.28857ZM136.798 19.4966C136.798 18.8862 136.566 18.4142 136.103 18.0806C135.647 17.7388 134.845 17.4458 133.698 17.2017C132.558 16.9575 131.651 16.6646 130.976 16.3228C130.308 15.981 129.812 15.5741 129.486 15.1021C129.169 14.63 129.01 14.0685 129.01 13.4175C129.01 12.3351 129.466 11.4196 130.377 10.6709C131.297 9.9222 132.469 9.54785 133.893 9.54785C135.39 9.54785 136.603 9.93441 137.531 10.7075C138.467 11.4806 138.935 12.4694 138.935 13.6738H136.664C136.664 13.0553 136.4 12.5223 135.871 12.0747C135.35 11.6271 134.691 11.4033 133.893 11.4033C133.071 11.4033 132.428 11.5824 131.964 11.9404C131.5 12.2985 131.269 12.7664 131.269 13.3442C131.269 13.8895 131.484 14.3005 131.916 14.5771C132.347 14.8538 133.124 15.1183 134.247 15.3706C135.378 15.6229 136.294 15.924 136.994 16.2739C137.694 16.6239 138.21 17.047 138.544 17.5435C138.886 18.0317 139.057 18.6299 139.057 19.3379C139.057 20.5179 138.585 21.466 137.641 22.1821C136.697 22.8901 135.472 23.2441 133.966 23.2441C132.908 23.2441 131.972 23.057 131.159 22.6826C130.345 22.3083 129.706 21.7874 129.242 21.1201C128.786 20.4447 128.559 19.7163 128.559 18.9351H130.817C130.858 19.6919 131.159 20.2941 131.72 20.7417C132.29 21.1812 133.039 21.4009 133.966 21.4009C134.821 21.4009 135.504 21.23 136.017 20.8882C136.538 20.5382 136.798 20.0744 136.798 19.4966ZM144.257 11.3911C145.258 10.1623 146.56 9.54785 148.163 9.54785C150.954 9.54785 152.362 11.1226 152.387 14.272V23H150.128V14.2598C150.12 13.3076 149.901 12.6037 149.469 12.1479C149.046 11.6922 148.383 11.4644 147.479 11.4644C146.747 11.4644 146.104 11.6597 145.551 12.0503C144.997 12.4409 144.566 12.9536 144.257 13.5884V23H141.999V4.25H144.257V11.3911ZM158.222 23H155.963V4.25H158.222V23ZM164.301 23H162.042V9.79199H164.301V23ZM161.859 6.28857C161.859 5.92236 161.969 5.61312 162.189 5.36084C162.417 5.10856 162.75 4.98242 163.19 4.98242C163.629 4.98242 163.963 5.10856 164.191 5.36084C164.419 5.61312 164.533 5.92236 164.533 6.28857C164.533 6.65479 164.419 6.95996 164.191 7.2041C163.963 7.44824 163.629 7.57031 163.19 7.57031C162.75 7.57031 162.417 7.44824 162.189 7.2041C161.969 6.95996 161.859 6.65479 161.859 6.28857ZM175.617 19.4966C175.617 18.8862 175.385 18.4142 174.921 18.0806C174.465 17.7388 173.664 17.4458 172.516 17.2017C171.377 16.9575 170.469 16.6646 169.794 16.3228C169.127 15.981 168.63 15.5741 168.305 15.1021C167.987 14.63 167.829 14.0685 167.829 13.4175C167.829 12.3351 168.284 11.4196 169.196 10.6709C170.115 9.9222 171.287 9.54785 172.711 9.54785C174.209 9.54785 175.421 9.93441 176.349 10.7075C177.285 11.4806 177.753 12.4694 177.753 13.6738H175.482C175.482 13.0553 175.218 12.5223 174.689 12.0747C174.168 11.6271 173.509 11.4033 172.711 11.4033C171.889 11.4033 171.247 11.5824 170.783 11.9404C170.319 12.2985 170.087 12.7664 170.087 13.3442C170.087 13.8895 170.303 14.3005 170.734 14.5771C171.165 14.8538 171.942 15.1183 173.065 15.3706C174.197 15.6229 175.112 15.924 175.812 16.2739C176.512 16.6239 177.029 17.047 177.362 17.5435C177.704 18.0317 177.875 18.6299 177.875 19.3379C177.875 20.5179 177.403 21.466 176.459 22.1821C175.515 22.8901 174.29 23.2441 172.785 23.2441C171.727 23.2441 170.791 23.057 169.977 22.6826C169.163 22.3083 168.524 21.7874 168.061 21.1201C167.605 20.4447 167.377 19.7163 167.377 18.9351H169.635C169.676 19.6919 169.977 20.2941 170.539 20.7417C171.108 21.1812 171.857 21.4009 172.785 21.4009C173.639 21.4009 174.323 21.23 174.835 20.8882C175.356 20.5382 175.617 20.0744 175.617 19.4966ZM183.881 6.59375V9.79199H186.347V11.5376H183.881V19.7285C183.881 20.2575 183.991 20.6562 184.21 20.9248C184.43 21.1852 184.805 21.3154 185.333 21.3154C185.594 21.3154 185.952 21.2666 186.408 21.1689V23C185.814 23.1628 185.236 23.2441 184.674 23.2441C183.665 23.2441 182.904 22.939 182.392 22.3286C181.879 21.7183 181.623 20.8516 181.623 19.7285V11.5376H179.218V9.79199H181.623V6.59375H183.881ZM205.365 18.3613H197.919L196.247 23H193.83L200.617 5.22656H202.667L209.467 23H207.062L205.365 18.3613ZM198.627 16.4326H204.669L201.642 8.11963L198.627 16.4326ZM213.642 9.79199L213.715 11.4521C214.724 10.1826 216.042 9.54785 217.67 9.54785C220.461 9.54785 221.869 11.1226 221.894 14.272V23H219.635V14.2598C219.627 13.3076 219.407 12.6037 218.976 12.1479C218.553 11.6922 217.89 11.4644 216.986 11.4644C216.254 11.4644 215.611 11.6597 215.058 12.0503C214.504 12.4409 214.073 12.9536 213.764 13.5884V23H211.505V9.79199H213.642ZM224.75 16.2861C224.75 14.2598 225.23 12.6322 226.19 11.4033C227.151 10.1663 228.408 9.54785 229.962 9.54785C231.509 9.54785 232.733 10.0768 233.637 11.1348V4.25H235.895V23H233.82L233.71 21.584C232.807 22.6908 231.549 23.2441 229.938 23.2441C228.408 23.2441 227.159 22.6175 226.19 21.3643C225.23 20.111 224.75 18.4753 224.75 16.457V16.2861ZM227.008 16.5425C227.008 18.0399 227.318 19.2118 227.936 20.0581C228.555 20.9045 229.409 21.3276 230.5 21.3276C231.932 21.3276 232.978 20.6847 233.637 19.3989V13.332C232.961 12.0869 231.924 11.4644 230.524 11.4644C229.417 11.4644 228.555 11.8916 227.936 12.7461C227.318 13.6006 227.008 14.866 227.008 16.5425ZM247.565 23C247.435 22.7396 247.329 22.2757 247.248 21.6084C246.198 22.6989 244.944 23.2441 243.488 23.2441C242.186 23.2441 241.116 22.8779 240.277 22.1455C239.447 21.4049 239.032 20.4691 239.032 19.3379C239.032 17.9626 239.553 16.8965 240.595 16.1396C241.645 15.3747 243.118 14.9922 245.014 14.9922H247.211V13.9546C247.211 13.1652 246.975 12.5386 246.503 12.0747C246.031 11.6027 245.335 11.3667 244.416 11.3667C243.61 11.3667 242.934 11.5701 242.389 11.9771C241.844 12.384 241.571 12.8763 241.571 13.4541H239.301C239.301 12.7949 239.533 12.1602 239.997 11.5498C240.469 10.9313 241.103 10.443 241.901 10.085C242.707 9.72689 243.59 9.54785 244.55 9.54785C246.072 9.54785 247.264 9.93034 248.126 10.6953C248.989 11.4521 249.437 12.4979 249.469 13.8325V19.9116C249.469 21.1242 249.624 22.0885 249.933 22.8047V23H247.565ZM243.817 21.2788C244.525 21.2788 245.197 21.0957 245.832 20.7295C246.466 20.3633 246.926 19.8872 247.211 19.3013V16.5913H245.441C242.674 16.5913 241.291 17.401 241.291 19.0205C241.291 19.7285 241.527 20.2819 241.999 20.6807C242.471 21.0794 243.077 21.2788 243.817 21.2788ZM264.081 14.7358L261.908 16.9941V23H259.564V5.22656H261.908V14.0156L269.806 5.22656H272.638L265.644 13.0757L273.188 23H270.38L264.081 14.7358ZM273.944 16.2739C273.944 14.98 274.197 13.8162 274.701 12.7827C275.214 11.7492 275.922 10.9517 276.825 10.3901C277.737 9.82861 278.774 9.54785 279.938 9.54785C281.736 9.54785 283.189 10.1704 284.296 11.4155C285.411 12.6606 285.968 14.3167 285.968 16.3838V16.5425C285.968 17.8283 285.72 18.9839 285.224 20.0093C284.735 21.0265 284.031 21.82 283.112 22.3896C282.2 22.9593 281.151 23.2441 279.962 23.2441C278.172 23.2441 276.719 22.6216 275.604 21.3765C274.498 20.1313 273.944 18.4834 273.944 16.4326V16.2739ZM276.215 16.5425C276.215 18.0073 276.553 19.1833 277.228 20.0703C277.912 20.9574 278.823 21.4009 279.962 21.4009C281.11 21.4009 282.021 20.9533 282.697 20.0581C283.372 19.1548 283.71 17.8934 283.71 16.2739C283.71 14.8254 283.364 13.6535 282.672 12.7583C281.989 11.855 281.077 11.4033 279.938 11.4033C278.823 11.4033 277.924 11.8468 277.24 12.7339C276.557 13.6209 276.215 14.8905 276.215 16.5425ZM296.491 19.4966C296.491 18.8862 296.259 18.4142 295.795 18.0806C295.339 17.7388 294.538 17.4458 293.39 17.2017C292.251 16.9575 291.343 16.6646 290.668 16.3228C290.001 15.981 289.504 15.5741 289.179 15.1021C288.861 14.63 288.703 14.0685 288.703 13.4175C288.703 12.3351 289.158 11.4196 290.07 10.6709C290.989 9.9222 292.161 9.54785 293.585 9.54785C295.083 9.54785 296.295 9.93441 297.223 10.7075C298.159 11.4806 298.627 12.4694 298.627 13.6738H296.356C296.356 13.0553 296.092 12.5223 295.563 12.0747C295.042 11.6271 294.383 11.4033 293.585 11.4033C292.764 11.4033 292.121 11.5824 291.657 11.9404C291.193 12.2985 290.961 12.7664 290.961 13.3442C290.961 13.8895 291.177 14.3005 291.608 14.5771C292.039 14.8538 292.816 15.1183 293.939 15.3706C295.071 15.6229 295.986 15.924 296.686 16.2739C297.386 16.6239 297.903 17.047 298.236 17.5435C298.578 18.0317 298.749 18.6299 298.749 19.3379C298.749 20.5179 298.277 21.466 297.333 22.1821C296.389 22.8901 295.164 23.2441 293.659 23.2441C292.601 23.2441 291.665 23.057 290.851 22.6826C290.037 22.3083 289.398 21.7874 288.935 21.1201C288.479 20.4447 288.251 19.7163 288.251 18.9351H290.509C290.55 19.6919 290.851 20.2941 291.413 20.7417C291.982 21.1812 292.731 21.4009 293.659 21.4009C294.513 21.4009 295.197 21.23 295.709 20.8882C296.23 20.5382 296.491 20.0744 296.491 19.4966ZM301.093 16.2739C301.093 14.98 301.345 13.8162 301.85 12.7827C302.362 11.7492 303.07 10.9517 303.974 10.3901C304.885 9.82861 305.923 9.54785 307.086 9.54785C308.885 9.54785 310.338 10.1704 311.444 11.4155C312.559 12.6606 313.117 14.3167 313.117 16.3838V16.5425C313.117 17.8283 312.868 18.9839 312.372 20.0093C311.884 21.0265 311.18 21.82 310.26 22.3896C309.349 22.9593 308.299 23.2441 307.111 23.2441C305.32 23.2441 303.868 22.6216 302.753 21.3765C301.646 20.1313 301.093 18.4834 301.093 16.4326V16.2739ZM303.363 16.5425C303.363 18.0073 303.701 19.1833 304.376 20.0703C305.06 20.9574 305.972 21.4009 307.111 21.4009C308.258 21.4009 309.17 20.9533 309.845 20.0581C310.521 19.1548 310.858 17.8934 310.858 16.2739C310.858 14.8254 310.513 13.6535 309.821 12.7583C309.137 11.855 308.226 11.4033 307.086 11.4033C305.972 11.4033 305.072 11.8468 304.389 12.7339C303.705 13.6209 303.363 14.8905 303.363 16.5425ZM318.085 9.79199L318.158 11.4521C319.167 10.1826 320.486 9.54785 322.113 9.54785C324.905 9.54785 326.312 11.1226 326.337 14.272V23H324.079V14.2598C324.07 13.3076 323.851 12.6037 323.419 12.1479C322.996 11.6922 322.333 11.4644 321.43 11.4644C320.697 11.4644 320.054 11.6597 319.501 12.0503C318.948 12.4409 318.516 12.9536 318.207 13.5884V23H315.949V9.79199H318.085ZM329.206 16.2861C329.206 14.2272 329.682 12.5915 330.634 11.3789C331.586 10.1582 332.847 9.54785 334.418 9.54785C336.029 9.54785 337.287 10.1175 338.19 11.2568L338.3 9.79199H340.363V22.6826C340.363 24.3916 339.854 25.7384 338.837 26.7231C337.828 27.7078 336.469 28.2002 334.76 28.2002C333.808 28.2002 332.876 27.9967 331.964 27.5898C331.053 27.1829 330.357 26.6255 329.877 25.9175L331.049 24.5625C332.017 25.7588 333.201 26.3569 334.601 26.3569C335.7 26.3569 336.554 26.0477 337.165 25.4292C337.783 24.8107 338.092 23.9399 338.092 22.8169V21.6816C337.189 22.7233 335.956 23.2441 334.394 23.2441C332.847 23.2441 331.594 22.6216 330.634 21.3765C329.682 20.1313 329.206 18.4346 329.206 16.2861ZM331.476 16.5425C331.476 18.0317 331.781 19.2036 332.392 20.0581C333.002 20.9045 333.856 21.3276 334.955 21.3276C336.379 21.3276 337.425 20.6807 338.092 19.3867V13.3564C337.401 12.0951 336.363 11.4644 334.979 11.4644C333.881 11.4644 333.022 11.8916 332.404 12.7461C331.785 13.6006 331.476 14.866 331.476 16.5425ZM349.909 21.8159C349.909 21.4253 350.023 21.0998 350.25 20.8394C350.486 20.5789 350.836 20.4487 351.3 20.4487C351.764 20.4487 352.114 20.5789 352.35 20.8394C352.594 21.0998 352.716 21.4253 352.716 21.8159C352.716 22.1903 352.594 22.5036 352.35 22.7559C352.114 23.0081 351.764 23.1343 351.3 23.1343C350.836 23.1343 350.486 23.0081 350.25 22.7559C350.023 22.5036 349.909 22.1903 349.909 21.8159ZM349.921 11.0371C349.921 10.6465 350.035 10.321 350.263 10.0605C350.499 9.80013 350.849 9.66992 351.312 9.66992C351.776 9.66992 352.126 9.80013 352.362 10.0605C352.606 10.321 352.729 10.6465 352.729 11.0371C352.729 11.4115 352.606 11.7248 352.362 11.9771C352.126 12.2293 351.776 12.3555 351.312 12.3555C350.849 12.3555 350.499 12.2293 350.263 11.9771C350.035 11.7248 349.921 11.4115 349.921 11.0371ZM355.951 15.7856C355.951 13.9465 356.195 12.1805 356.684 10.4878C357.18 8.79508 357.917 7.257 358.893 5.87354C359.87 4.49007 360.883 3.51351 361.933 2.94385L362.396 4.43311C361.208 5.34456 360.232 6.73617 359.467 8.60791C358.71 10.4797 358.295 12.5752 358.222 14.8945L358.209 15.9321C358.209 19.0734 358.783 21.7996 359.931 24.1108C360.622 25.4943 361.444 26.5767 362.396 27.3579L361.933 28.7373C360.85 28.1351 359.817 27.126 358.832 25.71C356.911 22.943 355.951 19.6349 355.951 15.7856Z" fill="#363636"/>
<path d="M9.92773 64.2891H3.9707L2.63281 68H0.699219L6.12891 53.7812H7.76953L13.209 68H11.2852L9.92773 64.2891ZM4.53711 62.7461H9.37109L6.94922 56.0957L4.53711 62.7461ZM17.8086 65.3535L20.2695 57.4336H22.2031L17.9551 69.6309C17.2975 71.3887 16.2526 72.2676 14.8203 72.2676L14.4785 72.2383L13.8047 72.1113V70.6465L14.293 70.6855C14.9049 70.6855 15.3802 70.5618 15.7188 70.3145C16.0638 70.0671 16.347 69.6146 16.5684 68.957L16.9688 67.8828L13.1992 57.4336H15.1719L17.8086 65.3535ZM23.1895 62.6191C23.1895 61.584 23.3913 60.653 23.7949 59.8262C24.2051 58.9993 24.7715 58.3613 25.4941 57.9121C26.2233 57.4629 27.0534 57.2383 27.9844 57.2383C29.4232 57.2383 30.5853 57.7363 31.4707 58.7324C32.3626 59.7285 32.8086 61.0534 32.8086 62.707V62.834C32.8086 63.8626 32.61 64.7871 32.2129 65.6074C31.8223 66.4212 31.2591 67.056 30.5234 67.5117C29.7943 67.9674 28.9544 68.1953 28.0039 68.1953C26.5716 68.1953 25.4095 67.6973 24.5176 66.7012C23.6322 65.7051 23.1895 64.3867 23.1895 62.7461V62.6191ZM25.0059 62.834C25.0059 64.0059 25.276 64.9466 25.8164 65.6562C26.3633 66.3659 27.0924 66.7207 28.0039 66.7207C28.9219 66.7207 29.651 66.3626 30.1914 65.6465C30.7318 64.9238 31.002 63.9147 31.002 62.6191C31.002 61.4603 30.7253 60.5228 30.1719 59.8066C29.625 59.084 28.8958 58.7227 27.9844 58.7227C27.0924 58.7227 26.373 59.0775 25.8262 59.7871C25.2793 60.4967 25.0059 61.5124 25.0059 62.834ZM41.9004 57.4336V69.2207C41.9004 71.252 40.9792 72.2676 39.1367 72.2676C38.7396 72.2676 38.3717 72.209 38.0332 72.0918V70.6465C38.2415 70.6986 38.515 70.7246 38.8535 70.7246C39.2572 70.7246 39.5632 70.6139 39.7715 70.3926C39.9863 70.1777 40.0938 69.8001 40.0938 69.2598V57.4336H41.9004ZM39.9082 54.6309C39.9082 54.3444 39.9961 54.1003 40.1719 53.8984C40.3542 53.6901 40.6178 53.5859 40.9629 53.5859C41.3145 53.5859 41.5814 53.6868 41.7637 53.8887C41.946 54.0905 42.0371 54.3379 42.0371 54.6309C42.0371 54.9238 41.946 55.168 41.7637 55.3633C41.5814 55.5586 41.3145 55.6562 40.9629 55.6562C40.6113 55.6562 40.3477 55.5586 40.1719 55.3633C39.9961 55.168 39.9082 54.9238 39.9082 54.6309ZM49.2051 68.1953C47.7728 68.1953 46.6074 67.7266 45.709 66.7891C44.8105 65.8451 44.3613 64.5853 44.3613 63.0098V62.6777C44.3613 61.6296 44.5599 60.6953 44.957 59.875C45.3607 59.0482 45.9206 58.4036 46.6367 57.9414C47.3594 57.4727 48.1406 57.2383 48.9805 57.2383C50.3542 57.2383 51.4219 57.6908 52.1836 58.5957C52.9453 59.5007 53.3262 60.7962 53.3262 62.4824V63.2344H46.168C46.194 64.276 46.4967 65.1191 47.0762 65.7637C47.6621 66.4017 48.4043 66.7207 49.3027 66.7207C49.9408 66.7207 50.4811 66.5905 50.9238 66.3301C51.3665 66.0697 51.7539 65.7246 52.0859 65.2949L53.1895 66.1543C52.304 67.515 50.9759 68.1953 49.2051 68.1953ZM48.9805 58.7227C48.2513 58.7227 47.6393 58.9896 47.1445 59.5234C46.6497 60.0508 46.3438 60.793 46.2266 61.75H51.5195V61.6133C51.4674 60.6953 51.2201 59.9857 50.7773 59.4844C50.3346 58.9766 49.7357 58.7227 48.9805 58.7227ZM57.3887 68H55.582V53H57.3887V68ZM66.8125 68C66.7083 67.7917 66.6237 67.4206 66.5586 66.8867C65.7188 67.7591 64.7161 68.1953 63.5508 68.1953C62.5091 68.1953 61.653 67.9023 60.9824 67.3164C60.3184 66.724 59.9863 65.9753 59.9863 65.0703C59.9863 63.9701 60.403 63.1172 61.2363 62.5117C62.0762 61.8997 63.2546 61.5938 64.7715 61.5938H66.5293V60.7637C66.5293 60.1322 66.3405 59.6309 65.9629 59.2598C65.5853 58.8822 65.0286 58.6934 64.293 58.6934C63.6484 58.6934 63.1081 58.8561 62.6719 59.1816C62.2357 59.5072 62.0176 59.901 62.0176 60.3633H60.2012C60.2012 59.8359 60.3867 59.3281 60.7578 58.8398C61.1354 58.3451 61.6432 57.9544 62.2812 57.668C62.9258 57.3815 63.6322 57.2383 64.4004 57.2383C65.6178 57.2383 66.5716 57.5443 67.2617 58.1562C67.9518 58.7617 68.3099 59.5983 68.3359 60.666V65.5293C68.3359 66.4993 68.4596 67.2708 68.707 67.8438V68H66.8125ZM63.8145 66.623C64.3809 66.623 64.918 66.4766 65.4258 66.1836C65.9336 65.8906 66.3014 65.5098 66.5293 65.041V62.873H65.1133C62.8997 62.873 61.793 63.5208 61.793 64.8164C61.793 65.3828 61.9818 65.8255 62.3594 66.1445C62.737 66.4635 63.222 66.623 63.8145 66.623ZM73.0332 57.4336V69.2207C73.0332 71.252 72.112 72.2676 70.2695 72.2676C69.8724 72.2676 69.5046 72.209 69.166 72.0918V70.6465C69.3743 70.6986 69.6478 70.7246 69.9863 70.7246C70.39 70.7246 70.696 70.6139 70.9043 70.3926C71.1191 70.1777 71.2266 69.8001 71.2266 69.2598V57.4336H73.0332ZM71.041 54.6309C71.041 54.3444 71.1289 54.1003 71.3047 53.8984C71.487 53.6901 71.7507 53.5859 72.0957 53.5859C72.4473 53.5859 72.7142 53.6868 72.8965 53.8887C73.0788 54.0905 73.1699 54.3379 73.1699 54.6309C73.1699 54.9238 73.0788 55.168 72.8965 55.3633C72.7142 55.5586 72.4473 55.6562 72.0957 55.6562C71.7441 55.6562 71.4805 55.5586 71.3047 55.3633C71.1289 55.168 71.041 54.9238 71.041 54.6309ZM82.4766 68C82.3724 67.7917 82.2878 67.4206 82.2227 66.8867C81.3828 67.7591 80.3802 68.1953 79.2148 68.1953C78.1732 68.1953 77.3171 67.9023 76.6465 67.3164C75.9824 66.724 75.6504 65.9753 75.6504 65.0703C75.6504 63.9701 76.0671 63.1172 76.9004 62.5117C77.7402 61.8997 78.9186 61.5938 80.4355 61.5938H82.1934V60.7637C82.1934 60.1322 82.0046 59.6309 81.627 59.2598C81.2493 58.8822 80.6927 58.6934 79.957 58.6934C79.3125 58.6934 78.7721 58.8561 78.3359 59.1816C77.8997 59.5072 77.6816 59.901 77.6816 60.3633H75.8652C75.8652 59.8359 76.0508 59.3281 76.4219 58.8398C76.7995 58.3451 77.3073 57.9544 77.9453 57.668C78.5898 57.3815 79.2962 57.2383 80.0645 57.2383C81.2819 57.2383 82.2357 57.5443 82.9258 58.1562C83.6159 58.7617 83.974 59.5983 84 60.666V65.5293C84 66.4993 84.1237 67.2708 84.3711 67.8438V68H82.4766ZM79.4785 66.623C80.0449 66.623 80.582 66.4766 81.0898 66.1836C81.5977 65.8906 81.9655 65.5098 82.1934 65.041V62.873H80.7773C78.5638 62.873 77.457 63.5208 77.457 64.8164C77.457 65.3828 77.6458 65.8255 78.0234 66.1445C78.401 66.4635 78.8861 66.623 79.4785 66.623ZM88.6387 58.7129C89.4395 57.7298 90.4811 57.2383 91.7637 57.2383C93.9967 57.2383 95.123 58.498 95.1426 61.0176V68H93.3359V61.0078C93.3294 60.2461 93.1536 59.6829 92.8086 59.3184C92.4701 58.9538 91.9395 58.7715 91.2168 58.7715C90.6309 58.7715 90.1165 58.9277 89.6738 59.2402C89.2311 59.5527 88.8861 59.9629 88.6387 60.4707V68H86.832V53H88.6387V58.7129ZM99.8105 68H98.0039V57.4336H99.8105V68ZM97.8574 54.6309C97.8574 54.3379 97.9453 54.0905 98.1211 53.8887C98.3034 53.6868 98.5703 53.5859 98.9219 53.5859C99.2734 53.5859 99.5404 53.6868 99.7227 53.8887C99.9049 54.0905 99.9961 54.3379 99.9961 54.6309C99.9961 54.9238 99.9049 55.168 99.7227 55.3633C99.5404 55.5586 99.2734 55.6562 98.9219 55.6562C98.5703 55.6562 98.3034 55.5586 98.1211 55.3633C97.9453 55.168 97.8574 54.9238 97.8574 54.6309ZM109.635 68H107.828V53H109.635V68ZM119.059 68C118.954 67.7917 118.87 67.4206 118.805 66.8867C117.965 67.7591 116.962 68.1953 115.797 68.1953C114.755 68.1953 113.899 67.9023 113.229 67.3164C112.564 66.724 112.232 65.9753 112.232 65.0703C112.232 63.9701 112.649 63.1172 113.482 62.5117C114.322 61.8997 115.501 61.5938 117.018 61.5938H118.775V60.7637C118.775 60.1322 118.587 59.6309 118.209 59.2598C117.831 58.8822 117.275 58.6934 116.539 58.6934C115.895 58.6934 115.354 58.8561 114.918 59.1816C114.482 59.5072 114.264 59.901 114.264 60.3633H112.447C112.447 59.8359 112.633 59.3281 113.004 58.8398C113.382 58.3451 113.889 57.9544 114.527 57.668C115.172 57.3815 115.878 57.2383 116.646 57.2383C117.864 57.2383 118.818 57.5443 119.508 58.1562C120.198 58.7617 120.556 59.5983 120.582 60.666V65.5293C120.582 66.4993 120.706 67.2708 120.953 67.8438V68H119.059ZM116.061 66.623C116.627 66.623 117.164 66.4766 117.672 66.1836C118.18 65.8906 118.548 65.5098 118.775 65.041V62.873H117.359C115.146 62.873 114.039 63.5208 114.039 64.8164C114.039 65.3828 114.228 65.8255 114.605 66.1445C114.983 66.4635 115.468 66.623 116.061 66.623ZM122.984 62.6289C122.984 60.9818 123.365 59.6732 124.127 58.7031C124.889 57.7266 125.898 57.2383 127.154 57.2383C128.443 57.2383 129.449 57.694 130.172 58.6055L130.26 57.4336H131.91V67.7461C131.91 69.1133 131.503 70.1908 130.689 70.9785C129.882 71.7663 128.795 72.1602 127.428 72.1602C126.666 72.1602 125.921 71.9974 125.191 71.6719C124.462 71.3464 123.906 70.9004 123.521 70.334L124.459 69.25C125.234 70.207 126.181 70.6855 127.301 70.6855C128.18 70.6855 128.863 70.4382 129.352 69.9434C129.846 69.4486 130.094 68.752 130.094 67.8535V66.9453C129.371 67.7786 128.385 68.1953 127.135 68.1953C125.898 68.1953 124.895 67.6973 124.127 66.7012C123.365 65.7051 122.984 64.3477 122.984 62.6289ZM124.801 62.834C124.801 64.0254 125.045 64.9629 125.533 65.6465C126.021 66.3236 126.705 66.6621 127.584 66.6621C128.723 66.6621 129.56 66.1445 130.094 65.1094V60.2852C129.54 59.276 128.71 58.7715 127.604 58.7715C126.725 58.7715 126.038 59.1133 125.543 59.7969C125.048 60.4805 124.801 61.4928 124.801 62.834ZM136.607 68H134.801V57.4336H136.607V68ZM134.654 54.6309C134.654 54.3379 134.742 54.0905 134.918 53.8887C135.1 53.6868 135.367 53.5859 135.719 53.5859C136.07 53.5859 136.337 53.6868 136.52 53.8887C136.702 54.0905 136.793 54.3379 136.793 54.6309C136.793 54.9238 136.702 55.168 136.52 55.3633C136.337 55.5586 136.07 55.6562 135.719 55.6562C135.367 55.6562 135.1 55.5586 134.918 55.3633C134.742 55.168 134.654 54.9238 134.654 54.6309ZM144.029 62.6289C144.029 61.0078 144.413 59.7057 145.182 58.7227C145.95 57.7331 146.956 57.2383 148.199 57.2383C149.436 57.2383 150.416 57.6615 151.139 58.5078V53H152.945V68H151.285L151.197 66.8672C150.475 67.7526 149.469 68.1953 148.18 68.1953C146.956 68.1953 145.956 67.694 145.182 66.6914C144.413 65.6888 144.029 64.3802 144.029 62.7656V62.6289ZM145.836 62.834C145.836 64.0319 146.083 64.9694 146.578 65.6465C147.073 66.3236 147.757 66.6621 148.629 66.6621C149.775 66.6621 150.611 66.1478 151.139 65.1191V60.2656C150.598 59.2695 149.768 58.7715 148.648 58.7715C147.763 58.7715 147.073 59.1133 146.578 59.7969C146.083 60.4805 145.836 61.4928 145.836 62.834ZM162.281 68C162.177 67.7917 162.092 67.4206 162.027 66.8867C161.188 67.7591 160.185 68.1953 159.02 68.1953C157.978 68.1953 157.122 67.9023 156.451 67.3164C155.787 66.724 155.455 65.9753 155.455 65.0703C155.455 63.9701 155.872 63.1172 156.705 62.5117C157.545 61.8997 158.723 61.5938 160.24 61.5938H161.998V60.7637C161.998 60.1322 161.809 59.6309 161.432 59.2598C161.054 58.8822 160.497 58.6934 159.762 58.6934C159.117 58.6934 158.577 58.8561 158.141 59.1816C157.704 59.5072 157.486 59.901 157.486 60.3633H155.67C155.67 59.8359 155.855 59.3281 156.227 58.8398C156.604 58.3451 157.112 57.9544 157.75 57.668C158.395 57.3815 159.101 57.2383 159.869 57.2383C161.087 57.2383 162.04 57.5443 162.73 58.1562C163.421 58.7617 163.779 59.5983 163.805 60.666V65.5293C163.805 66.4993 163.928 67.2708 164.176 67.8438V68H162.281ZM159.283 66.623C159.85 66.623 160.387 66.4766 160.895 66.1836C161.402 65.8906 161.77 65.5098 161.998 65.041V62.873H160.582C158.368 62.873 157.262 63.5208 157.262 64.8164C157.262 65.3828 157.451 65.8255 157.828 66.1445C158.206 66.4635 158.691 66.623 159.283 66.623ZM168.346 57.4336L168.404 58.7617C169.212 57.7461 170.266 57.2383 171.568 57.2383C173.801 57.2383 174.928 58.498 174.947 61.0176V68H173.141V61.0078C173.134 60.2461 172.958 59.6829 172.613 59.3184C172.275 58.9538 171.744 58.7715 171.021 58.7715C170.436 58.7715 169.921 58.9277 169.479 59.2402C169.036 59.5527 168.691 59.9629 168.443 60.4707V68H166.637V57.4336H168.346ZM185.084 54.875V57.4336H187.057V58.8301H185.084V65.3828C185.084 65.806 185.172 66.125 185.348 66.3398C185.523 66.5482 185.823 66.6523 186.246 66.6523C186.454 66.6523 186.741 66.6133 187.105 66.5352V68C186.63 68.1302 186.168 68.1953 185.719 68.1953C184.911 68.1953 184.303 67.9512 183.893 67.4629C183.482 66.9746 183.277 66.2812 183.277 65.3828V58.8301H181.354V57.4336H183.277V54.875H185.084ZM193.561 68.1953C192.128 68.1953 190.963 67.7266 190.064 66.7891C189.166 65.8451 188.717 64.5853 188.717 63.0098V62.6777C188.717 61.6296 188.915 60.6953 189.312 59.875C189.716 59.0482 190.276 58.4036 190.992 57.9414C191.715 57.4727 192.496 57.2383 193.336 57.2383C194.71 57.2383 195.777 57.6908 196.539 58.5957C197.301 59.5007 197.682 60.7962 197.682 62.4824V63.2344H190.523C190.549 64.276 190.852 65.1191 191.432 65.7637C192.018 66.4017 192.76 66.7207 193.658 66.7207C194.296 66.7207 194.837 66.5905 195.279 66.3301C195.722 66.0697 196.109 65.7246 196.441 65.2949L197.545 66.1543C196.66 67.515 195.331 68.1953 193.561 68.1953ZM193.336 58.7227C192.607 58.7227 191.995 58.9896 191.5 59.5234C191.005 60.0508 190.699 60.793 190.582 61.75H195.875V61.6133C195.823 60.6953 195.576 59.9857 195.133 59.4844C194.69 58.9766 194.091 58.7227 193.336 58.7227ZM201.48 57.4336L201.529 58.6055C202.304 57.694 203.349 57.2383 204.664 57.2383C206.142 57.2383 207.148 57.8047 207.682 58.9375C208.033 58.4297 208.489 58.0195 209.049 57.707C209.615 57.3945 210.283 57.2383 211.051 57.2383C213.368 57.2383 214.547 58.4655 214.586 60.9199V68H212.779V61.0273C212.779 60.2721 212.607 59.709 212.262 59.3379C211.917 58.9603 211.337 58.7715 210.523 58.7715C209.853 58.7715 209.296 58.9733 208.854 59.377C208.411 59.7741 208.154 60.3112 208.082 60.9883V68H206.266V61.0762C206.266 59.5397 205.514 58.7715 204.01 58.7715C202.825 58.7715 202.014 59.276 201.578 60.2852V68H199.771V57.4336H201.48ZM223.844 66.9551C223.141 67.7819 222.109 68.1953 220.748 68.1953C219.622 68.1953 218.762 67.8698 218.17 67.2188C217.584 66.5612 217.288 65.5911 217.281 64.3086V57.4336H219.088V64.2598C219.088 65.8613 219.739 66.6621 221.041 66.6621C222.421 66.6621 223.339 66.1478 223.795 65.1191V57.4336H225.602V68H223.883L223.844 66.9551ZM231.305 63.1074L230.172 64.2891V68H228.365V53H230.172V62.0723L231.139 60.9102L234.43 57.4336H236.627L232.516 61.8477L237.105 68H234.986L231.305 63.1074ZM245.016 68C244.911 67.7917 244.827 67.4206 244.762 66.8867C243.922 67.7591 242.919 68.1953 241.754 68.1953C240.712 68.1953 239.856 67.9023 239.186 67.3164C238.521 66.724 238.189 65.9753 238.189 65.0703C238.189 63.9701 238.606 63.1172 239.439 62.5117C240.279 61.8997 241.458 61.5938 242.975 61.5938H244.732V60.7637C244.732 60.1322 244.544 59.6309 244.166 59.2598C243.788 58.8822 243.232 58.6934 242.496 58.6934C241.852 58.6934 241.311 58.8561 240.875 59.1816C240.439 59.5072 240.221 59.901 240.221 60.3633H238.404C238.404 59.8359 238.59 59.3281 238.961 58.8398C239.339 58.3451 239.846 57.9544 240.484 57.668C241.129 57.3815 241.835 57.2383 242.604 57.2383C243.821 57.2383 244.775 57.5443 245.465 58.1562C246.155 58.7617 246.513 59.5983 246.539 60.666V65.5293C246.539 66.4993 246.663 67.2708 246.91 67.8438V68H245.016ZM242.018 66.623C242.584 66.623 243.121 66.4766 243.629 66.1836C244.137 65.8906 244.505 65.5098 244.732 65.041V62.873H243.316C241.103 62.873 239.996 63.5208 239.996 64.8164C239.996 65.3828 240.185 65.8255 240.562 66.1445C240.94 66.4635 241.425 66.623 242.018 66.623ZM251.08 57.4336L251.139 58.7617C251.946 57.7461 253.001 57.2383 254.303 57.2383C256.536 57.2383 257.662 58.498 257.682 61.0176V68H255.875V61.0078C255.868 60.2461 255.693 59.6829 255.348 59.3184C255.009 58.9538 254.479 58.7715 253.756 58.7715C253.17 58.7715 252.656 58.9277 252.213 59.2402C251.77 59.5527 251.425 59.9629 251.178 60.4707V68H249.371V57.4336H251.08ZM274.312 62.834C274.312 64.4486 273.941 65.7474 273.199 66.7305C272.457 67.707 271.461 68.1953 270.211 68.1953C268.876 68.1953 267.844 67.7233 267.115 66.7793L267.027 68H265.367V53H267.174V58.5957C267.903 57.6908 268.909 57.2383 270.191 57.2383C271.474 57.2383 272.48 57.7233 273.209 58.6934C273.945 59.6634 274.312 60.9915 274.312 62.6777V62.834ZM272.506 62.6289C272.506 61.3984 272.268 60.4479 271.793 59.7773C271.318 59.1068 270.634 58.7715 269.742 58.7715C268.551 58.7715 267.695 59.3249 267.174 60.4316V65.002C267.727 66.1087 268.59 66.6621 269.762 66.6621C270.628 66.6621 271.301 66.3268 271.783 65.6562C272.265 64.9857 272.506 63.9766 272.506 62.6289ZM283.121 68C283.017 67.7917 282.932 67.4206 282.867 66.8867C282.027 67.7591 281.025 68.1953 279.859 68.1953C278.818 68.1953 277.962 67.9023 277.291 67.3164C276.627 66.724 276.295 65.9753 276.295 65.0703C276.295 63.9701 276.712 63.1172 277.545 62.5117C278.385 61.8997 279.563 61.5938 281.08 61.5938H282.838V60.7637C282.838 60.1322 282.649 59.6309 282.271 59.2598C281.894 58.8822 281.337 58.6934 280.602 58.6934C279.957 58.6934 279.417 58.8561 278.98 59.1816C278.544 59.5072 278.326 59.901 278.326 60.3633H276.51C276.51 59.8359 276.695 59.3281 277.066 58.8398C277.444 58.3451 277.952 57.9544 278.59 57.668C279.234 57.3815 279.941 57.2383 280.709 57.2383C281.926 57.2383 282.88 57.5443 283.57 58.1562C284.26 58.7617 284.618 59.5983 284.645 60.666V65.5293C284.645 66.4993 284.768 67.2708 285.016 67.8438V68H283.121ZM280.123 66.623C280.689 66.623 281.227 66.4766 281.734 66.1836C282.242 65.8906 282.61 65.5098 282.838 65.041V62.873H281.422C279.208 62.873 278.102 63.5208 278.102 64.8164C278.102 65.3828 278.29 65.8255 278.668 66.1445C279.046 66.4635 279.531 66.623 280.123 66.623ZM292.584 59.0547C292.311 59.0091 292.014 58.9863 291.695 58.9863C290.51 58.9863 289.706 59.4909 289.283 60.5V68H287.477V57.4336H289.234L289.264 58.6543C289.856 57.7103 290.696 57.2383 291.783 57.2383C292.135 57.2383 292.402 57.2839 292.584 57.375V59.0547ZM300.387 68C300.283 67.7917 300.198 67.4206 300.133 66.8867C299.293 67.7591 298.29 68.1953 297.125 68.1953C296.083 68.1953 295.227 67.9023 294.557 67.3164C293.893 66.724 293.561 65.9753 293.561 65.0703C293.561 63.9701 293.977 63.1172 294.811 62.5117C295.65 61.8997 296.829 61.5938 298.346 61.5938H300.104V60.7637C300.104 60.1322 299.915 59.6309 299.537 59.2598C299.16 58.8822 298.603 58.6934 297.867 58.6934C297.223 58.6934 296.682 58.8561 296.246 59.1816C295.81 59.5072 295.592 59.901 295.592 60.3633H293.775C293.775 59.8359 293.961 59.3281 294.332 58.8398C294.71 58.3451 295.217 57.9544 295.855 57.668C296.5 57.3815 297.206 57.2383 297.975 57.2383C299.192 57.2383 300.146 57.5443 300.836 58.1562C301.526 58.7617 301.884 59.5983 301.91 60.666V65.5293C301.91 66.4993 302.034 67.2708 302.281 67.8438V68H300.387ZM297.389 66.623C297.955 66.623 298.492 66.4766 299 66.1836C299.508 65.8906 299.876 65.5098 300.104 65.041V62.873H298.688C296.474 62.873 295.367 63.5208 295.367 64.8164C295.367 65.3828 295.556 65.8255 295.934 66.1445C296.311 66.4635 296.796 66.623 297.389 66.623ZM306.451 57.4336L306.51 58.7617C307.317 57.7461 308.372 57.2383 309.674 57.2383C311.907 57.2383 313.033 58.498 313.053 61.0176V68H311.246V61.0078C311.24 60.2461 311.064 59.6829 310.719 59.3184C310.38 58.9538 309.85 58.7715 309.127 58.7715C308.541 58.7715 308.027 58.9277 307.584 59.2402C307.141 59.5527 306.796 59.9629 306.549 60.4707V68H304.742V57.4336H306.451ZM315.348 62.6289C315.348 60.9818 315.729 59.6732 316.49 58.7031C317.252 57.7266 318.261 57.2383 319.518 57.2383C320.807 57.2383 321.812 57.694 322.535 58.6055L322.623 57.4336H324.273V67.7461C324.273 69.1133 323.867 70.1908 323.053 70.9785C322.245 71.7663 321.158 72.1602 319.791 72.1602C319.029 72.1602 318.284 71.9974 317.555 71.6719C316.826 71.3464 316.269 70.9004 315.885 70.334L316.822 69.25C317.597 70.207 318.544 70.6855 319.664 70.6855C320.543 70.6855 321.227 70.4382 321.715 69.9434C322.21 69.4486 322.457 68.752 322.457 67.8535V66.9453C321.734 67.7786 320.748 68.1953 319.498 68.1953C318.261 68.1953 317.258 67.6973 316.49 66.7012C315.729 65.7051 315.348 64.3477 315.348 62.6289ZM317.164 62.834C317.164 64.0254 317.408 64.9629 317.896 65.6465C318.385 66.3236 319.068 66.6621 319.947 66.6621C321.087 66.6621 321.923 66.1445 322.457 65.1094V60.2852C321.904 59.276 321.074 58.7715 319.967 58.7715C319.088 58.7715 318.401 59.1133 317.906 59.7969C317.411 60.4805 317.164 61.4928 317.164 62.834ZM332.857 68V58.8301H331.188V57.4336H332.857V56.3496C332.857 55.2168 333.16 54.3411 333.766 53.7227C334.371 53.1042 335.227 52.7949 336.334 52.7949C336.751 52.7949 337.164 52.8503 337.574 52.9609L337.477 54.4258C337.171 54.3672 336.845 54.3379 336.5 54.3379C335.914 54.3379 335.462 54.5104 335.143 54.8555C334.824 55.194 334.664 55.6823 334.664 56.3203V57.4336H336.92V58.8301H334.664V68H332.857ZM345.445 68C345.341 67.7917 345.257 67.4206 345.191 66.8867C344.352 67.7591 343.349 68.1953 342.184 68.1953C341.142 68.1953 340.286 67.9023 339.615 67.3164C338.951 66.724 338.619 65.9753 338.619 65.0703C338.619 63.9701 339.036 63.1172 339.869 62.5117C340.709 61.8997 341.887 61.5938 343.404 61.5938H345.162V60.7637C345.162 60.1322 344.973 59.6309 344.596 59.2598C344.218 58.8822 343.661 58.6934 342.926 58.6934C342.281 58.6934 341.741 58.8561 341.305 59.1816C340.868 59.5072 340.65 59.901 340.65 60.3633H338.834C338.834 59.8359 339.02 59.3281 339.391 58.8398C339.768 58.3451 340.276 57.9544 340.914 57.668C341.559 57.3815 342.265 57.2383 343.033 57.2383C344.251 57.2383 345.204 57.5443 345.895 58.1562C346.585 58.7617 346.943 59.5983 346.969 60.666V65.5293C346.969 66.4993 347.092 67.2708 347.34 67.8438V68H345.445ZM342.447 66.623C343.014 66.623 343.551 66.4766 344.059 66.1836C344.566 65.8906 344.934 65.5098 345.162 65.041V62.873H343.746C341.533 62.873 340.426 63.5208 340.426 64.8164C340.426 65.3828 340.615 65.8255 340.992 66.1445C341.37 66.4635 341.855 66.623 342.447 66.623ZM353.131 65.5488L355.748 57.4336H357.594L353.805 68H352.428L348.6 57.4336H350.445L353.131 65.5488ZM358.697 62.6191C358.697 61.584 358.899 60.653 359.303 59.8262C359.713 58.9993 360.279 58.3613 361.002 57.9121C361.731 57.4629 362.561 57.2383 363.492 57.2383C364.931 57.2383 366.093 57.7363 366.979 58.7324C367.87 59.7285 368.316 61.0534 368.316 62.707V62.834C368.316 63.8626 368.118 64.7871 367.721 65.6074C367.33 66.4212 366.767 67.056 366.031 67.5117C365.302 67.9674 364.462 68.1953 363.512 68.1953C362.079 68.1953 360.917 67.6973 360.025 66.7012C359.14 65.7051 358.697 64.3867 358.697 62.7461V62.6191ZM360.514 62.834C360.514 64.0059 360.784 64.9466 361.324 65.6562C361.871 66.3659 362.6 66.7207 363.512 66.7207C364.43 66.7207 365.159 66.3626 365.699 65.6465C366.24 64.9238 366.51 63.9147 366.51 62.6191C366.51 61.4603 366.233 60.5228 365.68 59.8066C365.133 59.084 364.404 58.7227 363.492 58.7227C362.6 58.7227 361.881 59.0775 361.334 59.7871C360.787 60.4967 360.514 61.5124 360.514 62.834ZM375.689 59.0547C375.416 59.0091 375.12 58.9863 374.801 58.9863C373.616 58.9863 372.812 59.4909 372.389 60.5V68H370.582V57.4336H372.34L372.369 58.6543C372.962 57.7103 373.801 57.2383 374.889 57.2383C375.24 57.2383 375.507 57.2839 375.689 57.375V59.0547ZM379.322 68H377.516V57.4336H379.322V68ZM377.369 54.6309C377.369 54.3379 377.457 54.0905 377.633 53.8887C377.815 53.6868 378.082 53.5859 378.434 53.5859C378.785 53.5859 379.052 53.6868 379.234 53.8887C379.417 54.0905 379.508 54.3379 379.508 54.6309C379.508 54.9238 379.417 55.168 379.234 55.3633C379.052 55.5586 378.785 55.6562 378.434 55.6562C378.082 55.6562 377.815 55.5586 377.633 55.3633C377.457 55.168 377.369 54.9238 377.369 54.6309ZM384.674 54.875V57.4336H386.646V58.8301H384.674V65.3828C384.674 65.806 384.762 66.125 384.938 66.3398C385.113 66.5482 385.413 66.6523 385.836 66.6523C386.044 66.6523 386.331 66.6133 386.695 66.5352V68C386.22 68.1302 385.758 68.1953 385.309 68.1953C384.501 68.1953 383.893 67.9512 383.482 67.4629C383.072 66.9746 382.867 66.2812 382.867 65.3828V58.8301H380.943V57.4336H382.867V54.875H384.674ZM396.676 63.1074L395.543 64.2891V68H393.736V53H395.543V62.0723L396.51 60.9102L399.801 57.4336H401.998L397.887 61.8477L402.477 68H400.357L396.676 63.1074ZM410.387 68C410.283 67.7917 410.198 67.4206 410.133 66.8867C409.293 67.7591 408.29 68.1953 407.125 68.1953C406.083 68.1953 405.227 67.9023 404.557 67.3164C403.893 66.724 403.561 65.9753 403.561 65.0703C403.561 63.9701 403.977 63.1172 404.811 62.5117C405.65 61.8997 406.829 61.5938 408.346 61.5938H410.104V60.7637C410.104 60.1322 409.915 59.6309 409.537 59.2598C409.16 58.8822 408.603 58.6934 407.867 58.6934C407.223 58.6934 406.682 58.8561 406.246 59.1816C405.81 59.5072 405.592 59.901 405.592 60.3633H403.775C403.775 59.8359 403.961 59.3281 404.332 58.8398C404.71 58.3451 405.217 57.9544 405.855 57.668C406.5 57.3815 407.206 57.2383 407.975 57.2383C409.192 57.2383 410.146 57.5443 410.836 58.1562C411.526 58.7617 411.884 59.5983 411.91 60.666V65.5293C411.91 66.4993 412.034 67.2708 412.281 67.8438V68H410.387ZM407.389 66.623C407.955 66.623 408.492 66.4766 409 66.1836C409.508 65.8906 409.876 65.5098 410.104 65.041V62.873H408.688C406.474 62.873 405.367 63.5208 405.367 64.8164C405.367 65.3828 405.556 65.8255 405.934 66.1445C406.311 66.4635 406.796 66.623 407.389 66.623ZM416.441 57.4336L416.49 58.6055C417.265 57.694 418.31 57.2383 419.625 57.2383C421.103 57.2383 422.109 57.8047 422.643 58.9375C422.994 58.4297 423.45 58.0195 424.01 57.707C424.576 57.3945 425.243 57.2383 426.012 57.2383C428.329 57.2383 429.508 58.4655 429.547 60.9199V68H427.74V61.0273C427.74 60.2721 427.568 59.709 427.223 59.3379C426.878 58.9603 426.298 58.7715 425.484 58.7715C424.814 58.7715 424.257 58.9733 423.814 59.377C423.372 59.7741 423.115 60.3112 423.043 60.9883V68H421.227V61.0762C421.227 59.5397 420.475 58.7715 418.971 58.7715C417.786 58.7715 416.975 59.276 416.539 60.2852V68H414.732V57.4336H416.441ZM438.805 66.9551C438.102 67.7819 437.07 68.1953 435.709 68.1953C434.583 68.1953 433.723 67.8698 433.131 67.2188C432.545 66.5612 432.249 65.5911 432.242 64.3086V57.4336H434.049V64.2598C434.049 65.8613 434.7 66.6621 436.002 66.6621C437.382 66.6621 438.3 66.1478 438.756 65.1191V57.4336H440.562V68H438.844L438.805 66.9551ZM445.338 63.9863H443.707L443.58 53.7812H445.475L445.338 63.9863ZM443.512 67.0918C443.512 66.7988 443.6 66.5547 443.775 66.3594C443.958 66.1576 444.225 66.0566 444.576 66.0566C444.928 66.0566 445.195 66.1576 445.377 66.3594C445.559 66.5547 445.65 66.7988 445.65 67.0918C445.65 67.3848 445.559 67.6289 445.377 67.8242C445.195 68.013 444.928 68.1074 444.576 68.1074C444.225 68.1074 443.958 68.013 443.775 67.8242C443.6 67.6289 443.512 67.3848 443.512 67.0918ZM450.494 63.9863H448.863L448.736 53.7812H450.631L450.494 63.9863ZM448.668 67.0918C448.668 66.7988 448.756 66.5547 448.932 66.3594C449.114 66.1576 449.381 66.0566 449.732 66.0566C450.084 66.0566 450.351 66.1576 450.533 66.3594C450.715 66.5547 450.807 66.7988 450.807 67.0918C450.807 67.3848 450.715 67.6289 450.533 67.8242C450.351 68.013 450.084 68.1074 449.732 68.1074C449.381 68.1074 449.114 68.013 448.932 67.8242C448.756 67.6289 448.668 67.3848 448.668 67.0918ZM455.65 63.9863H454.02L453.893 53.7812H455.787L455.65 63.9863ZM453.824 67.0918C453.824 66.7988 453.912 66.5547 454.088 66.3594C454.27 66.1576 454.537 66.0566 454.889 66.0566C455.24 66.0566 455.507 66.1576 455.689 66.3594C455.872 66.5547 455.963 66.7988 455.963 67.0918C455.963 67.3848 455.872 67.6289 455.689 67.8242C455.507 68.013 455.24 68.1074 454.889 68.1074C454.537 68.1074 454.27 68.013 454.088 67.8242C453.912 67.6289 453.824 67.3848 453.824 67.0918ZM460.807 63.9863H459.176L459.049 53.7812H460.943L460.807 63.9863ZM458.98 67.0918C458.98 66.7988 459.068 66.5547 459.244 66.3594C459.426 66.1576 459.693 66.0566 460.045 66.0566C460.396 66.0566 460.663 66.1576 460.846 66.3594C461.028 66.5547 461.119 66.7988 461.119 67.0918C461.119 67.3848 461.028 67.6289 460.846 67.8242C460.663 68.013 460.396 68.1074 460.045 68.1074C459.693 68.1074 459.426 68.013 459.244 67.8242C459.068 67.6289 458.98 67.3848 458.98 67.0918Z" fill="#9C9C9C"/>
</svg>
