<svg width="637" height="121" viewBox="0 0 637 121" fill="none" xmlns="http://www.w3.org/2000/svg">
<path d="M15.7568 38.1152V55H3.75977V5.23438H23.6182C27.4235 5.23438 30.7845 5.94076 33.7012 7.35352C36.6406 8.74349 38.9079 10.7373 40.5029 13.335C42.1208 15.9098 42.9297 18.8379 42.9297 22.1191C42.9297 26.9727 41.1865 30.8577 37.7002 33.7744C34.2367 36.6683 29.4743 38.1152 23.4131 38.1152H15.7568ZM15.7568 28.8525H23.6182C25.9424 28.8525 27.7083 28.2715 28.916 27.1094C30.1465 25.9473 30.7617 24.3066 30.7617 22.1875C30.7617 19.8633 30.1351 18.0062 28.8818 16.6162C27.6286 15.2262 25.9196 14.5199 23.7549 14.4971H15.7568V28.8525ZM76.4381 45.7031H59.9977L57.1266 55H44.3092L62.5611 5.23438H73.8404L92.2291 55H79.3434L76.4381 45.7031ZM62.8688 36.4404H73.567L68.2008 19.1797L62.8688 36.4404ZM140.777 48.8477C138.931 50.8984 136.231 52.5505 132.676 53.8037C129.121 55.057 125.225 55.6836 120.987 55.6836C114.47 55.6836 109.263 53.6898 105.366 49.7021C101.47 45.7145 99.385 40.166 99.1115 33.0566L99.0773 28.75C99.0773 23.8509 99.9432 19.5785 101.675 15.9326C103.407 12.264 105.879 9.44987 109.092 7.49023C112.328 5.50781 116.065 4.5166 120.303 4.5166C126.501 4.5166 131.309 5.94076 134.727 8.78906C138.168 11.6146 140.173 15.8415 140.742 21.4697H129.19C128.779 18.6898 127.891 16.7074 126.524 15.5225C125.156 14.3376 123.22 13.7451 120.713 13.7451C117.705 13.7451 115.381 15.0212 113.74 17.5732C112.1 20.1253 111.268 23.7712 111.245 28.5107V31.5186C111.245 36.486 112.088 40.223 113.775 42.7295C115.484 45.2132 118.161 46.4551 121.807 46.4551C124.929 46.4551 127.253 45.7601 128.779 44.3701V36.6455H120.44V28.4082H140.777V48.8477ZM183.513 33.9111H164.646V45.7715H186.931V55H152.649V5.23438H187V14.4971H164.646V24.9902H183.513V33.9111ZM260.613 55H248.685L231.048 24.0332V55H219.051V5.23438H231.048L248.65 36.2012V5.23438H260.613V55ZM315.245 31.1426C315.245 35.9961 314.345 40.2913 312.545 44.0283C310.744 47.7653 308.181 50.6478 304.854 52.6758C301.55 54.681 297.779 55.6836 293.541 55.6836C289.302 55.6836 285.543 54.7152 282.261 52.7783C278.98 50.8187 276.417 48.0273 274.571 44.4043C272.748 40.7812 271.791 36.6227 271.7 31.9287V29.126C271.7 24.2497 272.588 19.9544 274.366 16.2402C276.166 12.5033 278.729 9.62077 282.056 7.59277C285.406 5.56478 289.211 4.55078 293.472 4.55078C297.688 4.55078 301.448 5.55339 304.752 7.55859C308.056 9.5638 310.619 12.4235 312.442 16.1377C314.288 19.8291 315.222 24.0674 315.245 28.8525V31.1426ZM303.043 29.0576C303.043 24.113 302.211 20.3646 300.547 17.8125C298.907 15.2376 296.548 13.9502 293.472 13.9502C287.457 13.9502 284.278 18.4619 283.936 27.4854L283.902 31.1426C283.902 36.0189 284.711 39.7673 286.329 42.3877C287.947 45.0081 290.351 46.3184 293.541 46.3184C296.571 46.3184 298.907 45.0309 300.547 42.4561C302.188 39.8812 303.02 36.1784 303.043 31.3477V29.0576ZM362.459 14.4971H347.523V55H335.526V14.4971H320.862V5.23438H362.459V14.4971ZM424.076 35.1758H404.73V55H392.733V5.23438H426.024V14.4971H404.73V25.9473H424.076V35.1758ZM478.058 31.1426C478.058 35.9961 477.158 40.2913 475.357 44.0283C473.557 47.7653 470.994 50.6478 467.667 52.6758C464.363 54.681 460.592 55.6836 456.354 55.6836C452.115 55.6836 448.355 54.7152 445.074 52.7783C441.793 50.8187 439.229 48.0273 437.384 44.4043C435.561 40.7812 434.604 36.6227 434.513 31.9287V29.126C434.513 24.2497 435.401 19.9544 437.179 16.2402C438.979 12.5033 441.542 9.62077 444.869 7.59277C448.219 5.56478 452.024 4.55078 456.285 4.55078C460.501 4.55078 464.26 5.55339 467.564 7.55859C470.868 9.5638 473.432 12.4235 475.255 16.1377C477.101 19.8291 478.035 24.0674 478.058 28.8525V31.1426ZM465.855 29.0576C465.855 24.113 465.024 20.3646 463.36 17.8125C461.72 15.2376 459.361 13.9502 456.285 13.9502C450.27 13.9502 447.091 18.4619 446.749 27.4854L446.715 31.1426C446.715 36.0189 447.524 39.7673 449.142 42.3877C450.759 45.0081 453.163 46.3184 456.354 46.3184C459.384 46.3184 461.72 45.0309 463.36 42.4561C465.001 39.8812 465.833 36.1784 465.855 31.3477V29.0576ZM528.177 5.23438V37.8076C528.177 41.499 527.391 44.7005 525.819 47.4121C524.247 50.1009 521.991 52.1517 519.051 53.5645C516.112 54.9772 512.637 55.6836 508.627 55.6836C502.565 55.6836 497.792 54.1113 494.305 50.9668C490.819 47.8223 489.042 43.5156 488.973 38.0469V5.23438H501.039V38.2861C501.175 43.7321 503.705 46.4551 508.627 46.4551C511.11 46.4551 512.99 45.7715 514.266 44.4043C515.542 43.0371 516.18 40.8154 516.18 37.7393V5.23438H528.177ZM582.159 55H570.231L552.594 24.0332V55H540.597V5.23438H552.594L570.196 36.2012V5.23438H582.159V55ZM594.647 55V5.23438H610.678C615.075 5.23438 619.029 6.23698 622.538 8.24219C626.047 10.2246 628.781 13.0387 630.741 16.6846C632.723 20.3076 633.726 24.375 633.749 28.8867V31.1768C633.749 35.734 632.78 39.8242 630.844 43.4473C628.93 47.0475 626.218 49.873 622.709 51.9238C619.222 53.9518 615.326 54.9772 611.019 55H594.647ZM606.644 14.4971V45.7715H610.814C614.255 45.7715 616.898 44.5524 618.744 42.1143C620.59 39.6533 621.513 36.0075 621.513 31.1768V29.0234C621.513 24.2155 620.59 20.5924 618.744 18.1543C616.898 15.7161 614.209 14.4971 610.678 14.4971H606.644Z" fill="#2F2B29"/>
<path d="M139.69 81.9199L143.401 74.7812H145.53L140.627 83.6973V89H138.752V83.6973L133.85 74.7812H135.998L139.69 81.9199ZM146.059 83.6191C146.059 82.584 146.261 81.653 146.665 80.8262C147.075 79.9993 147.641 79.3613 148.364 78.9121C149.093 78.4629 149.923 78.2383 150.854 78.2383C152.293 78.2383 153.455 78.7363 154.341 79.7324C155.233 80.7285 155.679 82.0534 155.679 83.707V83.834C155.679 84.8626 155.48 85.7871 155.083 86.6074C154.692 87.4212 154.129 88.056 153.393 88.5117C152.664 88.9674 151.824 89.1953 150.874 89.1953C149.442 89.1953 148.279 88.6973 147.388 87.7012C146.502 86.7051 146.059 85.3867 146.059 83.7461V83.6191ZM147.876 83.834C147.876 85.0059 148.146 85.9466 148.686 86.6562C149.233 87.3659 149.962 87.7207 150.874 87.7207C151.792 87.7207 152.521 87.3626 153.061 86.6465C153.602 85.9238 153.872 84.9147 153.872 83.6191C153.872 82.4603 153.595 81.5228 153.042 80.8066C152.495 80.084 151.766 79.7227 150.854 79.7227C149.962 79.7227 149.243 80.0775 148.696 80.7871C148.149 81.4967 147.876 82.5124 147.876 83.834ZM164.568 87.9551C163.864 88.7819 162.833 89.1953 161.472 89.1953C160.346 89.1953 159.486 88.8698 158.894 88.2188C158.308 87.5612 158.012 86.5911 158.005 85.3086V78.4336H159.812V85.2598C159.812 86.8613 160.463 87.6621 161.765 87.6621C163.145 87.6621 164.063 87.1478 164.519 86.1191V78.4336H166.325V89H164.607L164.568 87.9551ZM173.811 83.6289C173.811 81.9818 174.191 80.6732 174.953 79.7031C175.715 78.7266 176.724 78.2383 177.98 78.2383C179.27 78.2383 180.275 78.694 180.998 79.6055L181.086 78.4336H182.736V88.7461C182.736 90.1133 182.329 91.1908 181.516 91.9785C180.708 92.7663 179.621 93.1602 178.254 93.1602C177.492 93.1602 176.747 92.9974 176.018 92.6719C175.288 92.3464 174.732 91.9004 174.348 91.334L175.285 90.25C176.06 91.207 177.007 91.6855 178.127 91.6855C179.006 91.6855 179.689 91.4382 180.178 90.9434C180.673 90.4486 180.92 89.752 180.92 88.8535V87.9453C180.197 88.7786 179.211 89.1953 177.961 89.1953C176.724 89.1953 175.721 88.6973 174.953 87.7012C174.191 86.7051 173.811 85.3477 173.811 83.6289ZM175.627 83.834C175.627 85.0254 175.871 85.9629 176.359 86.6465C176.848 87.3236 177.531 87.6621 178.41 87.6621C179.549 87.6621 180.386 87.1445 180.92 86.1094V81.2852C180.367 80.276 179.536 79.7715 178.43 79.7715C177.551 79.7715 176.864 80.1133 176.369 80.7969C175.874 81.4805 175.627 82.4928 175.627 83.834ZM192.094 87.9551C191.391 88.7819 190.359 89.1953 188.998 89.1953C187.872 89.1953 187.013 88.8698 186.42 88.2188C185.834 87.5612 185.538 86.5911 185.532 85.3086V78.4336H187.338V85.2598C187.338 86.8613 187.989 87.6621 189.291 87.6621C190.672 87.6621 191.59 87.1478 192.045 86.1191V78.4336H193.852V89H192.133L192.094 87.9551ZM200.163 86.3535L202.624 78.4336H204.557L200.309 90.6309C199.652 92.3887 198.607 93.2676 197.175 93.2676L196.833 93.2383L196.159 93.1113V91.6465L196.647 91.6855C197.259 91.6855 197.735 91.5618 198.073 91.3145C198.418 91.0671 198.701 90.6146 198.923 89.957L199.323 88.8828L195.554 78.4336H197.526L200.163 86.3535ZM212.431 86.1973C212.431 85.709 212.245 85.3314 211.874 85.0645C211.51 84.791 210.868 84.5566 209.95 84.3613C209.039 84.166 208.313 83.9316 207.773 83.6582C207.239 83.3848 206.842 83.0592 206.581 82.6816C206.327 82.304 206.2 81.8548 206.2 81.334C206.2 80.4681 206.565 79.7357 207.294 79.1367C208.03 78.5378 208.967 78.2383 210.107 78.2383C211.305 78.2383 212.275 78.5475 213.017 79.166C213.765 79.7845 214.14 80.5755 214.14 81.5391H212.323C212.323 81.0443 212.112 80.6178 211.689 80.2598C211.272 79.9017 210.745 79.7227 210.107 79.7227C209.449 79.7227 208.935 79.8659 208.564 80.1523C208.193 80.4388 208.007 80.8132 208.007 81.2754C208.007 81.7116 208.18 82.0404 208.525 82.2617C208.87 82.4831 209.491 82.6947 210.39 82.8965C211.295 83.0983 212.027 83.3392 212.587 83.6191C213.147 83.8991 213.56 84.2376 213.827 84.6348C214.101 85.0254 214.238 85.5039 214.238 86.0703C214.238 87.0143 213.86 87.7728 213.105 88.3457C212.349 88.9121 211.37 89.1953 210.165 89.1953C209.319 89.1953 208.57 89.0456 207.919 88.7461C207.268 88.4466 206.757 88.0299 206.386 87.4961C206.021 86.9557 205.839 86.373 205.839 85.748H207.646C207.678 86.3535 207.919 86.8353 208.368 87.1934C208.824 87.5449 209.423 87.7207 210.165 87.7207C210.849 87.7207 211.396 87.584 211.806 87.3105C212.223 87.0306 212.431 86.6595 212.431 86.1973ZM226.137 89.1953C224.704 89.1953 223.539 88.7266 222.641 87.7891C221.742 86.8451 221.293 85.5853 221.293 84.0098V83.6777C221.293 82.6296 221.492 81.6953 221.889 80.875C222.292 80.0482 222.852 79.4036 223.568 78.9414C224.291 78.4727 225.072 78.2383 225.912 78.2383C227.286 78.2383 228.354 78.6908 229.115 79.5957C229.877 80.5007 230.258 81.7962 230.258 83.4824V84.2344H223.1C223.126 85.276 223.428 86.1191 224.008 86.7637C224.594 87.4017 225.336 87.7207 226.234 87.7207C226.872 87.7207 227.413 87.5905 227.855 87.3301C228.298 87.0697 228.686 86.7246 229.018 86.2949L230.121 87.1543C229.236 88.515 227.908 89.1953 226.137 89.1953ZM225.912 79.7227C225.183 79.7227 224.571 79.9896 224.076 80.5234C223.581 81.0508 223.275 81.793 223.158 82.75H228.451V82.6133C228.399 81.6953 228.152 80.9857 227.709 80.4844C227.266 79.9766 226.667 79.7227 225.912 79.7227ZM236.002 82.291L238.346 78.4336H240.455L236.998 83.6582L240.563 89H238.473L236.032 85.0449L233.59 89H231.491L235.055 83.6582L231.598 78.4336H233.688L236.002 82.291ZM251.405 83.834C251.405 85.4421 251.037 86.7376 250.302 87.7207C249.566 88.7038 248.57 89.1953 247.313 89.1953C246.031 89.1953 245.022 88.7884 244.286 87.9746V93.0625H242.479V78.4336H244.13L244.218 79.6055C244.953 78.694 245.975 78.2383 247.284 78.2383C248.554 78.2383 249.556 78.7168 250.292 79.6738C251.034 80.6309 251.405 81.9622 251.405 83.668V83.834ZM249.598 83.6289C249.598 82.4375 249.345 81.4967 248.837 80.8066C248.329 80.1165 247.632 79.7715 246.747 79.7715C245.653 79.7715 244.833 80.2565 244.286 81.2266V86.2754C244.826 87.2389 245.653 87.7207 246.766 87.7207C247.632 87.7207 248.319 87.3789 248.827 86.6953C249.341 86.0052 249.598 84.9831 249.598 83.6289ZM255.773 89H253.966V74H255.773V89ZM258.295 83.6191C258.295 82.584 258.496 81.653 258.9 80.8262C259.31 79.9993 259.877 79.3613 260.599 78.9121C261.328 78.4629 262.158 78.2383 263.089 78.2383C264.528 78.2383 265.69 78.7363 266.576 79.7324C267.468 80.7285 267.914 82.0534 267.914 83.707V83.834C267.914 84.8626 267.715 85.7871 267.318 86.6074C266.927 87.4212 266.364 88.056 265.629 88.5117C264.899 88.9674 264.06 89.1953 263.109 89.1953C261.677 89.1953 260.515 88.6973 259.623 87.7012C258.737 86.7051 258.295 85.3867 258.295 83.7461V83.6191ZM260.111 83.834C260.111 85.0059 260.381 85.9466 260.921 86.6562C261.468 87.3659 262.198 87.7207 263.109 87.7207C264.027 87.7207 264.756 87.3626 265.296 86.6465C265.837 85.9238 266.107 84.9147 266.107 83.6191C266.107 82.4603 265.83 81.5228 265.277 80.8066C264.73 80.084 264.001 79.7227 263.089 79.7227C262.198 79.7227 261.478 80.0775 260.931 80.7871C260.384 81.4967 260.111 82.5124 260.111 83.834ZM275.387 80.0547C275.113 80.0091 274.817 79.9863 274.498 79.9863C273.313 79.9863 272.509 80.4909 272.086 81.5V89H270.279V78.4336H272.037L272.066 79.6543C272.659 78.7103 273.499 78.2383 274.586 78.2383C274.938 78.2383 275.204 78.2839 275.387 78.375V80.0547ZM281.346 89.1953C279.914 89.1953 278.748 88.7266 277.85 87.7891C276.952 86.8451 276.502 85.5853 276.502 84.0098V83.6777C276.502 82.6296 276.701 81.6953 277.098 80.875C277.502 80.0482 278.062 79.4036 278.778 78.9414C279.5 78.4727 280.282 78.2383 281.121 78.2383C282.495 78.2383 283.563 78.6908 284.325 79.5957C285.086 80.5007 285.467 81.7962 285.467 83.4824V84.2344H278.309C278.335 85.276 278.638 86.1191 279.217 86.7637C279.803 87.4017 280.545 87.7207 281.444 87.7207C282.082 87.7207 282.622 87.5905 283.065 87.3301C283.508 87.0697 283.895 86.7246 284.227 86.2949L285.33 87.1543C284.445 88.515 283.117 89.1953 281.346 89.1953ZM281.121 79.7227C280.392 79.7227 279.78 79.9896 279.286 80.5234C278.791 81.0508 278.485 81.793 278.368 82.75H283.661V82.6133C283.608 81.6953 283.361 80.9857 282.918 80.4844C282.476 79.9766 281.877 79.7227 281.121 79.7227ZM295.179 75.875V78.4336H297.152V79.8301H295.179V86.3828C295.179 86.806 295.267 87.125 295.443 87.3398C295.618 87.5482 295.918 87.6523 296.341 87.6523C296.549 87.6523 296.836 87.6133 297.2 87.5352V89C296.725 89.1302 296.263 89.1953 295.814 89.1953C295.006 89.1953 294.398 88.9512 293.988 88.4629C293.577 87.9746 293.372 87.2812 293.372 86.3828V79.8301H291.448V78.4336H293.372V75.875H295.179ZM301.177 79.7129C301.978 78.7298 303.02 78.2383 304.302 78.2383C306.535 78.2383 307.662 79.498 307.681 82.0176V89H305.875V82.0078C305.868 81.2461 305.692 80.6829 305.347 80.3184C305.009 79.9538 304.478 79.7715 303.755 79.7715C303.17 79.7715 302.655 79.9277 302.213 80.2402C301.77 80.5527 301.425 80.9629 301.177 81.4707V89H299.371V74H301.177V79.7129ZM312.449 89H310.643V78.4336H312.449V89ZM310.496 75.6309C310.496 75.3379 310.584 75.0905 310.76 74.8887C310.942 74.6868 311.209 74.5859 311.561 74.5859C311.912 74.5859 312.179 74.6868 312.361 74.8887C312.544 75.0905 312.635 75.3379 312.635 75.6309C312.635 75.9238 312.544 76.168 312.361 76.3633C312.179 76.5586 311.912 76.6562 311.561 76.6562C311.209 76.6562 310.942 76.5586 310.76 76.3633C310.584 76.168 310.496 75.9238 310.496 75.6309ZM321.602 86.1973C321.602 85.709 321.416 85.3314 321.045 85.0645C320.681 84.791 320.039 84.5566 319.121 84.3613C318.21 84.166 317.484 83.9316 316.944 83.6582C316.41 83.3848 316.013 83.0592 315.752 82.6816C315.498 82.304 315.371 81.8548 315.371 81.334C315.371 80.4681 315.736 79.7357 316.465 79.1367C317.201 78.5378 318.138 78.2383 319.278 78.2383C320.476 78.2383 321.446 78.5475 322.188 79.166C322.937 79.7845 323.311 80.5755 323.311 81.5391H321.495C321.495 81.0443 321.283 80.6178 320.86 80.2598C320.443 79.9017 319.916 79.7227 319.278 79.7227C318.62 79.7227 318.106 79.8659 317.735 80.1523C317.364 80.4388 317.178 80.8132 317.178 81.2754C317.178 81.7116 317.351 82.0404 317.696 82.2617C318.041 82.4831 318.663 82.6947 319.561 82.8965C320.466 83.0983 321.198 83.3392 321.758 83.6191C322.318 83.8991 322.732 84.2376 322.998 84.6348C323.272 85.0254 323.409 85.5039 323.409 86.0703C323.409 87.0143 323.031 87.7728 322.276 88.3457C321.521 88.9121 320.541 89.1953 319.336 89.1953C318.49 89.1953 317.741 89.0456 317.09 88.7461C316.439 88.4466 315.928 88.0299 315.557 87.4961C315.192 86.9557 315.01 86.373 315.01 85.748H316.817C316.849 86.3535 317.09 86.8353 317.539 87.1934C317.995 87.5449 318.594 87.7207 319.336 87.7207C320.02 87.7207 320.567 87.584 320.977 87.3105C321.394 87.0306 321.602 86.6595 321.602 86.1973ZM340.279 86.5098L342.31 78.4336H344.116L341.04 89H339.575L337.007 80.9922L334.507 89H333.042L329.976 78.4336H331.773L333.853 86.3438L336.314 78.4336H337.769L340.279 86.5098ZM350.447 89.1953C349.015 89.1953 347.849 88.7266 346.951 87.7891C346.052 86.8451 345.603 85.5853 345.603 84.0098V83.6777C345.603 82.6296 345.802 81.6953 346.199 80.875C346.602 80.0482 347.162 79.4036 347.879 78.9414C348.601 78.4727 349.382 78.2383 350.222 78.2383C351.596 78.2383 352.664 78.6908 353.425 79.5957C354.187 80.5007 354.568 81.7962 354.568 83.4824V84.2344H347.41C347.436 85.276 347.739 86.1191 348.318 86.7637C348.904 87.4017 349.646 87.7207 350.545 87.7207C351.183 87.7207 351.723 87.5905 352.166 87.3301C352.608 87.0697 352.996 86.7246 353.328 86.2949L354.431 87.1543C353.546 88.515 352.218 89.1953 350.447 89.1953ZM350.222 79.7227C349.493 79.7227 348.881 79.9896 348.386 80.5234C347.892 81.0508 347.586 81.793 347.468 82.75H352.761V82.6133C352.709 81.6953 352.462 80.9857 352.019 80.4844C351.576 79.9766 350.977 79.7227 350.222 79.7227ZM365.713 83.834C365.713 85.4486 365.342 86.7474 364.6 87.7305C363.857 88.707 362.861 89.1953 361.611 89.1953C360.277 89.1953 359.245 88.7233 358.516 87.7793L358.428 89H356.768V74H358.574V79.5957C359.303 78.6908 360.309 78.2383 361.592 78.2383C362.874 78.2383 363.88 78.7233 364.609 79.6934C365.345 80.6634 365.713 81.9915 365.713 83.6777V83.834ZM363.906 83.6289C363.906 82.3984 363.669 81.4479 363.193 80.7773C362.718 80.1068 362.035 79.7715 361.143 79.7715C359.951 79.7715 359.095 80.3249 358.574 81.4316V86.002C359.128 87.1087 359.99 87.6621 361.162 87.6621C362.028 87.6621 362.702 87.3268 363.184 86.6562C363.665 85.9857 363.906 84.9766 363.906 83.6289ZM374.25 86.1973C374.25 85.709 374.065 85.3314 373.694 85.0645C373.329 84.791 372.688 84.5566 371.77 84.3613C370.858 84.166 370.133 83.9316 369.592 83.6582C369.058 83.3848 368.661 83.0592 368.401 82.6816C368.147 82.304 368.02 81.8548 368.02 81.334C368.02 80.4681 368.385 79.7357 369.114 79.1367C369.849 78.5378 370.787 78.2383 371.926 78.2383C373.124 78.2383 374.094 78.5475 374.836 79.166C375.585 79.7845 375.959 80.5755 375.959 81.5391H374.143C374.143 81.0443 373.931 80.6178 373.508 80.2598C373.092 79.9017 372.564 79.7227 371.926 79.7227C371.269 79.7227 370.754 79.8659 370.383 80.1523C370.012 80.4388 369.827 80.8132 369.827 81.2754C369.827 81.7116 369.999 82.0404 370.344 82.2617C370.689 82.4831 371.311 82.6947 372.209 82.8965C373.114 83.0983 373.847 83.3392 374.407 83.6191C374.967 83.8991 375.38 84.2376 375.647 84.6348C375.92 85.0254 376.057 85.5039 376.057 86.0703C376.057 87.0143 375.679 87.7728 374.924 88.3457C374.169 88.9121 373.189 89.1953 371.985 89.1953C371.138 89.1953 370.39 89.0456 369.739 88.7461C369.088 88.4466 368.577 88.0299 368.205 87.4961C367.841 86.9557 367.659 86.373 367.659 85.748H369.465C369.498 86.3535 369.739 86.8353 370.188 87.1934C370.644 87.5449 371.243 87.7207 371.985 87.7207C372.668 87.7207 373.215 87.584 373.625 87.3105C374.042 87.0306 374.25 86.6595 374.25 86.1973ZM380.473 89H378.667V78.4336H380.473V89ZM378.52 75.6309C378.52 75.3379 378.608 75.0905 378.784 74.8887C378.966 74.6868 379.233 74.5859 379.585 74.5859C379.936 74.5859 380.203 74.6868 380.386 74.8887C380.568 75.0905 380.659 75.3379 380.659 75.6309C380.659 75.9238 380.568 76.168 380.386 76.3633C380.203 76.5586 379.936 76.6562 379.585 76.6562C379.233 76.6562 378.966 76.5586 378.784 76.3633C378.608 76.168 378.52 75.9238 378.52 75.6309ZM385.925 75.875V78.4336H387.898V79.8301H385.925V86.3828C385.925 86.806 386.013 87.125 386.189 87.3398C386.364 87.5482 386.664 87.6523 387.087 87.6523C387.295 87.6523 387.582 87.6133 387.946 87.5352V89C387.471 89.1302 387.009 89.1953 386.56 89.1953C385.752 89.1953 385.144 88.9512 384.734 88.4629C384.323 87.9746 384.118 87.2812 384.118 86.3828V79.8301H382.195V78.4336H384.118V75.875H385.925ZM394.502 89.1953C393.069 89.1953 391.904 88.7266 391.005 87.7891C390.107 86.8451 389.658 85.5853 389.658 84.0098V83.6777C389.658 82.6296 389.856 81.6953 390.254 80.875C390.657 80.0482 391.217 79.4036 391.933 78.9414C392.656 78.4727 393.437 78.2383 394.277 78.2383C395.651 78.2383 396.718 78.6908 397.48 79.5957C398.242 80.5007 398.623 81.7962 398.623 83.4824V84.2344H391.464C391.491 85.276 391.793 86.1191 392.373 86.7637C392.959 87.4017 393.701 87.7207 394.599 87.7207C395.237 87.7207 395.778 87.5905 396.22 87.3301C396.663 87.0697 397.05 86.7246 397.382 86.2949L398.486 87.1543C397.601 88.515 396.272 89.1953 394.502 89.1953ZM394.277 79.7227C393.548 79.7227 392.936 79.9896 392.441 80.5234C391.946 81.0508 391.64 81.793 391.523 82.75H396.816V82.6133C396.764 81.6953 396.517 80.9857 396.074 80.4844C395.631 79.9766 395.032 79.7227 394.277 79.7227ZM408.334 75.875V78.4336H410.307V79.8301H408.334V86.3828C408.334 86.806 408.422 87.125 408.598 87.3398C408.774 87.5482 409.073 87.6523 409.496 87.6523C409.705 87.6523 409.991 87.6133 410.356 87.5352V89C409.881 89.1302 409.418 89.1953 408.969 89.1953C408.162 89.1953 407.553 88.9512 407.143 88.4629C406.733 87.9746 406.528 87.2812 406.528 86.3828V79.8301H404.604V78.4336H406.528V75.875H408.334ZM411.852 83.6191C411.852 82.584 412.054 81.653 412.458 80.8262C412.868 79.9993 413.434 79.3613 414.157 78.9121C414.886 78.4629 415.716 78.2383 416.647 78.2383C418.086 78.2383 419.248 78.7363 420.134 79.7324C421.026 80.7285 421.471 82.0534 421.471 83.707V83.834C421.471 84.8626 421.273 85.7871 420.876 86.6074C420.485 87.4212 419.922 88.056 419.186 88.5117C418.457 88.9674 417.617 89.1953 416.667 89.1953C415.235 89.1953 414.072 88.6973 413.18 87.7012C412.295 86.7051 411.852 85.3867 411.852 83.7461V83.6191ZM413.669 83.834C413.669 85.0059 413.939 85.9466 414.479 86.6562C415.026 87.3659 415.755 87.7207 416.667 87.7207C417.585 87.7207 418.314 87.3626 418.854 86.6465C419.395 85.9238 419.665 84.9147 419.665 83.6191C419.665 82.4603 419.388 81.5228 418.835 80.8066C418.288 80.084 417.559 79.7227 416.647 79.7227C415.755 79.7227 415.036 80.0775 414.489 80.7871C413.942 81.4967 413.669 82.5124 413.669 83.834ZM429.787 89V79.8301H428.117V78.4336H429.787V77.3496C429.787 76.2168 430.089 75.3411 430.695 74.7227C431.3 74.1042 432.157 73.7949 433.263 73.7949C433.68 73.7949 434.093 73.8503 434.504 73.9609L434.406 75.4258C434.1 75.3672 433.774 75.3379 433.429 75.3379C432.843 75.3379 432.391 75.5104 432.072 75.8555C431.753 76.194 431.593 76.6823 431.593 77.3203V78.4336H433.849V79.8301H431.593V89H429.787ZM442.475 89C442.37 88.7917 442.286 88.4206 442.221 87.8867C441.381 88.7591 440.378 89.1953 439.213 89.1953C438.171 89.1953 437.315 88.9023 436.645 88.3164C435.98 87.724 435.648 86.9753 435.648 86.0703C435.648 84.9701 436.065 84.1172 436.898 83.5117C437.738 82.8997 438.917 82.5938 440.434 82.5938H442.191V81.7637C442.191 81.1322 442.003 80.6309 441.625 80.2598C441.247 79.8822 440.691 79.6934 439.955 79.6934C439.311 79.6934 438.77 79.8561 438.334 80.1816C437.898 80.5072 437.68 80.901 437.68 81.3633H435.863C435.863 80.8359 436.049 80.3281 436.42 79.8398C436.798 79.3451 437.305 78.9544 437.943 78.668C438.588 78.3815 439.294 78.2383 440.062 78.2383C441.28 78.2383 442.234 78.5443 442.924 79.1562C443.614 79.7617 443.972 80.5983 443.998 81.666V86.5293C443.998 87.4993 444.122 88.2708 444.369 88.8438V89H442.475ZM439.477 87.623C440.043 87.623 440.58 87.4766 441.088 87.1836C441.596 86.8906 441.964 86.5098 442.191 86.041V83.873H440.775C438.562 83.873 437.455 84.5208 437.455 85.8164C437.455 86.3828 437.644 86.8255 438.021 87.1445C438.399 87.4635 438.884 87.623 439.477 87.623ZM452.038 80.0547C451.764 80.0091 451.468 79.9863 451.149 79.9863C449.964 79.9863 449.16 80.4909 448.737 81.5V89H446.93V78.4336H448.688L448.717 79.6543C449.31 78.7103 450.149 78.2383 451.237 78.2383C451.588 78.2383 451.855 78.2839 452.038 78.375V80.0547ZM452.636 88.0527C452.636 87.7402 452.727 87.4798 452.909 87.2715C453.098 87.0632 453.378 86.959 453.749 86.959C454.12 86.959 454.4 87.0632 454.589 87.2715C454.784 87.4798 454.882 87.7402 454.882 88.0527C454.882 88.3522 454.784 88.6029 454.589 88.8047C454.4 89.0065 454.12 89.1074 453.749 89.1074C453.378 89.1074 453.098 89.0065 452.909 88.8047C452.727 88.6029 452.636 88.3522 452.636 88.0527ZM465.199 87.4668H471.937V89H463.314V74.7812H465.199V87.4668ZM478.277 89.1953C476.845 89.1953 475.68 88.7266 474.781 87.7891C473.883 86.8451 473.434 85.5853 473.434 84.0098V83.6777C473.434 82.6296 473.632 81.6953 474.029 80.875C474.433 80.0482 474.993 79.4036 475.709 78.9414C476.432 78.4727 477.213 78.2383 478.053 78.2383C479.426 78.2383 480.494 78.6908 481.256 79.5957C482.018 80.5007 482.398 81.7962 482.398 83.4824V84.2344H475.24C475.266 85.276 475.569 86.1191 476.148 86.7637C476.734 87.4017 477.477 87.7207 478.375 87.7207C479.013 87.7207 479.553 87.5905 479.996 87.3301C480.439 87.0697 480.826 86.7246 481.158 86.2949L482.262 87.1543C481.376 88.515 480.048 89.1953 478.277 89.1953ZM478.053 79.7227C477.324 79.7227 476.712 79.9896 476.217 80.5234C475.722 81.0508 475.416 81.793 475.299 82.75H480.592V82.6133C480.54 81.6953 480.292 80.9857 479.85 80.4844C479.407 79.9766 478.808 79.7227 478.053 79.7227ZM487.049 75.875V78.4336H489.022V79.8301H487.049V86.3828C487.049 86.806 487.137 87.125 487.313 87.3398C487.489 87.5482 487.788 87.6523 488.211 87.6523C488.42 87.6523 488.706 87.6133 489.071 87.5352V89C488.595 89.1302 488.133 89.1953 487.684 89.1953C486.877 89.1953 486.268 88.9512 485.858 88.4629C485.448 87.9746 485.243 87.2812 485.243 86.3828V79.8301H483.319V78.4336H485.243V75.875H487.049ZM491.368 78.7852L490.343 78.082C490.948 77.2357 491.261 76.3438 491.28 75.4062V74H493.067V75.2695C493.061 75.9206 492.898 76.5716 492.579 77.2227C492.266 77.8672 491.863 78.388 491.368 78.7852ZM500.404 86.1973C500.404 85.709 500.218 85.3314 499.847 85.0645C499.482 84.791 498.841 84.5566 497.923 84.3613C497.012 84.166 496.286 83.9316 495.745 83.6582C495.211 83.3848 494.814 83.0592 494.554 82.6816C494.3 82.304 494.173 81.8548 494.173 81.334C494.173 80.4681 494.538 79.7357 495.267 79.1367C496.002 78.5378 496.94 78.2383 498.079 78.2383C499.277 78.2383 500.247 78.5475 500.989 79.166C501.738 79.7845 502.113 80.5755 502.113 81.5391H500.296C500.296 81.0443 500.085 80.6178 499.661 80.2598C499.245 79.9017 498.717 79.7227 498.079 79.7227C497.422 79.7227 496.907 79.8659 496.536 80.1523C496.165 80.4388 495.98 80.8132 495.98 81.2754C495.98 81.7116 496.152 82.0404 496.497 82.2617C496.842 82.4831 497.464 82.6947 498.363 82.8965C499.267 83.0983 500 83.3392 500.56 83.6191C501.12 83.8991 501.533 84.2376 501.8 84.6348C502.073 85.0254 502.21 85.5039 502.21 86.0703C502.21 87.0143 501.833 87.7728 501.077 88.3457C500.322 88.9121 499.342 89.1953 498.138 89.1953C497.292 89.1953 496.543 89.0456 495.892 88.7461C495.241 88.4466 494.73 88.0299 494.359 87.4961C493.994 86.9557 493.812 86.373 493.812 85.748H495.618C495.651 86.3535 495.892 86.8353 496.341 87.1934C496.797 87.5449 497.396 87.7207 498.138 87.7207C498.822 87.7207 499.368 87.584 499.779 87.3105C500.195 87.0306 500.404 86.6595 500.404 86.1973ZM198.157 109.629C198.157 107.982 198.538 106.673 199.3 105.703C200.061 104.727 201.07 104.238 202.327 104.238C203.616 104.238 204.622 104.694 205.345 105.605L205.432 104.434H207.083V114.746C207.083 116.113 206.676 117.191 205.862 117.979C205.055 118.766 203.968 119.16 202.6 119.16C201.839 119.16 201.093 118.997 200.364 118.672C199.635 118.346 199.078 117.9 198.694 117.334L199.632 116.25C200.406 117.207 201.354 117.686 202.473 117.686C203.352 117.686 204.036 117.438 204.524 116.943C205.019 116.449 205.266 115.752 205.266 114.854V113.945C204.544 114.779 203.557 115.195 202.307 115.195C201.07 115.195 200.068 114.697 199.3 113.701C198.538 112.705 198.157 111.348 198.157 109.629ZM199.973 109.834C199.973 111.025 200.218 111.963 200.706 112.646C201.194 113.324 201.878 113.662 202.757 113.662C203.896 113.662 204.733 113.145 205.266 112.109V107.285C204.713 106.276 203.883 105.771 202.776 105.771C201.897 105.771 201.21 106.113 200.716 106.797C200.221 107.48 199.973 108.493 199.973 109.834ZM214.302 115.195C212.87 115.195 211.704 114.727 210.806 113.789C209.907 112.845 209.458 111.585 209.458 110.01V109.678C209.458 108.63 209.657 107.695 210.054 106.875C210.458 106.048 211.017 105.404 211.734 104.941C212.456 104.473 213.237 104.238 214.077 104.238C215.451 104.238 216.519 104.691 217.28 105.596C218.042 106.501 218.423 107.796 218.423 109.482V110.234H211.265C211.291 111.276 211.594 112.119 212.173 112.764C212.759 113.402 213.501 113.721 214.4 113.721C215.038 113.721 215.578 113.59 216.021 113.33C216.463 113.07 216.851 112.725 217.183 112.295L218.286 113.154C217.401 114.515 216.073 115.195 214.302 115.195ZM214.077 105.723C213.348 105.723 212.736 105.99 212.241 106.523C211.747 107.051 211.441 107.793 211.323 108.75H216.616V108.613C216.564 107.695 216.317 106.986 215.874 106.484C215.432 105.977 214.833 105.723 214.077 105.723ZM223.074 101.875V104.434H225.046V105.83H223.074V112.383C223.074 112.806 223.162 113.125 223.337 113.34C223.513 113.548 223.813 113.652 224.236 113.652C224.444 113.652 224.731 113.613 225.095 113.535V115C224.62 115.13 224.158 115.195 223.709 115.195C222.901 115.195 222.293 114.951 221.882 114.463C221.472 113.975 221.267 113.281 221.267 112.383V105.83H219.343V104.434H221.267V101.875H223.074ZM241.272 109.834C241.272 111.449 240.901 112.747 240.159 113.73C239.416 114.707 238.42 115.195 237.17 115.195C235.836 115.195 234.804 114.723 234.075 113.779L233.987 115H232.327V100H234.133V105.596C234.862 104.691 235.868 104.238 237.151 104.238C238.433 104.238 239.439 104.723 240.168 105.693C240.904 106.663 241.272 107.992 241.272 109.678V109.834ZM239.465 109.629C239.465 108.398 239.228 107.448 238.752 106.777C238.277 106.107 237.593 105.771 236.702 105.771C235.51 105.771 234.654 106.325 234.133 107.432V112.002C234.687 113.109 235.549 113.662 236.721 113.662C237.587 113.662 238.261 113.327 238.743 112.656C239.224 111.986 239.465 110.977 239.465 109.629ZM250.18 115C250.076 114.792 249.992 114.421 249.927 113.887C249.087 114.759 248.084 115.195 246.919 115.195C245.877 115.195 245.021 114.902 244.35 114.316C243.686 113.724 243.354 112.975 243.354 112.07C243.354 110.97 243.771 110.117 244.604 109.512C245.444 108.9 246.623 108.594 248.139 108.594H249.897V107.764C249.897 107.132 249.708 106.631 249.331 106.26C248.953 105.882 248.397 105.693 247.661 105.693C247.016 105.693 246.476 105.856 246.04 106.182C245.604 106.507 245.386 106.901 245.386 107.363H243.569C243.569 106.836 243.755 106.328 244.126 105.84C244.503 105.345 245.011 104.954 245.649 104.668C246.294 104.382 247 104.238 247.768 104.238C248.986 104.238 249.94 104.544 250.63 105.156C251.32 105.762 251.678 106.598 251.704 107.666V112.529C251.704 113.499 251.828 114.271 252.075 114.844V115H250.18ZM247.182 113.623C247.749 113.623 248.286 113.477 248.794 113.184C249.302 112.891 249.669 112.51 249.897 112.041V109.873H248.481C246.268 109.873 245.161 110.521 245.161 111.816C245.161 112.383 245.35 112.826 245.727 113.145C246.105 113.464 246.59 113.623 247.182 113.623ZM258.874 113.721C259.519 113.721 260.082 113.525 260.564 113.135C261.045 112.744 261.312 112.256 261.364 111.67H263.073C263.041 112.275 262.833 112.852 262.448 113.398C262.064 113.945 261.55 114.382 260.905 114.707C260.267 115.033 259.59 115.195 258.874 115.195C257.435 115.195 256.29 114.717 255.437 113.76C254.59 112.796 254.167 111.481 254.167 109.814V109.512C254.167 108.483 254.356 107.568 254.734 106.768C255.111 105.967 255.652 105.345 256.355 104.902C257.064 104.46 257.901 104.238 258.864 104.238C260.049 104.238 261.032 104.593 261.814 105.303C262.601 106.012 263.021 106.934 263.073 108.066H261.364C261.312 107.383 261.052 106.823 260.583 106.387C260.121 105.944 259.548 105.723 258.864 105.723C257.946 105.723 257.234 106.055 256.726 106.719C256.224 107.376 255.974 108.33 255.974 109.58V109.922C255.974 111.139 256.224 112.077 256.726 112.734C257.227 113.392 257.943 113.721 258.874 113.721ZM268.154 110.107L267.021 111.289V115H265.214V100H267.021V109.072L267.988 107.91L271.279 104.434H273.476L269.365 108.848L273.955 115H271.836L268.154 110.107ZM282.954 101.875V104.434H284.926V105.83H282.954V112.383C282.954 112.806 283.041 113.125 283.217 113.34C283.393 113.548 283.692 113.652 284.116 113.652C284.324 113.652 284.61 113.613 284.975 113.535V115C284.5 115.13 284.038 115.195 283.588 115.195C282.781 115.195 282.172 114.951 281.762 114.463C281.352 113.975 281.147 113.281 281.147 112.383V105.83H279.223V104.434H281.147V101.875H282.954ZM286.471 109.619C286.471 108.584 286.673 107.653 287.077 106.826C287.487 105.999 288.054 105.361 288.776 104.912C289.505 104.463 290.335 104.238 291.266 104.238C292.705 104.238 293.867 104.736 294.753 105.732C295.645 106.729 296.091 108.053 296.091 109.707V109.834C296.091 110.863 295.892 111.787 295.495 112.607C295.104 113.421 294.541 114.056 293.805 114.512C293.076 114.967 292.236 115.195 291.286 115.195C289.854 115.195 288.692 114.697 287.8 113.701C286.914 112.705 286.471 111.387 286.471 109.746V109.619ZM288.288 109.834C288.288 111.006 288.558 111.947 289.098 112.656C289.645 113.366 290.374 113.721 291.286 113.721C292.204 113.721 292.933 113.363 293.473 112.646C294.014 111.924 294.284 110.915 294.284 109.619C294.284 108.46 294.007 107.523 293.454 106.807C292.907 106.084 292.178 105.723 291.266 105.723C290.374 105.723 289.655 106.077 289.108 106.787C288.561 107.497 288.288 108.512 288.288 109.834ZM312.873 112.51L314.904 104.434H316.711L313.634 115H312.17L309.601 106.992L307.101 115H305.636L302.57 104.434H304.367L306.447 112.344L308.908 104.434H310.363L312.873 112.51ZM320.463 105.713C321.264 104.73 322.305 104.238 323.588 104.238C325.821 104.238 326.947 105.498 326.967 108.018V115H325.16V108.008C325.154 107.246 324.978 106.683 324.633 106.318C324.294 105.954 323.764 105.771 323.041 105.771C322.455 105.771 321.941 105.928 321.498 106.24C321.055 106.553 320.71 106.963 320.463 107.471V115H318.656V100H320.463V105.713ZM334.157 115.195C332.724 115.195 331.559 114.727 330.661 113.789C329.762 112.845 329.313 111.585 329.313 110.01V109.678C329.313 108.63 329.511 107.695 329.909 106.875C330.312 106.048 330.872 105.404 331.588 104.941C332.311 104.473 333.092 104.238 333.932 104.238C335.306 104.238 336.373 104.691 337.135 105.596C337.897 106.501 338.278 107.796 338.278 109.482V110.234H331.12C331.146 111.276 331.448 112.119 332.028 112.764C332.614 113.402 333.356 113.721 334.254 113.721C334.892 113.721 335.433 113.59 335.875 113.33C336.318 113.07 336.705 112.725 337.037 112.295L338.141 113.154C337.256 114.515 335.927 115.195 334.157 115.195ZM333.932 105.723C333.203 105.723 332.591 105.99 332.096 106.523C331.601 107.051 331.295 107.793 331.178 108.75H336.471V108.613C336.419 107.695 336.172 106.986 335.729 106.484C335.286 105.977 334.687 105.723 333.932 105.723ZM345.585 106.055C345.311 106.009 345.015 105.986 344.696 105.986C343.511 105.986 342.707 106.491 342.284 107.5V115H340.477V104.434H342.235L342.264 105.654C342.857 104.71 343.697 104.238 344.784 104.238C345.136 104.238 345.402 104.284 345.585 104.375V106.055ZM351.544 115.195C350.112 115.195 348.946 114.727 348.048 113.789C347.15 112.845 346.7 111.585 346.7 110.01V109.678C346.7 108.63 346.899 107.695 347.296 106.875C347.7 106.048 348.26 105.404 348.976 104.941C349.698 104.473 350.48 104.238 351.32 104.238C352.693 104.238 353.761 104.691 354.523 105.596C355.284 106.501 355.665 107.796 355.665 109.482V110.234H348.507C348.533 111.276 348.836 112.119 349.415 112.764C350.001 113.402 350.743 113.721 351.642 113.721C352.28 113.721 352.82 113.59 353.263 113.33C353.706 113.07 354.093 112.725 354.425 112.295L355.529 113.154C354.643 114.515 353.315 115.195 351.544 115.195ZM351.32 105.723C350.59 105.723 349.978 105.99 349.484 106.523C348.989 107.051 348.683 107.793 348.566 108.75H353.859V108.613C353.807 107.695 353.559 106.986 353.116 106.484C352.674 105.977 352.075 105.723 351.32 105.723ZM372.281 112.51L374.312 104.434H376.119L373.043 115H371.578L369.01 106.992L366.51 115H365.045L361.979 104.434H363.775L365.855 112.344L368.316 104.434H369.771L372.281 112.51ZM382.45 115.195C381.017 115.195 379.852 114.727 378.953 113.789C378.055 112.845 377.606 111.585 377.606 110.01V109.678C377.606 108.63 377.804 107.695 378.202 106.875C378.605 106.048 379.165 105.404 379.881 104.941C380.604 104.473 381.385 104.238 382.225 104.238C383.599 104.238 384.666 104.691 385.428 105.596C386.19 106.501 386.571 107.796 386.571 109.482V110.234H379.412C379.439 111.276 379.741 112.119 380.321 112.764C380.907 113.402 381.649 113.721 382.547 113.721C383.185 113.721 383.726 113.59 384.168 113.33C384.611 113.07 384.998 112.725 385.33 112.295L386.434 113.154C385.549 114.515 384.22 115.195 382.45 115.195ZM382.225 105.723C381.496 105.723 380.884 105.99 380.389 106.523C379.894 107.051 379.588 107.793 379.471 108.75H384.764V108.613C384.712 107.695 384.465 106.986 384.022 106.484C383.579 105.977 382.98 105.723 382.225 105.723ZM399.984 112.197C399.984 111.709 399.798 111.331 399.427 111.064C399.062 110.791 398.421 110.557 397.503 110.361C396.592 110.166 395.866 109.932 395.325 109.658C394.792 109.385 394.394 109.059 394.134 108.682C393.88 108.304 393.753 107.855 393.753 107.334C393.753 106.468 394.118 105.736 394.847 105.137C395.583 104.538 396.52 104.238 397.659 104.238C398.857 104.238 399.827 104.548 400.57 105.166C401.318 105.785 401.693 106.576 401.693 107.539H399.876C399.876 107.044 399.665 106.618 399.241 106.26C398.825 105.902 398.297 105.723 397.659 105.723C397.002 105.723 396.487 105.866 396.116 106.152C395.745 106.439 395.56 106.813 395.56 107.275C395.56 107.712 395.732 108.04 396.077 108.262C396.422 108.483 397.044 108.695 397.943 108.896C398.848 109.098 399.58 109.339 400.14 109.619C400.7 109.899 401.113 110.238 401.38 110.635C401.654 111.025 401.79 111.504 401.79 112.07C401.79 113.014 401.413 113.773 400.657 114.346C399.902 114.912 398.922 115.195 397.718 115.195C396.872 115.195 396.123 115.046 395.472 114.746C394.821 114.447 394.31 114.03 393.939 113.496C393.574 112.956 393.392 112.373 393.392 111.748H395.198C395.231 112.354 395.472 112.835 395.921 113.193C396.377 113.545 396.976 113.721 397.718 113.721C398.402 113.721 398.948 113.584 399.359 113.311C399.775 113.031 399.984 112.66 399.984 112.197ZM406.695 101.875V104.434H408.668V105.83H406.695V112.383C406.695 112.806 406.783 113.125 406.959 113.34C407.134 113.548 407.434 113.652 407.857 113.652C408.065 113.652 408.352 113.613 408.716 113.535V115C408.241 115.13 407.779 115.195 407.33 115.195C406.522 115.195 405.914 114.951 405.504 114.463C405.093 113.975 404.888 113.281 404.888 112.383V105.83H402.964V104.434H404.888V101.875H406.695ZM417.41 115C417.306 114.792 417.221 114.421 417.156 113.887C416.316 114.759 415.314 115.195 414.148 115.195C413.107 115.195 412.251 114.902 411.58 114.316C410.916 113.724 410.584 112.975 410.584 112.07C410.584 110.97 411.001 110.117 411.834 109.512C412.674 108.9 413.852 108.594 415.369 108.594H417.127V107.764C417.127 107.132 416.938 106.631 416.561 106.26C416.183 105.882 415.626 105.693 414.891 105.693C414.246 105.693 413.706 105.856 413.27 106.182C412.833 106.507 412.615 106.901 412.615 107.363H410.799C410.799 106.836 410.984 106.328 411.355 105.84C411.733 105.345 412.241 104.954 412.879 104.668C413.523 104.382 414.23 104.238 414.998 104.238C416.215 104.238 417.169 104.544 417.859 105.156C418.549 105.762 418.908 106.598 418.934 107.666V112.529C418.934 113.499 419.057 114.271 419.305 114.844V115H417.41ZM414.412 113.623C414.979 113.623 415.516 113.477 416.023 113.184C416.531 112.891 416.899 112.51 417.127 112.041V109.873H415.711C413.497 109.873 412.391 110.521 412.391 111.816C412.391 112.383 412.579 112.826 412.957 113.145C413.335 113.464 413.82 113.623 414.412 113.623ZM426.973 106.055C426.7 106.009 426.403 105.986 426.084 105.986C424.899 105.986 424.095 106.491 423.672 107.5V115H421.866V104.434H423.623L423.653 105.654C424.245 104.71 425.085 104.238 426.172 104.238C426.524 104.238 426.791 104.284 426.973 104.375V106.055ZM431.682 101.875V104.434H433.655V105.83H431.682V112.383C431.682 112.806 431.77 113.125 431.946 113.34C432.122 113.548 432.421 113.652 432.845 113.652C433.053 113.652 433.339 113.613 433.704 113.535V115C433.229 115.13 432.766 115.195 432.317 115.195C431.51 115.195 430.901 114.951 430.491 114.463C430.081 113.975 429.876 113.281 429.876 112.383V105.83H427.952V104.434H429.876V101.875H431.682ZM435.913 114.053C435.913 113.74 436.004 113.48 436.187 113.271C436.376 113.063 436.655 112.959 437.027 112.959C437.398 112.959 437.678 113.063 437.866 113.271C438.062 113.48 438.159 113.74 438.159 114.053C438.159 114.352 438.062 114.603 437.866 114.805C437.678 115.007 437.398 115.107 437.027 115.107C436.655 115.107 436.376 115.007 436.187 114.805C436.004 114.603 435.913 114.352 435.913 114.053Z" fill="#838282"/>
</svg>
