<svg width="533" height="73" viewBox="0 0 533 73" fill="none" xmlns="http://www.w3.org/2000/svg">
<path d="M86.8491 14.687C86.8491 16.4285 86.5562 17.9504 85.9702 19.2524C85.3843 20.5464 84.5542 21.5352 83.48 22.2188C82.4058 22.9023 81.1525 23.2441 79.7202 23.2441C78.3205 23.2441 77.0794 22.9023 75.9971 22.2188C74.9147 21.527 74.0724 20.5464 73.4702 19.2769C72.8761 17.9992 72.571 16.5221 72.5547 14.8457V13.564C72.5547 11.855 72.8517 10.3454 73.4458 9.03516C74.0399 7.72493 74.8781 6.72396 75.9604 6.03223C77.0509 5.33236 78.2961 4.98242 79.6958 4.98242C81.12 4.98242 82.3732 5.32829 83.4556 6.02002C84.5461 6.70361 85.3843 7.70052 85.9702 9.01074C86.5562 10.3128 86.8491 11.8306 86.8491 13.564V14.687ZM84.5176 13.5396C84.5176 11.4318 84.0944 9.81641 83.248 8.69336C82.4017 7.56217 81.2176 6.99658 79.6958 6.99658C78.2147 6.99658 77.0469 7.56217 76.1924 8.69336C75.346 9.81641 74.9106 11.3789 74.8862 13.3809V14.687C74.8862 16.7297 75.3135 18.3369 76.168 19.5088C77.0306 20.6725 78.2147 21.2544 79.7202 21.2544C81.2339 21.2544 82.4058 20.7051 83.2358 19.6064C84.0659 18.4997 84.4932 16.9168 84.5176 14.8579V13.5396ZM92.269 11.3911C93.27 10.1623 94.5721 9.54785 96.1753 9.54785C98.9666 9.54785 100.375 11.1226 100.399 14.272V23H98.1406V14.2598C98.1325 13.3076 97.9128 12.6037 97.4814 12.1479C97.0583 11.6922 96.395 11.4644 95.4917 11.4644C94.7593 11.4644 94.1164 11.6597 93.563 12.0503C93.0096 12.4409 92.5783 12.9536 92.269 13.5884V23H90.0107V4.25H92.269V11.3911ZM112.118 9.79199L112.191 11.4521C113.2 10.1826 114.518 9.54785 116.146 9.54785C118.937 9.54785 120.345 11.1226 120.37 14.272V23H118.111V14.2598C118.103 13.3076 117.883 12.6037 117.452 12.1479C117.029 11.6922 116.366 11.4644 115.462 11.4644C114.73 11.4644 114.087 11.6597 113.534 12.0503C112.98 12.4409 112.549 12.9536 112.24 13.5884V23H109.981V9.79199H112.118ZM123.177 16.2739C123.177 14.98 123.43 13.8162 123.934 12.7827C124.447 11.7492 125.155 10.9517 126.058 10.3901C126.97 9.82861 128.007 9.54785 129.171 9.54785C130.969 9.54785 132.422 10.1704 133.529 11.4155C134.644 12.6606 135.201 14.3167 135.201 16.3838V16.5425C135.201 17.8283 134.953 18.9839 134.457 20.0093C133.968 21.0265 133.264 21.82 132.345 22.3896C131.433 22.9593 130.383 23.2441 129.195 23.2441C127.405 23.2441 125.952 22.6216 124.837 21.3765C123.731 20.1313 123.177 18.4834 123.177 16.4326V16.2739ZM125.448 16.5425C125.448 18.0073 125.785 19.1833 126.461 20.0703C127.145 20.9574 128.056 21.4009 129.195 21.4009C130.343 21.4009 131.254 20.9533 131.93 20.0581C132.605 19.1548 132.943 17.8934 132.943 16.2739C132.943 14.8254 132.597 13.6535 131.905 12.7583C131.222 11.855 130.31 11.4033 129.171 11.4033C128.056 11.4033 127.157 11.8468 126.473 12.7339C125.79 13.6209 125.448 14.8905 125.448 16.5425ZM140.56 17.9829H138.521L138.363 5.22656H140.731L140.56 17.9829ZM138.277 21.8647C138.277 21.4985 138.387 21.1934 138.607 20.9492C138.835 20.6969 139.168 20.5708 139.608 20.5708C140.047 20.5708 140.381 20.6969 140.609 20.9492C140.837 21.1934 140.951 21.4985 140.951 21.8647C140.951 22.231 140.837 22.5361 140.609 22.7803C140.381 23.0163 140.047 23.1343 139.608 23.1343C139.168 23.1343 138.835 23.0163 138.607 22.7803C138.387 22.5361 138.277 22.231 138.277 21.8647ZM147.005 17.9829H144.967L144.808 5.22656H147.176L147.005 17.9829ZM144.723 21.8647C144.723 21.4985 144.833 21.1934 145.052 20.9492C145.28 20.6969 145.614 20.5708 146.053 20.5708C146.493 20.5708 146.826 20.6969 147.054 20.9492C147.282 21.1934 147.396 21.4985 147.396 21.8647C147.396 22.231 147.282 22.5361 147.054 22.7803C146.826 23.0163 146.493 23.1343 146.053 23.1343C145.614 23.1343 145.28 23.0163 145.052 22.7803C144.833 22.5361 144.723 22.231 144.723 21.8647ZM160.189 6.59375V9.79199H162.655V11.5376H160.189V19.7285C160.189 20.2575 160.299 20.6562 160.519 20.9248C160.738 21.1852 161.113 21.3154 161.642 21.3154C161.902 21.3154 162.26 21.2666 162.716 21.1689V23C162.122 23.1628 161.544 23.2441 160.982 23.2441C159.973 23.2441 159.212 22.939 158.7 22.3286C158.187 21.7183 157.931 20.8516 157.931 19.7285V11.5376H155.526V9.79199H157.931V6.59375H160.189ZM171.688 11.8184C171.346 11.7614 170.976 11.7329 170.577 11.7329C169.096 11.7329 168.091 12.3636 167.562 13.625V23H165.304V9.79199H167.501L167.538 11.3179C168.278 10.1379 169.328 9.54785 170.687 9.54785C171.126 9.54785 171.46 9.60482 171.688 9.71875V11.8184ZM172.933 16.2739C172.933 14.98 173.185 13.8162 173.69 12.7827C174.203 11.7492 174.911 10.9517 175.814 10.3901C176.725 9.82861 177.763 9.54785 178.927 9.54785C180.725 9.54785 182.178 10.1704 183.285 11.4155C184.4 12.6606 184.957 14.3167 184.957 16.3838V16.5425C184.957 17.8283 184.709 18.9839 184.212 20.0093C183.724 21.0265 183.02 21.82 182.101 22.3896C181.189 22.9593 180.139 23.2441 178.951 23.2441C177.161 23.2441 175.708 22.6216 174.593 21.3765C173.486 20.1313 172.933 18.4834 172.933 16.4326V16.2739ZM175.204 16.5425C175.204 18.0073 175.541 19.1833 176.217 20.0703C176.9 20.9574 177.812 21.4009 178.951 21.4009C180.099 21.4009 181.01 20.9533 181.686 20.0581C182.361 19.1548 182.699 17.8934 182.699 16.2739C182.699 14.8254 182.353 13.6535 181.661 12.7583C180.978 11.855 180.066 11.4033 178.927 11.4033C177.812 11.4033 176.913 11.8468 176.229 12.7339C175.545 13.6209 175.204 14.8905 175.204 16.5425ZM190.243 23H187.984V4.25H190.243V23ZM196.322 23H194.063V9.79199H196.322V23ZM193.88 6.28857C193.88 5.92236 193.99 5.61312 194.21 5.36084C194.438 5.10856 194.771 4.98242 195.211 4.98242C195.65 4.98242 195.984 5.10856 196.212 5.36084C196.44 5.61312 196.554 5.92236 196.554 6.28857C196.554 6.65479 196.44 6.95996 196.212 7.2041C195.984 7.44824 195.65 7.57031 195.211 7.57031C194.771 7.57031 194.438 7.44824 194.21 7.2041C193.99 6.95996 193.88 6.65479 193.88 6.28857ZM217.33 16.5425C217.33 18.5607 216.866 20.1842 215.938 21.4131C215.011 22.6338 213.766 23.2441 212.203 23.2441C210.535 23.2441 209.245 22.6541 208.333 21.4741L208.224 23H206.148V4.25H208.407V11.2446C209.318 10.1134 210.576 9.54785 212.179 9.54785C213.782 9.54785 215.039 10.1541 215.951 11.3667C216.87 12.5793 217.33 14.2394 217.33 16.3472V16.5425ZM215.072 16.2861C215.072 14.748 214.775 13.5599 214.181 12.7217C213.587 11.8835 212.732 11.4644 211.617 11.4644C210.128 11.4644 209.058 12.1561 208.407 13.5396V19.2524C209.098 20.6359 210.177 21.3276 211.642 21.3276C212.724 21.3276 213.566 20.9085 214.168 20.0703C214.771 19.2321 215.072 17.9707 215.072 16.2861ZM225.667 23.2441C223.877 23.2441 222.42 22.6582 221.297 21.4863C220.174 20.3063 219.613 18.7316 219.613 16.7622V16.3472C219.613 15.0369 219.861 13.8691 220.357 12.8438C220.862 11.8102 221.562 11.0046 222.457 10.4268C223.36 9.84082 224.337 9.54785 225.387 9.54785C227.104 9.54785 228.438 10.1134 229.391 11.2446C230.343 12.3758 230.819 13.9953 230.819 16.103V17.043H221.871C221.904 18.3451 222.282 19.3989 223.006 20.2046C223.739 21.0021 224.667 21.4009 225.79 21.4009C226.587 21.4009 227.263 21.2381 227.816 20.9126C228.369 20.5871 228.854 20.1558 229.269 19.6187L230.648 20.6929C229.541 22.3937 227.881 23.2441 225.667 23.2441ZM225.387 11.4033C224.475 11.4033 223.71 11.737 223.092 12.4043C222.473 13.0635 222.091 13.9912 221.944 15.1875H228.561V15.0166C228.495 13.8691 228.186 12.9821 227.633 12.3555C227.079 11.7207 226.331 11.4033 225.387 11.4033ZM235.897 23H233.639V4.25H235.897V23ZM247.677 23C247.547 22.7396 247.441 22.2757 247.359 21.6084C246.31 22.6989 245.056 23.2441 243.6 23.2441C242.298 23.2441 241.227 22.8779 240.389 22.1455C239.559 21.4049 239.144 20.4691 239.144 19.3379C239.144 17.9626 239.665 16.8965 240.707 16.1396C241.756 15.3747 243.229 14.9922 245.125 14.9922H247.323V13.9546C247.323 13.1652 247.087 12.5386 246.615 12.0747C246.143 11.6027 245.447 11.3667 244.527 11.3667C243.722 11.3667 243.046 11.5701 242.501 11.9771C241.956 12.384 241.683 12.8763 241.683 13.4541H239.413C239.413 12.7949 239.645 12.1602 240.108 11.5498C240.58 10.9313 241.215 10.443 242.013 10.085C242.818 9.72689 243.701 9.54785 244.662 9.54785C246.183 9.54785 247.376 9.93034 248.238 10.6953C249.101 11.4521 249.549 12.4979 249.581 13.8325V19.9116C249.581 21.1242 249.736 22.0885 250.045 22.8047V23H247.677ZM243.929 21.2788C244.637 21.2788 245.309 21.0957 245.943 20.7295C246.578 20.3633 247.038 19.8872 247.323 19.3013V16.5913H245.553C242.786 16.5913 241.402 17.401 241.402 19.0205C241.402 19.7285 241.638 20.2819 242.11 20.6807C242.582 21.0794 243.189 21.2788 243.929 21.2788ZM255.257 9.79199L255.331 11.4521C256.34 10.1826 257.658 9.54785 259.286 9.54785C262.077 9.54785 263.485 11.1226 263.509 14.272V23H261.251V14.2598C261.243 13.3076 261.023 12.6037 260.592 12.1479C260.169 11.6922 259.505 11.4644 258.602 11.4644C257.87 11.4644 257.227 11.6597 256.673 12.0503C256.12 12.4409 255.689 12.9536 255.379 13.5884V23H253.121V9.79199H255.257ZM269.247 9.79199V24.5259C269.247 27.0649 268.095 28.3345 265.792 28.3345C265.296 28.3345 264.836 28.2612 264.413 28.1147V26.3081C264.673 26.3732 265.015 26.4058 265.438 26.4058C265.943 26.4058 266.325 26.2674 266.585 25.9907C266.854 25.7222 266.988 25.2502 266.988 24.5747V9.79199H269.247ZM266.756 6.28857C266.756 5.9305 266.866 5.62533 267.086 5.37305C267.314 5.11263 267.643 4.98242 268.075 4.98242C268.514 4.98242 268.848 5.10856 269.076 5.36084C269.304 5.61312 269.417 5.92236 269.417 6.28857C269.417 6.65479 269.304 6.95996 269.076 7.2041C268.848 7.44824 268.514 7.57031 268.075 7.57031C267.635 7.57031 267.306 7.44824 267.086 7.2041C266.866 6.95996 266.756 6.65479 266.756 6.28857ZM281.051 23C280.921 22.7396 280.815 22.2757 280.733 21.6084C279.684 22.6989 278.43 23.2441 276.974 23.2441C275.672 23.2441 274.601 22.8779 273.763 22.1455C272.933 21.4049 272.518 20.4691 272.518 19.3379C272.518 17.9626 273.039 16.8965 274.081 16.1396C275.13 15.3747 276.603 14.9922 278.5 14.9922H280.697V13.9546C280.697 13.1652 280.461 12.5386 279.989 12.0747C279.517 11.6027 278.821 11.3667 277.901 11.3667C277.096 11.3667 276.42 11.5701 275.875 11.9771C275.33 12.384 275.057 12.8763 275.057 13.4541H272.787C272.787 12.7949 273.019 12.1602 273.482 11.5498C273.954 10.9313 274.589 10.443 275.387 10.085C276.192 9.72689 277.075 9.54785 278.036 9.54785C279.557 9.54785 280.75 9.93034 281.612 10.6953C282.475 11.4521 282.923 12.4979 282.955 13.8325V19.9116C282.955 21.1242 283.11 22.0885 283.419 22.8047V23H281.051ZM277.303 21.2788C278.011 21.2788 278.683 21.0957 279.317 20.7295C279.952 20.3633 280.412 19.8872 280.697 19.3013V16.5913H278.927C276.16 16.5913 274.776 17.401 274.776 19.0205C274.776 19.7285 275.012 20.2819 275.484 20.6807C275.956 21.0794 276.563 21.2788 277.303 21.2788ZM296.383 16.8843L294.967 18.3613V23H292.708V4.25H294.967V15.5903L296.175 14.1377L300.289 9.79199H303.036L297.896 15.3096L303.634 23H300.985L296.383 16.8843ZM313.521 23C313.391 22.7396 313.285 22.2757 313.204 21.6084C312.154 22.6989 310.901 23.2441 309.444 23.2441C308.142 23.2441 307.072 22.8779 306.234 22.1455C305.404 21.4049 304.989 20.4691 304.989 19.3379C304.989 17.9626 305.51 16.8965 306.551 16.1396C307.601 15.3747 309.074 14.9922 310.97 14.9922H313.167V13.9546C313.167 13.1652 312.931 12.5386 312.459 12.0747C311.987 11.6027 311.292 11.3667 310.372 11.3667C309.566 11.3667 308.891 11.5701 308.346 11.9771C307.8 12.384 307.528 12.8763 307.528 13.4541H305.257C305.257 12.7949 305.489 12.1602 305.953 11.5498C306.425 10.9313 307.06 10.443 307.857 10.085C308.663 9.72689 309.546 9.54785 310.506 9.54785C312.028 9.54785 313.22 9.93034 314.083 10.6953C314.946 11.4521 315.393 12.4979 315.426 13.8325V19.9116C315.426 21.1242 315.58 22.0885 315.89 22.8047V23H313.521ZM309.774 21.2788C310.482 21.2788 311.153 21.0957 311.788 20.7295C312.423 20.3633 312.883 19.8872 313.167 19.3013V16.5913H311.397C308.631 16.5913 307.247 17.401 307.247 19.0205C307.247 19.7285 307.483 20.2819 307.955 20.6807C308.427 21.0794 309.033 21.2788 309.774 21.2788ZM321.09 9.79199L321.151 11.2568C322.119 10.1175 323.425 9.54785 325.069 9.54785C326.917 9.54785 328.174 10.2559 328.841 11.6719C329.281 11.0371 329.85 10.5244 330.55 10.1338C331.258 9.74316 332.092 9.54785 333.053 9.54785C335.95 9.54785 337.423 11.0819 337.472 14.1499V23H335.213V14.2842C335.213 13.3402 334.998 12.6362 334.566 12.1724C334.135 11.7004 333.411 11.4644 332.394 11.4644C331.555 11.4644 330.86 11.7166 330.306 12.2212C329.753 12.7176 329.431 13.389 329.342 14.2354V23H327.071V14.3452C327.071 12.4246 326.131 11.4644 324.251 11.4644C322.77 11.4644 321.757 12.0951 321.212 13.3564V23H318.954V9.79199H321.09ZM349.044 21.6938C348.165 22.7274 346.875 23.2441 345.174 23.2441C343.766 23.2441 342.692 22.8372 341.952 22.0234C341.219 21.2015 340.849 19.9889 340.841 18.3857V9.79199H343.099V18.3247C343.099 20.3267 343.913 21.3276 345.541 21.3276C347.266 21.3276 348.413 20.6847 348.983 19.3989V9.79199H351.241V23H349.093L349.044 21.6938ZM364.571 16.8843L363.155 18.3613V23H360.897V4.25H363.155V15.5903L364.364 14.1377L368.478 9.79199H371.224L366.085 15.3096L371.822 23H369.173L364.571 16.8843ZM372.958 16.2739C372.958 14.98 373.21 13.8162 373.714 12.7827C374.227 11.7492 374.935 10.9517 375.838 10.3901C376.75 9.82861 377.787 9.54785 378.951 9.54785C380.75 9.54785 382.202 10.1704 383.309 11.4155C384.424 12.6606 384.981 14.3167 384.981 16.3838V16.5425C384.981 17.8283 384.733 18.9839 384.237 20.0093C383.749 21.0265 383.045 21.82 382.125 22.3896C381.214 22.9593 380.164 23.2441 378.976 23.2441C377.185 23.2441 375.733 22.6216 374.618 21.3765C373.511 20.1313 372.958 18.4834 372.958 16.4326V16.2739ZM375.228 16.5425C375.228 18.0073 375.566 19.1833 376.241 20.0703C376.925 20.9574 377.836 21.4009 378.976 21.4009C380.123 21.4009 381.035 20.9533 381.71 20.0581C382.385 19.1548 382.723 17.8934 382.723 16.2739C382.723 14.8254 382.377 13.6535 381.686 12.7583C381.002 11.855 380.09 11.4033 378.951 11.4033C377.836 11.4033 376.937 11.8468 376.253 12.7339C375.57 13.6209 375.228 14.8905 375.228 16.5425ZM395.504 19.4966C395.504 18.8862 395.272 18.4142 394.808 18.0806C394.352 17.7388 393.551 17.4458 392.403 17.2017C391.264 16.9575 390.357 16.6646 389.681 16.3228C389.014 15.981 388.517 15.5741 388.192 15.1021C387.875 14.63 387.716 14.0685 387.716 13.4175C387.716 12.3351 388.172 11.4196 389.083 10.6709C390.003 9.9222 391.174 9.54785 392.599 9.54785C394.096 9.54785 395.309 9.93441 396.236 10.7075C397.172 11.4806 397.64 12.4694 397.64 13.6738H395.37C395.37 13.0553 395.105 12.5223 394.576 12.0747C394.055 11.6271 393.396 11.4033 392.599 11.4033C391.777 11.4033 391.134 11.5824 390.67 11.9404C390.206 12.2985 389.974 12.7664 389.974 13.3442C389.974 13.8895 390.19 14.3005 390.621 14.5771C391.052 14.8538 391.83 15.1183 392.953 15.3706C394.084 15.6229 394.999 15.924 395.699 16.2739C396.399 16.6239 396.916 17.047 397.25 17.5435C397.591 18.0317 397.762 18.6299 397.762 19.3379C397.762 20.5179 397.29 21.466 396.346 22.1821C395.402 22.8901 394.177 23.2441 392.672 23.2441C391.614 23.2441 390.678 23.057 389.864 22.6826C389.05 22.3083 388.412 21.7874 387.948 21.1201C387.492 20.4447 387.264 19.7163 387.264 18.9351H389.522C389.563 19.6919 389.864 20.2941 390.426 20.7417C390.995 21.1812 391.744 21.4009 392.672 21.4009C393.526 21.4009 394.21 21.23 394.723 20.8882C395.243 20.5382 395.504 20.0744 395.504 19.4966ZM400.106 16.2739C400.106 14.98 400.358 13.8162 400.863 12.7827C401.375 11.7492 402.083 10.9517 402.987 10.3901C403.898 9.82861 404.936 9.54785 406.1 9.54785C407.898 9.54785 409.351 10.1704 410.458 11.4155C411.572 12.6606 412.13 14.3167 412.13 16.3838V16.5425C412.13 17.8283 411.882 18.9839 411.385 20.0093C410.897 21.0265 410.193 21.82 409.273 22.3896C408.362 22.9593 407.312 23.2441 406.124 23.2441C404.334 23.2441 402.881 22.6216 401.766 21.3765C400.659 20.1313 400.106 18.4834 400.106 16.4326V16.2739ZM402.376 16.5425C402.376 18.0073 402.714 19.1833 403.39 20.0703C404.073 20.9574 404.985 21.4009 406.124 21.4009C407.271 21.4009 408.183 20.9533 408.858 20.0581C409.534 19.1548 409.872 17.8934 409.872 16.2739C409.872 14.8254 409.526 13.6535 408.834 12.7583C408.15 11.855 407.239 11.4033 406.1 11.4033C404.985 11.4033 404.085 11.8468 403.402 12.7339C402.718 13.6209 402.376 14.8905 402.376 16.5425ZM417.098 9.79199L417.171 11.4521C418.181 10.1826 419.499 9.54785 421.126 9.54785C423.918 9.54785 425.326 11.1226 425.35 14.272V23H423.092V14.2598C423.084 13.3076 422.864 12.6037 422.433 12.1479C422.009 11.6922 421.346 11.4644 420.443 11.4644C419.71 11.4644 419.068 11.6597 418.514 12.0503C417.961 12.4409 417.529 12.9536 417.22 13.5884V23H414.962V9.79199H417.098ZM428.219 16.2861C428.219 14.2272 428.695 12.5915 429.647 11.3789C430.599 10.1582 431.861 9.54785 433.431 9.54785C435.042 9.54785 436.3 10.1175 437.203 11.2568L437.313 9.79199H439.376V22.6826C439.376 24.3916 438.867 25.7384 437.85 26.7231C436.841 27.7078 435.482 28.2002 433.773 28.2002C432.821 28.2002 431.889 27.9967 430.978 27.5898C430.066 27.1829 429.37 26.6255 428.89 25.9175L430.062 24.5625C431.03 25.7588 432.215 26.3569 433.614 26.3569C434.713 26.3569 435.567 26.0477 436.178 25.4292C436.796 24.8107 437.105 23.9399 437.105 22.8169V21.6816C436.202 22.7233 434.969 23.2441 433.407 23.2441C431.861 23.2441 430.607 22.6216 429.647 21.3765C428.695 20.1313 428.219 18.4346 428.219 16.2861ZM430.489 16.5425C430.489 18.0317 430.794 19.2036 431.405 20.0581C432.015 20.9045 432.87 21.3276 433.968 21.3276C435.392 21.3276 436.438 20.6807 437.105 19.3867V13.3564C436.414 12.0951 435.376 11.4644 433.993 11.4644C432.894 11.4644 432.035 11.8916 431.417 12.7461C430.799 13.6006 430.489 14.866 430.489 16.5425ZM448.922 21.8159C448.922 21.4253 449.036 21.0998 449.264 20.8394C449.5 20.5789 449.85 20.4487 450.313 20.4487C450.777 20.4487 451.127 20.5789 451.363 20.8394C451.607 21.0998 451.729 21.4253 451.729 21.8159C451.729 22.1903 451.607 22.5036 451.363 22.7559C451.127 23.0081 450.777 23.1343 450.313 23.1343C449.85 23.1343 449.5 23.0081 449.264 22.7559C449.036 22.5036 448.922 22.1903 448.922 21.8159ZM448.934 11.0371C448.934 10.6465 449.048 10.321 449.276 10.0605C449.512 9.80013 449.862 9.66992 450.326 9.66992C450.79 9.66992 451.139 9.80013 451.375 10.0605C451.62 10.321 451.742 10.6465 451.742 11.0371C451.742 11.4115 451.62 11.7248 451.375 11.9771C451.139 12.2293 450.79 12.3555 450.326 12.3555C449.862 12.3555 449.512 12.2293 449.276 11.9771C449.048 11.7248 448.934 11.4115 448.934 11.0371ZM454.964 15.7856C454.964 13.9465 455.208 12.1805 455.697 10.4878C456.193 8.79508 456.93 7.257 457.906 5.87354C458.883 4.49007 459.896 3.51351 460.946 2.94385L461.41 4.43311C460.222 5.34456 459.245 6.73617 458.48 8.60791C457.723 10.4797 457.308 12.5752 457.235 14.8945L457.223 15.9321C457.223 19.0734 457.796 21.7996 458.944 24.1108C459.636 25.4943 460.458 26.5767 461.41 27.3579L460.946 28.7373C459.863 28.1351 458.83 27.126 457.845 25.71C455.925 22.943 454.964 19.6349 454.964 15.7856Z" fill="#363636"/>
<path d="M9.81055 64.2891H3.85352L2.51562 68H0.582031L6.01172 53.7812H7.65234L13.0918 68H11.168L9.81055 64.2891ZM4.41992 62.7461H9.25391L6.83203 56.0957L4.41992 62.7461ZM17.6914 65.3535L20.1523 57.4336H22.0859L17.8379 69.6309C17.1803 71.3887 16.1354 72.2676 14.7031 72.2676L14.3613 72.2383L13.6875 72.1113V70.6465L14.1758 70.6855C14.7878 70.6855 15.263 70.5618 15.6016 70.3145C15.9466 70.0671 16.2298 69.6146 16.4512 68.957L16.8516 67.8828L13.082 57.4336H15.0547L17.6914 65.3535ZM23.0723 62.6191C23.0723 61.584 23.2741 60.653 23.6777 59.8262C24.0879 58.9993 24.6543 58.3613 25.377 57.9121C26.1061 57.4629 26.9362 57.2383 27.8672 57.2383C29.306 57.2383 30.4681 57.7363 31.3535 58.7324C32.2454 59.7285 32.6914 61.0534 32.6914 62.707V62.834C32.6914 63.8626 32.4928 64.7871 32.0957 65.6074C31.7051 66.4212 31.1419 67.056 30.4062 67.5117C29.6771 67.9674 28.8372 68.1953 27.8867 68.1953C26.4544 68.1953 25.2923 67.6973 24.4004 66.7012C23.515 65.7051 23.0723 64.3867 23.0723 62.7461V62.6191ZM24.8887 62.834C24.8887 64.0059 25.1589 64.9466 25.6992 65.6562C26.2461 66.3659 26.9753 66.7207 27.8867 66.7207C28.8047 66.7207 29.5339 66.3626 30.0742 65.6465C30.6146 64.9238 30.8848 63.9147 30.8848 62.6191C30.8848 61.4603 30.6081 60.5228 30.0547 59.8066C29.5078 59.084 28.7786 58.7227 27.8672 58.7227C26.9753 58.7227 26.2559 59.0775 25.709 59.7871C25.1621 60.4967 24.8887 61.5124 24.8887 62.834ZM41.6172 57.4336L41.666 58.6055C42.4408 57.694 43.4857 57.2383 44.8008 57.2383C46.2786 57.2383 47.2845 57.8047 47.8184 58.9375C48.1699 58.4297 48.6257 58.0195 49.1855 57.707C49.752 57.3945 50.4193 57.2383 51.1875 57.2383C53.5052 57.2383 54.6836 58.4655 54.7227 60.9199V68H52.916V61.0273C52.916 60.2721 52.7435 59.709 52.3984 59.3379C52.0534 58.9603 51.474 58.7715 50.6602 58.7715C49.9896 58.7715 49.4329 58.9733 48.9902 59.377C48.5475 59.7741 48.2904 60.3112 48.2188 60.9883V68H46.4023V61.0762C46.4023 59.5397 45.6504 58.7715 44.1465 58.7715C42.9616 58.7715 42.151 59.276 41.7148 60.2852V68H39.9082V57.4336H41.6172ZM63.9805 66.9551C63.2773 67.7819 62.2454 68.1953 60.8848 68.1953C59.7585 68.1953 58.8991 67.8698 58.3066 67.2188C57.7207 66.5612 57.4245 65.5911 57.418 64.3086V57.4336H59.2246V64.2598C59.2246 65.8613 59.8757 66.6621 61.1777 66.6621C62.5579 66.6621 63.4759 66.1478 63.9316 65.1191V57.4336H65.7383V68H64.0195L63.9805 66.9551ZM70.4551 68H68.6484V53H70.4551V68ZM79.8789 68C79.7747 67.7917 79.6901 67.4206 79.625 66.8867C78.7852 67.7591 77.7826 68.1953 76.6172 68.1953C75.5755 68.1953 74.7194 67.9023 74.0488 67.3164C73.3848 66.724 73.0527 65.9753 73.0527 65.0703C73.0527 63.9701 73.4694 63.1172 74.3027 62.5117C75.1426 61.8997 76.321 61.5938 77.8379 61.5938H79.5957V60.7637C79.5957 60.1322 79.4069 59.6309 79.0293 59.2598C78.6517 58.8822 78.0951 58.6934 77.3594 58.6934C76.7148 58.6934 76.1745 58.8561 75.7383 59.1816C75.3021 59.5072 75.084 59.901 75.084 60.3633H73.2676C73.2676 59.8359 73.4531 59.3281 73.8242 58.8398C74.2018 58.3451 74.7096 57.9544 75.3477 57.668C75.9922 57.3815 76.6986 57.2383 77.4668 57.2383C78.6842 57.2383 79.638 57.5443 80.3281 58.1562C81.0182 58.7617 81.3763 59.5983 81.4023 60.666V65.5293C81.4023 66.4993 81.526 67.2708 81.7734 67.8438V68H79.8789ZM76.8809 66.623C77.4473 66.623 77.9844 66.4766 78.4922 66.1836C79 65.8906 79.3678 65.5098 79.5957 65.041V62.873H78.1797C75.9661 62.873 74.8594 63.5208 74.8594 64.8164C74.8594 65.3828 75.0482 65.8255 75.4258 66.1445C75.8034 66.4635 76.2884 66.623 76.8809 66.623ZM86.1973 68H84.3906V57.4336H86.1973V68ZM84.2441 54.6309C84.2441 54.3379 84.332 54.0905 84.5078 53.8887C84.6901 53.6868 84.957 53.5859 85.3086 53.5859C85.6602 53.5859 85.9271 53.6868 86.1094 53.8887C86.2917 54.0905 86.3828 54.3379 86.3828 54.6309C86.3828 54.9238 86.2917 55.168 86.1094 55.3633C85.9271 55.5586 85.6602 55.6562 85.3086 55.6562C84.957 55.6562 84.6901 55.5586 84.5078 55.3633C84.332 55.168 84.2441 54.9238 84.2441 54.6309ZM103.004 62.834C103.004 64.4486 102.633 65.7474 101.891 66.7305C101.148 67.707 100.152 68.1953 98.9023 68.1953C97.5677 68.1953 96.5358 67.7233 95.8066 66.7793L95.7188 68H94.0586V53H95.8652V58.5957C96.5944 57.6908 97.6003 57.2383 98.8828 57.2383C100.165 57.2383 101.171 57.7233 101.9 58.6934C102.636 59.6634 103.004 60.9915 103.004 62.6777V62.834ZM101.197 62.6289C101.197 61.3984 100.96 60.4479 100.484 59.7773C100.009 59.1068 99.3255 58.7715 98.4336 58.7715C97.2422 58.7715 96.3861 59.3249 95.8652 60.4316V65.002C96.4186 66.1087 97.2812 66.6621 98.4531 66.6621C99.319 66.6621 99.9928 66.3268 100.475 65.6562C100.956 64.9857 101.197 63.9766 101.197 62.6289ZM109.674 68.1953C108.242 68.1953 107.076 67.7266 106.178 66.7891C105.279 65.8451 104.83 64.5853 104.83 63.0098V62.6777C104.83 61.6296 105.029 60.6953 105.426 59.875C105.829 59.0482 106.389 58.4036 107.105 57.9414C107.828 57.4727 108.609 57.2383 109.449 57.2383C110.823 57.2383 111.891 57.6908 112.652 58.5957C113.414 59.5007 113.795 60.7962 113.795 62.4824V63.2344H106.637C106.663 64.276 106.965 65.1191 107.545 65.7637C108.131 66.4017 108.873 66.7207 109.771 66.7207C110.41 66.7207 110.95 66.5905 111.393 66.3301C111.835 66.0697 112.223 65.7246 112.555 65.2949L113.658 66.1543C112.773 67.515 111.445 68.1953 109.674 68.1953ZM109.449 58.7227C108.72 58.7227 108.108 58.9896 107.613 59.5234C107.118 60.0508 106.812 60.793 106.695 61.75H111.988V61.6133C111.936 60.6953 111.689 59.9857 111.246 59.4844C110.803 58.9766 110.204 58.7227 109.449 58.7227ZM121.002 59.0547C120.729 59.0091 120.432 58.9863 120.113 58.9863C118.928 58.9863 118.124 59.4909 117.701 60.5V68H115.895V57.4336H117.652L117.682 58.6543C118.274 57.7103 119.114 57.2383 120.201 57.2383C120.553 57.2383 120.82 57.2839 121.002 57.375V59.0547ZM131.617 62.834C131.617 64.4486 131.246 65.7474 130.504 66.7305C129.762 67.707 128.766 68.1953 127.516 68.1953C126.181 68.1953 125.149 67.7233 124.42 66.7793L124.332 68H122.672V53H124.479V58.5957C125.208 57.6908 126.214 57.2383 127.496 57.2383C128.779 57.2383 129.785 57.7233 130.514 58.6934C131.249 59.6634 131.617 60.9915 131.617 62.6777V62.834ZM129.811 62.6289C129.811 61.3984 129.573 60.4479 129.098 59.7773C128.622 59.1068 127.939 58.7715 127.047 58.7715C125.855 58.7715 124.999 59.3249 124.479 60.4316V65.002C125.032 66.1087 125.895 66.6621 127.066 66.6621C127.932 66.6621 128.606 66.3268 129.088 65.6562C129.57 64.9857 129.811 63.9766 129.811 62.6289ZM138.287 68.1953C136.855 68.1953 135.689 67.7266 134.791 66.7891C133.893 65.8451 133.443 64.5853 133.443 63.0098V62.6777C133.443 61.6296 133.642 60.6953 134.039 59.875C134.443 59.0482 135.003 58.4036 135.719 57.9414C136.441 57.4727 137.223 57.2383 138.062 57.2383C139.436 57.2383 140.504 57.6908 141.266 58.5957C142.027 59.5007 142.408 60.7962 142.408 62.4824V63.2344H135.25C135.276 64.276 135.579 65.1191 136.158 65.7637C136.744 66.4017 137.486 66.7207 138.385 66.7207C139.023 66.7207 139.563 66.5905 140.006 66.3301C140.449 66.0697 140.836 65.7246 141.168 65.2949L142.271 66.1543C141.386 67.515 140.058 68.1953 138.287 68.1953ZM138.062 58.7227C137.333 58.7227 136.721 58.9896 136.227 59.5234C135.732 60.0508 135.426 60.793 135.309 61.75H140.602V61.6133C140.549 60.6953 140.302 59.9857 139.859 59.4844C139.417 58.9766 138.818 58.7227 138.062 58.7227ZM146.471 68H144.664V53H146.471V68ZM155.895 68C155.79 67.7917 155.706 67.4206 155.641 66.8867C154.801 67.7591 153.798 68.1953 152.633 68.1953C151.591 68.1953 150.735 67.9023 150.064 67.3164C149.4 66.724 149.068 65.9753 149.068 65.0703C149.068 63.9701 149.485 63.1172 150.318 62.5117C151.158 61.8997 152.337 61.5938 153.854 61.5938H155.611V60.7637C155.611 60.1322 155.423 59.6309 155.045 59.2598C154.667 58.8822 154.111 58.6934 153.375 58.6934C152.73 58.6934 152.19 58.8561 151.754 59.1816C151.318 59.5072 151.1 59.901 151.1 60.3633H149.283C149.283 59.8359 149.469 59.3281 149.84 58.8398C150.217 58.3451 150.725 57.9544 151.363 57.668C152.008 57.3815 152.714 57.2383 153.482 57.2383C154.7 57.2383 155.654 57.5443 156.344 58.1562C157.034 58.7617 157.392 59.5983 157.418 60.666V65.5293C157.418 66.4993 157.542 67.2708 157.789 67.8438V68H155.895ZM152.896 66.623C153.463 66.623 154 66.4766 154.508 66.1836C155.016 65.8906 155.383 65.5098 155.611 65.041V62.873H154.195C151.982 62.873 150.875 63.5208 150.875 64.8164C150.875 65.3828 151.064 65.8255 151.441 66.1445C151.819 66.4635 152.304 66.623 152.896 66.623ZM161.959 57.4336L162.018 58.7617C162.825 57.7461 163.88 57.2383 165.182 57.2383C167.415 57.2383 168.541 58.498 168.561 61.0176V68H166.754V61.0078C166.747 60.2461 166.572 59.6829 166.227 59.3184C165.888 58.9538 165.357 58.7715 164.635 58.7715C164.049 58.7715 163.535 58.9277 163.092 59.2402C162.649 59.5527 162.304 59.9629 162.057 60.4707V68H160.25V57.4336H161.959ZM173.15 57.4336V69.2207C173.15 71.252 172.229 72.2676 170.387 72.2676C169.99 72.2676 169.622 72.209 169.283 72.0918V70.6465C169.492 70.6986 169.765 70.7246 170.104 70.7246C170.507 70.7246 170.813 70.6139 171.021 70.3926C171.236 70.1777 171.344 69.8001 171.344 69.2598V57.4336H173.15ZM171.158 54.6309C171.158 54.3444 171.246 54.1003 171.422 53.8984C171.604 53.6901 171.868 53.5859 172.213 53.5859C172.564 53.5859 172.831 53.6868 173.014 53.8887C173.196 54.0905 173.287 54.3379 173.287 54.6309C173.287 54.9238 173.196 55.168 173.014 55.3633C172.831 55.5586 172.564 55.6562 172.213 55.6562C171.861 55.6562 171.598 55.5586 171.422 55.3633C171.246 55.168 171.158 54.9238 171.158 54.6309ZM182.594 68C182.49 67.7917 182.405 67.4206 182.34 66.8867C181.5 67.7591 180.497 68.1953 179.332 68.1953C178.29 68.1953 177.434 67.9023 176.764 67.3164C176.1 66.724 175.768 65.9753 175.768 65.0703C175.768 63.9701 176.184 63.1172 177.018 62.5117C177.857 61.8997 179.036 61.5938 180.553 61.5938H182.311V60.7637C182.311 60.1322 182.122 59.6309 181.744 59.2598C181.367 58.8822 180.81 58.6934 180.074 58.6934C179.43 58.6934 178.889 58.8561 178.453 59.1816C178.017 59.5072 177.799 59.901 177.799 60.3633H175.982C175.982 59.8359 176.168 59.3281 176.539 58.8398C176.917 58.3451 177.424 57.9544 178.062 57.668C178.707 57.3815 179.413 57.2383 180.182 57.2383C181.399 57.2383 182.353 57.5443 183.043 58.1562C183.733 58.7617 184.091 59.5983 184.117 60.666V65.5293C184.117 66.4993 184.241 67.2708 184.488 67.8438V68H182.594ZM179.596 66.623C180.162 66.623 180.699 66.4766 181.207 66.1836C181.715 65.8906 182.083 65.5098 182.311 65.041V62.873H180.895C178.681 62.873 177.574 63.5208 177.574 64.8164C177.574 65.3828 177.763 65.8255 178.141 66.1445C178.518 66.4635 179.003 66.623 179.596 66.623ZM191.471 62.6289C191.471 61.0078 191.855 59.7057 192.623 58.7227C193.391 57.7331 194.397 57.2383 195.641 57.2383C196.878 57.2383 197.857 57.6615 198.58 58.5078V53H200.387V68H198.727L198.639 66.8672C197.916 67.7526 196.91 68.1953 195.621 68.1953C194.397 68.1953 193.398 67.694 192.623 66.6914C191.855 65.6888 191.471 64.3802 191.471 62.7656V62.6289ZM193.277 62.834C193.277 64.0319 193.525 64.9694 194.02 65.6465C194.514 66.3236 195.198 66.6621 196.07 66.6621C197.216 66.6621 198.053 66.1478 198.58 65.1191V60.2656C198.04 59.2695 197.21 58.7715 196.09 58.7715C195.204 58.7715 194.514 59.1133 194.02 59.7969C193.525 60.4805 193.277 61.4928 193.277 62.834ZM209.723 68C209.618 67.7917 209.534 67.4206 209.469 66.8867C208.629 67.7591 207.626 68.1953 206.461 68.1953C205.419 68.1953 204.563 67.9023 203.893 67.3164C203.229 66.724 202.896 65.9753 202.896 65.0703C202.896 63.9701 203.313 63.1172 204.146 62.5117C204.986 61.8997 206.165 61.5938 207.682 61.5938H209.439V60.7637C209.439 60.1322 209.251 59.6309 208.873 59.2598C208.495 58.8822 207.939 58.6934 207.203 58.6934C206.559 58.6934 206.018 58.8561 205.582 59.1816C205.146 59.5072 204.928 59.901 204.928 60.3633H203.111C203.111 59.8359 203.297 59.3281 203.668 58.8398C204.046 58.3451 204.553 57.9544 205.191 57.668C205.836 57.3815 206.542 57.2383 207.311 57.2383C208.528 57.2383 209.482 57.5443 210.172 58.1562C210.862 58.7617 211.22 59.5983 211.246 60.666V65.5293C211.246 66.4993 211.37 67.2708 211.617 67.8438V68H209.723ZM206.725 66.623C207.291 66.623 207.828 66.4766 208.336 66.1836C208.844 65.8906 209.212 65.5098 209.439 65.041V62.873H208.023C205.81 62.873 204.703 63.5208 204.703 64.8164C204.703 65.3828 204.892 65.8255 205.27 66.1445C205.647 66.4635 206.132 66.623 206.725 66.623ZM215.787 57.4336L215.846 58.7617C216.653 57.7461 217.708 57.2383 219.01 57.2383C221.243 57.2383 222.369 58.498 222.389 61.0176V68H220.582V61.0078C220.576 60.2461 220.4 59.6829 220.055 59.3184C219.716 58.9538 219.186 58.7715 218.463 58.7715C217.877 58.7715 217.363 58.9277 216.92 59.2402C216.477 59.5527 216.132 59.9629 215.885 60.4707V68H214.078V57.4336H215.787ZM232.525 54.875V57.4336H234.498V58.8301H232.525V65.3828C232.525 65.806 232.613 66.125 232.789 66.3398C232.965 66.5482 233.264 66.6523 233.688 66.6523C233.896 66.6523 234.182 66.6133 234.547 66.5352V68C234.072 68.1302 233.609 68.1953 233.16 68.1953C232.353 68.1953 231.744 67.9512 231.334 67.4629C230.924 66.9746 230.719 66.2812 230.719 65.3828V58.8301H228.795V57.4336H230.719V54.875H232.525ZM241.002 68.1953C239.57 68.1953 238.404 67.7266 237.506 66.7891C236.607 65.8451 236.158 64.5853 236.158 63.0098V62.6777C236.158 61.6296 236.357 60.6953 236.754 59.875C237.158 59.0482 237.717 58.4036 238.434 57.9414C239.156 57.4727 239.938 57.2383 240.777 57.2383C242.151 57.2383 243.219 57.6908 243.98 58.5957C244.742 59.5007 245.123 60.7962 245.123 62.4824V63.2344H237.965C237.991 64.276 238.294 65.1191 238.873 65.7637C239.459 66.4017 240.201 66.7207 241.1 66.7207C241.738 66.7207 242.278 66.5905 242.721 66.3301C243.163 66.0697 243.551 65.7246 243.883 65.2949L244.986 66.1543C244.101 67.515 242.773 68.1953 241.002 68.1953ZM240.777 58.7227C240.048 58.7227 239.436 58.9896 238.941 59.5234C238.447 60.0508 238.141 60.793 238.023 61.75H243.316V61.6133C243.264 60.6953 243.017 59.9857 242.574 59.4844C242.132 58.9766 241.533 58.7227 240.777 58.7227ZM248.922 57.4336L248.971 58.6055C249.745 57.694 250.79 57.2383 252.105 57.2383C253.583 57.2383 254.589 57.8047 255.123 58.9375C255.475 58.4297 255.93 58.0195 256.49 57.707C257.057 57.3945 257.724 57.2383 258.492 57.2383C260.81 57.2383 261.988 58.4655 262.027 60.9199V68H260.221V61.0273C260.221 60.2721 260.048 59.709 259.703 59.3379C259.358 58.9603 258.779 58.7715 257.965 58.7715C257.294 58.7715 256.738 58.9733 256.295 59.377C255.852 59.7741 255.595 60.3112 255.523 60.9883V68H253.707V61.0762C253.707 59.5397 252.955 58.7715 251.451 58.7715C250.266 58.7715 249.456 59.276 249.02 60.2852V68H247.213V57.4336H248.922ZM271.285 66.9551C270.582 67.7819 269.55 68.1953 268.189 68.1953C267.063 68.1953 266.204 67.8698 265.611 67.2188C265.025 66.5612 264.729 65.5911 264.723 64.3086V57.4336H266.529V64.2598C266.529 65.8613 267.18 66.6621 268.482 66.6621C269.863 66.6621 270.781 66.1478 271.236 65.1191V57.4336H273.043V68H271.324L271.285 66.9551ZM278.746 63.1074L277.613 64.2891V68H275.807V53H277.613V62.0723L278.58 60.9102L281.871 57.4336H284.068L279.957 61.8477L284.547 68H282.428L278.746 63.1074ZM292.457 68C292.353 67.7917 292.268 67.4206 292.203 66.8867C291.363 67.7591 290.361 68.1953 289.195 68.1953C288.154 68.1953 287.298 67.9023 286.627 67.3164C285.963 66.724 285.631 65.9753 285.631 65.0703C285.631 63.9701 286.048 63.1172 286.881 62.5117C287.721 61.8997 288.899 61.5938 290.416 61.5938H292.174V60.7637C292.174 60.1322 291.985 59.6309 291.607 59.2598C291.23 58.8822 290.673 58.6934 289.938 58.6934C289.293 58.6934 288.753 58.8561 288.316 59.1816C287.88 59.5072 287.662 59.901 287.662 60.3633H285.846C285.846 59.8359 286.031 59.3281 286.402 58.8398C286.78 58.3451 287.288 57.9544 287.926 57.668C288.57 57.3815 289.277 57.2383 290.045 57.2383C291.262 57.2383 292.216 57.5443 292.906 58.1562C293.596 58.7617 293.954 59.5983 293.98 60.666V65.5293C293.98 66.4993 294.104 67.2708 294.352 67.8438V68H292.457ZM289.459 66.623C290.025 66.623 290.562 66.4766 291.07 66.1836C291.578 65.8906 291.946 65.5098 292.174 65.041V62.873H290.758C288.544 62.873 287.438 63.5208 287.438 64.8164C287.438 65.3828 287.626 65.8255 288.004 66.1445C288.382 66.4635 288.867 66.623 289.459 66.623ZM298.521 57.4336L298.58 58.7617C299.387 57.7461 300.442 57.2383 301.744 57.2383C303.977 57.2383 305.104 58.498 305.123 61.0176V68H303.316V61.0078C303.31 60.2461 303.134 59.6829 302.789 59.3184C302.451 58.9538 301.92 58.7715 301.197 58.7715C300.611 58.7715 300.097 58.9277 299.654 59.2402C299.212 59.5527 298.867 59.9629 298.619 60.4707V68H296.812V57.4336H298.521ZM321.754 62.834C321.754 64.4486 321.383 65.7474 320.641 66.7305C319.898 67.707 318.902 68.1953 317.652 68.1953C316.318 68.1953 315.286 67.7233 314.557 66.7793L314.469 68H312.809V53H314.615V58.5957C315.344 57.6908 316.35 57.2383 317.633 57.2383C318.915 57.2383 319.921 57.7233 320.65 58.6934C321.386 59.6634 321.754 60.9915 321.754 62.6777V62.834ZM319.947 62.6289C319.947 61.3984 319.71 60.4479 319.234 59.7773C318.759 59.1068 318.076 58.7715 317.184 58.7715C315.992 58.7715 315.136 59.3249 314.615 60.4316V65.002C315.169 66.1087 316.031 66.6621 317.203 66.6621C318.069 66.6621 318.743 66.3268 319.225 65.6562C319.706 64.9857 319.947 63.9766 319.947 62.6289ZM330.562 68C330.458 67.7917 330.374 67.4206 330.309 66.8867C329.469 67.7591 328.466 68.1953 327.301 68.1953C326.259 68.1953 325.403 67.9023 324.732 67.3164C324.068 66.724 323.736 65.9753 323.736 65.0703C323.736 63.9701 324.153 63.1172 324.986 62.5117C325.826 61.8997 327.005 61.5938 328.521 61.5938H330.279V60.7637C330.279 60.1322 330.09 59.6309 329.713 59.2598C329.335 58.8822 328.779 58.6934 328.043 58.6934C327.398 58.6934 326.858 58.8561 326.422 59.1816C325.986 59.5072 325.768 59.901 325.768 60.3633H323.951C323.951 59.8359 324.137 59.3281 324.508 58.8398C324.885 58.3451 325.393 57.9544 326.031 57.668C326.676 57.3815 327.382 57.2383 328.15 57.2383C329.368 57.2383 330.322 57.5443 331.012 58.1562C331.702 58.7617 332.06 59.5983 332.086 60.666V65.5293C332.086 66.4993 332.21 67.2708 332.457 67.8438V68H330.562ZM327.564 66.623C328.131 66.623 328.668 66.4766 329.176 66.1836C329.684 65.8906 330.051 65.5098 330.279 65.041V62.873H328.863C326.65 62.873 325.543 63.5208 325.543 64.8164C325.543 65.3828 325.732 65.8255 326.109 66.1445C326.487 66.4635 326.972 66.623 327.564 66.623ZM340.025 59.0547C339.752 59.0091 339.456 58.9863 339.137 58.9863C337.952 58.9863 337.148 59.4909 336.725 60.5V68H334.918V57.4336H336.676L336.705 58.6543C337.298 57.7103 338.137 57.2383 339.225 57.2383C339.576 57.2383 339.843 57.2839 340.025 57.375V59.0547ZM347.828 68C347.724 67.7917 347.639 67.4206 347.574 66.8867C346.734 67.7591 345.732 68.1953 344.566 68.1953C343.525 68.1953 342.669 67.9023 341.998 67.3164C341.334 66.724 341.002 65.9753 341.002 65.0703C341.002 63.9701 341.419 63.1172 342.252 62.5117C343.092 61.8997 344.27 61.5938 345.787 61.5938H347.545V60.7637C347.545 60.1322 347.356 59.6309 346.979 59.2598C346.601 58.8822 346.044 58.6934 345.309 58.6934C344.664 58.6934 344.124 58.8561 343.688 59.1816C343.251 59.5072 343.033 59.901 343.033 60.3633H341.217C341.217 59.8359 341.402 59.3281 341.773 58.8398C342.151 58.3451 342.659 57.9544 343.297 57.668C343.941 57.3815 344.648 57.2383 345.416 57.2383C346.633 57.2383 347.587 57.5443 348.277 58.1562C348.967 58.7617 349.326 59.5983 349.352 60.666V65.5293C349.352 66.4993 349.475 67.2708 349.723 67.8438V68H347.828ZM344.83 66.623C345.396 66.623 345.934 66.4766 346.441 66.1836C346.949 65.8906 347.317 65.5098 347.545 65.041V62.873H346.129C343.915 62.873 342.809 63.5208 342.809 64.8164C342.809 65.3828 342.997 65.8255 343.375 66.1445C343.753 66.4635 344.238 66.623 344.83 66.623ZM353.893 57.4336L353.951 58.7617C354.758 57.7461 355.813 57.2383 357.115 57.2383C359.348 57.2383 360.475 58.498 360.494 61.0176V68H358.688V61.0078C358.681 60.2461 358.505 59.6829 358.16 59.3184C357.822 58.9538 357.291 58.7715 356.568 58.7715C355.982 58.7715 355.468 58.9277 355.025 59.2402C354.583 59.5527 354.238 59.9629 353.99 60.4707V68H352.184V57.4336H353.893ZM362.789 62.6289C362.789 60.9818 363.17 59.6732 363.932 58.7031C364.693 57.7266 365.702 57.2383 366.959 57.2383C368.248 57.2383 369.254 57.694 369.977 58.6055L370.064 57.4336H371.715V67.7461C371.715 69.1133 371.308 70.1908 370.494 70.9785C369.687 71.7663 368.6 72.1602 367.232 72.1602C366.471 72.1602 365.725 71.9974 364.996 71.6719C364.267 71.3464 363.71 70.9004 363.326 70.334L364.264 69.25C365.038 70.207 365.986 70.6855 367.105 70.6855C367.984 70.6855 368.668 70.4382 369.156 69.9434C369.651 69.4486 369.898 68.752 369.898 67.8535V66.9453C369.176 67.7786 368.189 68.1953 366.939 68.1953C365.702 68.1953 364.7 67.6973 363.932 66.7012C363.17 65.7051 362.789 64.3477 362.789 62.6289ZM364.605 62.834C364.605 64.0254 364.85 64.9629 365.338 65.6465C365.826 66.3236 366.51 66.6621 367.389 66.6621C368.528 66.6621 369.365 66.1445 369.898 65.1094V60.2852C369.345 59.276 368.515 58.7715 367.408 58.7715C366.529 58.7715 365.842 59.1133 365.348 59.7969C364.853 60.4805 364.605 61.4928 364.605 62.834ZM382.867 65.3535L385.328 57.4336H387.262L383.014 69.6309C382.356 71.3887 381.311 72.2676 379.879 72.2676L379.537 72.2383L378.863 72.1113V70.6465L379.352 70.6855C379.964 70.6855 380.439 70.5618 380.777 70.3145C381.122 70.0671 381.406 69.6146 381.627 68.957L382.027 67.8828L378.258 57.4336H380.23L382.867 65.3535ZM395.25 68C395.146 67.7917 395.061 67.4206 394.996 66.8867C394.156 67.7591 393.154 68.1953 391.988 68.1953C390.947 68.1953 390.09 67.9023 389.42 67.3164C388.756 66.724 388.424 65.9753 388.424 65.0703C388.424 63.9701 388.84 63.1172 389.674 62.5117C390.514 61.8997 391.692 61.5938 393.209 61.5938H394.967V60.7637C394.967 60.1322 394.778 59.6309 394.4 59.2598C394.023 58.8822 393.466 58.6934 392.73 58.6934C392.086 58.6934 391.546 58.8561 391.109 59.1816C390.673 59.5072 390.455 59.901 390.455 60.3633H388.639C388.639 59.8359 388.824 59.3281 389.195 58.8398C389.573 58.3451 390.081 57.9544 390.719 57.668C391.363 57.3815 392.07 57.2383 392.838 57.2383C394.055 57.2383 395.009 57.5443 395.699 58.1562C396.389 58.7617 396.747 59.5983 396.773 60.666V65.5293C396.773 66.4993 396.897 67.2708 397.145 67.8438V68H395.25ZM392.252 66.623C392.818 66.623 393.355 66.4766 393.863 66.1836C394.371 65.8906 394.739 65.5098 394.967 65.041V62.873H393.551C391.337 62.873 390.23 63.5208 390.23 64.8164C390.23 65.3828 390.419 65.8255 390.797 66.1445C391.174 66.4635 391.66 66.623 392.252 66.623ZM401.314 57.4336L401.373 58.7617C402.18 57.7461 403.235 57.2383 404.537 57.2383C406.77 57.2383 407.896 58.498 407.916 61.0176V68H406.109V61.0078C406.103 60.2461 405.927 59.6829 405.582 59.3184C405.243 58.9538 404.713 58.7715 403.99 58.7715C403.404 58.7715 402.89 58.9277 402.447 59.2402C402.005 59.5527 401.66 59.9629 401.412 60.4707V68H399.605V57.4336H401.314ZM410.211 62.6289C410.211 60.9818 410.592 59.6732 411.354 58.7031C412.115 57.7266 413.124 57.2383 414.381 57.2383C415.67 57.2383 416.676 57.694 417.398 58.6055L417.486 57.4336H419.137V67.7461C419.137 69.1133 418.73 70.1908 417.916 70.9785C417.109 71.7663 416.021 72.1602 414.654 72.1602C413.893 72.1602 413.147 71.9974 412.418 71.6719C411.689 71.3464 411.132 70.9004 410.748 70.334L411.686 69.25C412.46 70.207 413.408 70.6855 414.527 70.6855C415.406 70.6855 416.09 70.4382 416.578 69.9434C417.073 69.4486 417.32 68.752 417.32 67.8535V66.9453C416.598 67.7786 415.611 68.1953 414.361 68.1953C413.124 68.1953 412.122 67.6973 411.354 66.7012C410.592 65.7051 410.211 64.3477 410.211 62.6289ZM412.027 62.834C412.027 64.0254 412.271 64.9629 412.76 65.6465C413.248 66.3236 413.932 66.6621 414.811 66.6621C415.95 66.6621 416.786 66.1445 417.32 65.1094V60.2852C416.767 59.276 415.937 58.7715 414.83 58.7715C413.951 58.7715 413.264 59.1133 412.77 59.7969C412.275 60.4805 412.027 61.4928 412.027 62.834ZM429.781 63.1074L428.648 64.2891V68H426.842V53H428.648V62.0723L429.615 60.9102L432.906 57.4336H435.104L430.992 61.8477L435.582 68H433.463L429.781 63.1074ZM443.492 68C443.388 67.7917 443.303 67.4206 443.238 66.8867C442.398 67.7591 441.396 68.1953 440.23 68.1953C439.189 68.1953 438.333 67.9023 437.662 67.3164C436.998 66.724 436.666 65.9753 436.666 65.0703C436.666 63.9701 437.083 63.1172 437.916 62.5117C438.756 61.8997 439.934 61.5938 441.451 61.5938H443.209V60.7637C443.209 60.1322 443.02 59.6309 442.643 59.2598C442.265 58.8822 441.708 58.6934 440.973 58.6934C440.328 58.6934 439.788 58.8561 439.352 59.1816C438.915 59.5072 438.697 59.901 438.697 60.3633H436.881C436.881 59.8359 437.066 59.3281 437.438 58.8398C437.815 58.3451 438.323 57.9544 438.961 57.668C439.605 57.3815 440.312 57.2383 441.08 57.2383C442.298 57.2383 443.251 57.5443 443.941 58.1562C444.632 58.7617 444.99 59.5983 445.016 60.666V65.5293C445.016 66.4993 445.139 67.2708 445.387 67.8438V68H443.492ZM440.494 66.623C441.061 66.623 441.598 66.4766 442.105 66.1836C442.613 65.8906 442.981 65.5098 443.209 65.041V62.873H441.793C439.579 62.873 438.473 63.5208 438.473 64.8164C438.473 65.3828 438.661 65.8255 439.039 66.1445C439.417 66.4635 439.902 66.623 440.494 66.623ZM449.547 57.4336L449.596 58.6055C450.37 57.694 451.415 57.2383 452.73 57.2383C454.208 57.2383 455.214 57.8047 455.748 58.9375C456.1 58.4297 456.555 58.0195 457.115 57.707C457.682 57.3945 458.349 57.2383 459.117 57.2383C461.435 57.2383 462.613 58.4655 462.652 60.9199V68H460.846V61.0273C460.846 60.2721 460.673 59.709 460.328 59.3379C459.983 58.9603 459.404 58.7715 458.59 58.7715C457.919 58.7715 457.363 58.9733 456.92 59.377C456.477 59.7741 456.22 60.3112 456.148 60.9883V68H454.332V61.0762C454.332 59.5397 453.58 58.7715 452.076 58.7715C450.891 58.7715 450.081 59.276 449.645 60.2852V68H447.838V57.4336H449.547ZM471.91 66.9551C471.207 67.7819 470.175 68.1953 468.814 68.1953C467.688 68.1953 466.829 67.8698 466.236 67.2188C465.65 66.5612 465.354 65.5911 465.348 64.3086V57.4336H467.154V64.2598C467.154 65.8613 467.805 66.6621 469.107 66.6621C470.488 66.6621 471.406 66.1478 471.861 65.1191V57.4336H473.668V68H471.949L471.91 66.9551ZM487.535 65.1973C487.535 64.709 487.35 64.3314 486.979 64.0645C486.614 63.791 485.973 63.5566 485.055 63.3613C484.143 63.166 483.417 62.9316 482.877 62.6582C482.343 62.3848 481.946 62.0592 481.686 61.6816C481.432 61.304 481.305 60.8548 481.305 60.334C481.305 59.4681 481.669 58.7357 482.398 58.1367C483.134 57.5378 484.072 57.2383 485.211 57.2383C486.409 57.2383 487.379 57.5475 488.121 58.166C488.87 58.7845 489.244 59.5755 489.244 60.5391H487.428C487.428 60.0443 487.216 59.6178 486.793 59.2598C486.376 58.9017 485.849 58.7227 485.211 58.7227C484.553 58.7227 484.039 58.8659 483.668 59.1523C483.297 59.4388 483.111 59.8132 483.111 60.2754C483.111 60.7116 483.284 61.0404 483.629 61.2617C483.974 61.4831 484.596 61.6947 485.494 61.8965C486.399 62.0983 487.132 62.3392 487.691 62.6191C488.251 62.8991 488.665 63.2376 488.932 63.6348C489.205 64.0254 489.342 64.5039 489.342 65.0703C489.342 66.0143 488.964 66.7728 488.209 67.3457C487.454 67.9121 486.474 68.1953 485.27 68.1953C484.423 68.1953 483.674 68.0456 483.023 67.7461C482.372 67.4466 481.861 67.0299 481.49 66.4961C481.126 65.9557 480.943 65.373 480.943 64.748H482.75C482.783 65.3535 483.023 65.8353 483.473 66.1934C483.928 66.5449 484.527 66.7207 485.27 66.7207C485.953 66.7207 486.5 66.584 486.91 66.3105C487.327 66.0306 487.535 65.6595 487.535 65.1973ZM498.219 66.9551C497.516 67.7819 496.484 68.1953 495.123 68.1953C493.997 68.1953 493.137 67.8698 492.545 67.2188C491.959 66.5612 491.663 65.5911 491.656 64.3086V57.4336H493.463V64.2598C493.463 65.8613 494.114 66.6621 495.416 66.6621C496.796 66.6621 497.714 66.1478 498.17 65.1191V57.4336H499.977V68H498.258L498.219 66.9551ZM505.68 63.1074L504.547 64.2891V68H502.74V53H504.547V62.0723L505.514 60.9102L508.805 57.4336H511.002L506.891 61.8477L511.48 68H509.361L505.68 63.1074ZM519.391 68C519.286 67.7917 519.202 67.4206 519.137 66.8867C518.297 67.7591 517.294 68.1953 516.129 68.1953C515.087 68.1953 514.231 67.9023 513.561 67.3164C512.896 66.724 512.564 65.9753 512.564 65.0703C512.564 63.9701 512.981 63.1172 513.814 62.5117C514.654 61.8997 515.833 61.5938 517.35 61.5938H519.107V60.7637C519.107 60.1322 518.919 59.6309 518.541 59.2598C518.163 58.8822 517.607 58.6934 516.871 58.6934C516.227 58.6934 515.686 58.8561 515.25 59.1816C514.814 59.5072 514.596 59.901 514.596 60.3633H512.779C512.779 59.8359 512.965 59.3281 513.336 58.8398C513.714 58.3451 514.221 57.9544 514.859 57.668C515.504 57.3815 516.21 57.2383 516.979 57.2383C518.196 57.2383 519.15 57.5443 519.84 58.1562C520.53 58.7617 520.888 59.5983 520.914 60.666V65.5293C520.914 66.4993 521.038 67.2708 521.285 67.8438V68H519.391ZM516.393 66.623C516.959 66.623 517.496 66.4766 518.004 66.1836C518.512 65.8906 518.88 65.5098 519.107 65.041V62.873H517.691C515.478 62.873 514.371 63.5208 514.371 64.8164C514.371 65.3828 514.56 65.8255 514.938 66.1445C515.315 66.4635 515.8 66.623 516.393 66.623ZM525.768 63.9863H524.137L524.01 53.7812H525.904L525.768 63.9863ZM523.941 67.0918C523.941 66.7988 524.029 66.5547 524.205 66.3594C524.387 66.1576 524.654 66.0566 525.006 66.0566C525.357 66.0566 525.624 66.1576 525.807 66.3594C525.989 66.5547 526.08 66.7988 526.08 67.0918C526.08 67.3848 525.989 67.6289 525.807 67.8242C525.624 68.013 525.357 68.1074 525.006 68.1074C524.654 68.1074 524.387 68.013 524.205 67.8242C524.029 67.6289 523.941 67.3848 523.941 67.0918ZM530.924 63.9863H529.293L529.166 53.7812H531.061L530.924 63.9863ZM529.098 67.0918C529.098 66.7988 529.186 66.5547 529.361 66.3594C529.544 66.1576 529.811 66.0566 530.162 66.0566C530.514 66.0566 530.781 66.1576 530.963 66.3594C531.145 66.5547 531.236 66.7988 531.236 67.0918C531.236 67.3848 531.145 67.6289 530.963 67.8242C530.781 68.013 530.514 68.1074 530.162 68.1074C529.811 68.1074 529.544 68.013 529.361 67.8242C529.186 67.6289 529.098 67.3848 529.098 67.0918Z" fill="#9C9C9C"/>
</svg>
